M48
;GenerationSoftware,Autodesk,EAGLE,9.7.0*%
;CreationDate,2026-04-21T16:34:57Z*%
FMAT,2
ICI,OFF
METRIC,TZ,000.000
T8C0.200
T7C0.300
T6C0.350
T5C0.559
T4C0.650
T3C0.700
T2C1.067
T1C2.451
%
G90
M71
T1
X44398Y86118
X47403Y91301
X44230Y91195
X47572Y86223
T2
X42376Y89609
X42444Y87578
X47487Y88762
T3
X28098Y92695
X33878Y92735
T4
X35311Y92245
X26642Y96335
X35282Y96395
X26671Y92185
T5
X16225Y65322
X19920Y65341
X27281Y65338
X30977Y65305
X38203Y65314
X41899Y65327
T6
X14555Y90112
X41743Y67892
X19334Y80202
X32094Y71239
X46500Y68700
X33166Y88678
X24640Y69159
X46538Y70997
X9753Y92894
X14842Y91632
X36092Y84070
X42290Y78004
X16397Y87412
X27319Y80342
X29260Y67903
X43065Y93434
X21526Y84000
X40000Y82000
X33689Y83506
X13997Y95117
X14321Y93957
X26299Y68407
X49630Y71084
X51019Y76968
T7
X32319Y76902
X35906Y79321
X33506Y79308
X32306Y79302
X32300Y80502
X33500Y80508
X34700Y80514
X35900Y80521
X34706Y79314
X32313Y78102
X33513Y78108
X34713Y78114
X35913Y78121
X35919Y76921
X34719Y76914
X33519Y76908
T8
X31356Y78696
X19249Y91338
X27348Y81779
X30393Y72771
X25664Y77541
X28649Y79877
X27153Y78885
X28567Y71345
X28116Y83165
X34127Y75953
X30384Y80159
X23541Y83035
X15278Y93612
X38702Y75070
X31764Y86466
X27967Y86500
X28837Y86457
X31301Y81909
X20826Y68779
X37960Y77254
X25716Y74809
X32082Y74639
X32612Y75893
X29716Y77341
X29457Y79444
X35726Y82523
X30112Y82825
X30152Y81599
X28862Y80858
X36125Y74596
X34986Y74673
X31356Y78197
X30207Y78478
X14222Y93015
X13802Y92534
X9553Y90656
X38988Y77720
X19292Y94796
X27178Y82966
X27241Y86163
X25961Y80881
X26247Y76365
X28515Y78630
X30217Y79139
X24826Y77051
X30235Y77305
X48065Y70593
X31352Y77695
X24148Y78649
X29782Y74874
X10223Y89314
X18812Y88781
X30005Y79756
X25212Y78032
X23738Y85681
X40105Y77802
M30