G04 EAGLE Gerber RS-274X export*
G75*
%MOMM*%
%FSLAX34Y34*%
%LPD*%
%INTop Copper*%
%IPPOS*%
%AMOC8*
5,1,8,0,0,1.08239X$1,22.5*%
G01*
G04 Define Apertures*
%ADD10R,1.150000X1.800000*%
%ADD11R,0.280000X0.430000*%
%ADD12R,0.500000X0.600000*%
%ADD13R,0.430000X0.280000*%
%ADD14R,0.600000X0.500000*%
%ADD15R,1.150000X0.800000*%
%ADD16R,1.200000X0.600000*%
%ADD17C,0.200000*%
%ADD18R,0.350000X0.300000*%
%ADD19C,0.250000*%
%ADD20C,0.216000*%
%ADD21R,0.700000X0.300000*%
%ADD22R,1.000000X0.300000*%
%ADD23C,0.783000*%
%ADD24R,0.300000X1.150000*%
%ADD25R,0.600000X1.150000*%
%ADD26C,1.158000*%
%ADD27R,2.200000X1.200000*%
%ADD28R,0.900000X0.800000*%
%ADD29R,1.050000X0.500000*%
%ADD30R,0.350000X0.250000*%
%ADD31R,0.250000X0.350000*%
%ADD32R,1.168400X1.600200*%
%ADD33R,0.711200X1.092200*%
%ADD34R,1.066800X1.066800*%
%ADD35R,1.397000X1.092200*%
%ADD36C,2.000000*%
%ADD37R,4.850000X4.850000*%
%ADD38C,0.808000*%
%ADD39C,0.067500*%
%ADD40R,0.900000X1.300000*%
%ADD41R,0.950000X0.850000*%
%ADD42R,1.000000X1.800000*%
%ADD43C,0.525000*%
%ADD44C,0.152400*%
%ADD45C,0.350000*%
%ADD46C,0.300000*%
%ADD47C,0.304800*%
%ADD48C,0.500000*%
G36*
X155805Y626600D02*
X155507Y626540D01*
X131907Y626540D01*
X131621Y626596D01*
X131368Y626763D01*
X103779Y654353D01*
X103616Y654594D01*
X103556Y654892D01*
X103556Y729198D01*
X103607Y729473D01*
X103770Y729728D01*
X104020Y729900D01*
X104318Y729960D01*
X131347Y729960D01*
X131865Y730478D01*
X132014Y730705D01*
X132266Y730874D01*
X132563Y730931D01*
X137006Y730885D01*
X137091Y738964D01*
X132547Y739012D01*
X132281Y739063D01*
X132025Y739227D01*
X131854Y739477D01*
X131793Y739774D01*
X131793Y756273D01*
X131835Y756522D01*
X131990Y756783D01*
X132234Y756964D01*
X132340Y757013D01*
X132349Y757068D01*
X132349Y860971D01*
X132403Y861253D01*
X132569Y861507D01*
X132821Y861676D01*
X133119Y861733D01*
X138376Y861678D01*
X138460Y869757D01*
X133103Y869813D01*
X132836Y869865D01*
X132581Y870028D01*
X132410Y870278D01*
X132349Y870575D01*
X132349Y870701D01*
X132324Y870807D01*
X132305Y870833D01*
X127862Y875277D01*
X127778Y875330D01*
X127741Y875337D01*
X64140Y876835D01*
X63884Y876886D01*
X63628Y877050D01*
X63457Y877300D01*
X63396Y877597D01*
X63396Y918948D01*
X63401Y919033D01*
X63515Y920045D01*
X63553Y920211D01*
X68617Y934685D01*
X68691Y934838D01*
X76849Y947822D01*
X76956Y947955D01*
X87798Y958798D01*
X87932Y958904D01*
X100915Y967062D01*
X101069Y967136D01*
X115542Y972201D01*
X115709Y972239D01*
X117335Y972422D01*
X117420Y972427D01*
X258985Y972427D01*
X259365Y972325D01*
X259592Y972125D01*
X259723Y971851D01*
X259738Y971548D01*
X259633Y971264D01*
X259450Y970968D01*
X259345Y970783D01*
X259260Y970602D01*
X259194Y970427D01*
X258819Y969332D01*
X258758Y969128D01*
X258716Y968933D01*
X258690Y968748D01*
X258569Y967605D01*
X258553Y967277D01*
X258560Y966289D01*
X258502Y965992D01*
X258094Y965008D01*
X258094Y964055D01*
X274754Y964171D01*
X274754Y965008D01*
X274305Y966092D01*
X274247Y966378D01*
X274240Y967386D01*
X274219Y967714D01*
X274083Y968854D01*
X274050Y969064D01*
X274003Y969258D01*
X273946Y969436D01*
X273556Y970527D01*
X273476Y970724D01*
X273388Y970903D01*
X273293Y971063D01*
X273171Y971255D01*
X273051Y971640D01*
X273102Y971939D01*
X273266Y972195D01*
X273516Y972366D01*
X273813Y972427D01*
X345032Y972427D01*
X345332Y972365D01*
X345582Y972192D01*
X345744Y971936D01*
X345793Y971637D01*
X345722Y971342D01*
X345658Y971205D01*
X345592Y971031D01*
X345217Y969935D01*
X345156Y969731D01*
X345114Y969536D01*
X345088Y969351D01*
X344967Y968208D01*
X344951Y967880D01*
X344958Y966892D01*
X344900Y966595D01*
X344492Y965611D01*
X344492Y964658D01*
X361152Y964774D01*
X361152Y965611D01*
X360703Y966695D01*
X360645Y966982D01*
X360638Y967990D01*
X360617Y968318D01*
X360481Y969457D01*
X360447Y969667D01*
X360401Y969861D01*
X360344Y970039D01*
X359953Y971130D01*
X359863Y971355D01*
X359867Y971356D01*
X359796Y971640D01*
X359847Y971939D01*
X360010Y972195D01*
X360260Y972366D01*
X360557Y972427D01*
X464643Y972427D01*
X464728Y972422D01*
X466354Y972239D01*
X466520Y972201D01*
X480994Y967136D01*
X481147Y967062D01*
X494131Y958904D01*
X494264Y958798D01*
X505107Y947955D01*
X505213Y947822D01*
X513371Y934838D01*
X513445Y934685D01*
X518510Y920211D01*
X518548Y920045D01*
X518784Y917950D01*
X518789Y917865D01*
X518789Y801762D01*
X518737Y801488D01*
X518574Y801232D01*
X518324Y801061D01*
X518027Y801000D01*
X512710Y801000D01*
X512435Y801052D01*
X512180Y801215D01*
X512008Y801465D01*
X511948Y801762D01*
X511948Y818247D01*
X512003Y818533D01*
X512171Y818785D01*
X514137Y820751D01*
X515811Y824794D01*
X515811Y829170D01*
X514137Y833213D01*
X511042Y836308D01*
X506999Y837982D01*
X502623Y837982D01*
X498625Y836326D01*
X498345Y836268D01*
X498047Y836324D01*
X497794Y836491D01*
X483088Y851198D01*
X482930Y851428D01*
X482865Y851724D01*
X482920Y852022D01*
X483088Y852275D01*
X486104Y855292D01*
X487970Y859796D01*
X487970Y864671D01*
X486104Y869176D01*
X482657Y872623D01*
X478153Y874489D01*
X473277Y874489D01*
X468773Y872623D01*
X465761Y869611D01*
X465542Y869458D01*
X465246Y869388D01*
X464947Y869439D01*
X464692Y869602D01*
X464520Y869852D01*
X464460Y870150D01*
X464460Y874464D01*
X464376Y874548D01*
X464213Y874790D01*
X464152Y875087D01*
X464152Y875256D01*
X464195Y875507D01*
X464350Y875768D01*
X464394Y875800D01*
X467370Y878980D01*
X467235Y883050D01*
X464262Y885832D01*
X460193Y885697D01*
X457411Y882724D01*
X457546Y878654D01*
X460387Y875996D01*
X460568Y875736D01*
X460628Y875439D01*
X460628Y873312D01*
X460713Y873228D01*
X460876Y872986D01*
X460936Y872689D01*
X460936Y870888D01*
X460889Y870624D01*
X460730Y870366D01*
X460482Y870191D01*
X460186Y870126D01*
X459888Y870181D01*
X459635Y870349D01*
X453626Y876358D01*
X453479Y876565D01*
X453404Y876859D01*
X453450Y877159D01*
X453609Y877417D01*
X454677Y878559D01*
X454542Y882629D01*
X451569Y885411D01*
X451437Y885407D01*
X451178Y885443D01*
X450914Y885591D01*
X450729Y885831D01*
X450651Y886125D01*
X450695Y886425D01*
X450852Y886684D01*
X451097Y886862D01*
X453112Y887776D01*
X454867Y889651D01*
X455645Y891722D01*
X455778Y891948D01*
X456016Y892135D01*
X456309Y892215D01*
X456610Y892174D01*
X456870Y892019D01*
X457050Y891775D01*
X457120Y891480D01*
X457125Y891348D01*
X460098Y888565D01*
X464167Y888700D01*
X466949Y891673D01*
X466814Y895743D01*
X464432Y897973D01*
X464251Y898232D01*
X464190Y898529D01*
X464190Y903676D01*
X464237Y903939D01*
X464396Y904197D01*
X464644Y904372D01*
X464940Y904438D01*
X465238Y904382D01*
X465491Y904214D01*
X467089Y902617D01*
X471593Y900751D01*
X476469Y900751D01*
X480973Y902617D01*
X484420Y906064D01*
X486286Y910568D01*
X486286Y915444D01*
X484420Y919948D01*
X480973Y923395D01*
X476469Y925261D01*
X471593Y925261D01*
X467089Y923395D01*
X463642Y919948D01*
X461776Y915444D01*
X461776Y911183D01*
X461729Y910920D01*
X461570Y910662D01*
X461322Y910487D01*
X461026Y910422D01*
X460728Y910477D01*
X460475Y910645D01*
X459927Y911192D01*
X459765Y911434D01*
X459704Y911731D01*
X459704Y945809D01*
X459758Y946089D01*
X459923Y946344D01*
X460175Y946513D01*
X463796Y948013D01*
X466891Y951108D01*
X468565Y955151D01*
X468565Y959527D01*
X466891Y963570D01*
X463796Y966664D01*
X459753Y968339D01*
X455377Y968339D01*
X451334Y966664D01*
X448240Y963570D01*
X446565Y959527D01*
X446565Y955151D01*
X447916Y951890D01*
X447974Y951611D01*
X447918Y951312D01*
X447751Y951060D01*
X434315Y937624D01*
X434085Y937466D01*
X433788Y937401D01*
X433490Y937456D01*
X433237Y937624D01*
X432370Y938491D01*
X428933Y938491D01*
X426503Y936061D01*
X426503Y932624D01*
X428933Y930193D01*
X432370Y930193D01*
X433796Y931619D01*
X434037Y931782D01*
X434335Y931842D01*
X435604Y931842D01*
X451286Y947524D01*
X451522Y947684D01*
X451819Y947747D01*
X452117Y947689D01*
X454234Y946812D01*
X454472Y946656D01*
X454644Y946405D01*
X454704Y946108D01*
X454704Y917857D01*
X454659Y917599D01*
X454502Y917340D01*
X454256Y917163D01*
X453960Y917095D01*
X453662Y917149D01*
X453408Y917314D01*
X453238Y917566D01*
X452688Y918895D01*
X449240Y922342D01*
X444736Y924208D01*
X439861Y924208D01*
X435356Y922342D01*
X431909Y918895D01*
X430043Y914391D01*
X430043Y909515D01*
X431909Y905011D01*
X435356Y901564D01*
X437561Y900651D01*
X437763Y900527D01*
X437950Y900289D01*
X438029Y899996D01*
X437989Y899696D01*
X437834Y899435D01*
X437589Y899255D01*
X437294Y899185D01*
X437121Y899179D01*
X437360Y891966D01*
X430147Y891727D01*
X430165Y891205D01*
X431225Y888867D01*
X433100Y887112D01*
X435172Y886334D01*
X435397Y886201D01*
X435584Y885963D01*
X435664Y885670D01*
X435623Y885370D01*
X435468Y885109D01*
X435224Y884929D01*
X434929Y884859D01*
X434797Y884855D01*
X432015Y881882D01*
X432144Y877992D01*
X432088Y877681D01*
X431921Y877428D01*
X431037Y876544D01*
X430812Y876388D01*
X430516Y876321D01*
X430218Y876374D01*
X429963Y876540D01*
X429794Y876791D01*
X428961Y878803D01*
X427460Y880304D01*
X425499Y881116D01*
X423377Y881116D01*
X421416Y880304D01*
X419915Y878803D01*
X419103Y876842D01*
X419103Y874720D01*
X419915Y872759D01*
X421416Y871258D01*
X423377Y870446D01*
X425499Y870446D01*
X427460Y871258D01*
X428544Y872342D01*
X428763Y872495D01*
X429058Y872565D01*
X429357Y872514D01*
X429613Y872351D01*
X429784Y872101D01*
X429845Y871803D01*
X429845Y870708D01*
X429789Y870422D01*
X429621Y870169D01*
X416958Y857506D01*
X416958Y836793D01*
X416903Y836507D01*
X416735Y836254D01*
X415331Y834850D01*
X413656Y830807D01*
X413656Y826431D01*
X415331Y822388D01*
X418425Y819294D01*
X422424Y817637D01*
X422662Y817481D01*
X422834Y817231D01*
X422894Y816933D01*
X422894Y802625D01*
X422838Y802339D01*
X422671Y802087D01*
X421135Y800551D01*
X421135Y784463D01*
X421079Y784177D01*
X420912Y783924D01*
X418748Y781760D01*
X418748Y778323D01*
X421178Y775893D01*
X424616Y775893D01*
X427046Y778323D01*
X427046Y781760D01*
X424882Y783924D01*
X424719Y784166D01*
X424659Y784463D01*
X424659Y798775D01*
X424715Y799061D01*
X424882Y799314D01*
X426418Y800850D01*
X426418Y816933D01*
X426471Y817214D01*
X426637Y817468D01*
X426888Y817637D01*
X430887Y819294D01*
X433981Y822388D01*
X435656Y826431D01*
X435656Y830807D01*
X433981Y834850D01*
X430887Y837944D01*
X426844Y839619D01*
X422468Y839619D01*
X421536Y839233D01*
X421269Y839175D01*
X420970Y839226D01*
X420714Y839390D01*
X420543Y839640D01*
X420482Y839937D01*
X420482Y855731D01*
X420538Y856017D01*
X420705Y856270D01*
X431616Y867180D01*
X431830Y867331D01*
X432124Y867403D01*
X432424Y867354D01*
X432681Y867193D01*
X432854Y866944D01*
X432917Y866647D01*
X432859Y866350D01*
X431728Y863619D01*
X431728Y858743D01*
X433593Y854239D01*
X437041Y850792D01*
X441545Y848926D01*
X446420Y848926D01*
X450924Y850792D01*
X454372Y854239D01*
X456238Y858743D01*
X456238Y863619D01*
X454372Y868123D01*
X450924Y871570D01*
X446420Y873436D01*
X441545Y873436D01*
X437041Y871570D01*
X434669Y869199D01*
X434450Y869046D01*
X434155Y868976D01*
X433856Y869027D01*
X433600Y869190D01*
X433429Y869441D01*
X433369Y869738D01*
X433369Y873576D01*
X433424Y873862D01*
X433592Y874115D01*
X434283Y874807D01*
X434491Y874954D01*
X434785Y875029D01*
X434840Y875021D01*
X439192Y875165D01*
X441974Y878138D01*
X441839Y882207D01*
X438866Y884990D01*
X438734Y884985D01*
X438475Y885021D01*
X438211Y885170D01*
X438026Y885410D01*
X437948Y885703D01*
X437992Y886003D01*
X438149Y886263D01*
X438394Y886441D01*
X440409Y887355D01*
X442164Y889230D01*
X442328Y889667D01*
X442465Y889897D01*
X442705Y890082D01*
X442998Y890160D01*
X443298Y890116D01*
X443558Y889959D01*
X443735Y889714D01*
X443928Y889288D01*
X445803Y887534D01*
X447875Y886755D01*
X448100Y886623D01*
X448287Y886384D01*
X448367Y886091D01*
X448326Y885791D01*
X448171Y885530D01*
X447927Y885350D01*
X447632Y885280D01*
X447500Y885276D01*
X444718Y882303D01*
X444853Y878233D01*
X447826Y875451D01*
X449163Y875496D01*
X449475Y875440D01*
X449727Y875273D01*
X457665Y867335D01*
X457828Y867094D01*
X457888Y866797D01*
X457888Y825333D01*
X480920Y802301D01*
X481073Y802082D01*
X481143Y801787D01*
X481092Y801488D01*
X480929Y801232D01*
X480679Y801061D01*
X480381Y801000D01*
X431702Y801000D01*
X431662Y800995D01*
X431659Y800994D01*
X431650Y800938D01*
X431650Y770743D01*
X431675Y770637D01*
X431694Y770611D01*
X434635Y767670D01*
X434788Y767451D01*
X434858Y767156D01*
X434807Y766857D01*
X434643Y766601D01*
X434393Y766430D01*
X434096Y766369D01*
X429474Y766369D01*
X429174Y766431D01*
X428924Y766604D01*
X428590Y766953D01*
X423462Y767061D01*
X422962Y766581D01*
X422732Y766429D01*
X422435Y766369D01*
X417747Y766368D01*
X417464Y766422D01*
X417210Y766589D01*
X417042Y766841D01*
X416985Y767139D01*
X416989Y767445D01*
X416537Y767909D01*
X416380Y768144D01*
X416320Y768441D01*
X416320Y787393D01*
X409247Y794467D01*
X409084Y794708D01*
X409023Y795005D01*
X409023Y799112D01*
X408438Y799698D01*
X402609Y799698D01*
X402023Y799112D01*
X402023Y792284D01*
X402609Y791698D01*
X406716Y791698D01*
X407002Y791642D01*
X407255Y791475D01*
X412573Y786157D01*
X412736Y785915D01*
X412796Y785618D01*
X412796Y770394D01*
X412741Y770110D01*
X412575Y769857D01*
X412323Y769688D01*
X412025Y769632D01*
X410278Y769653D01*
X410163Y760274D01*
X411853Y760253D01*
X413186Y761554D01*
X413429Y761714D01*
X413727Y761770D01*
X416334Y761738D01*
X416988Y762377D01*
X417138Y762612D01*
X417388Y762783D01*
X417685Y762844D01*
X420469Y762844D01*
X420759Y762787D01*
X421011Y762618D01*
X421177Y762365D01*
X421231Y762066D01*
X421196Y760369D01*
X430574Y760172D01*
X430614Y762099D01*
X430665Y762358D01*
X430829Y762614D01*
X431079Y762785D01*
X431376Y762845D01*
X436485Y762845D01*
X439525Y765885D01*
X439766Y766048D01*
X440064Y766108D01*
X493491Y766108D01*
X493765Y766057D01*
X494021Y765894D01*
X494192Y765644D01*
X494253Y765346D01*
X494253Y765240D01*
X494199Y764960D01*
X494034Y764706D01*
X493782Y764536D01*
X489784Y762880D01*
X486689Y759786D01*
X485275Y756372D01*
X485118Y756133D01*
X484868Y755962D01*
X484571Y755901D01*
X431262Y755901D01*
X430973Y755958D01*
X430721Y756127D01*
X430555Y756381D01*
X430501Y756679D01*
X430542Y758648D01*
X421164Y758845D01*
X421128Y757141D01*
X421236Y756983D01*
X421306Y756688D01*
X421255Y756389D01*
X421092Y756133D01*
X420842Y755962D01*
X420545Y755901D01*
X397830Y755901D01*
X397544Y755957D01*
X397291Y756124D01*
X386871Y766545D01*
X375122Y766545D01*
X374862Y766591D01*
X374604Y766749D01*
X374427Y766995D01*
X374360Y767291D01*
X374414Y767589D01*
X374580Y767843D01*
X375691Y768965D01*
X375685Y769976D01*
X375732Y770243D01*
X375892Y770501D01*
X376139Y770677D01*
X376435Y770742D01*
X376733Y770686D01*
X376986Y770519D01*
X378240Y769265D01*
X380952Y769265D01*
X382870Y771183D01*
X382870Y773895D01*
X380952Y775813D01*
X378240Y775813D01*
X376960Y774532D01*
X376744Y774381D01*
X376449Y774310D01*
X376150Y774359D01*
X375893Y774521D01*
X375721Y774770D01*
X375659Y775067D01*
X375656Y775622D01*
X374517Y776749D01*
X374358Y776978D01*
X374291Y777274D01*
X374345Y777572D01*
X374512Y777826D01*
X375638Y778965D01*
X375630Y780622D01*
X374523Y781717D01*
X374367Y781939D01*
X374297Y782234D01*
X374348Y782533D01*
X374511Y782789D01*
X374761Y782960D01*
X375059Y783021D01*
X378974Y783021D01*
X379260Y782965D01*
X379513Y782797D01*
X379703Y782607D01*
X379866Y782366D01*
X379926Y782069D01*
X379926Y781609D01*
X380512Y781024D01*
X383119Y781024D01*
X383405Y780968D01*
X383658Y780800D01*
X384974Y779484D01*
X386664Y779484D01*
X386664Y788864D01*
X384974Y788864D01*
X383658Y787547D01*
X383416Y787384D01*
X383119Y787324D01*
X380512Y787324D01*
X379957Y786768D01*
X379715Y786605D01*
X379418Y786545D01*
X375017Y786545D01*
X374758Y786590D01*
X374499Y786748D01*
X374322Y786995D01*
X374255Y787291D01*
X374310Y787589D01*
X374476Y787843D01*
X375586Y788965D01*
X375577Y790621D01*
X374439Y791748D01*
X374279Y791978D01*
X374213Y792274D01*
X374267Y792572D01*
X374433Y792826D01*
X375560Y793965D01*
X375552Y795548D01*
X375603Y795826D01*
X375766Y796082D01*
X376016Y796253D01*
X376314Y796314D01*
X391261Y796314D01*
X391536Y796262D01*
X391792Y796099D01*
X391963Y795849D01*
X392023Y795552D01*
X392023Y792284D01*
X392609Y791698D01*
X393133Y791698D01*
X393408Y791647D01*
X393663Y791483D01*
X393835Y791233D01*
X393895Y790936D01*
X393895Y768656D01*
X393839Y768370D01*
X393672Y768117D01*
X393257Y767703D01*
X393257Y762574D01*
X393843Y761988D01*
X396449Y761988D01*
X396735Y761933D01*
X396988Y761765D01*
X398305Y760448D01*
X399995Y760448D01*
X399995Y769828D01*
X398181Y769828D01*
X397906Y769880D01*
X397651Y770043D01*
X397479Y770293D01*
X397419Y770590D01*
X397419Y790936D01*
X397470Y791211D01*
X397634Y791466D01*
X397884Y791638D01*
X398181Y791698D01*
X398438Y791698D01*
X399023Y792284D01*
X399023Y799112D01*
X398438Y799698D01*
X394331Y799698D01*
X394045Y799754D01*
X393918Y799838D01*
X372827Y799838D01*
X372556Y799887D01*
X372300Y800049D01*
X372127Y800299D01*
X372065Y800596D01*
X372060Y801513D01*
X367758Y801490D01*
X367750Y803014D01*
X372433Y803039D01*
X372435Y802659D01*
X372519Y802717D01*
X372816Y802779D01*
X374342Y802787D01*
X374350Y802794D01*
X374594Y802960D01*
X374891Y803020D01*
X399248Y803020D01*
X399534Y802965D01*
X399554Y802951D01*
X405461Y802951D01*
X406206Y803696D01*
X406426Y803849D01*
X406721Y803919D01*
X407020Y803868D01*
X407275Y803705D01*
X407447Y803455D01*
X407507Y803158D01*
X407507Y802899D01*
X408995Y801411D01*
X411785Y801411D01*
X411785Y812491D01*
X408995Y812491D01*
X407507Y811004D01*
X407507Y810745D01*
X407460Y810482D01*
X407301Y810224D01*
X407053Y810048D01*
X406757Y809983D01*
X406459Y810039D01*
X406206Y810206D01*
X405461Y810951D01*
X402524Y810951D01*
X402249Y811003D01*
X401994Y811166D01*
X401822Y811416D01*
X401762Y811713D01*
X401762Y815579D01*
X401818Y815865D01*
X401985Y816118D01*
X404149Y818281D01*
X404149Y821719D01*
X401719Y824149D01*
X398281Y824149D01*
X397012Y822880D01*
X396782Y822722D01*
X396486Y822657D01*
X396187Y822712D01*
X395935Y822880D01*
X394691Y824124D01*
X393001Y824124D01*
X393001Y818672D01*
X391477Y818672D01*
X391477Y824124D01*
X389787Y824124D01*
X388470Y822807D01*
X388228Y822644D01*
X387931Y822584D01*
X385324Y822584D01*
X385320Y822579D01*
X385100Y822426D01*
X384805Y822356D01*
X384506Y822407D01*
X384251Y822570D01*
X384079Y822821D01*
X384019Y823118D01*
X384019Y837350D01*
X384075Y837636D01*
X384242Y837889D01*
X390061Y843708D01*
X390061Y863269D01*
X390061Y863274D01*
X390127Y872694D01*
X390138Y874390D01*
X389023Y875521D01*
X388864Y875759D01*
X388804Y876056D01*
X388804Y878281D01*
X388859Y878567D01*
X389027Y878819D01*
X391237Y881030D01*
X391237Y892829D01*
X388802Y895264D01*
X388699Y895284D01*
X388445Y895449D01*
X388275Y895700D01*
X388217Y895998D01*
X388266Y903057D01*
X387684Y903647D01*
X377356Y903719D01*
X376606Y902979D01*
X376385Y902827D01*
X376090Y902760D01*
X375791Y902813D01*
X375537Y902978D01*
X375367Y903229D01*
X375309Y903527D01*
X375311Y903785D01*
X373833Y905283D01*
X368793Y905318D01*
X368741Y897767D01*
X360689Y897823D01*
X360657Y893283D01*
X361965Y891957D01*
X362126Y891714D01*
X362184Y891417D01*
X362133Y884066D01*
X362077Y883785D01*
X361910Y883532D01*
X354577Y876200D01*
X354337Y876037D01*
X354040Y875977D01*
X348920Y875968D01*
X348335Y875381D01*
X348340Y872774D01*
X348285Y872488D01*
X348118Y872235D01*
X346803Y870916D01*
X346806Y869226D01*
X352258Y869235D01*
X352261Y867711D01*
X346809Y867702D01*
X346812Y866012D01*
X348302Y864526D01*
X348799Y864527D01*
X349077Y864475D01*
X349332Y864311D01*
X349503Y864060D01*
X349562Y863763D01*
X349501Y863466D01*
X349328Y863216D01*
X347776Y861723D01*
X347723Y858933D01*
X358801Y858720D01*
X358854Y861510D01*
X357395Y863026D01*
X355065Y863071D01*
X354818Y863117D01*
X354559Y863276D01*
X354383Y863523D01*
X354318Y863819D01*
X354373Y864118D01*
X354540Y864371D01*
X356192Y866028D01*
X356191Y866232D01*
X356238Y866497D01*
X356397Y866755D01*
X356645Y866930D01*
X356941Y866995D01*
X357239Y866940D01*
X357492Y866772D01*
X366439Y857825D01*
X366602Y857583D01*
X366663Y857286D01*
X366663Y840336D01*
X366616Y840073D01*
X366456Y839815D01*
X366209Y839639D01*
X365913Y839574D01*
X365615Y839630D01*
X365362Y839797D01*
X365292Y839867D01*
X365129Y840109D01*
X365069Y840406D01*
X365069Y842422D01*
X362639Y844853D01*
X360622Y844853D01*
X360336Y844908D01*
X360083Y845076D01*
X357286Y847874D01*
X357117Y848129D01*
X357063Y848427D01*
X357110Y850904D01*
X356380Y851663D01*
X356231Y851885D01*
X356167Y852182D01*
X356223Y852480D01*
X356392Y852732D01*
X356645Y852898D01*
X356943Y852953D01*
X357202Y852948D01*
X358718Y854407D01*
X358771Y857197D01*
X347693Y857409D01*
X347640Y854620D01*
X349099Y853104D01*
X349357Y853099D01*
X349620Y853047D01*
X349874Y852882D01*
X350045Y852632D01*
X350105Y852334D01*
X350043Y852037D01*
X349871Y851788D01*
X349112Y851057D01*
X349077Y849226D01*
X349030Y848977D01*
X348870Y848719D01*
X348623Y848544D01*
X348327Y848478D01*
X348029Y848534D01*
X347776Y848702D01*
X347321Y849156D01*
X345631Y849156D01*
X345631Y839776D01*
X347321Y839776D01*
X348809Y841264D01*
X348809Y843871D01*
X348866Y844159D01*
X349034Y844411D01*
X349288Y844578D01*
X349586Y844633D01*
X353224Y844563D01*
X353495Y844507D01*
X353748Y844340D01*
X356548Y841540D01*
X356711Y841299D01*
X356771Y841002D01*
X356771Y838819D01*
X356720Y838544D01*
X356556Y838288D01*
X356306Y838117D01*
X356009Y838057D01*
X354805Y838057D01*
X354805Y834129D01*
X357983Y834129D01*
X357983Y835933D01*
X358030Y836197D01*
X358189Y836455D01*
X358437Y836630D01*
X358733Y836695D01*
X359031Y836640D01*
X359159Y836555D01*
X360163Y836555D01*
X360437Y836504D01*
X360693Y836340D01*
X360864Y836090D01*
X360925Y835793D01*
X360925Y828282D01*
X360878Y828019D01*
X360718Y827761D01*
X360471Y827585D01*
X360175Y827520D01*
X359877Y827576D01*
X359624Y827743D01*
X359618Y827749D01*
X359421Y827787D01*
X359169Y827955D01*
X358618Y828506D01*
X358164Y828506D01*
X357901Y828553D01*
X357643Y828712D01*
X357467Y828959D01*
X357402Y829255D01*
X357458Y829554D01*
X357625Y829806D01*
X357983Y830164D01*
X357983Y832605D01*
X354805Y832605D01*
X354805Y828404D01*
X354934Y828223D01*
X354999Y827927D01*
X354943Y827629D01*
X354776Y827376D01*
X353988Y826588D01*
X353988Y823875D01*
X354880Y822983D01*
X355031Y822767D01*
X355103Y822473D01*
X355053Y822173D01*
X354891Y821917D01*
X354642Y821744D01*
X354345Y821682D01*
X354232Y821682D01*
X353942Y821737D01*
X353689Y821905D01*
X350928Y824666D01*
X350765Y824907D01*
X350705Y825205D01*
X350705Y827915D01*
X350756Y828189D01*
X350920Y828445D01*
X351170Y828616D01*
X351467Y828677D01*
X353281Y828677D01*
X353281Y838057D01*
X351591Y838057D01*
X350274Y836740D01*
X350033Y836577D01*
X349735Y836517D01*
X347129Y836517D01*
X346543Y835931D01*
X346543Y830802D01*
X346958Y830388D01*
X347121Y830146D01*
X347181Y829849D01*
X347181Y823429D01*
X347735Y822875D01*
X347892Y822648D01*
X347958Y822353D01*
X347904Y822054D01*
X347738Y821800D01*
X346459Y820508D01*
X346230Y820349D01*
X345934Y820282D01*
X345635Y820336D01*
X345382Y820503D01*
X344243Y821629D01*
X342586Y821621D01*
X341459Y820482D01*
X341230Y820323D01*
X340934Y820256D01*
X340635Y820310D01*
X340382Y820476D01*
X339243Y821603D01*
X337586Y821595D01*
X336459Y820456D01*
X336230Y820297D01*
X335934Y820230D01*
X335635Y820284D01*
X335382Y820450D01*
X334243Y821577D01*
X332765Y821569D01*
X332487Y821621D01*
X332231Y821784D01*
X332060Y822034D01*
X331999Y822331D01*
X331999Y824911D01*
X327297Y824911D01*
X327297Y826435D01*
X331999Y826435D01*
X331999Y828875D01*
X330511Y830363D01*
X328942Y830363D01*
X328679Y830410D01*
X328421Y830570D01*
X328245Y830817D01*
X328180Y831113D01*
X328236Y831411D01*
X328403Y831664D01*
X331443Y834704D01*
X331663Y834857D01*
X331958Y834927D01*
X332257Y834876D01*
X332512Y834713D01*
X332684Y834463D01*
X332744Y834165D01*
X332744Y833337D01*
X335175Y830907D01*
X338612Y830907D01*
X341042Y833337D01*
X341042Y836397D01*
X341098Y836683D01*
X341265Y836936D01*
X341531Y837202D01*
X341531Y839014D01*
X341582Y839289D01*
X341746Y839544D01*
X341996Y839716D01*
X342293Y839776D01*
X344107Y839776D01*
X344107Y849156D01*
X342417Y849156D01*
X341100Y847839D01*
X340859Y847676D01*
X340561Y847616D01*
X337955Y847616D01*
X337587Y847248D01*
X337356Y847090D01*
X337060Y847025D01*
X336762Y847080D01*
X336509Y847248D01*
X334933Y848823D01*
X334769Y849069D01*
X334710Y849366D01*
X334731Y853442D01*
X334149Y854030D01*
X327320Y854066D01*
X326732Y853483D01*
X326701Y847655D01*
X327284Y847066D01*
X331417Y847045D01*
X331698Y846989D01*
X331951Y846822D01*
X332483Y846290D01*
X333683Y845089D01*
X333846Y844848D01*
X333907Y844551D01*
X333907Y842467D01*
X333851Y842181D01*
X333683Y841928D01*
X327287Y835531D01*
X327067Y835378D01*
X326772Y835308D01*
X326473Y835359D01*
X326218Y835523D01*
X326046Y835773D01*
X325986Y836070D01*
X325986Y844977D01*
X324891Y846072D01*
X324728Y846313D01*
X324668Y846611D01*
X324668Y869216D01*
X324719Y869491D01*
X324882Y869746D01*
X325132Y869918D01*
X325430Y869978D01*
X325820Y869978D01*
X326406Y870564D01*
X326406Y877392D01*
X325820Y877978D01*
X319991Y877978D01*
X319406Y877392D01*
X319406Y870564D01*
X319991Y869978D01*
X320382Y869978D01*
X320656Y869927D01*
X320912Y869764D01*
X321083Y869513D01*
X321144Y869216D01*
X321144Y867627D01*
X321097Y867364D01*
X320937Y867105D01*
X320690Y866930D01*
X320394Y866865D01*
X320096Y866921D01*
X319843Y867088D01*
X319001Y867930D01*
X317387Y867930D01*
X317131Y867974D01*
X316871Y868131D01*
X316693Y868376D01*
X316625Y868672D01*
X316306Y880853D01*
X315705Y881423D01*
X308879Y881244D01*
X308104Y880427D01*
X307877Y880263D01*
X307583Y880190D01*
X307283Y880238D01*
X307026Y880399D01*
X306209Y881175D01*
X299383Y880996D01*
X298607Y880178D01*
X298380Y880014D01*
X298086Y879941D01*
X297787Y879989D01*
X297529Y880150D01*
X296712Y880926D01*
X289886Y880747D01*
X289316Y880146D01*
X289617Y868623D01*
X289566Y868328D01*
X289403Y868073D01*
X289153Y867901D01*
X288856Y867841D01*
X287010Y867841D01*
X285092Y865923D01*
X285092Y863211D01*
X287020Y861283D01*
X287173Y861064D01*
X287242Y860768D01*
X287191Y860469D01*
X287028Y860214D01*
X286778Y860042D01*
X286481Y859982D01*
X280700Y859982D01*
X280114Y859396D01*
X280114Y846790D01*
X280058Y846504D01*
X279891Y846251D01*
X276668Y843028D01*
X276668Y836422D01*
X276612Y836136D01*
X276445Y835884D01*
X274830Y834268D01*
X274830Y829167D01*
X274780Y828896D01*
X274618Y828640D01*
X274369Y828467D01*
X274072Y828405D01*
X273590Y828403D01*
X272280Y827079D01*
X272039Y826915D01*
X271743Y826853D01*
X268736Y826837D01*
X267991Y826084D01*
X267746Y825918D01*
X267449Y825858D01*
X267343Y825858D01*
X267070Y825909D01*
X266814Y826072D01*
X266642Y826321D01*
X266611Y826474D01*
X262279Y826466D01*
X262272Y830796D01*
X262141Y830820D01*
X261886Y830983D01*
X261714Y831233D01*
X261654Y831531D01*
X261654Y841167D01*
X261710Y841453D01*
X261877Y841706D01*
X262303Y842131D01*
X262545Y842294D01*
X262842Y842354D01*
X265905Y842354D01*
X266491Y842940D01*
X266491Y848769D01*
X265746Y849514D01*
X265593Y849733D01*
X265523Y850028D01*
X265574Y850327D01*
X265737Y850583D01*
X265987Y850754D01*
X266285Y850814D01*
X266543Y850814D01*
X268031Y852302D01*
X268031Y855092D01*
X261729Y855092D01*
X261729Y860894D01*
X258315Y860894D01*
X258041Y860946D01*
X257785Y861109D01*
X257614Y861359D01*
X257553Y861656D01*
X257553Y881512D01*
X257607Y881792D01*
X257772Y882046D01*
X258024Y882216D01*
X262007Y883866D01*
X265101Y886960D01*
X266776Y891003D01*
X266776Y895379D01*
X265101Y899422D01*
X262007Y902516D01*
X257964Y904191D01*
X253588Y904191D01*
X249545Y902516D01*
X246451Y899422D01*
X245100Y896161D01*
X244943Y895923D01*
X244693Y895751D01*
X244396Y895691D01*
X232378Y895691D01*
X232092Y895747D01*
X231839Y895914D01*
X164555Y963198D01*
X164393Y963438D01*
X164332Y963735D01*
X164327Y966807D01*
X163740Y967392D01*
X156912Y967380D01*
X156144Y966610D01*
X155902Y966446D01*
X155605Y966386D01*
X137028Y966386D01*
X127265Y956623D01*
X127038Y956467D01*
X126743Y956400D01*
X126444Y956454D01*
X126190Y956620D01*
X125480Y957324D01*
X125480Y957324D01*
X124664Y958131D01*
X123931Y958864D01*
X122897Y958859D01*
X116588Y958859D01*
X109136Y951407D01*
X108917Y951254D01*
X108622Y951184D01*
X108323Y951235D01*
X108067Y951398D01*
X107896Y951649D01*
X107893Y951664D01*
X107250Y952307D01*
X101421Y952307D01*
X100676Y951562D01*
X100457Y951409D01*
X100162Y951340D01*
X99863Y951390D01*
X99607Y951554D01*
X99436Y951804D01*
X99376Y952101D01*
X99376Y952359D01*
X97888Y953847D01*
X95098Y953847D01*
X95098Y942767D01*
X97888Y942767D01*
X99376Y944255D01*
X99376Y944514D01*
X99422Y944777D01*
X99582Y945035D01*
X99829Y945210D01*
X100125Y945275D01*
X100423Y945220D01*
X100676Y945052D01*
X101421Y944307D01*
X107250Y944307D01*
X107836Y944893D01*
X107836Y945045D01*
X107887Y945320D01*
X108050Y945576D01*
X108300Y945747D01*
X108598Y945807D01*
X110608Y945807D01*
X115042Y950242D01*
X115258Y950393D01*
X115553Y950464D01*
X115852Y950415D01*
X116108Y950253D01*
X116281Y950004D01*
X116343Y949707D01*
X116352Y947948D01*
X117848Y946468D01*
X119538Y946477D01*
X119509Y951929D01*
X121033Y951937D01*
X121062Y946485D01*
X122752Y946494D01*
X124062Y947817D01*
X124303Y947982D01*
X124599Y948043D01*
X127206Y948057D01*
X127616Y948472D01*
X127860Y948637D01*
X128158Y948698D01*
X136261Y948698D01*
X136547Y948642D01*
X136800Y948474D01*
X138249Y947026D01*
X141686Y947026D01*
X144116Y949456D01*
X144116Y952893D01*
X141686Y955324D01*
X138249Y955324D01*
X136845Y953921D01*
X136604Y953758D01*
X136307Y953698D01*
X133250Y953698D01*
X132987Y953744D01*
X132729Y953904D01*
X132554Y954151D01*
X132488Y954447D01*
X132544Y954745D01*
X132712Y954998D01*
X138876Y961163D01*
X139117Y961325D01*
X139415Y961386D01*
X155600Y961386D01*
X155884Y961331D01*
X156138Y961164D01*
X157083Y960221D01*
X157237Y960002D01*
X157307Y959707D01*
X157257Y959408D01*
X157094Y959152D01*
X156844Y958980D01*
X156547Y958919D01*
X156289Y958919D01*
X154803Y957428D01*
X154808Y954638D01*
X161110Y954649D01*
X161120Y948847D01*
X164410Y948853D01*
X165896Y950343D01*
X165891Y952950D01*
X165938Y953215D01*
X166097Y953473D01*
X166345Y953648D01*
X166641Y953713D01*
X166939Y953658D01*
X167192Y953490D01*
X173700Y946982D01*
X173853Y946763D01*
X173923Y946468D01*
X173872Y946169D01*
X173804Y946062D01*
X174182Y946062D01*
X174182Y940903D01*
X178665Y940903D01*
X178666Y940904D01*
X178913Y941080D01*
X179209Y941145D01*
X179508Y941089D01*
X179760Y940922D01*
X229991Y890691D01*
X244396Y890691D01*
X244676Y890638D01*
X244930Y890472D01*
X245100Y890221D01*
X246451Y886960D01*
X249545Y883866D01*
X252083Y882814D01*
X252321Y882658D01*
X252493Y882408D01*
X252553Y882110D01*
X252553Y852186D01*
X252511Y851937D01*
X252357Y851676D01*
X252113Y851495D01*
X251818Y851425D01*
X251519Y851475D01*
X251263Y851637D01*
X249861Y852986D01*
X247072Y852932D01*
X247284Y841855D01*
X250074Y841908D01*
X251242Y843122D01*
X251472Y843286D01*
X251767Y843355D01*
X252066Y843305D01*
X252321Y843141D01*
X252493Y842891D01*
X252553Y842594D01*
X252553Y830471D01*
X252502Y830196D01*
X252339Y829941D01*
X252088Y829769D01*
X251791Y829709D01*
X249879Y829709D01*
X249640Y829660D01*
X245563Y829660D01*
X245288Y829711D01*
X245032Y829875D01*
X244861Y830125D01*
X244801Y830422D01*
X244801Y841059D01*
X244847Y841320D01*
X245005Y841579D01*
X245252Y841755D01*
X245548Y841821D01*
X245761Y841825D01*
X245548Y852903D01*
X242758Y852850D01*
X241299Y851333D01*
X241304Y851075D01*
X241262Y850811D01*
X241108Y850550D01*
X240864Y850370D01*
X240569Y850299D01*
X240270Y850349D01*
X240014Y850512D01*
X239255Y851242D01*
X233427Y851130D01*
X232853Y850533D01*
X232886Y848836D01*
X232839Y848558D01*
X232679Y848300D01*
X232432Y848124D01*
X232136Y848059D01*
X231838Y848115D01*
X231585Y848282D01*
X220388Y859479D01*
X220225Y859722D01*
X220165Y860019D01*
X220172Y864117D01*
X219588Y864704D01*
X213759Y864714D01*
X213172Y864129D01*
X213160Y857301D01*
X213745Y856714D01*
X217862Y856707D01*
X218147Y856651D01*
X218400Y856484D01*
X228353Y846531D01*
X228516Y846289D01*
X228576Y845992D01*
X228576Y827313D01*
X228605Y827173D01*
X228605Y758378D01*
X228551Y758097D01*
X228385Y757843D01*
X228134Y757674D01*
X227836Y757616D01*
X226357Y757629D01*
X226260Y746549D01*
X227685Y746537D01*
X227942Y746490D01*
X228200Y746330D01*
X228375Y746083D01*
X228441Y745787D01*
X228385Y745489D01*
X228217Y745236D01*
X227440Y744458D01*
X227202Y744297D01*
X226905Y744235D01*
X226608Y744294D01*
X226357Y744464D01*
X225582Y745255D01*
X225432Y745475D01*
X225365Y745771D01*
X225418Y746069D01*
X225487Y746175D01*
X224733Y746181D01*
X224836Y758023D01*
X225138Y758020D01*
X225085Y758099D01*
X225025Y758396D01*
X225025Y786661D01*
X221039Y790647D01*
X220871Y790901D01*
X220816Y791199D01*
X220941Y798392D01*
X220366Y798987D01*
X211539Y799142D01*
X210943Y798566D01*
X210728Y786240D01*
X211303Y785644D01*
X218799Y785513D01*
X219072Y785457D01*
X219325Y785290D01*
X219801Y784813D01*
X219964Y784571D01*
X220025Y784274D01*
X220025Y781841D01*
X219975Y781570D01*
X219813Y781314D01*
X219563Y781141D01*
X219267Y781079D01*
X217164Y781068D01*
X217195Y775266D01*
X210893Y775233D01*
X210907Y772443D01*
X212403Y770963D01*
X212661Y770964D01*
X212925Y770919D01*
X213184Y770761D01*
X213360Y770514D01*
X213427Y770219D01*
X213373Y769920D01*
X213207Y769666D01*
X212466Y768918D01*
X212487Y764842D01*
X212431Y764552D01*
X212264Y764299D01*
X211886Y763921D01*
X211644Y763758D01*
X211347Y763698D01*
X203881Y763698D01*
X203607Y763749D01*
X203351Y763912D01*
X203179Y764162D01*
X203119Y764459D01*
X203115Y766492D01*
X197313Y766482D01*
X197310Y768006D01*
X203112Y768016D01*
X203107Y771306D01*
X202369Y772042D01*
X202213Y772267D01*
X202145Y772562D01*
X202198Y772861D01*
X202363Y773115D01*
X202614Y773285D01*
X202912Y773343D01*
X203641Y773338D01*
X205139Y774816D01*
X205162Y778106D01*
X199360Y778146D01*
X199404Y784448D01*
X196614Y784468D01*
X195116Y782990D01*
X195114Y782732D01*
X195065Y782469D01*
X194904Y782212D01*
X194655Y782038D01*
X194359Y781975D01*
X194061Y782033D01*
X193809Y782202D01*
X193069Y782952D01*
X187241Y782993D01*
X186651Y782411D01*
X186645Y781492D01*
X186594Y781222D01*
X186430Y780967D01*
X186180Y780795D01*
X185883Y780735D01*
X179828Y780735D01*
X173039Y773946D01*
X172797Y773783D01*
X172500Y773723D01*
X171414Y773723D01*
X171143Y773773D01*
X170887Y773935D01*
X170714Y774184D01*
X170652Y774481D01*
X170711Y774778D01*
X170770Y774866D01*
X170790Y776712D01*
X158711Y776838D01*
X158692Y775048D01*
X159995Y773718D01*
X160155Y773474D01*
X160212Y773176D01*
X160186Y770670D01*
X160233Y770623D01*
X160388Y770391D01*
X160450Y770094D01*
X160391Y769796D01*
X160221Y769545D01*
X160174Y769499D01*
X160134Y765670D01*
X160180Y765623D01*
X160336Y765391D01*
X160398Y765094D01*
X160339Y764796D01*
X160169Y764545D01*
X160121Y764499D01*
X160081Y760671D01*
X160128Y760623D01*
X160283Y760391D01*
X160345Y760094D01*
X160287Y759797D01*
X160117Y759546D01*
X160069Y759499D01*
X160029Y755671D01*
X160075Y755623D01*
X160231Y755391D01*
X160293Y755094D01*
X160234Y754797D01*
X160064Y754546D01*
X160017Y754499D01*
X159977Y750671D01*
X160023Y750624D01*
X160179Y750392D01*
X160241Y750095D01*
X160182Y749797D01*
X160012Y749546D01*
X159964Y749500D01*
X159924Y745671D01*
X159971Y745624D01*
X160126Y745392D01*
X160188Y745095D01*
X160130Y744797D01*
X159959Y744546D01*
X159912Y744500D01*
X159873Y740820D01*
X159818Y740542D01*
X159650Y740289D01*
X135616Y716255D01*
X135375Y716092D01*
X135077Y716032D01*
X131874Y716032D01*
X128973Y713130D01*
X128736Y712969D01*
X128439Y712907D01*
X123098Y712870D01*
X122516Y712280D01*
X122564Y705452D01*
X123154Y704870D01*
X128982Y704911D01*
X129722Y705661D01*
X129940Y705815D01*
X130235Y705887D01*
X130534Y705838D01*
X130791Y705677D01*
X130964Y705428D01*
X131026Y705131D01*
X131028Y704873D01*
X132526Y703395D01*
X135316Y703415D01*
X135272Y709717D01*
X141074Y709757D01*
X141051Y713047D01*
X139755Y714325D01*
X139593Y714560D01*
X139528Y714856D01*
X139584Y715154D01*
X139751Y715407D01*
X164157Y739812D01*
X164406Y739978D01*
X164704Y740035D01*
X168279Y739998D01*
X168871Y740578D01*
X168910Y744284D01*
X168961Y744551D01*
X169125Y744807D01*
X169375Y744978D01*
X169672Y745038D01*
X169923Y745038D01*
X170209Y744983D01*
X170462Y744815D01*
X185436Y729841D01*
X185588Y729624D01*
X185659Y729329D01*
X185609Y729030D01*
X185447Y728774D01*
X185379Y728703D01*
X185548Y719876D01*
X186145Y719302D01*
X198471Y719539D01*
X199046Y720136D01*
X198876Y728962D01*
X198279Y729537D01*
X193239Y729440D01*
X192938Y729495D01*
X192685Y729663D01*
X184480Y737869D01*
X184325Y738092D01*
X184257Y738387D01*
X184309Y738686D01*
X184474Y738941D01*
X184725Y739111D01*
X185022Y739169D01*
X190017Y739143D01*
X190766Y739884D01*
X190987Y740036D01*
X191282Y740104D01*
X191581Y740052D01*
X191835Y739887D01*
X192006Y739636D01*
X192064Y739339D01*
X192063Y739081D01*
X193543Y737585D01*
X196333Y737570D01*
X196391Y748650D01*
X193601Y748665D01*
X192105Y747185D01*
X192104Y746926D01*
X192056Y746663D01*
X191895Y746406D01*
X191647Y746232D01*
X191350Y746168D01*
X191052Y746226D01*
X190800Y746394D01*
X190059Y747143D01*
X184231Y747174D01*
X183642Y746591D01*
X183641Y746417D01*
X183590Y746146D01*
X183427Y745890D01*
X183177Y745719D01*
X182879Y745659D01*
X177005Y745659D01*
X176719Y745714D01*
X176467Y745882D01*
X172873Y749475D01*
X172720Y749695D01*
X172650Y749990D01*
X172701Y750289D01*
X172864Y750544D01*
X173114Y750716D01*
X173412Y750776D01*
X198257Y750776D01*
X198543Y750721D01*
X198796Y750553D01*
X199411Y749938D01*
X199566Y749715D01*
X199634Y749419D01*
X199582Y749121D01*
X199417Y748866D01*
X199166Y748696D01*
X198868Y748637D01*
X197915Y748642D01*
X197890Y743864D01*
X202168Y743842D01*
X202176Y745338D01*
X202223Y745597D01*
X202382Y745855D01*
X202629Y746031D01*
X202926Y746096D01*
X203224Y746040D01*
X203477Y745873D01*
X207734Y741616D01*
X207899Y741367D01*
X207957Y741069D01*
X207914Y737014D01*
X208494Y736422D01*
X214322Y736361D01*
X215075Y737098D01*
X215296Y737249D01*
X215592Y737316D01*
X215890Y737262D01*
X216144Y737095D01*
X216313Y736844D01*
X216370Y736546D01*
X216367Y736287D01*
X217839Y734784D01*
X220629Y734755D01*
X220695Y741056D01*
X222219Y741040D01*
X222153Y734739D01*
X224690Y734712D01*
X224956Y734661D01*
X225212Y734498D01*
X225383Y734248D01*
X225444Y733950D01*
X225444Y730806D01*
X225398Y730545D01*
X225239Y730286D01*
X224992Y730110D01*
X224696Y730044D01*
X220947Y729972D01*
X220372Y729375D01*
X220542Y720548D01*
X221139Y719974D01*
X224015Y720029D01*
X224305Y719978D01*
X224560Y719815D01*
X224732Y719564D01*
X224792Y719267D01*
X224792Y711271D01*
X224741Y710997D01*
X224577Y710741D01*
X224327Y710570D01*
X224030Y710509D01*
X220390Y710509D01*
X219804Y709924D01*
X219804Y701095D01*
X220390Y700509D01*
X232718Y700509D01*
X233304Y701095D01*
X233304Y709924D01*
X232718Y710509D01*
X229078Y710509D01*
X228803Y710561D01*
X228548Y710724D01*
X228376Y710974D01*
X228316Y711271D01*
X228316Y719364D01*
X228362Y719625D01*
X228521Y719884D01*
X228767Y720060D01*
X229063Y720126D01*
X233465Y720211D01*
X234039Y720807D01*
X233870Y729634D01*
X233273Y730209D01*
X229744Y730141D01*
X229455Y730192D01*
X229200Y730355D01*
X229028Y730606D01*
X228968Y730903D01*
X228968Y740687D01*
X229023Y740973D01*
X229191Y741226D01*
X232129Y744164D01*
X232129Y827154D01*
X232176Y827417D01*
X232335Y827676D01*
X232582Y827851D01*
X232879Y827916D01*
X233177Y827860D01*
X233430Y827693D01*
X234050Y827072D01*
X234438Y827072D01*
X234713Y827021D01*
X234968Y826858D01*
X235139Y826608D01*
X235200Y826310D01*
X235200Y817732D01*
X235134Y817423D01*
X234958Y817176D01*
X234269Y816530D01*
X234158Y813203D01*
X234687Y812639D01*
X234837Y812403D01*
X234892Y812105D01*
X234827Y811809D01*
X234651Y811561D01*
X234086Y811033D01*
X233976Y807706D01*
X234658Y806978D01*
X234786Y806896D01*
X234957Y806646D01*
X235017Y806349D01*
X235017Y733078D01*
X237725Y730371D01*
X237888Y730129D01*
X237948Y729832D01*
X237948Y681789D01*
X260384Y659353D01*
X260547Y659111D01*
X260607Y658814D01*
X260607Y658426D01*
X261372Y657661D01*
X261535Y657420D01*
X261595Y657123D01*
X261595Y656461D01*
X261540Y656175D01*
X261372Y655922D01*
X256473Y651023D01*
X256232Y650861D01*
X255934Y650800D01*
X243251Y650800D01*
X242965Y650856D01*
X242712Y651023D01*
X241395Y652340D01*
X235263Y652340D01*
X235263Y631258D01*
X241395Y631258D01*
X242712Y632575D01*
X242953Y632738D01*
X243251Y632798D01*
X255997Y632798D01*
X256583Y633384D01*
X256583Y645834D01*
X256639Y646120D01*
X256806Y646373D01*
X265183Y654750D01*
X265409Y654906D01*
X265705Y654973D01*
X266003Y654920D01*
X266257Y654754D01*
X266426Y654502D01*
X266484Y654205D01*
X266427Y647683D01*
X266836Y647268D01*
X266996Y647025D01*
X267054Y646727D01*
X267031Y644109D01*
X266975Y643829D01*
X266808Y643577D01*
X266269Y643038D01*
X266269Y627302D01*
X266218Y627027D01*
X266055Y626772D01*
X265805Y626600D01*
X265507Y626540D01*
X206555Y626540D01*
X206281Y626591D01*
X206025Y626755D01*
X205854Y627005D01*
X205793Y627302D01*
X205793Y643038D01*
X205175Y643656D01*
X205014Y643894D01*
X204952Y644191D01*
X204938Y646743D01*
X204993Y647029D01*
X205159Y647283D01*
X205568Y647697D01*
X205508Y659193D01*
X204919Y659776D01*
X201553Y659758D01*
X201278Y659808D01*
X201022Y659970D01*
X200849Y660219D01*
X200787Y660516D01*
X200757Y666183D01*
X193900Y666147D01*
X193854Y674910D01*
X190008Y674890D01*
X189544Y674421D01*
X189314Y674262D01*
X189018Y674195D01*
X188720Y674249D01*
X188466Y674415D01*
X188013Y674863D01*
X173215Y674786D01*
X172632Y674197D01*
X172638Y673052D01*
X172593Y672788D01*
X172435Y672529D01*
X172188Y672353D01*
X171892Y672286D01*
X171594Y672340D01*
X171340Y672506D01*
X170590Y673248D01*
X169182Y673241D01*
X168903Y673292D01*
X168648Y673455D01*
X168476Y673706D01*
X168416Y674003D01*
X168416Y674030D01*
X168472Y674316D01*
X168639Y674569D01*
X176645Y682575D01*
X176887Y682738D01*
X177184Y682799D01*
X187453Y682799D01*
X190461Y685807D01*
X190703Y685969D01*
X191000Y686030D01*
X205077Y686030D01*
X205362Y685974D01*
X205615Y685807D01*
X206904Y684518D01*
X209616Y684518D01*
X211534Y686436D01*
X211534Y689148D01*
X209616Y691066D01*
X206904Y691066D01*
X205615Y689777D01*
X205374Y689614D01*
X205077Y689554D01*
X189225Y689554D01*
X186217Y686546D01*
X185975Y686383D01*
X185678Y686323D01*
X175409Y686323D01*
X166576Y677490D01*
X166346Y677332D01*
X166050Y677267D01*
X165751Y677322D01*
X165499Y677490D01*
X158140Y684848D01*
X157977Y685090D01*
X157917Y685387D01*
X157917Y686672D01*
X157973Y686958D01*
X158140Y687211D01*
X159457Y688528D01*
X159457Y690068D01*
X150877Y690068D01*
X150877Y688528D01*
X152194Y687211D01*
X152357Y686969D01*
X152417Y686672D01*
X152417Y683666D01*
X153003Y683080D01*
X154609Y683080D01*
X154895Y683024D01*
X155148Y682857D01*
X163496Y674509D01*
X163647Y674293D01*
X163719Y673998D01*
X163669Y673699D01*
X163507Y673443D01*
X163258Y673270D01*
X162961Y673208D01*
X162650Y673207D01*
X162067Y672618D01*
X162129Y660867D01*
X162144Y660853D01*
X162298Y660634D01*
X162369Y660339D01*
X162320Y660040D01*
X162158Y659784D01*
X161909Y659611D01*
X161612Y659549D01*
X156468Y659522D01*
X155885Y658933D01*
X155945Y647437D01*
X156359Y647027D01*
X156523Y646787D01*
X156585Y646490D01*
X156600Y643688D01*
X156544Y643398D01*
X156376Y643145D01*
X156269Y643038D01*
X156269Y627302D01*
X156218Y627027D01*
X156055Y626772D01*
X155805Y626600D01*
G37*
%LPC*%
G36*
X191564Y944682D02*
X194276Y944682D01*
X196194Y946600D01*
X196194Y948423D01*
X196250Y948709D01*
X196418Y948962D01*
X201446Y953990D01*
X201688Y954153D01*
X201985Y954213D01*
X204923Y954213D01*
X205097Y954193D01*
X205373Y954067D01*
X205577Y953843D01*
X207370Y950847D01*
X210883Y948238D01*
X215127Y947172D01*
X219457Y947811D01*
X223212Y950058D01*
X225821Y953571D01*
X226887Y957815D01*
X226248Y962145D01*
X224000Y965900D01*
X220487Y968509D01*
X216243Y969575D01*
X211914Y968936D01*
X208159Y966688D01*
X205550Y963175D01*
X204484Y958931D01*
X204531Y958611D01*
X204488Y958225D01*
X204324Y957969D01*
X204074Y957798D01*
X203777Y957737D01*
X200210Y957737D01*
X193926Y951453D01*
X193684Y951291D01*
X193387Y951230D01*
X191564Y951230D01*
X189646Y949312D01*
X189646Y946600D01*
X191564Y944682D01*
G37*
G36*
X369260Y956183D02*
X381038Y956183D01*
X381038Y967961D01*
X379306Y967961D01*
X374697Y966052D01*
X371169Y962524D01*
X369260Y957915D01*
X369260Y956183D01*
G37*
G36*
X382562Y956183D02*
X394340Y956183D01*
X394340Y957915D01*
X392431Y962524D01*
X388903Y966052D01*
X384294Y967961D01*
X382562Y967961D01*
X382562Y956183D01*
G37*
G36*
X353590Y963197D02*
X353666Y952185D01*
X354353Y952267D01*
X354563Y952301D01*
X354757Y952347D01*
X354935Y952404D01*
X356026Y952795D01*
X356223Y952874D01*
X356402Y952962D01*
X356562Y953057D01*
X357540Y953681D01*
X357714Y953802D01*
X357869Y953928D01*
X358004Y954057D01*
X358818Y954882D01*
X358961Y955039D01*
X359084Y955196D01*
X359187Y955351D01*
X359797Y956337D01*
X359902Y956522D01*
X359986Y956703D01*
X360053Y956877D01*
X360428Y957973D01*
X360489Y958177D01*
X360531Y958372D01*
X360557Y958557D01*
X360677Y959700D01*
X360694Y960028D01*
X360687Y961016D01*
X360745Y961313D01*
X361152Y962297D01*
X361152Y963250D01*
X353590Y963197D01*
G37*
G36*
X351453Y952247D02*
X352142Y952175D01*
X352066Y963187D01*
X344492Y963134D01*
X344492Y962297D01*
X344941Y961212D01*
X344999Y960926D01*
X345006Y959918D01*
X345027Y959590D01*
X345164Y958451D01*
X345197Y958241D01*
X345244Y958047D01*
X345300Y957869D01*
X345691Y956778D01*
X345770Y956581D01*
X345859Y956402D01*
X345954Y956241D01*
X346577Y955265D01*
X346698Y955090D01*
X346824Y954935D01*
X346953Y954800D01*
X347778Y953986D01*
X347935Y953843D01*
X348092Y953721D01*
X348248Y953617D01*
X349233Y953007D01*
X349418Y952903D01*
X349599Y952818D01*
X349773Y952751D01*
X350869Y952377D01*
X351073Y952315D01*
X351268Y952273D01*
X351453Y952247D01*
G37*
G36*
X267192Y962594D02*
X267268Y951582D01*
X267955Y951664D01*
X268165Y951698D01*
X268359Y951744D01*
X268537Y951801D01*
X269629Y952192D01*
X269825Y952271D01*
X270004Y952359D01*
X270165Y952454D01*
X271141Y953078D01*
X271316Y953199D01*
X271471Y953325D01*
X271607Y953454D01*
X272420Y954278D01*
X272563Y954436D01*
X272686Y954593D01*
X272790Y954749D01*
X273399Y955733D01*
X273504Y955919D01*
X273588Y956100D01*
X273655Y956274D01*
X274030Y957370D01*
X274091Y957574D01*
X274133Y957768D01*
X274159Y957954D01*
X274280Y959096D01*
X274296Y959425D01*
X274289Y960413D01*
X274347Y960710D01*
X274754Y961694D01*
X274754Y962647D01*
X267192Y962594D01*
G37*
G36*
X265055Y951644D02*
X265745Y951571D01*
X265668Y962583D01*
X258094Y962531D01*
X258094Y961694D01*
X258544Y960609D01*
X258602Y960323D01*
X258609Y959315D01*
X258629Y958987D01*
X258766Y957848D01*
X258799Y957638D01*
X258846Y957444D01*
X258902Y957266D01*
X259293Y956175D01*
X259372Y955978D01*
X259461Y955799D01*
X259556Y955638D01*
X260179Y954662D01*
X260300Y954487D01*
X260427Y954332D01*
X260555Y954196D01*
X261380Y953383D01*
X261537Y953240D01*
X261694Y953117D01*
X261850Y953013D01*
X262835Y952404D01*
X263020Y952299D01*
X263201Y952215D01*
X263375Y952148D01*
X264471Y951773D01*
X264675Y951712D01*
X264870Y951670D01*
X265055Y951644D01*
G37*
G36*
X379306Y942881D02*
X381038Y942881D01*
X381038Y954659D01*
X369260Y954659D01*
X369260Y952926D01*
X371169Y948317D01*
X374697Y944790D01*
X379306Y942881D01*
G37*
G36*
X382562Y942881D02*
X384294Y942881D01*
X388903Y944790D01*
X392431Y948317D01*
X394340Y952926D01*
X394340Y954659D01*
X382562Y954659D01*
X382562Y942881D01*
G37*
G36*
X89296Y949069D02*
X93574Y949069D01*
X93574Y953847D01*
X90783Y953847D01*
X89296Y952359D01*
X89296Y949069D01*
G37*
G36*
X399162Y941852D02*
X410940Y941852D01*
X410940Y953630D01*
X409207Y953630D01*
X404598Y951721D01*
X401071Y948194D01*
X399162Y943585D01*
X399162Y941852D01*
G37*
G36*
X412464Y941852D02*
X424242Y941852D01*
X424242Y943585D01*
X422333Y948194D01*
X418805Y951721D01*
X414196Y953630D01*
X412464Y953630D01*
X412464Y941852D01*
G37*
G36*
X154816Y950324D02*
X156306Y948839D01*
X159596Y948845D01*
X159589Y953123D01*
X154811Y953114D01*
X154816Y950324D01*
G37*
G36*
X90783Y942767D02*
X93574Y942767D01*
X93574Y947545D01*
X89296Y947545D01*
X89296Y944255D01*
X90783Y942767D01*
G37*
G36*
X151424Y932843D02*
X154136Y932843D01*
X156054Y934761D01*
X156054Y935540D01*
X156110Y935826D01*
X156277Y936079D01*
X157617Y937418D01*
X157858Y937581D01*
X158156Y937641D01*
X159158Y937641D01*
X159432Y937590D01*
X159688Y937427D01*
X159859Y937177D01*
X159920Y936879D01*
X159920Y936727D01*
X160505Y936141D01*
X166334Y936141D01*
X167079Y936886D01*
X167298Y937039D01*
X167593Y937109D01*
X167892Y937058D01*
X168148Y936895D01*
X168319Y936645D01*
X168380Y936348D01*
X168380Y936089D01*
X169867Y934601D01*
X172658Y934601D01*
X172658Y945681D01*
X169867Y945681D01*
X168380Y944194D01*
X168380Y943935D01*
X168333Y943672D01*
X168173Y943414D01*
X167926Y943238D01*
X167630Y943173D01*
X167332Y943229D01*
X167079Y943396D01*
X166334Y944141D01*
X160505Y944141D01*
X159920Y943556D01*
X159920Y943403D01*
X159868Y943129D01*
X159705Y942873D01*
X159455Y942702D01*
X159158Y942641D01*
X155769Y942641D01*
X152742Y939614D01*
X152500Y939451D01*
X152203Y939391D01*
X151424Y939391D01*
X149506Y937473D01*
X149506Y934761D01*
X151424Y932843D01*
G37*
G36*
X162253Y869976D02*
X165691Y869976D01*
X168121Y872406D01*
X168121Y875844D01*
X165691Y878274D01*
X163674Y878274D01*
X163388Y878330D01*
X163135Y878497D01*
X154479Y887153D01*
X154321Y887384D01*
X154256Y887680D01*
X154312Y887978D01*
X154479Y888231D01*
X161830Y895582D01*
X161830Y902712D01*
X161886Y902998D01*
X162054Y903251D01*
X170376Y911573D01*
X170617Y911736D01*
X170914Y911796D01*
X173977Y911796D01*
X174722Y912541D01*
X174942Y912694D01*
X175237Y912764D01*
X175536Y912713D01*
X175791Y912550D01*
X175963Y912300D01*
X176023Y912003D01*
X176023Y911744D01*
X177511Y910256D01*
X180301Y910256D01*
X180301Y921336D01*
X177511Y921336D01*
X176023Y919848D01*
X176023Y919590D01*
X175976Y919327D01*
X175817Y919069D01*
X175570Y918893D01*
X175273Y918828D01*
X174975Y918884D01*
X174722Y919051D01*
X173977Y919796D01*
X168149Y919796D01*
X167563Y919211D01*
X167563Y916148D01*
X167508Y915862D01*
X167340Y915609D01*
X159815Y908083D01*
X159584Y907925D01*
X159288Y907860D01*
X158990Y907916D01*
X158737Y908083D01*
X152792Y914029D01*
X152629Y914270D01*
X152569Y914568D01*
X152569Y918034D01*
X150138Y920464D01*
X148122Y920464D01*
X147836Y920520D01*
X147583Y920687D01*
X146670Y921600D01*
X140749Y921600D01*
X140485Y921647D01*
X140227Y921806D01*
X140052Y922054D01*
X139987Y922350D01*
X140042Y922648D01*
X140210Y922901D01*
X141296Y923988D01*
X141296Y926113D01*
X141348Y926388D01*
X141511Y926643D01*
X141761Y926815D01*
X142058Y926875D01*
X143577Y926875D01*
X145495Y928793D01*
X145495Y931505D01*
X143577Y933423D01*
X142439Y933423D01*
X142175Y933470D01*
X141917Y933629D01*
X141742Y933877D01*
X141677Y934173D01*
X141732Y934471D01*
X141900Y934724D01*
X142376Y935200D01*
X142617Y935362D01*
X142914Y935423D01*
X144931Y935423D01*
X147361Y937853D01*
X147361Y941290D01*
X144931Y943721D01*
X141494Y943721D01*
X139063Y941290D01*
X139063Y939582D01*
X139012Y939307D01*
X138849Y939052D01*
X138598Y938880D01*
X138301Y938820D01*
X131457Y938820D01*
X130460Y937823D01*
X130219Y937660D01*
X129921Y937600D01*
X122237Y937600D01*
X120773Y936136D01*
X120773Y934035D01*
X120717Y933749D01*
X120549Y933496D01*
X119653Y932600D01*
X119653Y931862D01*
X124035Y931862D01*
X124035Y930338D01*
X119653Y930338D01*
X119653Y929583D01*
X119772Y929408D01*
X119837Y929112D01*
X119782Y928814D01*
X119653Y928619D01*
X119653Y927862D01*
X124035Y927862D01*
X124035Y926338D01*
X119653Y926338D01*
X119653Y925624D01*
X119601Y925349D01*
X119438Y925094D01*
X119188Y924922D01*
X118891Y924862D01*
X105175Y924862D01*
X104889Y924918D01*
X104637Y925085D01*
X104467Y925255D01*
X101545Y925255D01*
X101281Y925302D01*
X101023Y925462D01*
X100848Y925709D01*
X100783Y926005D01*
X100838Y926303D01*
X101006Y926556D01*
X101675Y927225D01*
X101675Y930662D01*
X99244Y933092D01*
X95807Y933092D01*
X93377Y930662D01*
X93377Y927225D01*
X94041Y926561D01*
X94199Y926330D01*
X94264Y926034D01*
X94208Y925736D01*
X94041Y925483D01*
X83768Y915211D01*
X83511Y915041D01*
X83212Y914988D01*
X67876Y915336D01*
X67277Y914764D01*
X66986Y901938D01*
X67558Y901340D01*
X87706Y900882D01*
X87952Y900836D01*
X88210Y900676D01*
X88385Y900429D01*
X88450Y900133D01*
X88395Y899835D01*
X88227Y899582D01*
X83302Y894656D01*
X83044Y894487D01*
X82746Y894433D01*
X67409Y894781D01*
X66810Y894209D01*
X66519Y881384D01*
X67091Y880785D01*
X89914Y880267D01*
X90513Y880839D01*
X90804Y893664D01*
X90232Y894263D01*
X89726Y894275D01*
X89480Y894321D01*
X89222Y894481D01*
X89047Y894728D01*
X88982Y895024D01*
X89037Y895323D01*
X89205Y895575D01*
X91168Y897539D01*
X91410Y897702D01*
X91666Y897754D01*
X97296Y903383D01*
X97351Y903666D01*
X97518Y903919D01*
X98807Y905208D01*
X98807Y907920D01*
X96889Y909838D01*
X94177Y909838D01*
X92445Y908106D01*
X92210Y907946D01*
X91913Y907883D01*
X91615Y907941D01*
X91364Y908110D01*
X91198Y908364D01*
X91144Y908662D01*
X91270Y914219D01*
X90698Y914818D01*
X90193Y914829D01*
X89947Y914876D01*
X89689Y915036D01*
X89513Y915283D01*
X89448Y915579D01*
X89504Y915877D01*
X89671Y916130D01*
X98112Y924571D01*
X98354Y924734D01*
X98651Y924794D01*
X98790Y924794D01*
X99065Y924743D01*
X99321Y924580D01*
X99492Y924329D01*
X99552Y924032D01*
X99552Y921341D01*
X100099Y920794D01*
X100257Y920564D01*
X100322Y920268D01*
X100267Y919969D01*
X100099Y919717D01*
X99552Y919170D01*
X99552Y915841D01*
X100247Y915146D01*
X100410Y914905D01*
X100471Y914607D01*
X100471Y896327D01*
X100415Y896041D01*
X100247Y895788D01*
X98959Y894499D01*
X98959Y891787D01*
X100876Y889869D01*
X103589Y889869D01*
X105507Y891787D01*
X105507Y894499D01*
X104218Y895788D01*
X104055Y896029D01*
X103995Y896327D01*
X103995Y914493D01*
X104046Y914768D01*
X104209Y915024D01*
X104290Y915079D01*
X105052Y915841D01*
X105052Y919170D01*
X104505Y919717D01*
X104347Y919947D01*
X104282Y920243D01*
X104338Y920541D01*
X104505Y920794D01*
X104826Y921115D01*
X105068Y921278D01*
X105365Y921338D01*
X120729Y921338D01*
X120993Y921291D01*
X121251Y921132D01*
X121426Y920884D01*
X121491Y920588D01*
X121436Y920290D01*
X121268Y920037D01*
X121193Y919962D01*
X121193Y918239D01*
X121215Y918216D01*
X121378Y917975D01*
X121438Y917677D01*
X121438Y903994D01*
X121373Y903684D01*
X121197Y903437D01*
X121023Y903275D01*
X120880Y898949D01*
X121446Y898344D01*
X124772Y898234D01*
X125337Y898762D01*
X125573Y898912D01*
X125871Y898968D01*
X126167Y898902D01*
X126414Y898726D01*
X126943Y898162D01*
X130269Y898051D01*
X130874Y898617D01*
X130874Y898625D01*
X130925Y898874D01*
X131089Y899130D01*
X131339Y899301D01*
X131636Y899362D01*
X141134Y899362D01*
X141420Y899306D01*
X141673Y899138D01*
X143836Y896975D01*
X147274Y896975D01*
X148980Y898681D01*
X149202Y898835D01*
X149497Y898904D01*
X149796Y898852D01*
X150051Y898687D01*
X150221Y898437D01*
X150281Y898139D01*
X150279Y897754D01*
X151762Y896261D01*
X153452Y896255D01*
X153471Y901707D01*
X154995Y901702D01*
X154975Y895869D01*
X154239Y895871D01*
X154289Y895801D01*
X154354Y895505D01*
X154298Y895207D01*
X154131Y894954D01*
X148150Y888973D01*
X147945Y888827D01*
X147651Y888751D01*
X147390Y888737D01*
X147101Y888778D01*
X146840Y888932D01*
X145456Y890178D01*
X143768Y890090D01*
X144259Y880723D01*
X145947Y880811D01*
X147193Y882195D01*
X147426Y882370D01*
X147720Y882446D01*
X150322Y882582D01*
X150570Y882857D01*
X150828Y883044D01*
X151124Y883109D01*
X151422Y883054D01*
X151675Y882886D01*
X159600Y874962D01*
X159763Y874720D01*
X159823Y874423D01*
X159823Y872406D01*
X162253Y869976D01*
G37*
G36*
X409207Y928550D02*
X410940Y928550D01*
X410940Y940328D01*
X399162Y940328D01*
X399162Y938596D01*
X401071Y933987D01*
X404598Y930459D01*
X409207Y928550D01*
G37*
G36*
X412464Y928550D02*
X414196Y928550D01*
X418805Y930459D01*
X422333Y933987D01*
X424242Y938596D01*
X424242Y940328D01*
X412464Y940328D01*
X412464Y928550D01*
G37*
G36*
X174182Y934601D02*
X176972Y934601D01*
X178460Y936089D01*
X178460Y939379D01*
X174182Y939379D01*
X174182Y934601D01*
G37*
G36*
X353781Y935734D02*
X353869Y923222D01*
X361442Y923275D01*
X361442Y924112D01*
X360993Y925196D01*
X360935Y925483D01*
X360917Y927991D01*
X360896Y928319D01*
X360760Y929458D01*
X360727Y929668D01*
X360680Y929862D01*
X360623Y930040D01*
X360233Y931131D01*
X360154Y931328D01*
X360065Y931507D01*
X359970Y931668D01*
X359347Y932644D01*
X359226Y932819D01*
X359099Y932973D01*
X358971Y933109D01*
X358146Y933922D01*
X357989Y934066D01*
X357832Y934188D01*
X357676Y934292D01*
X356691Y934902D01*
X356506Y935006D01*
X356325Y935091D01*
X356151Y935157D01*
X355055Y935532D01*
X354850Y935593D01*
X354656Y935635D01*
X354470Y935661D01*
X353781Y935734D01*
G37*
G36*
X278314Y861723D02*
X281026Y861723D01*
X282944Y863640D01*
X282944Y866353D01*
X282393Y866903D01*
X282230Y867145D01*
X282170Y867442D01*
X282170Y873543D01*
X279226Y876487D01*
X279069Y876715D01*
X279003Y877011D01*
X279057Y877310D01*
X279126Y877415D01*
X278516Y877422D01*
X278635Y887183D01*
X277305Y887199D01*
X277040Y887250D01*
X276784Y887414D01*
X276613Y887664D01*
X276553Y887961D01*
X276553Y896669D01*
X276608Y896955D01*
X276776Y897208D01*
X280494Y900926D01*
X280714Y901079D01*
X281009Y901149D01*
X281308Y901098D01*
X281563Y900935D01*
X281735Y900685D01*
X281795Y900387D01*
X281795Y900067D01*
X281753Y899817D01*
X281598Y899556D01*
X281414Y899420D01*
X280751Y898708D01*
X280856Y895703D01*
X280810Y895416D01*
X280651Y895157D01*
X279381Y893795D01*
X279435Y892256D01*
X288391Y892569D01*
X288408Y892070D01*
X288485Y892128D01*
X288779Y892201D01*
X289079Y892153D01*
X289336Y891992D01*
X289598Y891743D01*
X296602Y891927D01*
X296889Y891879D01*
X297146Y891718D01*
X298497Y890436D01*
X301786Y890522D01*
X301543Y899821D01*
X303066Y899861D01*
X303310Y890562D01*
X306599Y890648D01*
X307881Y891999D01*
X308118Y892168D01*
X308413Y892236D01*
X315418Y892419D01*
X315988Y893020D01*
X315649Y905953D01*
X315591Y906218D01*
X315647Y906516D01*
X315814Y906769D01*
X318539Y909494D01*
X318776Y909655D01*
X319073Y909717D01*
X319427Y909719D01*
X319609Y909848D01*
X319905Y909918D01*
X320203Y909867D01*
X320459Y909703D01*
X320630Y909453D01*
X320691Y909156D01*
X320691Y906112D01*
X320642Y905843D01*
X320481Y905586D01*
X320232Y905413D01*
X320145Y905394D01*
X319522Y904760D01*
X319549Y901754D01*
X319495Y901468D01*
X319330Y901213D01*
X318025Y899885D01*
X318038Y898345D01*
X326618Y898420D01*
X326604Y899960D01*
X325276Y901265D01*
X325111Y901505D01*
X325048Y901802D01*
X325022Y904808D01*
X324443Y905378D01*
X324275Y905624D01*
X324215Y905921D01*
X324215Y909240D01*
X324269Y909521D01*
X324434Y909775D01*
X324461Y909802D01*
X324690Y909961D01*
X324986Y910028D01*
X325284Y909975D01*
X325538Y909809D01*
X325586Y909762D01*
X329414Y909789D01*
X329461Y909836D01*
X329690Y909996D01*
X329986Y910063D01*
X330284Y910010D01*
X330538Y909844D01*
X330586Y909797D01*
X332675Y909812D01*
X332955Y909761D01*
X333211Y909597D01*
X333382Y909347D01*
X333442Y909050D01*
X333442Y902546D01*
X335130Y900858D01*
X338132Y897856D01*
X338290Y897626D01*
X338355Y897330D01*
X338299Y897031D01*
X338132Y896779D01*
X332501Y891148D01*
X332260Y890985D01*
X331963Y890925D01*
X329946Y890925D01*
X327516Y888494D01*
X327516Y885057D01*
X329946Y882627D01*
X333383Y882627D01*
X335814Y885057D01*
X335814Y887074D01*
X335869Y887360D01*
X336037Y887613D01*
X341286Y892862D01*
X341528Y893025D01*
X341825Y893085D01*
X346998Y893085D01*
X347743Y893830D01*
X347963Y893983D01*
X348258Y894053D01*
X348557Y894002D01*
X348812Y893838D01*
X348984Y893588D01*
X349044Y893291D01*
X349044Y893033D01*
X350532Y891545D01*
X353322Y891545D01*
X353322Y902625D01*
X350532Y902625D01*
X349044Y901137D01*
X349044Y900879D01*
X348997Y900615D01*
X348838Y900357D01*
X348590Y900182D01*
X348294Y900117D01*
X347996Y900172D01*
X347743Y900340D01*
X346998Y901085D01*
X342290Y901085D01*
X342004Y901141D01*
X341751Y901308D01*
X338666Y904394D01*
X338503Y904635D01*
X338442Y904932D01*
X338442Y907556D01*
X338492Y907825D01*
X338653Y908082D01*
X338902Y908255D01*
X339199Y908317D01*
X341248Y908332D01*
X341185Y917384D01*
X342709Y917394D01*
X342772Y908342D01*
X346062Y908365D01*
X347540Y909864D01*
X347540Y909869D01*
X347641Y910254D01*
X347842Y910482D01*
X348115Y910613D01*
X348418Y910627D01*
X348702Y910522D01*
X349533Y910008D01*
X349718Y909904D01*
X349899Y909819D01*
X350073Y909753D01*
X351169Y909378D01*
X351374Y909317D01*
X351568Y909274D01*
X351753Y909248D01*
X352443Y909176D01*
X352257Y935724D01*
X351570Y935641D01*
X351360Y935608D01*
X351166Y935561D01*
X350989Y935505D01*
X349897Y935114D01*
X349701Y935035D01*
X349522Y934946D01*
X349361Y934851D01*
X348384Y934228D01*
X348210Y934107D01*
X348055Y933981D01*
X347919Y933852D01*
X347106Y933027D01*
X346962Y932870D01*
X346840Y932713D01*
X346736Y932557D01*
X346127Y931572D01*
X346022Y931387D01*
X345937Y931206D01*
X345871Y931032D01*
X345496Y929936D01*
X345435Y929732D01*
X345393Y929537D01*
X345367Y929352D01*
X345246Y928209D01*
X345230Y927881D01*
X345245Y925702D01*
X345196Y925427D01*
X345034Y925170D01*
X344785Y924997D01*
X344489Y924935D01*
X343045Y924925D01*
X342765Y924976D01*
X342509Y925139D01*
X342338Y925389D01*
X342277Y925687D01*
X342277Y928805D01*
X340227Y930855D01*
X337328Y930855D01*
X335277Y928805D01*
X335277Y925905D01*
X336539Y924644D01*
X336695Y924418D01*
X336762Y924122D01*
X336708Y923823D01*
X336542Y923570D01*
X336534Y923562D01*
X336294Y923398D01*
X335998Y923335D01*
X330491Y923297D01*
X330445Y923250D01*
X330215Y923090D01*
X329920Y923023D01*
X329621Y923077D01*
X329367Y923242D01*
X329320Y923289D01*
X325491Y923262D01*
X325445Y923215D01*
X325215Y923055D01*
X324920Y922988D01*
X324621Y923042D01*
X324367Y923207D01*
X324320Y923254D01*
X320492Y923227D01*
X320445Y923180D01*
X320215Y923020D01*
X319920Y922953D01*
X319621Y923007D01*
X319367Y923172D01*
X319320Y923219D01*
X315492Y923192D01*
X315445Y923145D01*
X315216Y922985D01*
X314920Y922918D01*
X314621Y922972D01*
X314367Y923138D01*
X314320Y923184D01*
X313933Y923181D01*
X313642Y923237D01*
X313389Y923405D01*
X310592Y926201D01*
X304255Y926201D01*
X301848Y923794D01*
X301809Y923584D01*
X301648Y923328D01*
X301399Y923154D01*
X301102Y923092D01*
X300492Y923088D01*
X300445Y923040D01*
X300216Y922881D01*
X299920Y922814D01*
X299622Y922867D01*
X299368Y923033D01*
X299320Y923079D01*
X295492Y923053D01*
X295445Y923005D01*
X295216Y922846D01*
X294920Y922779D01*
X294622Y922832D01*
X294368Y922998D01*
X294321Y923045D01*
X290492Y923018D01*
X290446Y922970D01*
X290216Y922811D01*
X289920Y922744D01*
X289622Y922797D01*
X289368Y922963D01*
X289321Y923010D01*
X283814Y922971D01*
X283527Y923025D01*
X283273Y923191D01*
X283263Y923202D01*
X283102Y923435D01*
X283036Y923732D01*
X283092Y924030D01*
X283260Y924283D01*
X284479Y925502D01*
X284479Y928401D01*
X282429Y930451D01*
X279529Y930451D01*
X277479Y928401D01*
X277479Y925224D01*
X277429Y924954D01*
X277268Y924697D01*
X277019Y924524D01*
X276722Y924462D01*
X275302Y924452D01*
X275027Y924501D01*
X274770Y924663D01*
X274597Y924912D01*
X274535Y925208D01*
X274519Y927387D01*
X274499Y927715D01*
X274362Y928855D01*
X274329Y929065D01*
X274282Y929259D01*
X274225Y929437D01*
X273835Y930528D01*
X273756Y930725D01*
X273667Y930904D01*
X273572Y931064D01*
X272949Y932041D01*
X272828Y932216D01*
X272701Y932370D01*
X272573Y932506D01*
X271748Y933319D01*
X271591Y933463D01*
X271434Y933585D01*
X271278Y933689D01*
X270293Y934298D01*
X270108Y934403D01*
X269927Y934488D01*
X269753Y934554D01*
X268657Y934929D01*
X268452Y934990D01*
X268258Y935032D01*
X268073Y935058D01*
X267383Y935131D01*
X267569Y908583D01*
X268256Y908665D01*
X268465Y908699D01*
X268660Y908746D01*
X268837Y908802D01*
X269929Y909193D01*
X270125Y909272D01*
X270304Y909361D01*
X270465Y909456D01*
X271290Y909982D01*
X271670Y910101D01*
X271969Y910052D01*
X272226Y909890D01*
X272399Y909641D01*
X272461Y909345D01*
X272461Y909340D01*
X273960Y907862D01*
X277250Y907885D01*
X277187Y916937D01*
X278711Y916947D01*
X278774Y907854D01*
X278815Y907847D01*
X279073Y907688D01*
X279248Y907440D01*
X279313Y907144D01*
X279258Y906846D01*
X279090Y906593D01*
X271553Y899056D01*
X271553Y881681D01*
X271680Y881492D01*
X271740Y881195D01*
X271740Y876902D01*
X276947Y871695D01*
X277109Y871454D01*
X277170Y871157D01*
X277170Y867442D01*
X277114Y867156D01*
X276947Y866903D01*
X276396Y866353D01*
X276396Y863640D01*
X278314Y861723D01*
G37*
G36*
X258384Y923509D02*
X258384Y922556D01*
X265947Y922608D01*
X265859Y935120D01*
X265172Y935038D01*
X264963Y935005D01*
X264768Y934958D01*
X264591Y934901D01*
X263499Y934511D01*
X263302Y934432D01*
X263124Y934343D01*
X262963Y934248D01*
X261986Y933624D01*
X261812Y933504D01*
X261657Y933377D01*
X261522Y933249D01*
X260708Y932424D01*
X260565Y932267D01*
X260442Y932109D01*
X260339Y931954D01*
X259729Y930969D01*
X259624Y930784D01*
X259540Y930603D01*
X259473Y930428D01*
X259098Y929333D01*
X259037Y929129D01*
X258995Y928934D01*
X258969Y928749D01*
X258848Y927606D01*
X258832Y927278D01*
X258850Y924790D01*
X258792Y924493D01*
X258384Y923509D01*
G37*
G36*
X353879Y921698D02*
X353967Y909186D01*
X354654Y909269D01*
X354863Y909302D01*
X355058Y909349D01*
X355235Y909405D01*
X356327Y909796D01*
X356523Y909875D01*
X356702Y909964D01*
X356863Y910059D01*
X357840Y910682D01*
X358014Y910803D01*
X358169Y910930D01*
X358304Y911057D01*
X359118Y911883D01*
X359261Y912040D01*
X359384Y912197D01*
X359488Y912353D01*
X360097Y913338D01*
X360202Y913523D01*
X360286Y913703D01*
X360353Y913878D01*
X360728Y914974D01*
X360789Y915178D01*
X360831Y915373D01*
X360857Y915558D01*
X360978Y916701D01*
X360994Y917029D01*
X360976Y919517D01*
X361034Y919814D01*
X361442Y920798D01*
X361442Y921751D01*
X353879Y921698D01*
G37*
G36*
X181825Y916558D02*
X186103Y916558D01*
X186103Y919848D01*
X184615Y921336D01*
X181825Y921336D01*
X181825Y916558D01*
G37*
G36*
X265355Y908645D02*
X266045Y908572D01*
X265957Y921084D01*
X258384Y921032D01*
X258384Y920195D01*
X258833Y919110D01*
X258891Y918824D01*
X258909Y916316D01*
X258929Y915988D01*
X259066Y914849D01*
X259099Y914639D01*
X259146Y914445D01*
X259203Y914267D01*
X259593Y913176D01*
X259672Y912979D01*
X259761Y912800D01*
X259856Y912639D01*
X260479Y911663D01*
X260601Y911488D01*
X260727Y911333D01*
X260854Y911198D01*
X261680Y910384D01*
X261837Y910241D01*
X261994Y910118D01*
X262150Y910015D01*
X263136Y909405D01*
X263320Y909300D01*
X263501Y909216D01*
X263676Y909149D01*
X264772Y908774D01*
X264975Y908713D01*
X265170Y908671D01*
X265355Y908645D01*
G37*
G36*
X181825Y910256D02*
X184615Y910256D01*
X186103Y911744D01*
X186103Y915034D01*
X181825Y915034D01*
X181825Y910256D01*
G37*
G36*
X182061Y903666D02*
X185589Y903666D01*
X185589Y905206D01*
X184101Y906694D01*
X182061Y906694D01*
X182061Y903666D01*
G37*
G36*
X177009Y903666D02*
X180537Y903666D01*
X180537Y906694D01*
X178497Y906694D01*
X177009Y905206D01*
X177009Y903666D01*
G37*
G36*
X360699Y899347D02*
X367227Y899301D01*
X367269Y905329D01*
X362229Y905364D01*
X360731Y903887D01*
X360699Y899347D01*
G37*
G36*
X354846Y897847D02*
X359124Y897847D01*
X359124Y901137D01*
X357636Y902625D01*
X354846Y902625D01*
X354846Y897847D01*
G37*
G36*
X196036Y811767D02*
X201864Y811767D01*
X202450Y812353D01*
X202450Y816459D01*
X202506Y816745D01*
X202673Y816998D01*
X210084Y824409D01*
X210315Y824567D01*
X210611Y824632D01*
X210909Y824576D01*
X211162Y824408D01*
X211329Y824155D01*
X211384Y823857D01*
X211338Y821234D01*
X211914Y820638D01*
X220741Y820484D01*
X221337Y821060D01*
X221552Y833386D01*
X221174Y833777D01*
X221026Y833998D01*
X220961Y834294D01*
X221016Y834593D01*
X221184Y834845D01*
X223093Y836754D01*
X223093Y843241D01*
X210133Y856201D01*
X209974Y856432D01*
X209909Y856729D01*
X209966Y857027D01*
X210133Y857279D01*
X210160Y857306D01*
X210172Y864135D01*
X209588Y864721D01*
X209189Y864722D01*
X208916Y864773D01*
X208660Y864937D01*
X208489Y865187D01*
X208428Y865484D01*
X208428Y867422D01*
X208480Y867696D01*
X208643Y867952D01*
X208893Y868123D01*
X209190Y868184D01*
X209211Y868184D01*
X209796Y868770D01*
X209796Y874598D01*
X209211Y875184D01*
X197882Y875184D01*
X197296Y874598D01*
X197296Y868770D01*
X197882Y868184D01*
X204142Y868184D01*
X204417Y868133D01*
X204673Y867969D01*
X204844Y867719D01*
X204904Y867422D01*
X204904Y865493D01*
X204853Y865217D01*
X204689Y864962D01*
X204438Y864791D01*
X204141Y864731D01*
X203759Y864732D01*
X203172Y864147D01*
X203160Y857318D01*
X203745Y856732D01*
X204305Y856731D01*
X204589Y856675D01*
X204842Y856508D01*
X215902Y845447D01*
X216055Y845228D01*
X216125Y844933D01*
X216074Y844634D01*
X215911Y844378D01*
X215661Y844207D01*
X215364Y844147D01*
X213544Y844147D01*
X213355Y843958D01*
X213125Y843800D01*
X212828Y843734D01*
X212530Y843790D01*
X212277Y843958D01*
X189157Y867078D01*
X189028Y867160D01*
X188857Y867411D01*
X188796Y867708D01*
X188796Y868098D01*
X188211Y868684D01*
X184568Y868684D01*
X184305Y868731D01*
X184047Y868890D01*
X183871Y869137D01*
X183806Y869434D01*
X183862Y869732D01*
X184029Y869985D01*
X187904Y873859D01*
X187904Y874061D01*
X187959Y874347D01*
X188127Y874600D01*
X188796Y875270D01*
X188796Y881098D01*
X188211Y881684D01*
X181854Y881684D01*
X181568Y881739D01*
X181315Y881907D01*
X179954Y883268D01*
X179791Y883509D01*
X179731Y883807D01*
X179731Y893029D01*
X179787Y893315D01*
X179954Y893568D01*
X181317Y894931D01*
X181559Y895094D01*
X181856Y895154D01*
X183463Y895154D01*
X184049Y895740D01*
X184049Y898747D01*
X184105Y899033D01*
X184272Y899285D01*
X185589Y900602D01*
X185589Y902142D01*
X177009Y902142D01*
X177009Y900602D01*
X178326Y899285D01*
X178489Y899044D01*
X178549Y898747D01*
X178549Y897462D01*
X178493Y897176D01*
X178326Y896923D01*
X177463Y896060D01*
X177462Y896060D01*
X176688Y895286D01*
X176688Y895286D01*
X176207Y894805D01*
X176207Y893919D01*
X176207Y893030D01*
X176207Y893030D01*
X176207Y883807D01*
X176207Y883806D01*
X176207Y882019D01*
X176338Y881828D01*
X176403Y881532D01*
X176347Y881234D01*
X176296Y881158D01*
X176296Y875270D01*
X176882Y874684D01*
X181905Y874684D01*
X182169Y874637D01*
X182427Y874477D01*
X182602Y874230D01*
X182667Y873934D01*
X182612Y873636D01*
X182444Y873383D01*
X181016Y871955D01*
X180775Y871792D01*
X180477Y871732D01*
X175620Y871732D01*
X173248Y869360D01*
X173248Y855057D01*
X173197Y854782D01*
X173034Y854527D01*
X172784Y854355D01*
X172486Y854295D01*
X170639Y854295D01*
X170369Y854344D01*
X170112Y854506D01*
X169939Y854756D01*
X169877Y855053D01*
X169936Y855350D01*
X170075Y855556D01*
X170116Y859399D01*
X169536Y859991D01*
X161708Y860073D01*
X161116Y859494D01*
X161076Y855665D01*
X161123Y855618D01*
X161278Y855386D01*
X161340Y855089D01*
X161281Y854791D01*
X161111Y854540D01*
X161064Y854494D01*
X161024Y850666D01*
X161070Y850618D01*
X161226Y850386D01*
X161288Y850089D01*
X161229Y849792D01*
X161059Y849541D01*
X161011Y849494D01*
X160971Y845666D01*
X161018Y845619D01*
X161173Y845386D01*
X161235Y845090D01*
X161177Y844792D01*
X161007Y844541D01*
X160959Y844494D01*
X160919Y840666D01*
X160966Y840619D01*
X161121Y840387D01*
X161183Y840090D01*
X161124Y839792D01*
X160954Y839541D01*
X160907Y839495D01*
X160867Y835667D01*
X160913Y835619D01*
X161069Y835387D01*
X161131Y835090D01*
X161072Y834793D01*
X160902Y834542D01*
X160854Y834495D01*
X160814Y830667D01*
X160861Y830619D01*
X161016Y830387D01*
X161078Y830090D01*
X161020Y829793D01*
X160850Y829542D01*
X160802Y829495D01*
X160776Y826989D01*
X160717Y826704D01*
X160547Y826453D01*
X159216Y825150D01*
X159198Y823360D01*
X171277Y823233D01*
X171296Y825023D01*
X169993Y826354D01*
X169833Y826597D01*
X169775Y826895D01*
X169801Y829401D01*
X169755Y829449D01*
X169599Y829681D01*
X169537Y829978D01*
X169596Y830275D01*
X169766Y830526D01*
X169814Y830573D01*
X169840Y833044D01*
X169891Y833311D01*
X170054Y833567D01*
X170304Y833738D01*
X170602Y833798D01*
X186505Y833798D01*
X186771Y833751D01*
X187028Y833590D01*
X187203Y833342D01*
X187267Y833046D01*
X187278Y832104D01*
X187871Y831525D01*
X193699Y831596D01*
X194435Y832350D01*
X194653Y832506D01*
X194947Y832580D01*
X195247Y832532D01*
X195504Y832372D01*
X195678Y832124D01*
X195742Y831828D01*
X195746Y831569D01*
X197252Y830100D01*
X200041Y830134D01*
X199964Y836435D01*
X205766Y836506D01*
X205726Y839796D01*
X204954Y840550D01*
X204784Y840798D01*
X204724Y841095D01*
X204724Y844564D01*
X198922Y844564D01*
X198922Y846088D01*
X205105Y846088D01*
X205105Y845333D01*
X205177Y845385D01*
X205474Y845450D01*
X205772Y845394D01*
X206025Y845227D01*
X210890Y840361D01*
X211053Y840119D01*
X211114Y839822D01*
X211114Y838279D01*
X213544Y835849D01*
X215364Y835849D01*
X215627Y835802D01*
X215885Y835642D01*
X216060Y835395D01*
X216125Y835099D01*
X216070Y834801D01*
X215902Y834548D01*
X215662Y834308D01*
X215408Y834140D01*
X215110Y834084D01*
X212150Y834136D01*
X211554Y833561D01*
X211488Y829821D01*
X211437Y829559D01*
X211274Y829304D01*
X211024Y829133D01*
X210726Y829072D01*
X209763Y829072D01*
X200681Y819990D01*
X200440Y819827D01*
X200142Y819767D01*
X196036Y819767D01*
X195450Y819181D01*
X195450Y812353D01*
X196036Y811767D01*
G37*
G36*
X422703Y890755D02*
X424825Y890755D01*
X426786Y891567D01*
X428287Y893068D01*
X428619Y893871D01*
X428743Y894073D01*
X428981Y894260D01*
X429274Y894339D01*
X429574Y894299D01*
X429835Y894144D01*
X430015Y893899D01*
X430085Y893604D01*
X430097Y893250D01*
X435787Y893439D01*
X435598Y899129D01*
X435076Y899112D01*
X432737Y898051D01*
X430983Y896176D01*
X430574Y895089D01*
X430425Y894845D01*
X430180Y894665D01*
X429885Y894595D01*
X429586Y894646D01*
X429331Y894810D01*
X429159Y895060D01*
X429099Y895357D01*
X429099Y897151D01*
X428287Y899112D01*
X426786Y900613D01*
X424825Y901425D01*
X422703Y901425D01*
X420742Y900613D01*
X419241Y899112D01*
X418429Y897151D01*
X418429Y895029D01*
X419241Y893068D01*
X420742Y891567D01*
X422703Y890755D01*
G37*
G36*
X323103Y896865D02*
X323130Y893837D01*
X325170Y893855D01*
X326645Y895356D01*
X326631Y896896D01*
X323103Y896865D01*
G37*
G36*
X318065Y895281D02*
X319566Y893806D01*
X321606Y893824D01*
X321579Y896852D01*
X318052Y896821D01*
X318065Y895281D01*
G37*
G36*
X354846Y891545D02*
X357636Y891545D01*
X359124Y893033D01*
X359124Y896323D01*
X354846Y896323D01*
X354846Y891545D01*
G37*
G36*
X473812Y882285D02*
X475934Y882285D01*
X477895Y883097D01*
X479396Y884598D01*
X480208Y886559D01*
X480208Y888681D01*
X479396Y890642D01*
X477895Y892143D01*
X475934Y892955D01*
X473812Y892955D01*
X471851Y892143D01*
X470350Y890642D01*
X469538Y888681D01*
X469538Y886559D01*
X470350Y884598D01*
X471851Y883097D01*
X473812Y882285D01*
G37*
G36*
X236020Y853537D02*
X238732Y853537D01*
X240650Y855455D01*
X240650Y858167D01*
X238732Y860085D01*
X237741Y860085D01*
X237466Y860136D01*
X237211Y860300D01*
X237040Y860550D01*
X236979Y860847D01*
X236979Y862934D01*
X237033Y863214D01*
X237198Y863468D01*
X237450Y863638D01*
X241448Y865294D01*
X244543Y868388D01*
X246217Y872431D01*
X246217Y876807D01*
X244543Y880850D01*
X241448Y883945D01*
X237405Y885619D01*
X233029Y885619D01*
X229031Y883963D01*
X228751Y883905D01*
X228453Y883961D01*
X228200Y884128D01*
X222754Y889574D01*
X191308Y889574D01*
X191022Y889630D01*
X190769Y889797D01*
X189480Y891086D01*
X186768Y891086D01*
X184850Y889168D01*
X184850Y886456D01*
X186768Y884538D01*
X189480Y884538D01*
X190769Y885827D01*
X191011Y885989D01*
X191308Y886050D01*
X220979Y886050D01*
X221265Y885994D01*
X221518Y885827D01*
X225708Y881636D01*
X225869Y881400D01*
X225931Y881104D01*
X225873Y880806D01*
X224217Y876807D01*
X224217Y872431D01*
X225892Y868388D01*
X228986Y865294D01*
X232985Y863638D01*
X233223Y863481D01*
X233395Y863231D01*
X233455Y862934D01*
X233455Y858240D01*
X233879Y857816D01*
X234042Y857575D01*
X234102Y857277D01*
X234102Y855455D01*
X236020Y853537D01*
G37*
G36*
X284537Y890909D02*
X284643Y887883D01*
X286682Y887954D01*
X288117Y889493D01*
X288063Y891032D01*
X284537Y890909D01*
G37*
G36*
X280111Y883236D02*
X283289Y883198D01*
X283318Y885637D01*
X282447Y886531D01*
X282312Y886720D01*
X282232Y887012D01*
X282272Y887313D01*
X282426Y887574D01*
X282670Y887754D01*
X282965Y887825D01*
X283120Y887830D01*
X283014Y890856D01*
X279488Y890733D01*
X279542Y889194D01*
X280299Y888488D01*
X280475Y888242D01*
X280541Y887946D01*
X280486Y887647D01*
X280320Y887394D01*
X280160Y887288D01*
X280111Y883236D01*
G37*
G36*
X139151Y888358D02*
X139278Y885921D01*
X142452Y886087D01*
X142246Y890010D01*
X140559Y889922D01*
X139151Y888358D01*
G37*
G36*
X139486Y881962D02*
X141050Y880554D01*
X142737Y880643D01*
X142532Y884565D01*
X139358Y884399D01*
X139486Y881962D01*
G37*
G36*
X280044Y877785D02*
X281734Y877764D01*
X283240Y879234D01*
X283270Y881674D01*
X280092Y881713D01*
X280044Y877785D01*
G37*
G36*
X327336Y857066D02*
X334164Y857030D01*
X334753Y857613D01*
X334784Y863491D01*
X334728Y863575D01*
X334668Y863872D01*
X334668Y869216D01*
X334719Y869491D01*
X334882Y869746D01*
X335132Y869918D01*
X335430Y869978D01*
X335820Y869978D01*
X336406Y870564D01*
X336406Y877392D01*
X335820Y877978D01*
X329991Y877978D01*
X329406Y877392D01*
X329406Y870564D01*
X329991Y869978D01*
X330382Y869978D01*
X330656Y869927D01*
X330912Y869764D01*
X331083Y869513D01*
X331144Y869216D01*
X331144Y864812D01*
X331091Y864534D01*
X330926Y864279D01*
X330675Y864109D01*
X330378Y864050D01*
X327373Y864066D01*
X326784Y863483D01*
X326753Y857655D01*
X327336Y857066D01*
G37*
G36*
X139950Y866463D02*
X146728Y866393D01*
X146746Y868182D01*
X145274Y869686D01*
X139984Y869741D01*
X139950Y866463D01*
G37*
G36*
X139900Y861662D02*
X145190Y861606D01*
X146693Y863079D01*
X146712Y864869D01*
X139934Y864940D01*
X139900Y861662D01*
G37*
G36*
X263253Y856616D02*
X268031Y856616D01*
X268031Y859407D01*
X266543Y860894D01*
X263253Y860894D01*
X263253Y856616D01*
G37*
G36*
X201507Y834930D02*
X201565Y830152D01*
X204355Y830186D01*
X205825Y831692D01*
X205785Y834982D01*
X201507Y834930D01*
G37*
G36*
X263796Y830771D02*
X263801Y827993D01*
X266579Y827998D01*
X266577Y828702D01*
X264500Y830772D01*
X263796Y830771D01*
G37*
G36*
X158726Y778362D02*
X170806Y778236D01*
X170825Y780026D01*
X170076Y780790D01*
X169923Y781015D01*
X169858Y781311D01*
X169914Y781609D01*
X170081Y781862D01*
X178978Y790759D01*
X179219Y790921D01*
X179516Y790982D01*
X182033Y790987D01*
X182320Y790931D01*
X182573Y790764D01*
X183892Y789450D01*
X185582Y789453D01*
X185572Y794905D01*
X190274Y794913D01*
X190270Y797383D01*
X190317Y797647D01*
X190476Y797905D01*
X190724Y798081D01*
X191020Y798146D01*
X191318Y798090D01*
X191571Y797923D01*
X191625Y797869D01*
X195062Y797869D01*
X197493Y800299D01*
X197493Y803736D01*
X195027Y806202D01*
X194922Y806222D01*
X194669Y806390D01*
X191673Y809386D01*
X191510Y809628D01*
X191450Y809925D01*
X191450Y811037D01*
X191506Y811323D01*
X191673Y811576D01*
X192450Y812353D01*
X192450Y819181D01*
X191864Y819767D01*
X186036Y819767D01*
X185450Y819181D01*
X185450Y812353D01*
X186227Y811576D01*
X186389Y811334D01*
X186450Y811037D01*
X186450Y807538D01*
X188908Y805080D01*
X189061Y804861D01*
X189130Y804566D01*
X189080Y804267D01*
X188916Y804011D01*
X188666Y803840D01*
X188369Y803780D01*
X184940Y803780D01*
X179474Y798313D01*
X179474Y797655D01*
X179419Y797370D01*
X179251Y797117D01*
X178995Y796859D01*
X178752Y796696D01*
X178455Y796635D01*
X177784Y796635D01*
X171408Y790259D01*
X171166Y790097D01*
X170869Y790036D01*
X170159Y790036D01*
X169877Y790090D01*
X169623Y790257D01*
X169455Y790508D01*
X169397Y790806D01*
X169435Y794403D01*
X169388Y794450D01*
X169233Y794683D01*
X169171Y794979D01*
X169230Y795277D01*
X169400Y795528D01*
X169447Y795575D01*
X169487Y799403D01*
X169441Y799450D01*
X169285Y799682D01*
X169223Y799979D01*
X169282Y800277D01*
X169452Y800528D01*
X169500Y800574D01*
X169540Y804402D01*
X169493Y804450D01*
X169338Y804682D01*
X169276Y804979D01*
X169334Y805276D01*
X169504Y805527D01*
X169552Y805574D01*
X169592Y809402D01*
X169546Y809450D01*
X169390Y809682D01*
X169328Y809979D01*
X169387Y810276D01*
X169557Y810527D01*
X169604Y810574D01*
X169644Y814402D01*
X169598Y814449D01*
X169442Y814681D01*
X169380Y814978D01*
X169439Y815276D01*
X169609Y815527D01*
X169657Y815573D01*
X169683Y818080D01*
X169742Y818365D01*
X169912Y818616D01*
X171242Y819919D01*
X171261Y821709D01*
X159182Y821836D01*
X159163Y820046D01*
X160466Y818715D01*
X160626Y818472D01*
X160683Y818174D01*
X160657Y815668D01*
X160704Y815620D01*
X160859Y815388D01*
X160921Y815091D01*
X160863Y814794D01*
X160692Y814543D01*
X160645Y814496D01*
X160605Y810668D01*
X160651Y810620D01*
X160807Y810388D01*
X160869Y810091D01*
X160810Y809794D01*
X160640Y809543D01*
X160593Y809496D01*
X160553Y805668D01*
X160599Y805621D01*
X160755Y805389D01*
X160817Y805092D01*
X160758Y804794D01*
X160588Y804543D01*
X160540Y804497D01*
X160500Y800668D01*
X160547Y800621D01*
X160702Y800389D01*
X160764Y800092D01*
X160705Y799794D01*
X160535Y799543D01*
X160488Y799497D01*
X160448Y795669D01*
X160494Y795621D01*
X160650Y795389D01*
X160712Y795092D01*
X160653Y794795D01*
X160483Y794544D01*
X160436Y794497D01*
X160395Y790669D01*
X160442Y790622D01*
X160598Y790389D01*
X160660Y790093D01*
X160601Y789795D01*
X160431Y789544D01*
X160383Y789497D01*
X160343Y785669D01*
X160390Y785622D01*
X160545Y785390D01*
X160607Y785093D01*
X160548Y784795D01*
X160378Y784544D01*
X160331Y784498D01*
X160305Y781992D01*
X160246Y781706D01*
X160076Y781455D01*
X158745Y780152D01*
X158726Y778362D01*
G37*
G36*
X413309Y807713D02*
X417587Y807713D01*
X417587Y811004D01*
X416099Y812491D01*
X413309Y812491D01*
X413309Y807713D01*
G37*
G36*
X413309Y801411D02*
X416099Y801411D01*
X417587Y802899D01*
X417587Y806189D01*
X413309Y806189D01*
X413309Y801411D01*
G37*
G36*
X187099Y793384D02*
X187106Y789456D01*
X188796Y789459D01*
X190281Y790949D01*
X190277Y793389D01*
X187099Y793384D01*
G37*
G36*
X388188Y784936D02*
X391366Y784936D01*
X391366Y787376D01*
X389879Y788864D01*
X388188Y788864D01*
X388188Y784936D01*
G37*
G36*
X200895Y779660D02*
X205172Y779630D01*
X205195Y782920D01*
X203718Y784418D01*
X200928Y784438D01*
X200895Y779660D01*
G37*
G36*
X388188Y779484D02*
X389879Y779484D01*
X391366Y780971D01*
X391366Y783412D01*
X388188Y783412D01*
X388188Y779484D01*
G37*
G36*
X210870Y779547D02*
X210885Y776757D01*
X215663Y776782D01*
X215640Y781060D01*
X212350Y781043D01*
X210870Y779547D01*
G37*
G36*
X406949Y760313D02*
X408639Y760292D01*
X408754Y769672D01*
X407064Y769692D01*
X405721Y768381D01*
X405497Y768230D01*
X405201Y768165D01*
X404902Y768220D01*
X404650Y768388D01*
X403209Y769828D01*
X401519Y769828D01*
X401519Y760448D01*
X403209Y760448D01*
X404490Y761729D01*
X404729Y761891D01*
X405026Y761952D01*
X405323Y761893D01*
X405574Y761722D01*
X406949Y760313D01*
G37*
G36*
X197857Y737562D02*
X200647Y737548D01*
X202143Y739028D01*
X202160Y742318D01*
X197882Y742340D01*
X197857Y737562D01*
G37*
G36*
X138580Y735671D02*
X145358Y735600D01*
X145377Y737390D01*
X143904Y738893D01*
X138615Y738948D01*
X138580Y735671D01*
G37*
G36*
X138530Y730869D02*
X143820Y730814D01*
X145323Y732286D01*
X145342Y734076D01*
X138564Y734147D01*
X138530Y730869D01*
G37*
G36*
X183264Y706271D02*
X190792Y706271D01*
X190792Y712049D01*
X184752Y712049D01*
X183264Y710561D01*
X183264Y706271D01*
G37*
G36*
X192316Y706271D02*
X199844Y706271D01*
X199844Y710561D01*
X198356Y712049D01*
X192316Y712049D01*
X192316Y706271D01*
G37*
G36*
X136807Y708203D02*
X136840Y703425D01*
X139630Y703445D01*
X141108Y704943D01*
X141085Y708233D01*
X136807Y708203D01*
G37*
G36*
X184752Y698969D02*
X190792Y698969D01*
X190792Y704747D01*
X183264Y704747D01*
X183264Y700457D01*
X184752Y698969D01*
G37*
G36*
X192316Y698969D02*
X198356Y698969D01*
X199844Y700457D01*
X199844Y704747D01*
X192316Y704747D01*
X192316Y698969D01*
G37*
G36*
X155929Y691592D02*
X159457Y691592D01*
X159457Y693132D01*
X157969Y694620D01*
X155929Y694620D01*
X155929Y691592D01*
G37*
G36*
X150877Y691592D02*
X154405Y691592D01*
X154405Y694620D01*
X152365Y694620D01*
X150877Y693132D01*
X150877Y691592D01*
G37*
G36*
X195378Y674918D02*
X195416Y667679D01*
X200749Y667707D01*
X200719Y673458D01*
X199224Y674938D01*
X195378Y674918D01*
G37*
G36*
X226119Y642561D02*
X233739Y642561D01*
X233739Y652340D01*
X227607Y652340D01*
X226119Y650852D01*
X226119Y642561D01*
G37*
G36*
X227607Y631258D02*
X233739Y631258D01*
X233739Y641037D01*
X226119Y641037D01*
X226119Y632746D01*
X227607Y631258D01*
G37*
%LPD*%
G36*
X450063Y892388D02*
X448540Y892337D01*
X448301Y899550D01*
X448228Y899548D01*
X447946Y899592D01*
X447686Y899750D01*
X447509Y899996D01*
X447441Y900291D01*
X447495Y900590D01*
X447660Y900844D01*
X447912Y901014D01*
X449240Y901564D01*
X452688Y905011D01*
X454111Y908448D01*
X454259Y908677D01*
X454507Y908853D01*
X454803Y908918D01*
X455101Y908862D01*
X455354Y908695D01*
X458967Y905082D01*
X459130Y904840D01*
X459190Y904543D01*
X459190Y898069D01*
X459144Y897807D01*
X458985Y897549D01*
X456990Y895417D01*
X456994Y895285D01*
X456958Y895026D01*
X456809Y894762D01*
X456569Y894576D01*
X456276Y894499D01*
X455976Y894542D01*
X455716Y894699D01*
X455538Y894945D01*
X454624Y896960D01*
X452749Y898715D01*
X450346Y899618D01*
X449824Y899601D01*
X450063Y892388D01*
G37*
G36*
X368846Y810169D02*
X368552Y810097D01*
X368252Y810147D01*
X367996Y810309D01*
X367823Y810558D01*
X367761Y810855D01*
X367752Y812554D01*
X366257Y814035D01*
X358717Y813995D01*
X358442Y814045D01*
X358185Y814207D01*
X358013Y814456D01*
X357951Y814753D01*
X357947Y815530D01*
X357071Y816396D01*
X356917Y816614D01*
X356892Y816720D01*
X356772Y816695D01*
X355109Y816686D01*
X354992Y816706D01*
X354979Y816638D01*
X354813Y816384D01*
X353985Y815548D01*
X353756Y815388D01*
X353460Y815322D01*
X353161Y815376D01*
X352908Y815542D01*
X352071Y816370D01*
X351917Y816588D01*
X351892Y816694D01*
X351773Y816669D01*
X350109Y816660D01*
X349992Y816680D01*
X349979Y816611D01*
X349813Y816358D01*
X348985Y815521D01*
X348756Y815362D01*
X348460Y815296D01*
X348161Y815350D01*
X347908Y815516D01*
X347071Y816343D01*
X346917Y816562D01*
X346892Y816667D01*
X346773Y816643D01*
X345109Y816634D01*
X344992Y816654D01*
X344979Y816585D01*
X344813Y816332D01*
X343985Y815495D01*
X343756Y815336D01*
X343460Y815269D01*
X343162Y815323D01*
X342908Y815490D01*
X342072Y816317D01*
X341917Y816536D01*
X341892Y816641D01*
X341773Y816616D01*
X340109Y816608D01*
X339992Y816628D01*
X339979Y816559D01*
X339813Y816305D01*
X338986Y815469D01*
X338756Y815310D01*
X338460Y815243D01*
X338162Y815297D01*
X337908Y815463D01*
X337072Y816291D01*
X336917Y816510D01*
X336892Y816615D01*
X336773Y816590D01*
X335109Y816582D01*
X334992Y816602D01*
X334979Y816533D01*
X334813Y816279D01*
X333986Y815443D01*
X333756Y815284D01*
X333460Y815217D01*
X333162Y815271D01*
X332908Y815437D01*
X332072Y816265D01*
X331918Y816483D01*
X331892Y816589D01*
X331773Y816564D01*
X330109Y816555D01*
X329845Y816601D01*
X329587Y816759D01*
X329410Y817005D01*
X329343Y817301D01*
X329397Y817600D01*
X329563Y817853D01*
X330391Y818690D01*
X330621Y818849D01*
X330916Y818915D01*
X331215Y818861D01*
X331469Y818695D01*
X332305Y817868D01*
X332459Y817649D01*
X332485Y817544D01*
X332604Y817568D01*
X334268Y817577D01*
X334385Y817557D01*
X334397Y817626D01*
X334563Y817880D01*
X335391Y818716D01*
X335620Y818875D01*
X335916Y818942D01*
X336215Y818888D01*
X336468Y818721D01*
X337305Y817894D01*
X337459Y817675D01*
X337484Y817570D01*
X337604Y817595D01*
X339267Y817603D01*
X339385Y817583D01*
X339397Y817652D01*
X339563Y817906D01*
X340391Y818742D01*
X340620Y818901D01*
X340916Y818968D01*
X341215Y818914D01*
X341468Y818748D01*
X342305Y817920D01*
X342459Y817701D01*
X342484Y817596D01*
X342604Y817621D01*
X344267Y817630D01*
X344385Y817609D01*
X344397Y817678D01*
X344563Y817932D01*
X345391Y818768D01*
X345620Y818927D01*
X345916Y818994D01*
X346215Y818940D01*
X346468Y818774D01*
X347305Y817946D01*
X347459Y817728D01*
X347484Y817622D01*
X347603Y817647D01*
X349267Y817656D01*
X349384Y817635D01*
X349397Y817704D01*
X349563Y817958D01*
X350391Y818794D01*
X350620Y818954D01*
X350916Y819020D01*
X351215Y818966D01*
X351468Y818800D01*
X352305Y817972D01*
X352459Y817754D01*
X352484Y817648D01*
X352603Y817673D01*
X354267Y817682D01*
X354384Y817662D01*
X354397Y817731D01*
X354563Y817984D01*
X355391Y818821D01*
X355620Y818980D01*
X355916Y819046D01*
X356214Y818992D01*
X356468Y818826D01*
X357304Y817999D01*
X357459Y817780D01*
X357484Y817674D01*
X357603Y817699D01*
X359264Y817708D01*
X360042Y818494D01*
X360275Y818655D01*
X360571Y818720D01*
X360869Y818664D01*
X361122Y818497D01*
X362389Y817230D01*
X364460Y817230D01*
X365752Y818521D01*
X365978Y818678D01*
X366274Y818744D01*
X366573Y818690D01*
X366826Y818524D01*
X367607Y817752D01*
X369264Y817760D01*
X370429Y818938D01*
X370420Y820595D01*
X370413Y820602D01*
X370247Y820847D01*
X370187Y821144D01*
X370187Y859061D01*
X368931Y860316D01*
X356843Y872404D01*
X356685Y872635D01*
X356620Y872931D01*
X356676Y873229D01*
X356843Y873482D01*
X364939Y881578D01*
X365186Y881743D01*
X365483Y881801D01*
X373031Y881748D01*
X373781Y882488D01*
X374002Y882640D01*
X374297Y882707D01*
X374596Y882654D01*
X374850Y882489D01*
X375020Y882238D01*
X375078Y881940D01*
X375076Y881682D01*
X376554Y880184D01*
X381594Y880148D01*
X381647Y887700D01*
X383171Y887690D01*
X383118Y880138D01*
X384523Y880128D01*
X384792Y880077D01*
X385048Y879913D01*
X385219Y879663D01*
X385280Y879366D01*
X385280Y875030D01*
X385280Y875024D01*
X385275Y874296D01*
X385789Y873782D01*
X385792Y873778D01*
X386383Y873180D01*
X386544Y872937D01*
X386602Y872639D01*
X386544Y864327D01*
X386537Y864290D01*
X386537Y863286D01*
X386537Y863281D01*
X386530Y862279D01*
X386537Y862244D01*
X386537Y845483D01*
X386481Y845197D01*
X386314Y844944D01*
X380495Y839125D01*
X380495Y824634D01*
X380439Y824348D01*
X380272Y824095D01*
X373178Y817001D01*
X372940Y816840D01*
X372643Y816778D01*
X372612Y816778D01*
X371447Y815600D01*
X371455Y813943D01*
X372074Y813331D01*
X372229Y813109D01*
X372299Y812814D01*
X372248Y812515D01*
X372085Y812260D01*
X371835Y812088D01*
X371538Y812028D01*
X370770Y812028D01*
X369062Y810320D01*
X368846Y810169D01*
G37*
G36*
X297789Y815207D02*
X297492Y815142D01*
X297194Y815197D01*
X296941Y815365D01*
X296003Y816303D01*
X295840Y816544D01*
X295780Y816842D01*
X295780Y828000D01*
X295830Y828271D01*
X295992Y828527D01*
X296532Y829091D01*
X296763Y829255D01*
X297044Y829321D01*
X296952Y829335D01*
X296693Y829493D01*
X296517Y829740D01*
X296450Y830036D01*
X296364Y834154D01*
X295766Y834728D01*
X293160Y834673D01*
X292873Y834723D01*
X292617Y834885D01*
X291273Y836174D01*
X289583Y836139D01*
X289779Y826761D01*
X291478Y826796D01*
X291769Y826745D01*
X292024Y826582D01*
X292196Y826332D01*
X292256Y826034D01*
X292256Y817342D01*
X292209Y817079D01*
X292050Y816821D01*
X291802Y816645D01*
X291506Y816580D01*
X291208Y816636D01*
X290955Y816803D01*
X285743Y822016D01*
X285580Y822257D01*
X285520Y822555D01*
X285520Y822897D01*
X284934Y823483D01*
X282777Y823483D01*
X282491Y823539D01*
X282238Y823706D01*
X281437Y824508D01*
X281274Y824750D01*
X281213Y825047D01*
X281213Y827555D01*
X278577Y830192D01*
X278414Y830433D01*
X278354Y830730D01*
X278354Y832493D01*
X278409Y832779D01*
X278577Y833032D01*
X280192Y834647D01*
X280192Y839220D01*
X280243Y839495D01*
X280407Y839750D01*
X280657Y839922D01*
X280954Y839982D01*
X291528Y839982D01*
X292114Y840568D01*
X292114Y859396D01*
X291528Y859982D01*
X290251Y859982D01*
X289988Y860029D01*
X289730Y860188D01*
X289554Y860436D01*
X289489Y860732D01*
X289545Y861030D01*
X289712Y861283D01*
X290273Y861844D01*
X290514Y862006D01*
X290812Y862067D01*
X299292Y862067D01*
X302826Y865600D01*
X303056Y865758D01*
X303352Y865823D01*
X303651Y865768D01*
X303903Y865600D01*
X307348Y862156D01*
X315199Y862156D01*
X315485Y862100D01*
X315738Y861933D01*
X316388Y861283D01*
X316461Y861177D01*
X316671Y861321D01*
X316968Y861382D01*
X319001Y861382D01*
X319843Y862224D01*
X320062Y862377D01*
X320357Y862446D01*
X320656Y862396D01*
X320912Y862232D01*
X321083Y861982D01*
X321144Y861685D01*
X321144Y844835D01*
X322239Y843740D01*
X322402Y843498D01*
X322462Y843201D01*
X322462Y836122D01*
X322406Y835836D01*
X322239Y835583D01*
X316722Y830066D01*
X316502Y829913D01*
X316207Y829843D01*
X315908Y829894D01*
X315653Y830057D01*
X315481Y830308D01*
X315421Y830605D01*
X315421Y832351D01*
X314835Y832937D01*
X314131Y832937D01*
X313856Y832988D01*
X313601Y833152D01*
X313429Y833402D01*
X313390Y833592D01*
X313099Y833883D01*
X312937Y834125D01*
X312876Y834422D01*
X312876Y839220D01*
X312927Y839495D01*
X313091Y839750D01*
X313341Y839922D01*
X313638Y839982D01*
X316528Y839982D01*
X317114Y840568D01*
X317114Y859396D01*
X316430Y860081D01*
X316356Y860186D01*
X316146Y860042D01*
X315849Y859982D01*
X305700Y859982D01*
X305114Y859396D01*
X305114Y840568D01*
X305700Y839982D01*
X308590Y839982D01*
X308865Y839931D01*
X309120Y839767D01*
X309292Y839517D01*
X309352Y839220D01*
X309352Y835239D01*
X309301Y834964D01*
X309138Y834709D01*
X308887Y834537D01*
X308683Y834496D01*
X308683Y825097D01*
X310497Y825097D01*
X310771Y825046D01*
X311027Y824882D01*
X311198Y824632D01*
X311259Y824335D01*
X311259Y822286D01*
X311203Y822000D01*
X311036Y821747D01*
X309737Y820448D01*
X309737Y818532D01*
X309690Y818269D01*
X309530Y818011D01*
X309283Y817835D01*
X308987Y817770D01*
X308689Y817826D01*
X308436Y817993D01*
X307937Y818492D01*
X304380Y818492D01*
X304105Y818543D01*
X303850Y818707D01*
X303678Y818957D01*
X303618Y819254D01*
X303618Y825108D01*
X303665Y825371D01*
X303824Y825629D01*
X304072Y825805D01*
X304368Y825870D01*
X304666Y825814D01*
X304919Y825647D01*
X305469Y825097D01*
X307159Y825097D01*
X307159Y834477D01*
X305469Y834477D01*
X303981Y832989D01*
X303981Y831857D01*
X303934Y831594D01*
X303774Y831336D01*
X303527Y831160D01*
X303231Y831095D01*
X302933Y831151D01*
X302680Y831318D01*
X302474Y831524D01*
X299762Y831524D01*
X297751Y829513D01*
X297546Y829367D01*
X297255Y829291D01*
X297357Y829274D01*
X297612Y829110D01*
X297784Y828860D01*
X297844Y828563D01*
X297844Y826894D01*
X298395Y826343D01*
X298558Y826101D01*
X298618Y825804D01*
X298618Y818040D01*
X298562Y817754D01*
X298395Y817501D01*
X298242Y817348D01*
X298242Y815904D01*
X298195Y815640D01*
X298036Y815382D01*
X297789Y815207D01*
G37*
%LPC*%
G36*
X284913Y834553D02*
X284964Y832113D01*
X288141Y832180D01*
X288059Y836107D01*
X286369Y836071D01*
X284913Y834553D01*
G37*
G36*
X285047Y828150D02*
X286566Y826693D01*
X288256Y826729D01*
X288173Y830656D01*
X284996Y830589D01*
X285047Y828150D01*
G37*
%LPD*%
G36*
X257890Y792509D02*
X257595Y792440D01*
X257296Y792490D01*
X257041Y792654D01*
X256869Y792904D01*
X256809Y793201D01*
X256809Y805142D01*
X256856Y805405D01*
X257015Y805663D01*
X257263Y805838D01*
X257559Y805904D01*
X257857Y805848D01*
X258110Y805680D01*
X258259Y805531D01*
X260971Y805531D01*
X262889Y807449D01*
X262889Y810162D01*
X261289Y811761D01*
X261126Y812003D01*
X261066Y812300D01*
X261066Y820545D01*
X261112Y820807D01*
X261271Y821065D01*
X261518Y821241D01*
X261815Y821307D01*
X262113Y821252D01*
X262149Y821228D01*
X263879Y821231D01*
X264604Y821959D01*
X264847Y822123D01*
X265144Y822183D01*
X265170Y822183D01*
X265305Y822274D01*
X265602Y822334D01*
X267445Y822334D01*
X267727Y822280D01*
X267981Y822114D01*
X268765Y821337D01*
X271771Y821353D01*
X272058Y821299D01*
X272311Y821133D01*
X273635Y819823D01*
X275175Y819831D01*
X275149Y824883D01*
X276673Y824891D01*
X276699Y819839D01*
X277242Y819842D01*
X277510Y819795D01*
X277768Y819635D01*
X277943Y819388D01*
X278008Y819092D01*
X277953Y818794D01*
X277785Y818541D01*
X277680Y818435D01*
X277680Y816745D01*
X283132Y816745D01*
X283132Y812043D01*
X285619Y812043D01*
X285882Y811996D01*
X286140Y811837D01*
X286316Y811590D01*
X286381Y811293D01*
X286325Y810995D01*
X286158Y810742D01*
X285350Y809934D01*
X285350Y809189D01*
X285294Y808903D01*
X285127Y808651D01*
X282642Y806166D01*
X282400Y806003D01*
X282103Y805942D01*
X276845Y805942D01*
X276559Y805998D01*
X276306Y806166D01*
X274904Y807567D01*
X271467Y807567D01*
X269036Y805137D01*
X269036Y803905D01*
X268981Y803619D01*
X268813Y803366D01*
X258110Y792662D01*
X257890Y792509D01*
G37*
%LPC*%
G36*
X279167Y812043D02*
X281608Y812043D01*
X281608Y815221D01*
X277680Y815221D01*
X277680Y813531D01*
X279167Y812043D01*
G37*
%LPD*%
G36*
X326717Y813776D02*
X325193Y813768D01*
X325171Y818070D01*
X324467Y818066D01*
X324347Y817945D01*
X324125Y817789D01*
X323830Y817719D01*
X323531Y817770D01*
X323275Y817934D01*
X323104Y818184D01*
X323043Y818481D01*
X323043Y821708D01*
X323090Y821971D01*
X323250Y822229D01*
X323497Y822404D01*
X323793Y822469D01*
X324091Y822414D01*
X324344Y822246D01*
X325607Y820983D01*
X325660Y820983D01*
X325931Y820934D01*
X326187Y820771D01*
X326360Y820522D01*
X326422Y820225D01*
X326429Y818838D01*
X326379Y818563D01*
X326312Y818456D01*
X326693Y818458D01*
X326717Y813776D01*
G37*
G36*
X397773Y806605D02*
X397476Y806544D01*
X394442Y806544D01*
X394168Y806596D01*
X393912Y806759D01*
X393741Y807009D01*
X393680Y807306D01*
X393680Y809504D01*
X388978Y809504D01*
X388978Y811028D01*
X393680Y811028D01*
X393680Y813479D01*
X393552Y813662D01*
X393483Y813957D01*
X393533Y814256D01*
X393697Y814512D01*
X393947Y814683D01*
X394244Y814744D01*
X394691Y814744D01*
X396204Y816257D01*
X396226Y816378D01*
X396385Y816636D01*
X396632Y816811D01*
X396928Y816876D01*
X397227Y816821D01*
X397479Y816653D01*
X398015Y816118D01*
X398178Y815876D01*
X398238Y815579D01*
X398238Y807306D01*
X398187Y807032D01*
X398023Y806776D01*
X397773Y806605D01*
G37*
G36*
X291710Y781048D02*
X288042Y780959D01*
X287748Y781010D01*
X287493Y781173D01*
X287322Y781423D01*
X287261Y781720D01*
X287261Y783465D01*
X287317Y783751D01*
X287484Y784004D01*
X288422Y784941D01*
X288422Y787654D01*
X287945Y788131D01*
X287800Y788333D01*
X287723Y788627D01*
X287767Y788927D01*
X287924Y789186D01*
X288170Y789364D01*
X288465Y789431D01*
X289004Y789445D01*
X288794Y798022D01*
X287425Y797989D01*
X287424Y797989D01*
X285319Y797937D01*
X285443Y792887D01*
X283919Y792849D01*
X283796Y797900D01*
X282006Y797856D01*
X281938Y797784D01*
X281694Y797613D01*
X281398Y797548D01*
X281100Y797603D01*
X280847Y797771D01*
X279025Y799594D01*
X278872Y799813D01*
X278802Y800108D01*
X278853Y800407D01*
X279016Y800663D01*
X279266Y800834D01*
X279563Y800894D01*
X284510Y800894D01*
X286673Y803058D01*
X286903Y803216D01*
X287200Y803281D01*
X287498Y803225D01*
X287751Y803058D01*
X291434Y799374D01*
X291579Y799172D01*
X291656Y798879D01*
X291612Y798578D01*
X291455Y798319D01*
X291209Y798141D01*
X290914Y798074D01*
X290318Y798059D01*
X290528Y789482D01*
X291503Y789506D01*
X291779Y789461D01*
X292039Y789304D01*
X292216Y789058D01*
X292284Y788763D01*
X292335Y786651D01*
X292383Y786605D01*
X292547Y786379D01*
X292619Y786084D01*
X292571Y785785D01*
X292410Y785528D01*
X292364Y785480D01*
X292453Y781829D01*
X292409Y781553D01*
X292251Y781293D01*
X292006Y781116D01*
X291710Y781048D01*
G37*
G36*
X380509Y744138D02*
X380212Y744077D01*
X372988Y744077D01*
X372714Y744129D01*
X372458Y744292D01*
X372287Y744542D01*
X372226Y744839D01*
X372226Y754831D01*
X369801Y757257D01*
X367729Y757257D01*
X366438Y755966D01*
X366211Y755809D01*
X365916Y755743D01*
X365617Y755797D01*
X365363Y755963D01*
X364583Y756735D01*
X362923Y756726D01*
X362806Y756747D01*
X362793Y756678D01*
X362627Y756424D01*
X361799Y755588D01*
X361570Y755428D01*
X361274Y755362D01*
X360975Y755416D01*
X360722Y755582D01*
X359885Y756410D01*
X359731Y756628D01*
X359706Y756734D01*
X359587Y756709D01*
X357923Y756700D01*
X357806Y756720D01*
X357793Y756652D01*
X357627Y756398D01*
X356799Y755561D01*
X356570Y755402D01*
X356274Y755336D01*
X355976Y755390D01*
X355722Y755556D01*
X354885Y756383D01*
X354731Y756602D01*
X354706Y756708D01*
X354587Y756683D01*
X352923Y756674D01*
X352806Y756694D01*
X352793Y756625D01*
X352627Y756372D01*
X351800Y755535D01*
X351570Y755376D01*
X351274Y755309D01*
X350976Y755364D01*
X350722Y755530D01*
X349886Y756357D01*
X349731Y756576D01*
X349706Y756681D01*
X349587Y756656D01*
X347923Y756648D01*
X347806Y756668D01*
X347793Y756599D01*
X347627Y756345D01*
X347149Y755862D01*
X346915Y755701D01*
X346619Y755636D01*
X346321Y755691D01*
X346068Y755859D01*
X345589Y756338D01*
X345438Y756553D01*
X345367Y756848D01*
X345416Y757147D01*
X345578Y757404D01*
X345827Y757576D01*
X346124Y757638D01*
X347082Y757643D01*
X347199Y757623D01*
X347211Y757692D01*
X347377Y757946D01*
X348205Y758782D01*
X348434Y758941D01*
X348730Y759008D01*
X349029Y758954D01*
X349282Y758788D01*
X350119Y757960D01*
X350273Y757742D01*
X350298Y757636D01*
X350418Y757661D01*
X352081Y757670D01*
X352199Y757649D01*
X352211Y757718D01*
X352377Y757972D01*
X353205Y758808D01*
X353434Y758967D01*
X353730Y759034D01*
X354029Y758980D01*
X354282Y758814D01*
X355119Y757986D01*
X355273Y757768D01*
X355298Y757662D01*
X355417Y757687D01*
X357081Y757696D01*
X357199Y757676D01*
X357211Y757744D01*
X357377Y757998D01*
X358205Y758834D01*
X358434Y758994D01*
X358730Y759060D01*
X359029Y759006D01*
X359282Y758840D01*
X360119Y758012D01*
X360273Y757794D01*
X360298Y757688D01*
X360417Y757713D01*
X362081Y757722D01*
X362198Y757702D01*
X362211Y757771D01*
X362377Y758024D01*
X363243Y758900D01*
X363239Y759676D01*
X363289Y759951D01*
X363451Y760207D01*
X363700Y760380D01*
X363997Y760442D01*
X366537Y760455D01*
X368017Y761951D01*
X368004Y764491D01*
X368054Y764766D01*
X368216Y765022D01*
X368465Y765195D01*
X368762Y765257D01*
X369538Y765261D01*
X370405Y766136D01*
X370623Y766291D01*
X370729Y766316D01*
X370704Y766435D01*
X370695Y768099D01*
X370715Y768216D01*
X370647Y768229D01*
X370393Y768395D01*
X369557Y769222D01*
X369397Y769452D01*
X369331Y769748D01*
X369385Y770046D01*
X369551Y770300D01*
X370378Y771136D01*
X370597Y771290D01*
X370703Y771316D01*
X370678Y771435D01*
X370669Y773099D01*
X370689Y773216D01*
X370620Y773229D01*
X370367Y773395D01*
X369530Y774222D01*
X369371Y774452D01*
X369304Y774748D01*
X369359Y775046D01*
X369525Y775300D01*
X370352Y776136D01*
X370571Y776290D01*
X370676Y776316D01*
X370652Y776435D01*
X370643Y778099D01*
X370663Y778216D01*
X370594Y778229D01*
X370340Y778395D01*
X369504Y779222D01*
X369345Y779452D01*
X369278Y779748D01*
X369332Y780046D01*
X369499Y780300D01*
X370326Y781136D01*
X370545Y781290D01*
X370650Y781316D01*
X370625Y781435D01*
X370617Y783099D01*
X370637Y783216D01*
X370568Y783228D01*
X370314Y783395D01*
X369439Y784261D01*
X368663Y784257D01*
X368388Y784307D01*
X368131Y784469D01*
X367958Y784718D01*
X367897Y785015D01*
X367889Y786491D01*
X340337Y786347D01*
X340329Y787870D01*
X367881Y788015D01*
X367847Y794491D01*
X367897Y794766D01*
X368059Y795022D01*
X368308Y795195D01*
X368605Y795257D01*
X369381Y795261D01*
X369389Y795268D01*
X369633Y795434D01*
X369931Y795494D01*
X370794Y795494D01*
X371065Y795445D01*
X371321Y795282D01*
X371494Y795033D01*
X371556Y794736D01*
X371560Y793944D01*
X372699Y792817D01*
X372858Y792587D01*
X372924Y792291D01*
X372870Y791993D01*
X372704Y791739D01*
X371577Y790601D01*
X371586Y788944D01*
X372725Y787817D01*
X372884Y787587D01*
X372951Y787291D01*
X372897Y786993D01*
X372730Y786739D01*
X371604Y785601D01*
X371612Y783940D01*
X371592Y783823D01*
X371661Y783811D01*
X371915Y783645D01*
X372751Y782817D01*
X372910Y782587D01*
X372977Y782291D01*
X372923Y781993D01*
X372757Y781739D01*
X371929Y780903D01*
X371710Y780749D01*
X371605Y780723D01*
X371630Y780604D01*
X371638Y778940D01*
X371618Y778823D01*
X371687Y778811D01*
X371941Y778645D01*
X372777Y777817D01*
X372936Y777587D01*
X373003Y777292D01*
X372949Y776993D01*
X372783Y776739D01*
X371955Y775903D01*
X371737Y775749D01*
X371631Y775723D01*
X371656Y775604D01*
X371665Y773940D01*
X371644Y773823D01*
X371713Y773811D01*
X371967Y773645D01*
X372803Y772817D01*
X372962Y772587D01*
X373029Y772292D01*
X372975Y771993D01*
X372809Y771739D01*
X371981Y770903D01*
X371763Y770749D01*
X371657Y770724D01*
X371682Y770604D01*
X371691Y768940D01*
X371671Y768823D01*
X371739Y768811D01*
X371993Y768645D01*
X372829Y767817D01*
X372989Y767588D01*
X373055Y767292D01*
X373001Y766993D01*
X372835Y766740D01*
X372007Y765903D01*
X371789Y765749D01*
X371683Y765724D01*
X371708Y765604D01*
X371717Y763944D01*
X372856Y762817D01*
X373015Y762588D01*
X373081Y762292D01*
X373027Y761993D01*
X372861Y761740D01*
X371734Y760601D01*
X371743Y758944D01*
X372921Y757779D01*
X374578Y757787D01*
X374585Y757795D01*
X374830Y757961D01*
X375127Y758021D01*
X376894Y758021D01*
X377180Y757965D01*
X377433Y757798D01*
X383527Y751704D01*
X383689Y751462D01*
X383750Y751165D01*
X383750Y749342D01*
X385138Y747954D01*
X385291Y747735D01*
X385360Y747440D01*
X385310Y747141D01*
X385146Y746885D01*
X384896Y746714D01*
X384599Y746654D01*
X383104Y746654D01*
X380751Y744301D01*
X380509Y744138D01*
G37*
G36*
X258302Y693408D02*
X258005Y693348D01*
X250822Y693348D01*
X250536Y693404D01*
X250283Y693571D01*
X248119Y695735D01*
X244682Y695735D01*
X242773Y693826D01*
X242554Y693673D01*
X242258Y693603D01*
X241959Y693654D01*
X241704Y693818D01*
X241532Y694068D01*
X241472Y694365D01*
X241472Y731607D01*
X238765Y734314D01*
X238602Y734556D01*
X238541Y734853D01*
X238541Y782957D01*
X238588Y783221D01*
X238748Y783479D01*
X238995Y783654D01*
X239291Y783719D01*
X239589Y783664D01*
X239842Y783496D01*
X240121Y783217D01*
X242833Y783217D01*
X244088Y784472D01*
X244308Y784625D01*
X244603Y784695D01*
X244902Y784644D01*
X245157Y784481D01*
X245329Y784231D01*
X245389Y783933D01*
X245389Y772583D01*
X245333Y772297D01*
X245166Y772044D01*
X244990Y771868D01*
X244990Y769155D01*
X246907Y767238D01*
X249620Y767238D01*
X251538Y769155D01*
X251538Y771868D01*
X249607Y773798D01*
X249400Y773837D01*
X249145Y774000D01*
X248973Y774250D01*
X248913Y774548D01*
X248913Y777053D01*
X248960Y777316D01*
X249119Y777574D01*
X249367Y777750D01*
X249663Y777815D01*
X249961Y777759D01*
X250214Y777592D01*
X250761Y777045D01*
X253473Y777045D01*
X254762Y778334D01*
X255003Y778497D01*
X255301Y778557D01*
X255777Y778557D01*
X256809Y779589D01*
X256809Y781382D01*
X256872Y781685D01*
X257045Y781933D01*
X257302Y782095D01*
X257602Y782143D01*
X261726Y781977D01*
X262128Y782348D01*
X262348Y782490D01*
X262645Y782550D01*
X264720Y782550D01*
X264984Y782503D01*
X265242Y782344D01*
X265417Y782097D01*
X265482Y781800D01*
X265427Y781502D01*
X265259Y781249D01*
X264812Y780803D01*
X264812Y778763D01*
X269364Y778763D01*
X269364Y773711D01*
X270904Y773711D01*
X272221Y775027D01*
X272463Y775190D01*
X272760Y775251D01*
X275767Y775251D01*
X276408Y775892D01*
X276622Y776043D01*
X276916Y776115D01*
X277216Y776067D01*
X277473Y775905D01*
X278196Y775216D01*
X279447Y775247D01*
X279729Y775200D01*
X279987Y775041D01*
X280163Y774793D01*
X280228Y774497D01*
X280172Y774199D01*
X280005Y773946D01*
X275049Y768991D01*
X274807Y768828D01*
X274510Y768768D01*
X265098Y768768D01*
X263473Y767143D01*
X263232Y766980D01*
X262934Y766919D01*
X261112Y766919D01*
X259194Y765002D01*
X259194Y762289D01*
X261112Y760371D01*
X263824Y760371D01*
X265742Y762289D01*
X265742Y764112D01*
X265798Y764398D01*
X265965Y764651D01*
X266335Y765020D01*
X266576Y765183D01*
X266874Y765244D01*
X276286Y765244D01*
X281313Y770271D01*
X281532Y770424D01*
X281828Y770494D01*
X282127Y770443D01*
X282382Y770280D01*
X282554Y770030D01*
X282614Y769732D01*
X282614Y758704D01*
X284418Y756900D01*
X284579Y756662D01*
X284641Y756365D01*
X284650Y754746D01*
X285239Y754163D01*
X288567Y754180D01*
X288585Y754198D01*
X288807Y754354D01*
X289102Y754424D01*
X289401Y754373D01*
X289656Y754210D01*
X289828Y753960D01*
X289888Y753662D01*
X289888Y751422D01*
X289833Y751136D01*
X289665Y750884D01*
X277018Y738236D01*
X276770Y738071D01*
X276472Y738013D01*
X273444Y738040D01*
X272853Y737459D01*
X272802Y731631D01*
X273540Y730879D01*
X273691Y730659D01*
X273759Y730363D01*
X273705Y730065D01*
X273539Y729810D01*
X273288Y729641D01*
X272990Y729583D01*
X272732Y729586D01*
X271231Y728111D01*
X271207Y725321D01*
X277508Y725266D01*
X277458Y719464D01*
X280748Y719435D01*
X282249Y720910D01*
X282273Y723696D01*
X282320Y723952D01*
X282479Y724211D01*
X282726Y724386D01*
X283023Y724451D01*
X283321Y724395D01*
X283574Y724228D01*
X290811Y716990D01*
X317839Y716990D01*
X318102Y716943D01*
X318360Y716784D01*
X318536Y716537D01*
X318601Y716240D01*
X318545Y715942D01*
X318378Y715689D01*
X316795Y714107D01*
X316795Y712090D01*
X316739Y711804D01*
X316572Y711551D01*
X316017Y710996D01*
X316017Y709178D01*
X315961Y708892D01*
X315793Y708639D01*
X309513Y702358D01*
X309271Y702195D01*
X308974Y702135D01*
X295759Y702135D01*
X295473Y702190D01*
X295220Y702358D01*
X295026Y702552D01*
X294863Y702793D01*
X294803Y703091D01*
X294803Y703673D01*
X291567Y706909D01*
X276338Y706909D01*
X275474Y706045D01*
X275232Y705882D01*
X274935Y705822D01*
X274372Y705822D01*
X273825Y705275D01*
X273595Y705117D01*
X273299Y705052D01*
X273000Y705108D01*
X272748Y705275D01*
X272201Y705822D01*
X268872Y705822D01*
X268286Y705236D01*
X268286Y703629D01*
X268231Y703344D01*
X268063Y703091D01*
X258544Y693571D01*
X258302Y693408D01*
G37*
%LPC*%
G36*
X266300Y773711D02*
X267840Y773711D01*
X267840Y777239D01*
X264812Y777239D01*
X264812Y775199D01*
X266300Y773711D01*
G37*
G36*
X255806Y744818D02*
X258518Y744818D01*
X260436Y746735D01*
X260436Y749448D01*
X258518Y751366D01*
X255806Y751366D01*
X253888Y749448D01*
X253888Y746735D01*
X255806Y744818D01*
G37*
G36*
X272644Y719506D02*
X275934Y719477D01*
X275971Y723755D01*
X271193Y723797D01*
X271169Y721007D01*
X272644Y719506D01*
G37*
%LPD*%
G36*
X443127Y626600D02*
X442830Y626540D01*
X426555Y626540D01*
X426281Y626591D01*
X426025Y626755D01*
X425854Y627005D01*
X425793Y627302D01*
X425793Y643038D01*
X425316Y643515D01*
X425210Y643535D01*
X424954Y643697D01*
X424782Y643947D01*
X424720Y644244D01*
X424712Y646591D01*
X424767Y646877D01*
X424934Y647130D01*
X425344Y647544D01*
X425304Y659040D01*
X424716Y659624D01*
X421350Y659612D01*
X421075Y659662D01*
X420819Y659825D01*
X420646Y660074D01*
X420585Y660371D01*
X420565Y666038D01*
X413707Y666014D01*
X413677Y674777D01*
X409831Y674764D01*
X409366Y674296D01*
X409136Y674137D01*
X408840Y674071D01*
X408542Y674125D01*
X408288Y674292D01*
X407836Y674741D01*
X393038Y674689D01*
X392454Y674101D01*
X392458Y672956D01*
X392412Y672693D01*
X392254Y672434D01*
X392007Y672258D01*
X391711Y672192D01*
X391412Y672246D01*
X391159Y672413D01*
X390410Y673156D01*
X382470Y673128D01*
X381886Y672541D01*
X381897Y669600D01*
X381845Y669323D01*
X381682Y669067D01*
X381432Y668896D01*
X381135Y668835D01*
X361736Y668835D01*
X361461Y668887D01*
X361432Y668905D01*
X358028Y668852D01*
X357490Y668296D01*
X357262Y668135D01*
X356967Y668065D01*
X356668Y668116D01*
X356412Y668279D01*
X355857Y668818D01*
X355332Y668809D01*
X355034Y668865D01*
X354781Y669032D01*
X323667Y700146D01*
X323504Y700388D01*
X323444Y700685D01*
X323444Y708705D01*
X323500Y708991D01*
X323667Y709244D01*
X325093Y710669D01*
X325093Y714107D01*
X323510Y715689D01*
X323357Y715909D01*
X323287Y716204D01*
X323338Y716503D01*
X323502Y716758D01*
X323752Y716930D01*
X324049Y716990D01*
X328868Y716990D01*
X343168Y731290D01*
X343382Y731441D01*
X343677Y731513D01*
X343976Y731465D01*
X344233Y731303D01*
X344406Y731054D01*
X344469Y730758D01*
X344452Y730672D01*
X344452Y726183D01*
X346127Y722140D01*
X349221Y719046D01*
X353264Y717371D01*
X357640Y717371D01*
X361683Y719046D01*
X364778Y722140D01*
X366452Y726183D01*
X366452Y730559D01*
X366089Y731437D01*
X366032Y731692D01*
X366078Y731992D01*
X366237Y732250D01*
X366485Y732425D01*
X366781Y732490D01*
X369106Y732527D01*
X369056Y735704D01*
X364954Y735640D01*
X364915Y735577D01*
X364668Y735401D01*
X364372Y735336D01*
X364074Y735392D01*
X363821Y735559D01*
X361683Y737697D01*
X358911Y738845D01*
X358672Y739002D01*
X358501Y739252D01*
X358440Y739549D01*
X358440Y742294D01*
X358487Y742557D01*
X358647Y742815D01*
X358894Y742991D01*
X359190Y743056D01*
X359488Y743000D01*
X359741Y742833D01*
X359890Y742684D01*
X362603Y742684D01*
X363153Y743235D01*
X363395Y743397D01*
X363692Y743458D01*
X363995Y743458D01*
X364281Y743402D01*
X364534Y743235D01*
X366364Y741404D01*
X366522Y741174D01*
X366587Y740878D01*
X366589Y740736D01*
X366538Y740449D01*
X366374Y740194D01*
X365078Y738856D01*
X365105Y737166D01*
X374484Y737314D01*
X374468Y738304D01*
X374519Y738590D01*
X374683Y738846D01*
X374933Y739017D01*
X375230Y739077D01*
X377743Y739077D01*
X378029Y739022D01*
X378282Y738854D01*
X383878Y733258D01*
X384041Y733017D01*
X384101Y732720D01*
X384101Y732110D01*
X384687Y731524D01*
X387293Y731524D01*
X387579Y731469D01*
X387832Y731301D01*
X389149Y729984D01*
X390839Y729984D01*
X390839Y739364D01*
X389149Y739364D01*
X387832Y738047D01*
X387590Y737885D01*
X387293Y737824D01*
X386698Y737824D01*
X386412Y737880D01*
X386160Y738047D01*
X384403Y739804D01*
X384245Y740035D01*
X384180Y740331D01*
X384235Y740629D01*
X384403Y740882D01*
X384952Y741430D01*
X385193Y741593D01*
X385490Y741654D01*
X401631Y741654D01*
X401917Y741598D01*
X402170Y741430D01*
X404644Y738956D01*
X404805Y738720D01*
X404868Y738423D01*
X404810Y738126D01*
X403459Y734865D01*
X403459Y730489D01*
X405134Y726446D01*
X408228Y723352D01*
X412271Y721677D01*
X416647Y721677D01*
X420690Y723352D01*
X423784Y726446D01*
X425459Y730489D01*
X425459Y734865D01*
X423784Y738908D01*
X420690Y742002D01*
X416647Y743677D01*
X412271Y743677D01*
X409010Y742326D01*
X408731Y742269D01*
X408433Y742324D01*
X408180Y742492D01*
X404018Y746654D01*
X389449Y746654D01*
X389186Y746701D01*
X388927Y746860D01*
X388752Y747107D01*
X388687Y747403D01*
X388743Y747702D01*
X388910Y747954D01*
X390298Y749342D01*
X390298Y752055D01*
X388380Y753972D01*
X386557Y753972D01*
X386271Y754028D01*
X386018Y754196D01*
X378494Y761720D01*
X378341Y761940D01*
X378271Y762235D01*
X378322Y762534D01*
X378485Y762789D01*
X378736Y762961D01*
X379033Y763021D01*
X385095Y763021D01*
X385381Y762965D01*
X385634Y762798D01*
X396055Y752377D01*
X484253Y752377D01*
X484527Y752326D01*
X484783Y752163D01*
X484954Y751913D01*
X485015Y751615D01*
X485015Y751367D01*
X486689Y747324D01*
X489784Y744229D01*
X493827Y742555D01*
X498203Y742555D01*
X502246Y744229D01*
X505340Y747324D01*
X507015Y751367D01*
X507015Y755743D01*
X505340Y759786D01*
X502246Y762880D01*
X498247Y764536D01*
X498008Y764693D01*
X497837Y764943D01*
X497777Y765240D01*
X497777Y765346D01*
X497828Y765621D01*
X497991Y765877D01*
X498241Y766048D01*
X498539Y766108D01*
X507575Y766108D01*
X507861Y766053D01*
X508114Y765885D01*
X508467Y765532D01*
X511904Y765532D01*
X512258Y765885D01*
X512499Y766048D01*
X512797Y766108D01*
X517714Y766108D01*
X518000Y766053D01*
X518252Y765885D01*
X519323Y764815D01*
X519486Y764573D01*
X519546Y764276D01*
X519546Y704405D01*
X519501Y704147D01*
X519344Y703888D01*
X519098Y703710D01*
X518802Y703643D01*
X518504Y703696D01*
X518250Y703862D01*
X518080Y704113D01*
X517275Y706058D01*
X514181Y709152D01*
X510138Y710827D01*
X505762Y710827D01*
X501719Y709152D01*
X498624Y706058D01*
X496968Y702059D01*
X496811Y701820D01*
X496561Y701649D01*
X496264Y701589D01*
X488454Y701589D01*
X488191Y701635D01*
X487933Y701795D01*
X487757Y702042D01*
X487692Y702338D01*
X487748Y702636D01*
X487915Y702889D01*
X489359Y704333D01*
X489359Y705140D01*
X484807Y705140D01*
X484807Y706664D01*
X489359Y706664D01*
X489359Y707472D01*
X487991Y708840D01*
X487833Y709070D01*
X487768Y709366D01*
X487824Y709664D01*
X487991Y709917D01*
X498977Y720903D01*
X499213Y721063D01*
X499510Y721126D01*
X499807Y721068D01*
X503806Y719412D01*
X508182Y719412D01*
X512225Y721086D01*
X515319Y724181D01*
X516994Y728224D01*
X516994Y732600D01*
X515319Y736643D01*
X512225Y739737D01*
X508182Y741412D01*
X503806Y741412D01*
X499763Y739737D01*
X496669Y736643D01*
X494994Y732600D01*
X494994Y728224D01*
X496650Y724225D01*
X496708Y723946D01*
X496653Y723648D01*
X496485Y723395D01*
X486466Y713376D01*
X486224Y713213D01*
X485927Y713152D01*
X484637Y713152D01*
X483650Y712166D01*
X483430Y712013D01*
X483135Y711943D01*
X482836Y711994D01*
X482581Y712157D01*
X482409Y712407D01*
X482349Y712704D01*
X482349Y725506D01*
X482405Y725792D01*
X482572Y726045D01*
X483337Y726810D01*
X483337Y729816D01*
X483393Y730102D01*
X483560Y730355D01*
X484877Y731672D01*
X484877Y733212D01*
X476297Y733212D01*
X476297Y731672D01*
X477614Y730355D01*
X477777Y730113D01*
X477837Y729816D01*
X477837Y726810D01*
X478602Y726045D01*
X478765Y725803D01*
X478825Y725506D01*
X478825Y712668D01*
X478778Y712404D01*
X478619Y712146D01*
X478371Y711971D01*
X478075Y711906D01*
X477777Y711961D01*
X477524Y712129D01*
X476501Y713152D01*
X474637Y713152D01*
X473319Y711834D01*
X473319Y709943D01*
X473417Y709800D01*
X473482Y709503D01*
X473426Y709205D01*
X473259Y708953D01*
X471779Y707472D01*
X471779Y706664D01*
X476331Y706664D01*
X476331Y705140D01*
X471779Y705140D01*
X471779Y704333D01*
X473259Y702852D01*
X473417Y702622D01*
X473482Y702326D01*
X473426Y702027D01*
X473319Y701865D01*
X473319Y701470D01*
X473264Y701188D01*
X473098Y700935D01*
X472846Y700766D01*
X472549Y700708D01*
X456177Y700880D01*
X455892Y700939D01*
X455641Y701109D01*
X455088Y701673D01*
X454932Y701906D01*
X454870Y702202D01*
X454929Y702500D01*
X455099Y702751D01*
X455519Y703162D01*
X455754Y703319D01*
X456052Y703379D01*
X463540Y703379D01*
X465315Y703379D01*
X466570Y704634D01*
X466571Y704634D01*
X467141Y705205D01*
X467141Y705553D01*
X467197Y705839D01*
X467364Y706092D01*
X469528Y708256D01*
X469528Y711693D01*
X467098Y714124D01*
X463661Y714124D01*
X461230Y711693D01*
X461230Y708256D01*
X461282Y708204D01*
X461435Y707984D01*
X461505Y707689D01*
X461454Y707390D01*
X461291Y707135D01*
X461041Y706963D01*
X460743Y706903D01*
X455236Y706903D01*
X454942Y706962D01*
X454789Y707066D01*
X446723Y707150D01*
X446130Y706569D01*
X445887Y706409D01*
X445589Y706352D01*
X441643Y706393D01*
X441454Y688314D01*
X445400Y688273D01*
X445685Y688214D01*
X445936Y688044D01*
X446517Y687451D01*
X454549Y687367D01*
X455341Y688142D01*
X455367Y690649D01*
X455426Y690934D01*
X455596Y691185D01*
X456927Y692488D01*
X456942Y693930D01*
X449840Y694005D01*
X449856Y695529D01*
X456958Y695454D01*
X456970Y696585D01*
X457024Y696860D01*
X457190Y697113D01*
X457442Y697282D01*
X457739Y697339D01*
X475370Y697155D01*
X475425Y697144D01*
X476406Y697144D01*
X476414Y697144D01*
X477315Y697134D01*
X477581Y697083D01*
X477837Y696920D01*
X478008Y696670D01*
X478069Y696372D01*
X478069Y691936D01*
X482917Y687088D01*
X483075Y686857D01*
X483140Y686561D01*
X483085Y686263D01*
X482917Y686010D01*
X476239Y679332D01*
X476008Y679174D01*
X475712Y679109D01*
X475414Y679165D01*
X475161Y679332D01*
X469372Y685121D01*
X469209Y685363D01*
X469149Y685660D01*
X469149Y688720D01*
X466719Y691151D01*
X463281Y691151D01*
X460851Y688720D01*
X460851Y685283D01*
X463281Y682853D01*
X466342Y682853D01*
X466628Y682797D01*
X466880Y682629D01*
X471207Y678303D01*
X471370Y678061D01*
X471430Y677764D01*
X471430Y677172D01*
X471379Y676897D01*
X471216Y676641D01*
X470965Y676470D01*
X470668Y676410D01*
X468278Y676410D01*
X467692Y675824D01*
X467692Y666995D01*
X468278Y666410D01*
X474341Y666410D01*
X474627Y666354D01*
X474798Y666241D01*
X485484Y666241D01*
X485734Y666199D01*
X485995Y666044D01*
X486175Y665800D01*
X486246Y665505D01*
X486196Y665206D01*
X486033Y664950D01*
X485939Y664853D01*
X485969Y663312D01*
X485913Y663011D01*
X485746Y662759D01*
X479791Y656803D01*
X479560Y656645D01*
X479264Y656580D01*
X478966Y656636D01*
X478713Y656803D01*
X478106Y657410D01*
X468278Y657410D01*
X467692Y656824D01*
X467692Y647995D01*
X468278Y647410D01*
X478106Y647410D01*
X478692Y647995D01*
X478692Y650406D01*
X478748Y650692D01*
X478915Y650944D01*
X488750Y660779D01*
X488978Y660936D01*
X489274Y661002D01*
X490928Y661034D01*
X491502Y661630D01*
X491438Y664958D01*
X490881Y665495D01*
X490718Y665722D01*
X490648Y666017D01*
X490698Y666316D01*
X490860Y666572D01*
X491397Y667129D01*
X491333Y670457D01*
X490736Y671032D01*
X490200Y671021D01*
X489900Y671077D01*
X489653Y671241D01*
X479454Y671241D01*
X479180Y671292D01*
X478924Y671455D01*
X478753Y671705D01*
X478692Y672003D01*
X478692Y674399D01*
X478748Y674685D01*
X478915Y674938D01*
X487804Y683826D01*
X487804Y683826D01*
X489491Y685514D01*
X489491Y687585D01*
X483292Y693784D01*
X483129Y694026D01*
X483069Y694323D01*
X483069Y698381D01*
X483116Y698644D01*
X483275Y698902D01*
X483522Y699078D01*
X483818Y699143D01*
X484117Y699087D01*
X484369Y698920D01*
X484637Y698652D01*
X485011Y698652D01*
X485297Y698597D01*
X485550Y698429D01*
X485915Y698065D01*
X496264Y698065D01*
X496544Y698011D01*
X496798Y697846D01*
X496968Y697594D01*
X498624Y693596D01*
X501719Y690501D01*
X505762Y688827D01*
X510138Y688827D01*
X514181Y690501D01*
X517275Y693596D01*
X518080Y695540D01*
X518220Y695761D01*
X518465Y695940D01*
X518760Y696010D01*
X519059Y695959D01*
X519314Y695796D01*
X519486Y695545D01*
X519546Y695248D01*
X519546Y688304D01*
X519541Y688219D01*
X518548Y679400D01*
X518510Y679233D01*
X513445Y664760D01*
X513371Y664606D01*
X505213Y651623D01*
X505107Y651489D01*
X494264Y640647D01*
X494131Y640540D01*
X481147Y632382D01*
X480994Y632308D01*
X466520Y627244D01*
X466354Y627206D01*
X460487Y626545D01*
X460402Y626540D01*
X452916Y626540D01*
X452670Y626581D01*
X452408Y626734D01*
X452227Y626977D01*
X452155Y627271D01*
X452203Y627571D01*
X452364Y627828D01*
X453496Y629016D01*
X453428Y631805D01*
X442351Y631535D01*
X442419Y628745D01*
X443355Y627854D01*
X443522Y627622D01*
X443591Y627326D01*
X443540Y627027D01*
X443377Y626772D01*
X443127Y626600D01*
G37*
%LPC*%
G36*
X392363Y735436D02*
X395541Y735436D01*
X395541Y737876D01*
X394053Y739364D01*
X392363Y739364D01*
X392363Y735436D01*
G37*
G36*
X481349Y734736D02*
X484877Y734736D01*
X484877Y736276D01*
X483389Y737764D01*
X481349Y737764D01*
X481349Y734736D01*
G37*
G36*
X476297Y734736D02*
X479825Y734736D01*
X479825Y737764D01*
X477785Y737764D01*
X476297Y736276D01*
X476297Y734736D01*
G37*
G36*
X370580Y735728D02*
X370630Y732551D01*
X373070Y732589D01*
X374534Y734100D01*
X374508Y735790D01*
X370580Y735728D01*
G37*
G36*
X392363Y729984D02*
X394053Y729984D01*
X395541Y731472D01*
X395541Y733912D01*
X392363Y733912D01*
X392363Y729984D01*
G37*
G36*
X338001Y706939D02*
X341529Y706939D01*
X341529Y708479D01*
X340041Y709967D01*
X338001Y709967D01*
X338001Y706939D01*
G37*
G36*
X332949Y706939D02*
X336477Y706939D01*
X336477Y709967D01*
X334437Y709967D01*
X332949Y708479D01*
X332949Y706939D01*
G37*
G36*
X431580Y686068D02*
X435472Y686027D01*
X437198Y687717D01*
X437228Y687871D01*
X437395Y688125D01*
X437646Y688294D01*
X437944Y688351D01*
X439930Y688330D01*
X440120Y706409D01*
X438134Y706430D01*
X437859Y706484D01*
X437606Y706650D01*
X437437Y706902D01*
X437403Y707077D01*
X435711Y708805D01*
X431819Y708846D01*
X431770Y704195D01*
X424668Y704269D01*
X424657Y703219D01*
X424606Y702952D01*
X424443Y702697D01*
X424193Y702525D01*
X423895Y702465D01*
X410598Y702465D01*
X410318Y702518D01*
X410063Y702684D01*
X409894Y702935D01*
X409014Y705059D01*
X405920Y708153D01*
X401877Y709828D01*
X397501Y709828D01*
X393458Y708153D01*
X390364Y705059D01*
X389802Y703703D01*
X389645Y703464D01*
X389395Y703293D01*
X389098Y703233D01*
X342291Y703233D01*
X342016Y703284D01*
X341761Y703447D01*
X341589Y703697D01*
X341529Y703995D01*
X341529Y705415D01*
X332949Y705415D01*
X332949Y703875D01*
X334266Y702558D01*
X334428Y702316D01*
X334489Y702019D01*
X334489Y699012D01*
X335075Y698427D01*
X335638Y698427D01*
X335924Y698371D01*
X336176Y698203D01*
X336203Y698177D01*
X338371Y698177D01*
X338646Y698233D01*
X387927Y698233D01*
X388202Y698181D01*
X388457Y698018D01*
X388629Y697768D01*
X388689Y697471D01*
X388689Y696640D01*
X390364Y692597D01*
X393458Y689502D01*
X397501Y687828D01*
X401877Y687828D01*
X405920Y689502D01*
X409014Y692597D01*
X410689Y696640D01*
X410689Y696703D01*
X410740Y696977D01*
X410904Y697233D01*
X411154Y697404D01*
X411451Y697465D01*
X425367Y697465D01*
X425649Y697411D01*
X425903Y697244D01*
X426072Y696993D01*
X426129Y696695D01*
X426102Y694075D01*
X426043Y693790D01*
X425873Y693539D01*
X424542Y692236D01*
X424527Y690794D01*
X431629Y690719D01*
X431580Y686068D01*
G37*
G36*
X424684Y705793D02*
X430262Y705734D01*
X430295Y708862D01*
X426403Y708903D01*
X424699Y707235D01*
X424684Y705793D01*
G37*
G36*
X426164Y686124D02*
X430056Y686084D01*
X430089Y689211D01*
X424511Y689270D01*
X424496Y687827D01*
X426164Y686124D01*
G37*
G36*
X442246Y635847D02*
X442314Y633058D01*
X453390Y633329D01*
X453322Y636118D01*
X451798Y637569D01*
X451540Y637563D01*
X451276Y637603D01*
X451014Y637756D01*
X450833Y637999D01*
X450760Y638294D01*
X450809Y638593D01*
X450970Y638850D01*
X451696Y639613D01*
X451624Y642557D01*
X451680Y642861D01*
X451847Y643114D01*
X454692Y645959D01*
X454692Y656148D01*
X454743Y656422D01*
X454907Y656678D01*
X455157Y656849D01*
X455454Y656910D01*
X457106Y656910D01*
X457692Y657495D01*
X457692Y666324D01*
X457106Y666910D01*
X447278Y666910D01*
X446692Y666324D01*
X446692Y665172D01*
X446641Y664897D01*
X446478Y664641D01*
X446227Y664470D01*
X445930Y664410D01*
X435784Y664410D01*
X435498Y664465D01*
X435245Y664633D01*
X421799Y678079D01*
X421636Y678321D01*
X421576Y678618D01*
X421576Y680635D01*
X419145Y683065D01*
X415708Y683065D01*
X413278Y680635D01*
X413278Y677197D01*
X414396Y676079D01*
X414548Y675862D01*
X414619Y675567D01*
X414569Y675268D01*
X414502Y675161D01*
X415199Y675164D01*
X415226Y667544D01*
X420560Y667562D01*
X420550Y670415D01*
X420597Y670681D01*
X420756Y670939D01*
X421004Y671114D01*
X421300Y671179D01*
X421598Y671124D01*
X421851Y670956D01*
X433398Y659410D01*
X445930Y659410D01*
X446205Y659358D01*
X446460Y659195D01*
X446632Y658945D01*
X446692Y658648D01*
X446692Y657495D01*
X447278Y656910D01*
X448930Y656910D01*
X449205Y656858D01*
X449460Y656695D01*
X449632Y656445D01*
X449692Y656148D01*
X449692Y648346D01*
X449637Y648060D01*
X449469Y647807D01*
X447807Y646144D01*
X447582Y645989D01*
X447286Y645921D01*
X444128Y645844D01*
X443556Y645244D01*
X443699Y639418D01*
X444462Y638691D01*
X444620Y638475D01*
X444697Y638182D01*
X444654Y637882D01*
X444496Y637623D01*
X444251Y637445D01*
X443955Y637377D01*
X443697Y637371D01*
X442246Y635847D01*
G37*
%LPD*%
G36*
X326779Y722051D02*
X326482Y721990D01*
X293198Y721990D01*
X292912Y722046D01*
X292659Y722213D01*
X281049Y733824D01*
X280884Y734071D01*
X280826Y734369D01*
X280829Y734667D01*
X280884Y734946D01*
X281052Y735199D01*
X293354Y747502D01*
X293585Y747660D01*
X293881Y747725D01*
X294179Y747669D01*
X294432Y747502D01*
X296463Y745470D01*
X297242Y745470D01*
X297528Y745414D01*
X297781Y745247D01*
X298864Y744164D01*
X299009Y743961D01*
X299086Y743668D01*
X299043Y743367D01*
X298886Y743108D01*
X298640Y742931D01*
X298344Y742863D01*
X296383Y742815D01*
X296654Y731738D01*
X299443Y731807D01*
X300894Y733330D01*
X300888Y733589D01*
X300928Y733853D01*
X301081Y734115D01*
X301324Y734296D01*
X301619Y734369D01*
X301918Y734320D01*
X302175Y734159D01*
X302938Y733432D01*
X308765Y733575D01*
X309336Y734175D01*
X309263Y737142D01*
X309319Y737447D01*
X309486Y737700D01*
X316117Y744331D01*
X316348Y744489D01*
X316644Y744554D01*
X316942Y744498D01*
X317195Y744331D01*
X318837Y742689D01*
X319000Y742447D01*
X319060Y742150D01*
X319060Y740462D01*
X319004Y740176D01*
X318837Y739923D01*
X318090Y739176D01*
X318090Y732348D01*
X318676Y731762D01*
X324504Y731762D01*
X325249Y732507D01*
X325468Y732660D01*
X325764Y732730D01*
X326063Y732679D01*
X326318Y732516D01*
X326489Y732266D01*
X326550Y731968D01*
X326550Y731710D01*
X328038Y730222D01*
X330828Y730222D01*
X330828Y741302D01*
X328038Y741302D01*
X326550Y739814D01*
X326550Y739556D01*
X326503Y739293D01*
X326344Y739035D01*
X326096Y738859D01*
X325800Y738794D01*
X325502Y738850D01*
X325249Y739017D01*
X324504Y739762D01*
X323346Y739762D01*
X323071Y739813D01*
X322816Y739977D01*
X322644Y740227D01*
X322584Y740524D01*
X322584Y742150D01*
X322640Y742436D01*
X322807Y742689D01*
X324846Y744728D01*
X324846Y748061D01*
X322489Y750418D01*
X319155Y750418D01*
X317567Y748830D01*
X317347Y748677D01*
X317052Y748607D01*
X316753Y748658D01*
X316498Y748821D01*
X316326Y749071D01*
X316266Y749369D01*
X316266Y752329D01*
X316311Y752589D01*
X316469Y752848D01*
X316716Y753024D01*
X317012Y753091D01*
X317310Y753037D01*
X317564Y752871D01*
X317948Y752491D01*
X319605Y752499D01*
X320731Y753638D01*
X320961Y753797D01*
X321257Y753864D01*
X321555Y753810D01*
X321809Y753644D01*
X322948Y752517D01*
X324605Y752526D01*
X325731Y753664D01*
X325961Y753824D01*
X326257Y753890D01*
X326555Y753836D01*
X326809Y753670D01*
X327948Y752543D01*
X329604Y752552D01*
X330731Y753691D01*
X330961Y753850D01*
X331257Y753916D01*
X331555Y753862D01*
X331809Y753696D01*
X332948Y752569D01*
X334604Y752578D01*
X335731Y753717D01*
X335961Y753876D01*
X336257Y753943D01*
X336555Y753888D01*
X336809Y753722D01*
X337947Y752596D01*
X339532Y752604D01*
X339811Y752553D01*
X340066Y752389D01*
X340238Y752139D01*
X340298Y751842D01*
X340298Y735807D01*
X340242Y735521D01*
X340075Y735268D01*
X337931Y733124D01*
X337711Y732971D01*
X337416Y732901D01*
X337117Y732952D01*
X336862Y733115D01*
X336690Y733365D01*
X336630Y733663D01*
X336630Y735000D01*
X332352Y735000D01*
X332352Y730222D01*
X333190Y730222D01*
X333453Y730175D01*
X333711Y730016D01*
X333886Y729769D01*
X333951Y729472D01*
X333896Y729174D01*
X333728Y728921D01*
X327020Y722213D01*
X326779Y722051D01*
G37*
%LPC*%
G36*
X290619Y741186D02*
X290699Y737897D01*
X294976Y738001D01*
X294859Y742778D01*
X292070Y742710D01*
X290619Y741186D01*
G37*
G36*
X332352Y736524D02*
X336630Y736524D01*
X336630Y739814D01*
X335142Y741302D01*
X332352Y741302D01*
X332352Y736524D01*
G37*
G36*
X290817Y733084D02*
X292341Y731633D01*
X295130Y731701D01*
X295013Y736478D01*
X290737Y736373D01*
X290817Y733084D01*
G37*
%LPD*%
G36*
X375805Y626600D02*
X375507Y626540D01*
X316555Y626540D01*
X316281Y626591D01*
X316025Y626755D01*
X315854Y627005D01*
X315793Y627302D01*
X315793Y643038D01*
X315607Y643224D01*
X315442Y643472D01*
X315384Y643770D01*
X315406Y646305D01*
X315464Y646591D01*
X315634Y646842D01*
X316049Y647250D01*
X316150Y658746D01*
X315569Y659337D01*
X312203Y659366D01*
X311929Y659420D01*
X311675Y659586D01*
X311505Y659837D01*
X311448Y660135D01*
X311497Y665802D01*
X304639Y665862D01*
X304716Y674624D01*
X300870Y674658D01*
X300399Y674195D01*
X300167Y674039D01*
X299871Y673977D01*
X299573Y674035D01*
X299322Y674205D01*
X298875Y674659D01*
X284077Y674788D01*
X283486Y674208D01*
X283476Y673062D01*
X283427Y672799D01*
X283266Y672543D01*
X283017Y672370D01*
X282720Y672307D01*
X282422Y672365D01*
X282171Y672535D01*
X281431Y673287D01*
X279922Y673301D01*
X279654Y673352D01*
X279399Y673515D01*
X279227Y673765D01*
X279167Y674063D01*
X279167Y677232D01*
X279223Y677518D01*
X279390Y677771D01*
X289791Y688171D01*
X289791Y696667D01*
X289847Y696953D01*
X290014Y697206D01*
X290240Y697432D01*
X290471Y697590D01*
X290767Y697655D01*
X291065Y697599D01*
X291318Y697432D01*
X291865Y696885D01*
X295193Y696885D01*
X295220Y696912D01*
X295462Y697074D01*
X295759Y697135D01*
X311361Y697135D01*
X317143Y702917D01*
X317362Y703070D01*
X317658Y703140D01*
X317957Y703089D01*
X318212Y702926D01*
X318384Y702676D01*
X318444Y702379D01*
X318444Y698298D01*
X351788Y664954D01*
X351946Y664724D01*
X352011Y664427D01*
X352020Y663843D01*
X352615Y663266D01*
X355943Y663318D01*
X356482Y663874D01*
X356709Y664035D01*
X357005Y664105D01*
X357304Y664054D01*
X357559Y663891D01*
X357742Y663714D01*
X357913Y663464D01*
X357973Y663167D01*
X357973Y662222D01*
X357918Y661936D01*
X357750Y661683D01*
X352954Y656887D01*
X352712Y656724D01*
X352415Y656664D01*
X351130Y656664D01*
X350844Y656719D01*
X350592Y656887D01*
X349275Y658204D01*
X347735Y658204D01*
X347735Y649624D01*
X349275Y649624D01*
X350592Y650940D01*
X350833Y651103D01*
X351130Y651164D01*
X354137Y651164D01*
X354723Y651749D01*
X354723Y653356D01*
X354778Y653642D01*
X354946Y653895D01*
X361497Y660446D01*
X361497Y663153D01*
X361549Y663428D01*
X361712Y663683D01*
X362019Y664000D01*
X362011Y664538D01*
X362062Y664824D01*
X362225Y665080D01*
X362475Y665251D01*
X362773Y665311D01*
X381152Y665311D01*
X381424Y665261D01*
X381681Y665099D01*
X381853Y664849D01*
X381914Y664552D01*
X381927Y660790D01*
X381942Y660775D01*
X382096Y660556D01*
X382167Y660262D01*
X382117Y659962D01*
X381955Y659706D01*
X381705Y659534D01*
X381408Y659473D01*
X376264Y659455D01*
X375680Y658867D01*
X375720Y647370D01*
X376133Y646960D01*
X376297Y646719D01*
X376358Y646422D01*
X376369Y643469D01*
X376356Y643469D01*
X376314Y643168D01*
X376269Y643100D01*
X376269Y627302D01*
X376218Y627027D01*
X376055Y626772D01*
X375805Y626600D01*
G37*
%LPC*%
G36*
X306177Y667372D02*
X311510Y667326D01*
X311561Y673077D01*
X310086Y674577D01*
X306240Y674611D01*
X306177Y667372D01*
G37*
G36*
X343183Y654676D02*
X346211Y654676D01*
X346211Y658204D01*
X344671Y658204D01*
X343183Y656716D01*
X343183Y654676D01*
G37*
G36*
X344671Y649624D02*
X346211Y649624D01*
X346211Y653152D01*
X343183Y653152D01*
X343183Y651111D01*
X344671Y649624D01*
G37*
%LPD*%
G36*
X272560Y659773D02*
X272263Y659715D01*
X266863Y659762D01*
X266595Y659813D01*
X266339Y659977D01*
X266168Y660227D01*
X266107Y660524D01*
X266107Y661433D01*
X266163Y661719D01*
X266330Y661971D01*
X267647Y663288D01*
X267647Y664828D01*
X262595Y664828D01*
X262595Y669380D01*
X260555Y669380D01*
X259067Y667892D01*
X259067Y667493D01*
X259020Y667230D01*
X258861Y666971D01*
X258614Y666796D01*
X258317Y666731D01*
X258019Y666787D01*
X257766Y666954D01*
X241695Y683025D01*
X241532Y683267D01*
X241472Y683564D01*
X241472Y688807D01*
X241519Y689071D01*
X241678Y689329D01*
X241926Y689504D01*
X242222Y689569D01*
X242520Y689514D01*
X242773Y689346D01*
X244682Y687437D01*
X248119Y687437D01*
X250283Y689601D01*
X250524Y689764D01*
X250822Y689824D01*
X259780Y689824D01*
X265974Y696018D01*
X266194Y696171D01*
X266489Y696241D01*
X266788Y696190D01*
X267043Y696027D01*
X267215Y695777D01*
X267275Y695479D01*
X267275Y693741D01*
X270303Y693741D01*
X270303Y697269D01*
X269065Y697269D01*
X268802Y697316D01*
X268544Y697476D01*
X268368Y697723D01*
X268303Y698019D01*
X268359Y698317D01*
X268526Y698570D01*
X270055Y700099D01*
X270297Y700262D01*
X270594Y700322D01*
X272201Y700322D01*
X272748Y700869D01*
X272978Y701027D01*
X273274Y701092D01*
X273572Y701036D01*
X273825Y700869D01*
X273842Y700852D01*
X274005Y700611D01*
X274065Y700313D01*
X274065Y698031D01*
X274014Y697757D01*
X273851Y697501D01*
X273600Y697330D01*
X273303Y697269D01*
X271827Y697269D01*
X271827Y688689D01*
X273367Y688689D01*
X274684Y690006D01*
X274926Y690169D01*
X275223Y690229D01*
X278229Y690229D01*
X278815Y690815D01*
X278815Y691378D01*
X278871Y691664D01*
X279038Y691917D01*
X279065Y691944D01*
X279065Y701147D01*
X279116Y701421D01*
X279280Y701677D01*
X279530Y701848D01*
X279827Y701909D01*
X285017Y701909D01*
X285292Y701858D01*
X285547Y701694D01*
X285719Y701444D01*
X285779Y701147D01*
X285779Y697471D01*
X286044Y697206D01*
X286207Y696964D01*
X286267Y696667D01*
X286267Y689947D01*
X286211Y689661D01*
X286044Y689408D01*
X275643Y679007D01*
X275643Y674107D01*
X275589Y673826D01*
X275424Y673572D01*
X275172Y673402D01*
X274874Y673345D01*
X273769Y673354D01*
X273501Y673405D01*
X273245Y673569D01*
X273074Y673819D01*
X273013Y674116D01*
X273013Y675115D01*
X264433Y675115D01*
X264433Y673575D01*
X265750Y672258D01*
X265913Y672016D01*
X265973Y671719D01*
X265973Y670142D01*
X265922Y669868D01*
X265759Y669612D01*
X265509Y669441D01*
X265211Y669380D01*
X264119Y669380D01*
X264119Y666352D01*
X267647Y666352D01*
X267647Y667365D01*
X267698Y667640D01*
X267862Y667895D01*
X268112Y668067D01*
X268409Y668127D01*
X270888Y668127D01*
X271152Y668392D01*
X271394Y668555D01*
X271691Y668615D01*
X272096Y668615D01*
X272376Y668561D01*
X272630Y668396D01*
X272800Y668144D01*
X272858Y667846D01*
X272798Y661026D01*
X272813Y661011D01*
X272964Y660790D01*
X273031Y660495D01*
X272978Y660196D01*
X272812Y659942D01*
X272560Y659773D01*
G37*
%LPC*%
G36*
X268763Y688689D02*
X270303Y688689D01*
X270303Y692217D01*
X267275Y692217D01*
X267275Y690177D01*
X268763Y688689D01*
G37*
G36*
X269485Y676639D02*
X273013Y676639D01*
X273013Y678179D01*
X271526Y679667D01*
X269485Y679667D01*
X269485Y676639D01*
G37*
G36*
X264433Y676639D02*
X267961Y676639D01*
X267961Y679667D01*
X265921Y679667D01*
X264433Y678179D01*
X264433Y676639D01*
G37*
%LPD*%
G36*
X351858Y933114D02*
X353037Y933255D01*
X354217Y933130D01*
X355340Y932746D01*
X356349Y932122D01*
X357194Y931288D01*
X357833Y930288D01*
X358233Y929170D01*
X358373Y927995D01*
X358450Y916989D01*
X358326Y915812D01*
X357942Y914689D01*
X357317Y913679D01*
X356484Y912834D01*
X355483Y912196D01*
X354366Y911796D01*
X353187Y911655D01*
X352007Y911780D01*
X350884Y912164D01*
X349875Y912788D01*
X349030Y913622D01*
X348391Y914622D01*
X347991Y915740D01*
X347850Y916915D01*
X347774Y927921D01*
X347898Y929098D01*
X348282Y930221D01*
X348907Y931230D01*
X349740Y932076D01*
X350741Y932714D01*
X351858Y933114D01*
G37*
G36*
X351858Y933114D02*
X353037Y933255D01*
X354217Y933130D01*
X355340Y932746D01*
X356349Y932122D01*
X357194Y931288D01*
X357833Y930288D01*
X358233Y929170D01*
X358373Y927995D01*
X358450Y916989D01*
X358326Y915812D01*
X357942Y914689D01*
X357317Y913679D01*
X356484Y912834D01*
X355483Y912196D01*
X354366Y911796D01*
X353187Y911655D01*
X352007Y911780D01*
X350884Y912164D01*
X349875Y912788D01*
X349030Y913622D01*
X348391Y914622D01*
X347991Y915740D01*
X347850Y916915D01*
X347774Y927921D01*
X347898Y929098D01*
X348282Y930221D01*
X348907Y931230D01*
X349740Y932076D01*
X350741Y932714D01*
X351858Y933114D01*
G37*
G36*
X265460Y932511D02*
X266639Y932652D01*
X267819Y932527D01*
X268942Y932143D01*
X269951Y931519D01*
X270796Y930685D01*
X271435Y929685D01*
X271835Y928567D01*
X271975Y927391D01*
X272052Y916386D01*
X271928Y915209D01*
X271544Y914086D01*
X270919Y913076D01*
X270086Y912231D01*
X269085Y911593D01*
X267968Y911193D01*
X266789Y911052D01*
X265609Y911176D01*
X264486Y911561D01*
X263477Y912185D01*
X262632Y913018D01*
X261993Y914019D01*
X261593Y915136D01*
X261453Y916312D01*
X261376Y927317D01*
X261500Y928495D01*
X261884Y929618D01*
X262509Y930627D01*
X263342Y931472D01*
X264343Y932111D01*
X265460Y932511D01*
G37*
G36*
X265460Y932511D02*
X266639Y932652D01*
X267819Y932527D01*
X268942Y932143D01*
X269951Y931519D01*
X270796Y930685D01*
X271435Y929685D01*
X271835Y928567D01*
X271975Y927391D01*
X272052Y916386D01*
X271928Y915209D01*
X271544Y914086D01*
X270919Y913076D01*
X270086Y912231D01*
X269085Y911593D01*
X267968Y911193D01*
X266789Y911052D01*
X265609Y911176D01*
X264486Y911561D01*
X263477Y912185D01*
X262632Y913018D01*
X261993Y914019D01*
X261593Y915136D01*
X261453Y916312D01*
X261376Y927317D01*
X261500Y928495D01*
X261884Y929618D01*
X262509Y930627D01*
X263342Y931472D01*
X264343Y932111D01*
X265460Y932511D01*
G37*
G36*
X265181Y972510D02*
X266359Y972651D01*
X267540Y972526D01*
X268663Y972142D01*
X269672Y971518D01*
X270517Y970684D01*
X271156Y969684D01*
X271555Y968566D01*
X271696Y967390D01*
X271752Y959385D01*
X271628Y958208D01*
X271244Y957085D01*
X270619Y956075D01*
X269786Y955230D01*
X268785Y954592D01*
X267668Y954192D01*
X266489Y954051D01*
X265309Y954175D01*
X264186Y954559D01*
X263177Y955184D01*
X262331Y956017D01*
X261693Y957018D01*
X261293Y958135D01*
X261152Y959311D01*
X261096Y967316D01*
X261221Y968494D01*
X261605Y969617D01*
X262229Y970626D01*
X263063Y971471D01*
X264063Y972110D01*
X265181Y972510D01*
G37*
G36*
X265181Y972510D02*
X266359Y972651D01*
X267540Y972526D01*
X268663Y972142D01*
X269672Y971518D01*
X270517Y970684D01*
X271156Y969684D01*
X271555Y968566D01*
X271696Y967390D01*
X271752Y959385D01*
X271628Y958208D01*
X271244Y957085D01*
X270619Y956075D01*
X269786Y955230D01*
X268785Y954592D01*
X267668Y954192D01*
X266489Y954051D01*
X265309Y954175D01*
X264186Y954559D01*
X263177Y955184D01*
X262331Y956017D01*
X261693Y957018D01*
X261293Y958135D01*
X261152Y959311D01*
X261096Y967316D01*
X261221Y968494D01*
X261605Y969617D01*
X262229Y970626D01*
X263063Y971471D01*
X264063Y972110D01*
X265181Y972510D01*
G37*
G36*
X351579Y973113D02*
X352757Y973254D01*
X353938Y973129D01*
X355061Y972745D01*
X356070Y972121D01*
X356915Y971287D01*
X357554Y970287D01*
X357953Y969169D01*
X358094Y967994D01*
X358150Y959988D01*
X358026Y958811D01*
X357641Y957688D01*
X357017Y956678D01*
X356184Y955833D01*
X355183Y955195D01*
X354066Y954795D01*
X352887Y954654D01*
X351707Y954778D01*
X350584Y955163D01*
X349574Y955787D01*
X348729Y956620D01*
X348091Y957621D01*
X347691Y958739D01*
X347550Y959914D01*
X347494Y967920D01*
X347619Y969097D01*
X348003Y970220D01*
X348627Y971230D01*
X349461Y972075D01*
X350461Y972713D01*
X351579Y973113D01*
G37*
G36*
X351579Y973113D02*
X352757Y973254D01*
X353938Y973129D01*
X355061Y972745D01*
X356070Y972121D01*
X356915Y971287D01*
X357554Y970287D01*
X357953Y969169D01*
X358094Y967994D01*
X358150Y959988D01*
X358026Y958811D01*
X357641Y957688D01*
X357017Y956678D01*
X356184Y955833D01*
X355183Y955195D01*
X354066Y954795D01*
X352887Y954654D01*
X351707Y954778D01*
X350584Y955163D01*
X349574Y955787D01*
X348729Y956620D01*
X348091Y957621D01*
X347691Y958739D01*
X347550Y959914D01*
X347494Y967920D01*
X347619Y969097D01*
X348003Y970220D01*
X348627Y971230D01*
X349461Y972075D01*
X350461Y972713D01*
X351579Y973113D01*
G37*
G36*
X412039Y643593D02*
X412015Y650451D01*
X423699Y650492D01*
X423723Y643634D01*
X412039Y643593D01*
G37*
G36*
X268028Y643765D02*
X268088Y650623D01*
X279772Y650521D01*
X279712Y643663D01*
X268028Y643765D01*
G37*
G36*
X157600Y643542D02*
X157565Y650400D01*
X169248Y650461D01*
X169284Y643603D01*
X157600Y643542D01*
G37*
G36*
X192270Y643723D02*
X192234Y650581D01*
X203918Y650642D01*
X203954Y643784D01*
X192270Y643723D01*
G37*
G36*
X302697Y643463D02*
X302757Y650320D01*
X314440Y650218D01*
X314380Y643361D01*
X302697Y643463D01*
G37*
G36*
X377369Y643472D02*
X377345Y650330D01*
X389029Y650371D01*
X389053Y643513D01*
X377369Y643472D01*
G37*
D10*
X453119Y781971D03*
X483119Y781971D03*
D11*
X387139Y819434D03*
X392239Y819434D03*
D12*
G36*
X444688Y639857D02*
X444566Y644854D01*
X450564Y645001D01*
X450686Y640004D01*
X444688Y639857D01*
G37*
G36*
X444933Y629860D02*
X444811Y634857D01*
X450809Y635004D01*
X450931Y630007D01*
X444933Y629860D01*
G37*
D11*
X339769Y844466D03*
X344869Y844466D03*
X384640Y810266D03*
X389740Y810266D03*
G36*
X367599Y740144D02*
X367555Y742943D01*
X371853Y743010D01*
X371897Y740211D01*
X367599Y740144D01*
G37*
G36*
X367679Y735045D02*
X367635Y737844D01*
X371933Y737911D01*
X371977Y735112D01*
X367679Y735045D01*
G37*
X348943Y833367D03*
X354043Y833367D03*
D12*
G36*
X356102Y850508D02*
X356006Y845510D01*
X350008Y845626D01*
X350104Y850624D01*
X356102Y850508D01*
G37*
G36*
X356294Y860506D02*
X356198Y855508D01*
X350200Y855624D01*
X350296Y860622D01*
X356294Y860506D01*
G37*
X402547Y806951D03*
X412547Y806951D03*
D11*
X322959Y825673D03*
X328059Y825673D03*
D13*
X282370Y815983D03*
X282370Y821083D03*
D11*
X307921Y829787D03*
X313021Y829787D03*
G36*
X146836Y887706D02*
X149631Y887853D01*
X149856Y883560D01*
X147061Y883413D01*
X146836Y887706D01*
G37*
G36*
X141743Y887439D02*
X144538Y887586D01*
X144763Y883293D01*
X141968Y883146D01*
X141743Y887439D01*
G37*
G36*
X349341Y872169D02*
X349336Y874968D01*
X353635Y874975D01*
X353640Y872176D01*
X349341Y872169D01*
G37*
G36*
X349350Y867069D02*
X349345Y869868D01*
X353644Y869875D01*
X353649Y867076D01*
X349350Y867069D01*
G37*
D12*
X321590Y735762D03*
X331590Y735762D03*
G36*
X303181Y740440D02*
X308178Y740562D01*
X308325Y734564D01*
X303328Y734442D01*
X303181Y740440D01*
G37*
G36*
X293184Y740196D02*
X298181Y740318D01*
X298328Y734320D01*
X293331Y734198D01*
X293184Y740196D01*
G37*
D11*
G36*
X423798Y763253D02*
X423856Y766051D01*
X428154Y765961D01*
X428096Y763163D01*
X423798Y763253D01*
G37*
G36*
X423691Y758155D02*
X423749Y760953D01*
X428047Y760863D01*
X427989Y758065D01*
X423691Y758155D01*
G37*
G36*
X121686Y949029D02*
X118887Y949014D01*
X118864Y953313D01*
X121663Y953328D01*
X121686Y949029D01*
G37*
G36*
X126786Y949056D02*
X123987Y949041D01*
X123964Y953340D01*
X126763Y953355D01*
X126786Y949056D01*
G37*
D12*
X94336Y948307D03*
X104336Y948307D03*
X163420Y940141D03*
X173420Y940141D03*
D11*
X395657Y765138D03*
X400757Y765138D03*
D12*
X171063Y915796D03*
X181063Y915796D03*
D14*
X262491Y845854D03*
X262491Y855854D03*
D12*
G36*
X238975Y844236D02*
X233977Y844140D01*
X233861Y850138D01*
X238859Y850234D01*
X238975Y844236D01*
G37*
G36*
X248973Y844428D02*
X243975Y844332D01*
X243859Y850330D01*
X248857Y850426D01*
X248973Y844428D01*
G37*
G36*
X157337Y961381D02*
X157328Y966380D01*
X163327Y966391D01*
X163336Y961392D01*
X157337Y961381D01*
G37*
G36*
X157354Y951381D02*
X157345Y956380D01*
X163344Y956391D01*
X163353Y951392D01*
X157354Y951381D01*
G37*
D11*
G36*
X413185Y767076D02*
X415984Y767042D01*
X415931Y762744D01*
X413132Y762778D01*
X413185Y767076D01*
G37*
G36*
X408085Y767139D02*
X410884Y767105D01*
X410831Y762807D01*
X408032Y762841D01*
X408085Y767139D01*
G37*
G36*
X275613Y880380D02*
X272814Y880414D01*
X272867Y884712D01*
X275666Y884678D01*
X275613Y880380D01*
G37*
G36*
X280713Y880318D02*
X277914Y880352D01*
X277967Y884650D01*
X280766Y884616D01*
X280713Y880318D01*
G37*
D12*
X344084Y897085D03*
X354084Y897085D03*
D11*
G36*
X292574Y833660D02*
X295372Y833718D01*
X295462Y829420D01*
X292664Y829362D01*
X292574Y833660D01*
G37*
G36*
X287475Y833554D02*
X290273Y833612D01*
X290363Y829314D01*
X287565Y829256D01*
X287475Y833554D01*
G37*
D12*
G36*
X273806Y732037D02*
X273849Y737036D01*
X279848Y736983D01*
X279805Y731984D01*
X273806Y732037D01*
G37*
G36*
X273719Y722038D02*
X273762Y727037D01*
X279761Y726984D01*
X279718Y721985D01*
X273719Y722038D01*
G37*
D11*
G36*
X157938Y903079D02*
X160737Y903070D01*
X160722Y898771D01*
X157923Y898780D01*
X157938Y903079D01*
G37*
G36*
X152838Y903096D02*
X155637Y903087D01*
X155622Y898788D01*
X152823Y898797D01*
X152838Y903096D01*
G37*
X386501Y734674D03*
X391601Y734674D03*
X382326Y784174D03*
X387426Y784174D03*
D15*
G36*
X221381Y728979D02*
X232878Y729200D01*
X233031Y721203D01*
X221534Y720982D01*
X221381Y728979D01*
G37*
G36*
X186387Y728307D02*
X197884Y728528D01*
X198037Y720531D01*
X186540Y720310D01*
X186387Y728307D01*
G37*
D16*
G36*
X308980Y893252D02*
X308665Y905247D01*
X314662Y905404D01*
X314977Y893409D01*
X308980Y893252D01*
G37*
G36*
X299483Y893003D02*
X299168Y904998D01*
X305165Y905155D01*
X305480Y893160D01*
X299483Y893003D01*
G37*
G36*
X289987Y892754D02*
X289672Y904749D01*
X295669Y904906D01*
X295984Y892911D01*
X289987Y892754D01*
G37*
G36*
X290641Y867763D02*
X290326Y879758D01*
X296323Y879915D01*
X296638Y867920D01*
X290641Y867763D01*
G37*
G36*
X300138Y868012D02*
X299823Y880007D01*
X305820Y880164D01*
X306135Y868169D01*
X300138Y868012D01*
G37*
G36*
X309635Y868260D02*
X309320Y880255D01*
X315317Y880412D01*
X315632Y868417D01*
X309635Y868260D01*
G37*
D15*
X191554Y705509D03*
X226554Y705509D03*
G36*
X219933Y797995D02*
X219733Y786498D01*
X211735Y786637D01*
X211935Y798134D01*
X219933Y797995D01*
G37*
G36*
X220544Y832989D02*
X220344Y821492D01*
X212346Y821631D01*
X212546Y833128D01*
X220544Y832989D01*
G37*
D12*
G36*
X198200Y838652D02*
X203199Y838713D01*
X203272Y832714D01*
X198273Y832653D01*
X198200Y838652D01*
G37*
G36*
X188200Y838529D02*
X193199Y838590D01*
X193272Y832591D01*
X188273Y832530D01*
X188200Y838529D01*
G37*
G36*
X218981Y743313D02*
X223980Y743260D01*
X223917Y737261D01*
X218918Y737314D01*
X218981Y743313D01*
G37*
G36*
X208982Y743417D02*
X213981Y743364D01*
X213918Y737365D01*
X208919Y737418D01*
X208982Y743417D01*
G37*
G36*
X194640Y746119D02*
X199639Y746092D01*
X199608Y740093D01*
X194609Y740120D01*
X194640Y746119D01*
G37*
G36*
X184640Y746172D02*
X189639Y746145D01*
X189608Y740146D01*
X184609Y740173D01*
X184640Y746172D01*
G37*
G36*
X133520Y711942D02*
X138518Y711977D01*
X138560Y705978D01*
X133562Y705943D01*
X133520Y711942D01*
G37*
G36*
X123520Y711872D02*
X128518Y711907D01*
X128560Y705908D01*
X123562Y705873D01*
X123520Y711872D01*
G37*
X199684Y845326D03*
X189684Y845326D03*
D11*
G36*
X184933Y796291D02*
X187732Y796296D01*
X187739Y791997D01*
X184940Y791992D01*
X184933Y796291D01*
G37*
G36*
X179833Y796282D02*
X182632Y796287D01*
X182639Y791988D01*
X179840Y791983D01*
X179833Y796282D01*
G37*
D12*
G36*
X197649Y781920D02*
X202647Y781885D01*
X202605Y775886D01*
X197607Y775921D01*
X197649Y781920D01*
G37*
G36*
X187649Y781990D02*
X192647Y781955D01*
X192605Y775956D01*
X187607Y775991D01*
X187649Y781990D01*
G37*
G36*
X195569Y770240D02*
X200568Y770249D01*
X200579Y764250D01*
X195580Y764241D01*
X195569Y770240D01*
G37*
G36*
X185569Y770223D02*
X190568Y770232D01*
X190579Y764233D01*
X185580Y764224D01*
X185569Y770223D01*
G37*
G36*
X213443Y773509D02*
X213416Y778508D01*
X219415Y778539D01*
X219442Y773540D01*
X213443Y773509D01*
G37*
G36*
X213495Y763509D02*
X213468Y768508D01*
X219467Y768539D01*
X219494Y763540D01*
X213495Y763509D01*
G37*
G36*
X223073Y755117D02*
X228072Y755074D01*
X228019Y749075D01*
X223020Y749118D01*
X223073Y755117D01*
G37*
G36*
X213074Y755204D02*
X218073Y755161D01*
X218020Y749162D01*
X213021Y749205D01*
X213074Y755204D01*
G37*
D17*
X251047Y823209D03*
X251040Y827209D03*
X255047Y823216D03*
X255040Y827216D03*
X259047Y823223D03*
X259040Y827223D03*
X263047Y823230D03*
X263040Y827230D03*
D18*
G36*
X281499Y779798D02*
X281585Y776300D01*
X278587Y776226D01*
X278501Y779724D01*
X281499Y779798D01*
G37*
G36*
X286497Y779920D02*
X286583Y776422D01*
X283585Y776348D01*
X283499Y779846D01*
X286497Y779920D01*
G37*
G36*
X291496Y780043D02*
X291582Y776545D01*
X288584Y776471D01*
X288498Y779969D01*
X291496Y780043D01*
G37*
G36*
X296494Y780165D02*
X296580Y776667D01*
X293582Y776593D01*
X293496Y780091D01*
X296494Y780165D01*
G37*
G36*
X296946Y782177D02*
X293448Y782091D01*
X293374Y785089D01*
X296872Y785175D01*
X296946Y782177D01*
G37*
G36*
X296824Y787176D02*
X293326Y787090D01*
X293252Y790088D01*
X296750Y790174D01*
X296824Y787176D01*
G37*
G36*
X296115Y795660D02*
X296201Y792162D01*
X293203Y792088D01*
X293117Y795586D01*
X296115Y795660D01*
G37*
G36*
X291117Y795538D02*
X291203Y792040D01*
X288205Y791966D01*
X288119Y795464D01*
X291117Y795538D01*
G37*
G36*
X286118Y795416D02*
X286204Y791918D01*
X283206Y791844D01*
X283120Y795342D01*
X286118Y795416D01*
G37*
G36*
X281120Y795294D02*
X281206Y791796D01*
X278208Y791722D01*
X278122Y795220D01*
X281120Y795294D01*
G37*
G36*
X281328Y786797D02*
X277830Y786711D01*
X277756Y789709D01*
X281254Y789795D01*
X281328Y786797D01*
G37*
G36*
X281450Y781799D02*
X277952Y781713D01*
X277878Y784711D01*
X281376Y784797D01*
X281450Y781799D01*
G37*
D19*
X475569Y710902D03*
X480569Y710902D03*
X485569Y710902D03*
X475569Y705902D03*
X480569Y705902D03*
X485569Y705902D03*
X475569Y700902D03*
X480569Y700902D03*
X485569Y700902D03*
D20*
X123273Y935100D03*
X127273Y935100D03*
X131273Y935100D03*
X123273Y931100D03*
X127273Y931100D03*
X131273Y931100D03*
X123273Y927100D03*
X127273Y927100D03*
X131273Y927100D03*
X123273Y923100D03*
X127273Y923100D03*
X131273Y923100D03*
X123273Y919100D03*
X127273Y919100D03*
X131273Y919100D03*
D21*
G36*
X169080Y855996D02*
X162081Y856069D01*
X162112Y859068D01*
X169111Y858995D01*
X169080Y855996D01*
G37*
G36*
X169028Y850997D02*
X162029Y851070D01*
X162060Y854069D01*
X169059Y853996D01*
X169028Y850997D01*
G37*
G36*
X168975Y845997D02*
X161976Y846070D01*
X162007Y849069D01*
X169006Y848996D01*
X168975Y845997D01*
G37*
G36*
X168923Y840997D02*
X161924Y841070D01*
X161955Y844069D01*
X168954Y843996D01*
X168923Y840997D01*
G37*
G36*
X168870Y835998D02*
X161871Y836071D01*
X161902Y839070D01*
X168901Y838997D01*
X168870Y835998D01*
G37*
G36*
X168818Y830998D02*
X161819Y831071D01*
X161850Y834070D01*
X168849Y833997D01*
X168818Y830998D01*
G37*
G36*
X168766Y825998D02*
X161767Y826071D01*
X161798Y829070D01*
X168797Y828997D01*
X168766Y825998D01*
G37*
G36*
X168713Y820998D02*
X161714Y821071D01*
X161745Y824070D01*
X168744Y823997D01*
X168713Y820998D01*
G37*
G36*
X168661Y815999D02*
X161662Y816072D01*
X161693Y819071D01*
X168692Y818998D01*
X168661Y815999D01*
G37*
G36*
X168609Y810999D02*
X161610Y811072D01*
X161641Y814071D01*
X168640Y813998D01*
X168609Y810999D01*
G37*
G36*
X168556Y805999D02*
X161557Y806072D01*
X161588Y809071D01*
X168587Y808998D01*
X168556Y805999D01*
G37*
G36*
X168504Y800999D02*
X161505Y801072D01*
X161536Y804071D01*
X168535Y803998D01*
X168504Y800999D01*
G37*
G36*
X168452Y796000D02*
X161453Y796073D01*
X161484Y799072D01*
X168483Y798999D01*
X168452Y796000D01*
G37*
G36*
X168399Y791000D02*
X161400Y791073D01*
X161431Y794072D01*
X168430Y793999D01*
X168399Y791000D01*
G37*
G36*
X168347Y786000D02*
X161348Y786073D01*
X161379Y789072D01*
X168378Y788999D01*
X168347Y786000D01*
G37*
G36*
X168295Y781001D02*
X161296Y781074D01*
X161327Y784073D01*
X168326Y784000D01*
X168295Y781001D01*
G37*
G36*
X168242Y776001D02*
X161243Y776074D01*
X161274Y779073D01*
X168273Y779000D01*
X168242Y776001D01*
G37*
G36*
X168190Y771001D02*
X161191Y771074D01*
X161222Y774073D01*
X168221Y774000D01*
X168190Y771001D01*
G37*
G36*
X168137Y766001D02*
X161138Y766074D01*
X161169Y769073D01*
X168168Y769000D01*
X168137Y766001D01*
G37*
G36*
X168085Y761002D02*
X161086Y761075D01*
X161117Y764074D01*
X168116Y764001D01*
X168085Y761002D01*
G37*
G36*
X168033Y756002D02*
X161034Y756075D01*
X161065Y759074D01*
X168064Y759001D01*
X168033Y756002D01*
G37*
G36*
X167980Y751002D02*
X160981Y751075D01*
X161012Y754074D01*
X168011Y754001D01*
X167980Y751002D01*
G37*
G36*
X167928Y746002D02*
X160929Y746075D01*
X160960Y749074D01*
X167959Y749001D01*
X167928Y746002D01*
G37*
G36*
X167876Y741003D02*
X160877Y741076D01*
X160908Y744075D01*
X167907Y744002D01*
X167876Y741003D01*
G37*
D22*
G36*
X144164Y864158D02*
X134165Y864263D01*
X134196Y867262D01*
X144195Y867157D01*
X144164Y864158D01*
G37*
G36*
X142794Y733365D02*
X132795Y733470D01*
X132826Y736469D01*
X142825Y736364D01*
X142794Y733365D01*
G37*
D23*
X461969Y893545D03*
X462390Y880852D03*
X449276Y893124D03*
X449697Y880431D03*
X436573Y892703D03*
X436994Y880010D03*
D24*
G36*
X310913Y922160D02*
X313912Y922181D01*
X313993Y910682D01*
X310994Y910661D01*
X310913Y922160D01*
G37*
G36*
X315913Y922195D02*
X318912Y922216D01*
X318993Y910717D01*
X315994Y910696D01*
X315913Y922195D01*
G37*
G36*
X320913Y922230D02*
X323912Y922251D01*
X323993Y910752D01*
X320994Y910731D01*
X320913Y922230D01*
G37*
G36*
X325913Y922265D02*
X328912Y922286D01*
X328993Y910787D01*
X325994Y910766D01*
X325913Y922265D01*
G37*
G36*
X305913Y922125D02*
X308912Y922146D01*
X308993Y910647D01*
X305994Y910626D01*
X305913Y922125D01*
G37*
G36*
X300913Y922090D02*
X303912Y922111D01*
X303993Y910612D01*
X300994Y910591D01*
X300913Y922090D01*
G37*
G36*
X295913Y922055D02*
X298912Y922076D01*
X298993Y910577D01*
X295994Y910556D01*
X295913Y922055D01*
G37*
G36*
X290914Y922020D02*
X293913Y922041D01*
X293994Y910542D01*
X290995Y910521D01*
X290914Y922020D01*
G37*
D25*
G36*
X338912Y922355D02*
X344911Y922397D01*
X344992Y910899D01*
X338993Y910857D01*
X338912Y922355D01*
G37*
G36*
X330913Y922299D02*
X336912Y922341D01*
X336993Y910843D01*
X330994Y910801D01*
X330913Y922299D01*
G37*
G36*
X282914Y921964D02*
X288913Y922006D01*
X288994Y910508D01*
X282995Y910466D01*
X282914Y921964D01*
G37*
G36*
X274914Y921908D02*
X280913Y921950D01*
X280994Y910452D01*
X274995Y910410D01*
X274914Y921908D01*
G37*
D26*
X352822Y963954D03*
X266424Y963351D03*
X353112Y922455D03*
X266714Y921852D03*
D12*
X395523Y795698D03*
X405523Y795698D03*
X322906Y873978D03*
X332906Y873978D03*
G36*
X327756Y858064D02*
X327783Y863063D01*
X333782Y863032D01*
X333755Y858033D01*
X327756Y858064D01*
G37*
G36*
X327703Y848064D02*
X327730Y853063D01*
X333729Y853032D01*
X333702Y848033D01*
X327703Y848064D01*
G37*
X188950Y815767D03*
X198950Y815767D03*
D27*
G36*
X89989Y901831D02*
X67995Y902331D01*
X68267Y914327D01*
X90261Y913827D01*
X89989Y901831D01*
G37*
G36*
X89523Y881276D02*
X67529Y881776D01*
X67801Y893772D01*
X89795Y893272D01*
X89523Y881276D01*
G37*
D28*
X473192Y652410D03*
X473192Y671410D03*
X452192Y661910D03*
D29*
X182546Y878184D03*
X182546Y865184D03*
X203546Y871684D03*
D30*
G36*
X261573Y788489D02*
X258077Y788630D01*
X258177Y791127D01*
X261673Y790986D01*
X261573Y788489D01*
G37*
G36*
X261352Y782993D02*
X257856Y783134D01*
X257956Y785631D01*
X261452Y785490D01*
X261352Y782993D01*
G37*
G36*
X291148Y755194D02*
X291129Y758693D01*
X293628Y758706D01*
X293647Y755207D01*
X291148Y755194D01*
G37*
G36*
X285648Y755166D02*
X285629Y758665D01*
X288128Y758678D01*
X288147Y755179D01*
X285648Y755166D01*
G37*
G36*
X235072Y810585D02*
X238569Y810469D01*
X238486Y807971D01*
X234989Y808087D01*
X235072Y810585D01*
G37*
G36*
X235255Y816082D02*
X238752Y815966D01*
X238669Y813468D01*
X235172Y813584D01*
X235255Y816082D01*
G37*
G36*
X320575Y898854D02*
X324074Y898885D01*
X324095Y896386D01*
X320596Y896355D01*
X320575Y898854D01*
G37*
G36*
X320527Y904354D02*
X324026Y904385D01*
X324047Y901886D01*
X320548Y901855D01*
X320527Y904354D01*
G37*
G36*
X127390Y899148D02*
X127506Y902645D01*
X130004Y902562D01*
X129888Y899065D01*
X127390Y899148D01*
G37*
G36*
X121893Y899330D02*
X122009Y902827D01*
X124507Y902744D01*
X124391Y899247D01*
X121893Y899330D01*
G37*
X181299Y902904D03*
X181299Y897404D03*
G36*
X285349Y895953D02*
X281852Y895831D01*
X281765Y898329D01*
X285262Y898451D01*
X285349Y895953D01*
G37*
G36*
X285541Y890456D02*
X282044Y890334D01*
X281957Y892832D01*
X285454Y892954D01*
X285541Y890456D01*
G37*
D31*
X268602Y778001D03*
X274102Y778001D03*
D30*
X102302Y917505D03*
X102302Y923005D03*
D31*
X270536Y703072D03*
X276036Y703072D03*
D30*
G36*
X358513Y664359D02*
X358458Y667858D01*
X360957Y667897D01*
X361012Y664398D01*
X358513Y664359D01*
G37*
G36*
X353014Y664273D02*
X352959Y667772D01*
X355458Y667811D01*
X355513Y664312D01*
X353014Y664273D01*
G37*
D31*
X288029Y699635D03*
X293529Y699635D03*
D30*
G36*
X274675Y822369D02*
X274656Y825868D01*
X277155Y825881D01*
X277174Y822382D01*
X274675Y822369D01*
G37*
G36*
X269175Y822340D02*
X269156Y825839D01*
X271655Y825852D01*
X271674Y822353D01*
X269175Y822340D01*
G37*
G36*
X486948Y664458D02*
X490446Y664525D01*
X490494Y662026D01*
X486996Y661959D01*
X486948Y664458D01*
G37*
G36*
X486842Y669957D02*
X490340Y670024D01*
X490388Y667525D01*
X486890Y667458D01*
X486842Y669957D01*
G37*
X263357Y665590D03*
X263357Y660090D03*
D32*
X234501Y641799D03*
X249741Y641799D03*
D33*
G36*
X410892Y672227D02*
X418003Y672252D01*
X418042Y661331D01*
X410931Y661306D01*
X410892Y672227D01*
G37*
G36*
X382888Y672129D02*
X389999Y672154D01*
X390038Y661233D01*
X382927Y661208D01*
X382888Y672129D01*
G37*
D34*
G36*
X413638Y658585D02*
X424305Y658622D01*
X424342Y647955D01*
X413675Y647918D01*
X413638Y658585D01*
G37*
G36*
X376682Y658456D02*
X387349Y658493D01*
X387386Y647826D01*
X376719Y647789D01*
X376682Y658456D01*
G37*
D35*
G36*
X393455Y673690D02*
X407424Y673739D01*
X407463Y662818D01*
X393494Y662769D01*
X393455Y673690D01*
G37*
D33*
G36*
X301900Y672108D02*
X309011Y672046D01*
X308916Y661126D01*
X301805Y661188D01*
X301900Y672108D01*
G37*
G36*
X273897Y672352D02*
X281008Y672290D01*
X280913Y661370D01*
X273802Y661432D01*
X273897Y672352D01*
G37*
D34*
G36*
X304479Y658433D02*
X315146Y658340D01*
X315053Y647673D01*
X304386Y647766D01*
X304479Y658433D01*
G37*
G36*
X267524Y658756D02*
X278191Y658663D01*
X278098Y647996D01*
X267431Y648089D01*
X267524Y658756D01*
G37*
D35*
G36*
X284483Y673784D02*
X298452Y673662D01*
X298357Y662742D01*
X284388Y662864D01*
X284483Y673784D01*
G37*
D33*
G36*
X191074Y672355D02*
X198185Y672392D01*
X198242Y661471D01*
X191131Y661434D01*
X191074Y672355D01*
G37*
G36*
X163070Y672208D02*
X170181Y672245D01*
X170238Y661324D01*
X163127Y661287D01*
X163070Y672208D01*
G37*
D34*
G36*
X193843Y658717D02*
X204509Y658773D01*
X204565Y648107D01*
X193899Y648051D01*
X193843Y658717D01*
G37*
G36*
X156888Y658523D02*
X167554Y658579D01*
X167610Y647913D01*
X156944Y647857D01*
X156888Y658523D01*
G37*
D35*
G36*
X173635Y673788D02*
X187604Y673861D01*
X187661Y662940D01*
X173692Y662867D01*
X173635Y673788D01*
G37*
D36*
X414459Y732677D03*
X457565Y957339D03*
X411702Y941090D03*
X381800Y955421D03*
X507950Y699827D03*
X505994Y730412D03*
X424656Y828619D03*
X235217Y874619D03*
X215685Y958373D03*
X496015Y753555D03*
X504811Y826982D03*
X355452Y728371D03*
X399689Y698828D03*
X255776Y893191D03*
D12*
G36*
X214172Y863713D02*
X219171Y863704D01*
X219160Y857705D01*
X214161Y857714D01*
X214172Y863713D01*
G37*
G36*
X204172Y863731D02*
X209171Y863722D01*
X209160Y857723D01*
X204161Y857732D01*
X204172Y863731D01*
G37*
D37*
G36*
X365471Y762990D02*
X316973Y762736D01*
X316719Y811234D01*
X365217Y811488D01*
X365471Y762990D01*
G37*
D17*
X313596Y786968D03*
X313569Y791968D03*
X313543Y796968D03*
X313517Y801968D03*
X313491Y806968D03*
X308478Y809442D03*
X308530Y799442D03*
X308556Y794442D03*
X308583Y789442D03*
X308609Y784442D03*
X313622Y781969D03*
X313648Y776969D03*
X308635Y779442D03*
X308661Y774442D03*
X308687Y769443D03*
X313700Y766969D03*
X313726Y761969D03*
X313766Y754469D03*
X318766Y754495D03*
X321239Y759508D03*
X323766Y754521D03*
X328766Y754547D03*
X333765Y754574D03*
X338765Y754600D03*
X343765Y754626D03*
X348765Y754652D03*
X353765Y754678D03*
X358765Y754705D03*
X363765Y754731D03*
X368765Y754757D03*
X361239Y759718D03*
X356239Y759691D03*
X351239Y759665D03*
X346239Y759639D03*
X341239Y759613D03*
X336239Y759587D03*
X331239Y759560D03*
X368700Y767257D03*
X373713Y764783D03*
X373739Y759783D03*
X373686Y769783D03*
X368673Y772257D03*
X373660Y774783D03*
X368647Y777257D03*
X368621Y782257D03*
X373634Y779783D03*
X373608Y784783D03*
X373582Y789783D03*
X373556Y794783D03*
X368542Y797256D03*
X368516Y802256D03*
X373503Y804782D03*
X368490Y807256D03*
X373451Y814782D03*
X308452Y814442D03*
X320952Y814507D03*
X325951Y814534D03*
X330951Y814560D03*
X333425Y819573D03*
X335951Y814586D03*
X338425Y819599D03*
X340951Y814612D03*
X343425Y819625D03*
X345951Y814638D03*
X348425Y819651D03*
X350951Y814664D03*
X353425Y819677D03*
X355951Y814691D03*
X358425Y819704D03*
X363425Y819730D03*
X368425Y819756D03*
X315952Y814481D03*
X328425Y819547D03*
D38*
X335064Y793081D03*
X323064Y793018D03*
X323001Y805018D03*
X335001Y805081D03*
X347001Y805144D03*
X359001Y805206D03*
X359064Y793207D03*
X347064Y793144D03*
X323127Y781018D03*
X335127Y781081D03*
X347127Y781144D03*
X359126Y781207D03*
X359189Y769207D03*
X347189Y769144D03*
X335190Y769081D03*
X323190Y769018D03*
D39*
X427543Y703988D02*
X434468Y703915D01*
X427543Y703988D02*
X427564Y706013D01*
X434489Y705940D01*
X434468Y703915D01*
X434475Y704556D02*
X427549Y704556D01*
X427556Y705197D02*
X434481Y705197D01*
X434488Y705838D02*
X427562Y705838D01*
X427491Y698989D02*
X434416Y698916D01*
X427491Y698989D02*
X427512Y701014D01*
X434437Y700941D01*
X434416Y698916D01*
X434423Y699557D02*
X427497Y699557D01*
X427504Y700198D02*
X434429Y700198D01*
X434436Y700839D02*
X427510Y700839D01*
X427438Y693989D02*
X434363Y693916D01*
X427438Y693989D02*
X427459Y696014D01*
X434384Y695941D01*
X434363Y693916D01*
X434370Y694557D02*
X427444Y694557D01*
X427451Y695198D02*
X434376Y695198D01*
X434383Y695839D02*
X427457Y695839D01*
X427386Y688989D02*
X434311Y688916D01*
X427386Y688989D02*
X427407Y691014D01*
X434332Y690941D01*
X434311Y688916D01*
X434318Y689557D02*
X427392Y689557D01*
X427399Y690198D02*
X434324Y690198D01*
X434331Y690839D02*
X427405Y690839D01*
X447085Y688783D02*
X454010Y688710D01*
X447085Y688783D02*
X447106Y690808D01*
X454031Y690735D01*
X454010Y688710D01*
X454017Y689351D02*
X447091Y689351D01*
X447098Y689992D02*
X454023Y689992D01*
X454030Y690633D02*
X447104Y690633D01*
X447137Y693783D02*
X454062Y693710D01*
X447137Y693783D02*
X447158Y695808D01*
X454083Y695735D01*
X454062Y693710D01*
X454069Y694351D02*
X447143Y694351D01*
X447150Y694992D02*
X454075Y694992D01*
X454082Y695633D02*
X447156Y695633D01*
X447189Y698782D02*
X454114Y698709D01*
X447189Y698782D02*
X447210Y700807D01*
X454135Y700734D01*
X454114Y698709D01*
X454121Y699350D02*
X447195Y699350D01*
X447202Y699991D02*
X454127Y699991D01*
X454134Y700632D02*
X447208Y700632D01*
X447242Y703782D02*
X454167Y703709D01*
X447242Y703782D02*
X447263Y705807D01*
X454188Y705734D01*
X454167Y703709D01*
X454174Y704350D02*
X447248Y704350D01*
X447255Y704991D02*
X454180Y704991D01*
X454187Y705632D02*
X447261Y705632D01*
D40*
G36*
X445218Y690816D02*
X436220Y690910D01*
X436356Y703908D01*
X445354Y703814D01*
X445218Y690816D01*
G37*
D41*
G36*
X377764Y902716D02*
X387263Y902649D01*
X387204Y894150D01*
X377705Y894217D01*
X377764Y902716D01*
G37*
G36*
X363264Y902817D02*
X372763Y902750D01*
X372704Y894251D01*
X363205Y894318D01*
X363264Y902817D01*
G37*
G36*
X363184Y891317D02*
X372683Y891250D01*
X372624Y882751D01*
X363125Y882818D01*
X363184Y891317D01*
G37*
G36*
X377683Y891216D02*
X387182Y891149D01*
X387123Y882650D01*
X377624Y882717D01*
X377683Y891216D01*
G37*
D42*
X286114Y849982D03*
X311114Y849982D03*
D30*
X337239Y706177D03*
X337239Y700677D03*
D31*
X271065Y692979D03*
X276565Y692979D03*
D30*
X480587Y733974D03*
X480587Y728474D03*
X155167Y690830D03*
X155167Y685330D03*
X268723Y675877D03*
X268723Y670377D03*
D31*
X346973Y653914D03*
X352473Y653914D03*
D43*
X145555Y901124D03*
D44*
X128966Y901124D02*
X128697Y900855D01*
X128966Y901124D02*
X145555Y901124D01*
X215685Y955975D02*
X215685Y958373D01*
D45*
X192920Y947956D03*
D44*
X200940Y955975D01*
X215685Y955975D01*
X285041Y778134D02*
X284376Y777469D01*
X284376Y759434D01*
X286888Y756922D01*
X259304Y808805D02*
X259304Y822966D01*
X259047Y823223D01*
D45*
X259615Y808805D03*
D44*
X259304Y808805D02*
X259304Y808805D01*
X259615Y808805D01*
X283893Y776987D02*
X283893Y775343D01*
X283893Y776987D02*
X285041Y778134D01*
X283893Y775343D02*
X275556Y767006D01*
D45*
X262468Y763645D03*
D44*
X265828Y767006D01*
X275556Y767006D01*
D45*
X285148Y786298D03*
D44*
X285499Y778592D02*
X285041Y778134D01*
X285499Y785947D02*
X285148Y786298D01*
X285499Y785947D02*
X285499Y778592D01*
D45*
X302165Y791392D03*
D44*
X305529Y788028D01*
X307168Y788028D02*
X308583Y789442D01*
X307168Y788028D02*
X305529Y788028D01*
D46*
X259154Y842518D02*
X262491Y845854D01*
X259154Y842518D02*
X259154Y827336D01*
X259283Y827336D01*
X259170Y827223D01*
X259040Y827223D01*
D44*
X263047Y823230D02*
X263762Y823945D01*
X264406Y823945D01*
X264557Y824096D02*
X270415Y824096D01*
X264557Y824096D02*
X264406Y823945D01*
D45*
X248264Y770512D03*
X302353Y773054D03*
D44*
X251047Y823209D02*
X247151Y819313D01*
X247151Y771624D01*
X248264Y770512D01*
D45*
X313516Y776946D03*
D44*
X313625Y776946D02*
X313648Y776969D01*
X313625Y776946D02*
X313516Y776946D01*
D46*
X313766Y754469D02*
X313766Y745515D01*
X306371Y738120D01*
X305753Y737502D01*
D45*
X241477Y786491D03*
D46*
X250991Y827160D02*
X251040Y827209D01*
X250991Y827160D02*
X243408Y827160D01*
X242301Y826053D01*
D45*
X257162Y748092D03*
X297820Y748744D03*
D46*
X306371Y740192D02*
X306371Y738120D01*
X242301Y814778D02*
X242301Y826053D01*
X242301Y814778D02*
X241477Y813955D01*
X242301Y841304D02*
X236418Y847187D01*
X242301Y841304D02*
X242301Y826053D01*
X297820Y748744D02*
X306371Y740192D01*
X241477Y786491D02*
X241477Y813955D01*
D45*
X102233Y893143D03*
D44*
X102233Y917436D02*
X102302Y917505D01*
X102233Y917436D02*
X102233Y893143D01*
D45*
X188124Y887812D03*
D44*
X222025Y887812D01*
X235217Y874619D01*
X255047Y784698D02*
X255047Y780319D01*
X255047Y784698D02*
X255047Y823216D01*
X255047Y784698D02*
X259269Y784698D01*
X259654Y784312D01*
D45*
X271532Y788849D03*
D44*
X277126Y783255D02*
X279664Y783255D01*
X277126Y783255D02*
X271532Y788849D01*
D45*
X300047Y797558D03*
X252117Y780319D03*
X237376Y856811D03*
D44*
X235217Y858970D02*
X235217Y874619D01*
X235217Y858970D02*
X237376Y856811D01*
X252117Y780319D02*
X255047Y780319D01*
X266995Y784312D02*
X271532Y788849D01*
X266995Y784312D02*
X259654Y784312D01*
D45*
X313556Y786958D03*
D44*
X313585Y786958D02*
X313596Y786968D01*
X313585Y786958D02*
X313556Y786958D01*
D46*
X127273Y935100D02*
X123273Y935100D01*
X127273Y935100D02*
X131273Y935100D01*
X125375Y951198D02*
X138064Y963886D01*
X160332Y963886D01*
X125375Y951198D02*
X124699Y951198D01*
X124681Y954596D01*
X122901Y956359D01*
D43*
X139967Y951175D03*
D46*
X139945Y951198D02*
X125375Y951198D01*
X139945Y951198D02*
X139967Y951175D01*
X117623Y956359D02*
X109572Y948307D01*
X104336Y948307D01*
X117623Y956359D02*
X122901Y956359D01*
D43*
X143212Y939572D03*
D46*
X139960Y936320D01*
X132492Y936320D01*
X131273Y935100D01*
X160332Y963886D02*
X231027Y893191D01*
X255053Y893191D01*
X255776Y893191D01*
X255053Y893191D02*
X255053Y827697D01*
X255040Y827683D01*
X255040Y827216D01*
D43*
X262988Y684070D03*
D44*
X293285Y681375D02*
X294830Y679830D01*
X209387Y666913D02*
X194658Y666913D01*
X209387Y666913D02*
X234501Y641799D01*
X165334Y776961D02*
X164758Y777537D01*
X165334Y776961D02*
X173598Y776961D01*
X186336Y789698D01*
X186336Y794144D01*
X200127Y780353D01*
X200127Y778903D01*
X199613Y835683D02*
X200736Y835683D01*
X447871Y632675D02*
X447871Y632432D01*
X447871Y632675D02*
X428352Y652194D01*
X263357Y683700D02*
X262988Y684070D01*
X263357Y683700D02*
X263357Y665590D01*
X352822Y922165D02*
X353112Y922455D01*
X325951Y814534D02*
X325951Y813710D01*
X325951Y807968D01*
X323001Y805018D01*
X361951Y802256D02*
X368516Y802256D01*
X361951Y802256D02*
X359001Y805206D01*
X369806Y736478D02*
X371195Y736478D01*
X200127Y769299D02*
X200127Y778903D01*
X200127Y769299D02*
X198074Y767245D01*
X94336Y948307D02*
X94336Y951238D01*
X430775Y689881D02*
X430859Y689965D01*
X436983Y693558D02*
X440787Y697362D01*
X436983Y693558D02*
X436983Y692810D01*
X434138Y689965D01*
X430859Y689965D01*
X203006Y776024D02*
X200127Y778903D01*
X203006Y776024D02*
X216429Y776024D01*
X199684Y836735D02*
X199684Y845326D01*
X199684Y836735D02*
X200736Y835683D01*
X131273Y927100D02*
X127273Y927100D01*
X345000Y790000D02*
X347064Y793144D01*
X345000Y790000D02*
X341095Y787112D01*
X181299Y902904D02*
X181299Y915561D01*
X181063Y915796D01*
X389740Y815253D02*
X389740Y810266D01*
X389740Y815253D02*
X390825Y816337D01*
X390825Y818020D01*
X392239Y819434D01*
X127273Y927100D02*
X123273Y927100D01*
X123273Y931100D01*
X381800Y955421D02*
X385000Y955000D01*
X294830Y679830D02*
X298713Y675947D01*
X299413Y675947D02*
X300746Y674613D01*
X299413Y675947D02*
X298713Y675947D01*
X300746Y674613D02*
X300746Y671279D01*
X305408Y666617D01*
X414467Y666779D02*
X420334Y660912D01*
X425253Y660912D01*
X428352Y657813D01*
X428352Y652194D01*
X341095Y787112D02*
X328970Y787112D01*
X323064Y793018D01*
X272282Y921852D02*
X266714Y921852D01*
X272282Y921852D02*
X277954Y916180D01*
X376746Y891932D02*
X377404Y891932D01*
X382403Y886933D01*
X370144Y898534D02*
X367984Y898534D01*
X370144Y898534D02*
X376746Y891932D01*
X436573Y892703D02*
X448855Y892703D01*
X449276Y893124D01*
X283749Y891644D02*
X283290Y891186D01*
D43*
X496301Y710840D03*
D44*
X143253Y885366D02*
X143253Y889965D01*
X154230Y900942D01*
D45*
X192495Y913376D03*
D44*
X284785Y793752D02*
X284662Y793630D01*
X284785Y793752D02*
X289661Y793752D01*
X325132Y820890D02*
X327047Y822825D01*
X325132Y820890D02*
X325146Y818168D01*
X327081Y816253D01*
X328059Y823838D02*
X328059Y825673D01*
X328059Y823838D02*
X327047Y822825D01*
X327081Y816253D02*
X327081Y814840D01*
X325951Y813710D01*
D45*
X273480Y817788D03*
X303927Y727712D03*
D44*
X225546Y744384D02*
X225546Y752096D01*
X225546Y744384D02*
X221449Y740287D01*
X165229Y822534D02*
X166397Y823702D01*
X187632Y823702D02*
X199613Y835683D01*
X187632Y823702D02*
X166397Y823702D01*
D45*
X256643Y775409D03*
D44*
X266011Y775409D02*
X268602Y778001D01*
X266011Y775409D02*
X256643Y775409D01*
D45*
X286490Y798765D03*
D43*
X292600Y679034D03*
D44*
X294034Y679034D01*
X294830Y679830D01*
D45*
X285667Y713448D03*
X281160Y831646D03*
X272407Y861626D03*
X271778Y829662D03*
D44*
X173420Y940816D02*
X160349Y953886D01*
X173420Y940816D02*
X173420Y940141D01*
D45*
X401047Y778021D03*
X389878Y777201D03*
X95533Y906564D03*
D44*
X90661Y899524D02*
X78662Y887524D01*
X90661Y899524D02*
X90945Y899524D01*
X95533Y904113D01*
X95533Y906564D01*
D45*
X138022Y925344D03*
D44*
X131273Y923100D02*
X127273Y923100D01*
X135779Y923100D02*
X138022Y925344D01*
X135779Y923100D02*
X131273Y923100D01*
D45*
X142221Y930149D03*
D43*
X97526Y928943D03*
D44*
X97526Y926476D02*
X79128Y908079D01*
X97526Y926476D02*
X97526Y928943D01*
X127273Y931100D02*
X131273Y931100D01*
X141270Y931100D02*
X142221Y930149D01*
X141270Y931100D02*
X131273Y931100D01*
X308370Y784442D02*
X308609Y784442D01*
X308370Y784442D02*
X303583Y779655D01*
X300404Y779655D01*
X296426Y783633D01*
X295160Y783633D01*
D45*
X302073Y784780D03*
D44*
X298222Y788632D02*
X295038Y788632D01*
X298222Y788632D02*
X302073Y784780D01*
D45*
X313556Y781967D03*
D44*
X313620Y781967D02*
X313622Y781969D01*
X313620Y781967D02*
X313556Y781967D01*
D46*
X368765Y754757D02*
X369726Y753796D01*
X369726Y741577D01*
X379094Y741577D01*
X380160Y740512D01*
X385997Y734674D02*
X386501Y734674D01*
X385997Y734674D02*
X380160Y740512D01*
X461690Y905894D02*
X457204Y910380D01*
X461690Y905894D02*
X461690Y893824D01*
X461969Y893545D01*
X457204Y956978D02*
X457565Y957339D01*
X457204Y956978D02*
X457204Y910380D01*
X402983Y744154D02*
X414459Y732677D01*
X402983Y744154D02*
X384139Y744154D01*
X380498Y740512D02*
X380160Y740512D01*
X380498Y740512D02*
X384139Y744154D01*
X159330Y896618D02*
X159330Y900925D01*
X159330Y896618D02*
X148346Y885633D01*
X159330Y904063D02*
X171063Y915796D01*
X159330Y904063D02*
X159330Y900925D01*
X131273Y919100D02*
X127273Y919100D01*
X308687Y769443D02*
X311227Y769443D01*
X313700Y766969D01*
D43*
X148420Y916315D03*
X360920Y840704D03*
D46*
X363425Y838199D01*
X363425Y819730D01*
X159330Y900925D02*
X159330Y903955D01*
X148420Y914866D01*
X148420Y916315D01*
X145635Y919100D01*
X131273Y919100D01*
D45*
X152780Y936117D03*
D46*
X156804Y940141D02*
X163420Y940141D01*
D47*
X279664Y795385D02*
X279664Y793508D01*
X279664Y795385D02*
X272016Y803033D01*
D46*
X353055Y848067D02*
X353557Y848067D01*
X360920Y840704D01*
X343765Y754626D02*
X342798Y753659D01*
D45*
X349863Y746734D03*
X361246Y745958D03*
D46*
X343765Y752832D02*
X343765Y754626D01*
X343765Y752832D02*
X349863Y746734D01*
X361246Y745958D02*
X365346Y745958D01*
X369726Y741577D01*
X305437Y754050D02*
X295289Y754050D01*
X292388Y756950D01*
X290528Y777768D02*
X290040Y778257D01*
X290528Y777768D02*
X290528Y775328D01*
X293608Y772248D02*
X293608Y758170D01*
X292388Y756950D01*
X293608Y772248D02*
X292159Y773697D01*
X290528Y775328D01*
X342798Y753659D02*
X342798Y734456D01*
X327833Y719490D01*
X291847Y719490D01*
X276827Y734510D01*
D45*
X288624Y808578D03*
X301516Y815992D03*
D43*
X163972Y874125D03*
D46*
X152464Y885633D02*
X148346Y885633D01*
X152464Y885633D02*
X163972Y874125D01*
X259875Y790892D02*
X272016Y803033D01*
X259875Y790892D02*
X259875Y789808D01*
D43*
X273185Y803418D03*
D47*
X272401Y803418D01*
X272016Y803033D01*
D45*
X301118Y828250D03*
X357262Y825232D03*
D46*
X362444Y820711D02*
X363425Y819730D01*
X362444Y820711D02*
X362444Y821388D01*
X358600Y825232D02*
X357262Y825232D01*
X358600Y825232D02*
X362444Y821388D01*
X308687Y769443D02*
X308687Y757300D01*
X305437Y754050D01*
D43*
X430652Y934342D03*
D46*
X434569Y934342D02*
X457565Y957339D01*
X434569Y934342D02*
X430652Y934342D01*
X292388Y756950D02*
X292388Y750071D01*
X276827Y734510D01*
D45*
X294572Y794442D03*
X297160Y773408D03*
D46*
X296871Y773697D02*
X292159Y773697D01*
X296871Y773697D02*
X297160Y773408D01*
D47*
X283464Y803418D02*
X273185Y803418D01*
X283464Y803418D02*
X288624Y808578D01*
D46*
X301118Y816390D02*
X301118Y828250D01*
X301118Y816390D02*
X301516Y815992D01*
X306902Y815992D01*
X308452Y814442D01*
D47*
X288624Y808578D02*
X288624Y805754D01*
X294572Y799805D02*
X294572Y794442D01*
X294572Y799805D02*
X288624Y805754D01*
X294572Y793961D02*
X294659Y793874D01*
X294572Y793961D02*
X294572Y794442D01*
D46*
X152780Y936117D02*
X156804Y940141D01*
D45*
X326119Y758926D03*
D48*
X320822Y746394D03*
D44*
X326119Y758926D02*
X325536Y759508D01*
X321239Y759508D01*
X320822Y736530D02*
X321590Y735762D01*
X320822Y736530D02*
X320822Y746394D01*
X431607Y874622D02*
X436994Y880010D01*
X431607Y874622D02*
X431607Y869663D01*
X418720Y856776D01*
X418720Y834555D02*
X424656Y828619D01*
X418720Y834555D02*
X418720Y856776D01*
D43*
X422897Y780042D03*
D44*
X424656Y801580D02*
X424656Y828619D01*
X424656Y801580D02*
X422897Y799821D01*
X422897Y780042D01*
D45*
X379596Y772539D03*
X341275Y759528D03*
D44*
X341239Y759564D01*
X341239Y759613D01*
X356678Y747850D02*
X359354Y750526D01*
X359560Y750526D01*
X363765Y754731D01*
X356678Y729597D02*
X355452Y728371D01*
X356678Y729597D02*
X356678Y747850D01*
X311114Y833376D02*
X311114Y849982D01*
X311114Y833376D02*
X311607Y832884D01*
X311607Y831201D01*
X313021Y829787D01*
D45*
X303836Y801594D03*
D44*
X313021Y819740D02*
X313021Y829787D01*
D45*
X313011Y819092D03*
D44*
X313011Y819730D02*
X313021Y819740D01*
X313011Y819730D02*
X313011Y819092D01*
X312696Y802789D02*
X305031Y802790D01*
X303836Y801594D01*
X312696Y802789D02*
X313517Y801968D01*
X278430Y842298D02*
X286114Y849982D01*
X284183Y821083D02*
X282370Y821083D01*
X311063Y806725D02*
X313247Y806725D01*
X313491Y806968D01*
X299282Y805985D02*
X284183Y821083D01*
X299282Y805985D02*
X310323Y805985D01*
X311063Y806725D01*
X282370Y821083D02*
X279451Y824001D01*
X279451Y826825D01*
X278430Y835377D02*
X278430Y842298D01*
X278430Y835377D02*
X276592Y833539D01*
X276592Y829685D01*
X279451Y826825D01*
X294018Y831540D02*
X294018Y815796D01*
X308390Y809354D02*
X308478Y809442D01*
X308390Y809354D02*
X300461Y809354D01*
X294018Y815796D01*
X102397Y923100D02*
X102302Y923005D01*
X102397Y923100D02*
X123273Y923100D01*
X123200Y919028D02*
X123200Y901037D01*
X123200Y919028D02*
X123273Y919100D01*
X315952Y814481D02*
X317579Y816108D01*
X322906Y845565D02*
X322906Y873978D01*
X322906Y845565D02*
X324224Y844247D01*
X324224Y835077D01*
X317579Y828431D01*
X317579Y816108D01*
X332906Y862685D02*
X332906Y873978D01*
X332906Y862685D02*
X330769Y860548D01*
X322959Y825673D02*
X321281Y823996D01*
X321281Y814837D01*
X320952Y814507D01*
X400000Y804782D02*
X400378Y804782D01*
X400000Y804782D02*
X373503Y804782D01*
X400378Y804782D02*
X402547Y806951D01*
X335669Y845596D02*
X330716Y850548D01*
X322679Y825954D02*
X322959Y825673D01*
X336799Y844466D02*
X339769Y844466D01*
X336799Y844466D02*
X330716Y850548D01*
X322679Y828431D02*
X322679Y825954D01*
X335669Y841421D02*
X335669Y845596D01*
X335669Y841421D02*
X322679Y828431D01*
X400000Y820000D02*
X400000Y804782D01*
D43*
X400000Y820000D03*
X336893Y835056D03*
D44*
X339769Y837932D01*
X339769Y844466D01*
X348943Y833367D02*
X348943Y824159D01*
X353425Y819677D01*
X449697Y877795D02*
X449697Y880431D01*
X496015Y789699D02*
X496015Y753555D01*
X495430Y754139D01*
X396785Y754139D01*
X386141Y764783D01*
X373713Y764783D01*
X459650Y867842D02*
X449697Y877795D01*
X459650Y867842D02*
X459650Y826063D01*
X496015Y789699D01*
X462390Y874042D02*
X462390Y880852D01*
X462698Y856842D02*
X470323Y849217D01*
X482577Y849217D02*
X504811Y826982D01*
X462698Y873734D02*
X462390Y874042D01*
X470323Y849217D02*
X482577Y849217D01*
X462698Y856842D02*
X462698Y873734D01*
D43*
X510186Y769681D03*
D44*
X510186Y821608D02*
X504811Y826982D01*
X510186Y821608D02*
X510186Y769681D01*
D45*
X387024Y750698D03*
D44*
X377939Y759783D02*
X373739Y759783D01*
X377939Y759783D02*
X387024Y750698D01*
X382326Y784174D02*
X380629Y784174D01*
X380020Y784783D01*
X373608Y784783D01*
X371372Y797256D02*
X372191Y798076D01*
X371372Y797256D02*
X368542Y797256D01*
X393146Y798076D02*
X395523Y795698D01*
X393146Y798076D02*
X372191Y798076D01*
X395523Y795698D02*
X395657Y795564D01*
X395657Y765138D01*
X414863Y764605D02*
X425976Y764607D01*
X414863Y764605D02*
X414558Y764910D01*
X414558Y786663D02*
X405523Y795698D01*
X414558Y786663D02*
X414558Y764910D01*
X425976Y764607D02*
X435755Y764607D01*
X453119Y781971D01*
X371500Y810266D02*
X368490Y807256D01*
X371500Y810266D02*
X384640Y810266D01*
X382257Y823588D02*
X382257Y838395D01*
X382257Y823588D02*
X373451Y814782D01*
X378102Y819434D02*
X387139Y819434D01*
X378102Y819434D02*
X373451Y814782D01*
X388299Y863279D02*
X388371Y873673D01*
X387042Y875021D01*
X388299Y863279D02*
X388299Y844437D01*
X382257Y838395D01*
X389475Y881760D02*
X389475Y892099D01*
X388106Y893469D01*
X387448Y893469D01*
X382484Y898433D01*
X387042Y879326D02*
X387042Y875021D01*
X387042Y879326D02*
X389475Y881760D01*
X367904Y887034D02*
X354441Y873572D01*
X351488Y873572D01*
X352897Y872163D01*
X354592Y872163D01*
X368425Y858331D01*
X368425Y819756D01*
X280043Y778012D02*
X274114Y778012D01*
X274102Y778001D01*
X206666Y860727D02*
X206666Y868564D01*
X203546Y871684D01*
X210493Y827310D02*
X198950Y815767D01*
X210493Y827310D02*
X216445Y827310D01*
X216445Y832599D01*
X221331Y837484D02*
X221331Y842511D01*
X221331Y837484D02*
X216445Y832599D01*
X206666Y857175D02*
X206666Y860727D01*
X206666Y857175D02*
X221331Y842511D01*
D46*
X452192Y661910D02*
X452192Y646995D01*
X447626Y642429D01*
D43*
X417427Y678916D03*
D46*
X434433Y661910D02*
X452192Y661910D01*
X434433Y661910D02*
X417427Y678916D01*
D43*
X193344Y802018D03*
D44*
X164863Y782589D02*
X164811Y782537D01*
D46*
X178819Y794135D02*
X181236Y794135D01*
X178819Y794135D02*
X172220Y787536D01*
X167273Y782589D01*
X164863Y782589D01*
D44*
X185670Y802018D02*
X193344Y802018D01*
X185670Y802018D02*
X181236Y797583D01*
X181236Y794135D01*
D46*
X193344Y804180D02*
X188950Y808574D01*
X188950Y815767D01*
X193344Y804180D02*
X193344Y802018D01*
X172220Y787536D02*
X164863Y787536D01*
X164549Y757538D02*
X210192Y757538D01*
X215547Y752183D01*
X222525Y785625D02*
X215834Y792316D01*
X222525Y785625D02*
X222525Y759161D01*
X215547Y752183D01*
D44*
X227206Y725091D02*
X226554Y724440D01*
X226554Y705509D01*
X227206Y725091D02*
X227206Y741732D01*
X230367Y744893D01*
X230367Y828219D01*
X230338Y828247D01*
X230338Y847037D02*
X216666Y860709D01*
X230338Y847037D02*
X230338Y828247D01*
D46*
X187124Y743159D02*
X175654Y743159D01*
X192212Y726601D02*
X192212Y724419D01*
X192212Y726601D02*
X175654Y743159D01*
X171274Y747538D02*
X164444Y747538D01*
X171274Y747538D02*
X175654Y743159D01*
D44*
X174960Y852533D02*
X165544Y852533D01*
X177969Y894075D02*
X181299Y897404D01*
X177969Y894075D02*
X177969Y882761D01*
X182546Y878184D01*
X186142Y874589D01*
X176350Y869970D02*
X175010Y868631D01*
X181523Y869970D02*
X186142Y874589D01*
X181523Y869970D02*
X176350Y869970D01*
X175010Y852583D02*
X174960Y852533D01*
X175010Y852583D02*
X175010Y868631D01*
X263357Y655416D02*
X249741Y641799D01*
X263357Y658871D02*
X263357Y660090D01*
X263357Y658871D02*
X263357Y655416D01*
X236779Y733808D02*
X236779Y809278D01*
X239710Y682519D02*
X263357Y658871D01*
X239710Y730877D02*
X236779Y733808D01*
X239710Y730877D02*
X239710Y682519D01*
X477889Y652410D02*
X488721Y663242D01*
X477889Y652410D02*
X473192Y652410D01*
D43*
X320944Y712388D03*
D46*
X320944Y699334D02*
X354236Y666042D01*
X320944Y699334D02*
X320944Y712388D01*
X293529Y699635D02*
X292303Y700861D01*
X292303Y702637D01*
D44*
X473192Y678809D02*
X473192Y671410D01*
X473192Y678809D02*
X465000Y687002D01*
D43*
X465000Y687002D03*
D46*
X292303Y702637D02*
X290532Y704409D01*
X318517Y709961D02*
X320944Y712388D01*
X318517Y709961D02*
X318517Y707826D01*
X310325Y699635D01*
X293529Y699635D01*
X290532Y704409D02*
X277373Y704409D01*
X276036Y703072D01*
X480569Y692972D02*
X486991Y686549D01*
X480569Y692972D02*
X480569Y700902D01*
X486991Y686549D02*
X473192Y672750D01*
X473192Y671410D01*
X475861Y668741D02*
X488615Y668741D01*
X475861Y668741D02*
X473192Y671410D01*
X276565Y702543D02*
X276036Y703072D01*
X276565Y702543D02*
X276565Y692979D01*
D44*
X182546Y855172D02*
X182546Y865184D01*
X182546Y855172D02*
X174907Y847533D01*
X165491Y847533D01*
D45*
X235406Y830346D03*
D44*
X236962Y828791D01*
X236962Y814775D01*
X188559Y865184D02*
X182546Y865184D01*
D43*
X215263Y839998D03*
D44*
X213746Y839998D01*
X188559Y865184D01*
X189684Y845326D02*
X186891Y842533D01*
X165439Y842533D01*
X165386Y837534D02*
X166613Y836307D01*
X170533Y835560D02*
X190736Y835560D01*
X170533Y835560D02*
X169787Y836307D01*
X166613Y836307D01*
X164706Y772537D02*
X165282Y771961D01*
X173546Y771961D01*
X180558Y778973D02*
X190127Y778973D01*
X180558Y778973D02*
X173546Y771961D01*
X187764Y767537D02*
X188074Y767228D01*
X187764Y767537D02*
X164653Y767537D01*
X164601Y762538D02*
X184033Y762538D01*
X184634Y761936D01*
X212393Y761936D01*
X216481Y766024D01*
X199303Y752538D02*
X164496Y752538D01*
X199303Y752538D02*
X211450Y740391D01*
X164392Y742539D02*
X136123Y714270D01*
X132604Y714270D01*
X127224Y708890D02*
X126040Y708890D01*
X127224Y708890D02*
X132604Y714270D01*
D46*
X333953Y916571D02*
X335942Y914581D01*
D44*
X342439Y897085D02*
X344084Y897085D01*
D46*
X342439Y897085D02*
X335942Y903581D01*
X335942Y914581D01*
D43*
X331665Y886776D03*
D46*
X341974Y897085D01*
X342439Y897085D01*
D45*
X317645Y864656D03*
D46*
X308383Y864656D01*
X302979Y870060D01*
X302979Y874088D01*
X285954Y909921D02*
X285954Y916236D01*
X285954Y909921D02*
X274053Y898020D01*
X274053Y882733D01*
X274240Y882546D01*
D45*
X279670Y864997D03*
X288366Y864567D03*
D46*
X279670Y872508D02*
X274240Y877938D01*
X274240Y882546D01*
X279670Y872508D02*
X279670Y864997D01*
X298257Y864567D02*
X302979Y869289D01*
X298257Y864567D02*
X288366Y864567D01*
X302979Y869289D02*
X302979Y874088D01*
D44*
X308676Y915163D02*
X307453Y916386D01*
X311821Y906590D02*
X311821Y899328D01*
X308676Y909736D02*
X308676Y915163D01*
X308676Y909736D02*
X311213Y907198D01*
X311821Y906590D01*
X312399Y908384D02*
X314938Y908384D01*
X312399Y908384D02*
X311213Y907198D01*
X317453Y910899D02*
X317453Y916456D01*
X317453Y910899D02*
X314938Y908384D01*
X299948Y908289D02*
X298702Y908289D01*
X295207Y904793D01*
X302453Y910795D02*
X302453Y916351D01*
X302453Y910795D02*
X299948Y908289D01*
X295000Y905000D02*
X295000Y900000D01*
X292828Y898830D01*
X295207Y904793D02*
X295000Y905000D01*
X303621Y917518D02*
X303621Y923075D01*
X304984Y924439D01*
X309863Y924439D01*
X312384Y921917D01*
X303621Y917518D02*
X302453Y916351D01*
X312384Y916490D02*
X312384Y921917D01*
X312384Y916490D02*
X312453Y916421D01*
X292454Y916281D02*
X291286Y915114D01*
X291286Y909557D01*
X288744Y907016D01*
X288671Y907016D01*
X283557Y901902D01*
X283557Y897141D01*
X322453Y903286D02*
X322453Y916491D01*
X322453Y903286D02*
X322287Y903120D01*
D46*
X400826Y699965D02*
X430964Y699965D01*
X400826Y699965D02*
X399689Y698828D01*
X430964Y699965D02*
X430964Y695017D01*
X430911Y694965D01*
X399689Y698828D02*
X397784Y700733D01*
X337295Y700733D01*
X337239Y700677D01*
D44*
X476419Y700052D02*
X476419Y698906D01*
X476419Y700052D02*
X475569Y700902D01*
X476419Y698906D02*
X451251Y699169D01*
X450662Y699758D01*
X486644Y699827D02*
X507950Y699827D01*
X486644Y699827D02*
X485569Y700902D01*
X480587Y710921D02*
X480587Y728474D01*
X480587Y710921D02*
X480569Y710902D01*
X486484Y710902D02*
X505994Y730412D01*
X486484Y710902D02*
X485569Y710902D01*
X166654Y675076D02*
X166654Y666766D01*
D43*
X246401Y691586D03*
D44*
X259051Y691586D02*
X270536Y703072D01*
X259051Y691586D02*
X246401Y691586D01*
D45*
X208260Y687792D03*
D44*
X189954Y687792D01*
X186723Y684561D01*
X165421Y675076D02*
X155167Y685330D01*
X165421Y675076D02*
X166654Y675076D01*
X176139Y684561D02*
X186723Y684561D01*
X176139Y684561D02*
X166654Y675076D01*
X277405Y669312D02*
X277405Y666861D01*
X277405Y669312D02*
X277405Y678277D01*
X276341Y670377D02*
X268723Y670377D01*
X276341Y670377D02*
X277405Y669312D01*
X288029Y688901D02*
X288029Y699635D01*
X288029Y688901D02*
X277405Y678277D01*
X386071Y667073D02*
X386463Y666681D01*
X360681Y667073D02*
X359735Y666128D01*
X360681Y667073D02*
X386071Y667073D01*
X359735Y666128D02*
X359735Y661176D01*
X352473Y653914D01*
X450715Y704758D02*
X451098Y705141D01*
X464585Y705141D01*
D43*
X465379Y709975D03*
D44*
X465379Y705935D02*
X464585Y705141D01*
X465379Y705935D02*
X465379Y709975D01*
D45*
X480650Y705931D03*
D44*
X480598Y705931D02*
X480569Y705902D01*
X480598Y705931D02*
X480650Y705931D01*
M02*
