G04 EAGLE Gerber RS-274X export*
G75*
%MOMM*%
%FSLAX34Y34*%
%LPD*%
%INCopper Layer 2*%
%IPPOS*%
%AMOC8*
5,1,8,0,0,1.08239X$1,22.5*%
G01*
G04 Define Apertures*
%ADD10C,1.158000*%
%ADD11C,1.066800*%
%ADD12C,0.808000*%
%ADD13C,0.525000*%
%ADD14C,0.300000*%
%ADD15C,0.200000*%
%ADD16C,0.152400*%
%ADD17C,0.190000*%
%ADD18C,0.310000*%
%ADD19C,0.300000*%
%ADD20C,0.250000*%
%ADD21C,0.350000*%
G36*
X155805Y625842D02*
X155507Y625782D01*
X128393Y625782D01*
X128308Y625786D01*
X119459Y626783D01*
X119258Y626834D01*
X119005Y627002D01*
X98475Y647532D01*
X98312Y647774D01*
X98252Y648071D01*
X98252Y729198D01*
X98303Y729473D01*
X98466Y729728D01*
X98716Y729900D01*
X99014Y729960D01*
X131347Y729960D01*
X131793Y730407D01*
X131793Y764442D01*
X131849Y764728D01*
X132017Y764981D01*
X132287Y765252D01*
X132344Y765344D01*
X132349Y765376D01*
X132349Y872255D01*
X132346Y872284D01*
X132342Y872293D01*
X132287Y872304D01*
X62531Y874532D01*
X62281Y874583D01*
X62025Y874747D01*
X61854Y874997D01*
X61793Y875294D01*
X61793Y904722D01*
X61798Y904808D01*
X63515Y920045D01*
X63553Y920211D01*
X68617Y934685D01*
X68691Y934838D01*
X76849Y947822D01*
X76956Y947955D01*
X87798Y958798D01*
X87932Y958904D01*
X100915Y967062D01*
X101069Y967136D01*
X115542Y972201D01*
X115709Y972239D01*
X130946Y973956D01*
X131031Y973960D01*
X451031Y973960D01*
X451117Y973956D01*
X466354Y972239D01*
X466520Y972201D01*
X480994Y967136D01*
X481147Y967062D01*
X486634Y963615D01*
X486767Y963509D01*
X509818Y940458D01*
X509924Y940325D01*
X513371Y934838D01*
X513445Y934685D01*
X518510Y920211D01*
X518548Y920045D01*
X520265Y904808D01*
X520269Y904722D01*
X520269Y800245D01*
X520218Y799971D01*
X520055Y799715D01*
X519805Y799544D01*
X519507Y799483D01*
X441062Y799483D01*
X440776Y799539D01*
X440523Y799707D01*
X437767Y802462D01*
X437718Y802494D01*
X437712Y802456D01*
X437712Y777796D01*
X437656Y777510D01*
X437489Y777257D01*
X432445Y772213D01*
X432420Y772181D01*
X432419Y772178D01*
X432452Y772133D01*
X438414Y766171D01*
X438506Y766114D01*
X438538Y766108D01*
X507575Y766108D01*
X507861Y766053D01*
X508114Y765885D01*
X508467Y765532D01*
X511904Y765532D01*
X512065Y765692D01*
X512296Y765850D01*
X512592Y765916D01*
X512890Y765860D01*
X513143Y765692D01*
X520046Y758789D01*
X520209Y758547D01*
X520269Y758250D01*
X520269Y694722D01*
X520265Y694637D01*
X518548Y679400D01*
X518510Y679233D01*
X513736Y665590D01*
X513555Y665303D01*
X480451Y632198D01*
X480164Y632018D01*
X466520Y627244D01*
X466354Y627206D01*
X453755Y625786D01*
X453670Y625782D01*
X426555Y625782D01*
X426281Y625833D01*
X426025Y625996D01*
X425854Y626246D01*
X425793Y626544D01*
X425793Y643038D01*
X425347Y643484D01*
X376716Y643484D01*
X376269Y643038D01*
X376269Y626544D01*
X376218Y626269D01*
X376055Y626013D01*
X375805Y625842D01*
X375507Y625782D01*
X316555Y625782D01*
X316281Y625833D01*
X316025Y625996D01*
X315854Y626246D01*
X315793Y626544D01*
X315793Y643038D01*
X315347Y643484D01*
X266716Y643484D01*
X266269Y643038D01*
X266269Y626544D01*
X266218Y626269D01*
X266055Y626013D01*
X265805Y625842D01*
X265507Y625782D01*
X206555Y625782D01*
X206281Y625833D01*
X206025Y625996D01*
X205854Y626246D01*
X205793Y626544D01*
X205793Y643038D01*
X205347Y643484D01*
X156716Y643484D01*
X156269Y643038D01*
X156269Y626544D01*
X156218Y626269D01*
X156055Y626013D01*
X155805Y625842D01*
G37*
%LPC*%
G36*
X344492Y965611D02*
X344492Y964658D01*
X352055Y964711D01*
X352002Y972284D01*
X351165Y972284D01*
X348104Y971016D01*
X345760Y968673D01*
X344492Y965611D01*
G37*
G36*
X353526Y972284D02*
X353579Y964721D01*
X361152Y964774D01*
X361152Y965611D01*
X359884Y968673D01*
X357541Y971016D01*
X354479Y972284D01*
X353526Y972284D01*
G37*
G36*
X258094Y965008D02*
X258094Y964055D01*
X265657Y964107D01*
X265604Y971681D01*
X264767Y971681D01*
X261706Y970413D01*
X259362Y968069D01*
X258094Y965008D01*
G37*
G36*
X267128Y971681D02*
X267181Y964118D01*
X274754Y964171D01*
X274754Y965008D01*
X273486Y968069D01*
X271143Y970413D01*
X268081Y971681D01*
X267128Y971681D01*
G37*
G36*
X353642Y955624D02*
X354479Y955624D01*
X357541Y956892D01*
X359884Y959235D01*
X361152Y962297D01*
X361152Y963250D01*
X353590Y963197D01*
X353642Y955624D01*
G37*
G36*
X351165Y955624D02*
X352118Y955624D01*
X352066Y963187D01*
X344492Y963134D01*
X344492Y962297D01*
X345760Y959235D01*
X348104Y956892D01*
X351165Y955624D01*
G37*
G36*
X267244Y955021D02*
X268081Y955021D01*
X271143Y956289D01*
X273486Y958632D01*
X274754Y961694D01*
X274754Y962647D01*
X267192Y962594D01*
X267244Y955021D01*
G37*
G36*
X264767Y955021D02*
X265720Y955021D01*
X265668Y962583D01*
X258094Y962531D01*
X258094Y961694D01*
X259362Y958632D01*
X261706Y956289D01*
X264767Y955021D01*
G37*
G36*
X138249Y947026D02*
X141686Y947026D01*
X144116Y949456D01*
X144116Y952893D01*
X141686Y955324D01*
X138249Y955324D01*
X135818Y952893D01*
X135818Y949456D01*
X138249Y947026D01*
G37*
G36*
X191668Y944932D02*
X194173Y944932D01*
X195944Y946704D01*
X195944Y949209D01*
X194173Y950980D01*
X191668Y950980D01*
X189896Y949209D01*
X189896Y946704D01*
X191668Y944932D01*
G37*
G36*
X141494Y935423D02*
X144931Y935423D01*
X147361Y937853D01*
X147361Y941290D01*
X144931Y943721D01*
X141494Y943721D01*
X139063Y941290D01*
X139063Y937853D01*
X141494Y935423D01*
G37*
G36*
X151527Y933093D02*
X154033Y933093D01*
X155804Y934865D01*
X155804Y937370D01*
X154033Y939141D01*
X151527Y939141D01*
X149756Y937370D01*
X149756Y934865D01*
X151527Y933093D01*
G37*
G36*
X428933Y930193D02*
X432370Y930193D01*
X434801Y932624D01*
X434801Y936061D01*
X432370Y938491D01*
X428933Y938491D01*
X426503Y936061D01*
X426503Y932624D01*
X428933Y930193D01*
G37*
G36*
X95807Y924794D02*
X99244Y924794D01*
X101675Y927225D01*
X101675Y930662D01*
X99244Y933092D01*
X95807Y933092D01*
X93377Y930662D01*
X93377Y927225D01*
X95807Y924794D01*
G37*
G36*
X136977Y922820D02*
X139068Y922820D01*
X140546Y924298D01*
X140546Y926417D01*
X140458Y926544D01*
X140389Y926839D01*
X140439Y927138D01*
X140603Y927393D01*
X140853Y927565D01*
X141150Y927625D01*
X143266Y927625D01*
X144745Y929103D01*
X144745Y931194D01*
X143266Y932673D01*
X141176Y932673D01*
X139697Y931194D01*
X139697Y929075D01*
X139785Y928949D01*
X139855Y928654D01*
X139804Y928355D01*
X139641Y928100D01*
X139390Y927928D01*
X139093Y927868D01*
X136977Y927868D01*
X135498Y926389D01*
X135498Y924298D01*
X136977Y922820D01*
G37*
G36*
X337328Y923855D02*
X340227Y923855D01*
X342277Y925905D01*
X342277Y928805D01*
X340227Y930855D01*
X337328Y930855D01*
X335277Y928805D01*
X335277Y925905D01*
X337328Y923855D01*
G37*
G36*
X344782Y924112D02*
X344782Y923159D01*
X352345Y923212D01*
X352292Y930785D01*
X351455Y930785D01*
X348393Y929517D01*
X346050Y927174D01*
X344782Y924112D01*
G37*
G36*
X353816Y930785D02*
X353869Y923222D01*
X361442Y923275D01*
X361442Y924112D01*
X360174Y927174D01*
X357831Y929517D01*
X354769Y930785D01*
X353816Y930785D01*
G37*
G36*
X279529Y923451D02*
X282429Y923451D01*
X284479Y925502D01*
X284479Y928401D01*
X282429Y930451D01*
X279529Y930451D01*
X277479Y928401D01*
X277479Y925502D01*
X279529Y923451D01*
G37*
G36*
X258384Y923509D02*
X258384Y922556D01*
X265947Y922608D01*
X265894Y930182D01*
X265057Y930182D01*
X261995Y928914D01*
X259652Y926570D01*
X258384Y923509D01*
G37*
G36*
X267418Y930182D02*
X267471Y922619D01*
X275044Y922672D01*
X275044Y923509D01*
X273776Y926570D01*
X271433Y928914D01*
X268371Y930182D01*
X267418Y930182D01*
G37*
G36*
X471593Y900751D02*
X476469Y900751D01*
X480973Y902617D01*
X484420Y906064D01*
X486286Y910568D01*
X486286Y915444D01*
X484420Y919948D01*
X480973Y923395D01*
X476469Y925261D01*
X471593Y925261D01*
X467089Y923395D01*
X463642Y919948D01*
X461776Y915444D01*
X461776Y910568D01*
X463642Y906064D01*
X467089Y902617D01*
X471593Y900751D01*
G37*
G36*
X439861Y899698D02*
X444736Y899698D01*
X449240Y901564D01*
X452688Y905011D01*
X454553Y909515D01*
X454553Y914391D01*
X452688Y918895D01*
X449240Y922342D01*
X444736Y924208D01*
X439861Y924208D01*
X435356Y922342D01*
X431909Y918895D01*
X430043Y914391D01*
X430043Y909515D01*
X431909Y905011D01*
X435356Y901564D01*
X439861Y899698D01*
G37*
G36*
X353932Y914125D02*
X354769Y914125D01*
X357831Y915393D01*
X360174Y917736D01*
X361442Y920798D01*
X361442Y921751D01*
X353879Y921698D01*
X353932Y914125D01*
G37*
G36*
X351455Y914125D02*
X352408Y914125D01*
X352355Y921688D01*
X344782Y921635D01*
X344782Y920798D01*
X346050Y917736D01*
X348393Y915393D01*
X351455Y914125D01*
G37*
G36*
X267534Y913522D02*
X268371Y913522D01*
X271433Y914790D01*
X273776Y917133D01*
X275044Y920195D01*
X275044Y921148D01*
X267481Y921095D01*
X267534Y913522D01*
G37*
G36*
X265057Y913522D02*
X266010Y913522D01*
X265957Y921084D01*
X258384Y921032D01*
X258384Y920195D01*
X259652Y917133D01*
X261995Y914790D01*
X265057Y913522D01*
G37*
G36*
X146701Y912166D02*
X150138Y912166D01*
X152569Y914597D01*
X152569Y918034D01*
X150138Y920464D01*
X146701Y920464D01*
X144271Y918034D01*
X144271Y914597D01*
X146701Y912166D01*
G37*
G36*
X94488Y904040D02*
X96579Y904040D01*
X98057Y905519D01*
X98057Y907610D01*
X96579Y909088D01*
X94488Y909088D01*
X93009Y907610D01*
X93009Y905519D01*
X94488Y904040D01*
G37*
G36*
X271467Y799269D02*
X274904Y799269D01*
X277334Y801700D01*
X277334Y805137D01*
X274904Y807567D01*
X271467Y807567D01*
X270136Y806236D01*
X269894Y806074D01*
X269597Y806013D01*
X262232Y806013D01*
X261969Y806060D01*
X261711Y806220D01*
X261535Y806467D01*
X261470Y806763D01*
X261526Y807061D01*
X261693Y807314D01*
X262139Y807760D01*
X262139Y809851D01*
X260660Y811329D01*
X258569Y811329D01*
X257203Y809963D01*
X256961Y809800D01*
X256664Y809739D01*
X240488Y809739D01*
X240202Y809795D01*
X239949Y809963D01*
X215364Y834548D01*
X215211Y834767D01*
X215141Y835062D01*
X215192Y835361D01*
X215355Y835617D01*
X215605Y835788D01*
X215903Y835849D01*
X216981Y835849D01*
X219412Y838279D01*
X219412Y841716D01*
X216981Y844147D01*
X213544Y844147D01*
X211114Y841716D01*
X211114Y840638D01*
X211067Y840374D01*
X210907Y840116D01*
X210660Y839941D01*
X210364Y839876D01*
X210066Y839931D01*
X209813Y840099D01*
X149927Y899984D01*
X149764Y900226D01*
X149704Y900523D01*
X149704Y902842D01*
X147274Y905273D01*
X143836Y905273D01*
X141406Y902842D01*
X141406Y899405D01*
X143836Y896975D01*
X146155Y896975D01*
X146441Y896919D01*
X146694Y896751D01*
X163871Y879575D01*
X164024Y879355D01*
X164094Y879060D01*
X164043Y878761D01*
X163879Y878506D01*
X163629Y878334D01*
X163332Y878274D01*
X162253Y878274D01*
X159823Y875844D01*
X159823Y872406D01*
X162253Y869976D01*
X165691Y869976D01*
X165842Y870128D01*
X166073Y870286D01*
X166369Y870351D01*
X166667Y870295D01*
X166920Y870128D01*
X237082Y799965D01*
X270455Y799965D01*
X270741Y799910D01*
X270994Y799742D01*
X271467Y799269D01*
G37*
G36*
X422703Y890755D02*
X424825Y890755D01*
X426786Y891567D01*
X428287Y893068D01*
X429099Y895029D01*
X429099Y897151D01*
X428287Y899112D01*
X426786Y900613D01*
X424825Y901425D01*
X422703Y901425D01*
X420742Y900613D01*
X419241Y899112D01*
X418429Y897151D01*
X418429Y895029D01*
X419241Y893068D01*
X420742Y891567D01*
X422703Y890755D01*
G37*
G36*
X101187Y890619D02*
X103278Y890619D01*
X104757Y892097D01*
X104757Y894188D01*
X103278Y895667D01*
X101187Y895667D01*
X99709Y894188D01*
X99709Y892097D01*
X101187Y890619D01*
G37*
G36*
X473812Y882285D02*
X475934Y882285D01*
X477895Y883097D01*
X479396Y884598D01*
X480208Y886559D01*
X480208Y888681D01*
X479396Y890642D01*
X477895Y892143D01*
X475934Y892955D01*
X473812Y892955D01*
X471851Y892143D01*
X470350Y890642D01*
X469538Y888681D01*
X469538Y886559D01*
X470350Y884598D01*
X471851Y883097D01*
X473812Y882285D01*
G37*
G36*
X329946Y882627D02*
X333383Y882627D01*
X335814Y885057D01*
X335814Y888494D01*
X333383Y890925D01*
X329946Y890925D01*
X327516Y888494D01*
X327516Y885057D01*
X329946Y882627D01*
G37*
G36*
X187079Y885288D02*
X189170Y885288D01*
X190648Y886766D01*
X190648Y888857D01*
X189170Y890336D01*
X187079Y890336D01*
X185600Y888857D01*
X185600Y886766D01*
X187079Y885288D01*
G37*
G36*
X423377Y870446D02*
X425499Y870446D01*
X427460Y871258D01*
X428961Y872759D01*
X429773Y874720D01*
X429773Y876842D01*
X428961Y878803D01*
X427460Y880304D01*
X425499Y881116D01*
X423377Y881116D01*
X421416Y880304D01*
X419915Y878803D01*
X419103Y876842D01*
X419103Y874720D01*
X419915Y872759D01*
X421416Y871258D01*
X423377Y870446D01*
G37*
G36*
X473277Y849979D02*
X478153Y849979D01*
X482657Y851844D01*
X486104Y855292D01*
X487970Y859796D01*
X487970Y864671D01*
X486104Y869176D01*
X482657Y872623D01*
X478153Y874489D01*
X473277Y874489D01*
X468773Y872623D01*
X465326Y869176D01*
X463460Y864671D01*
X463460Y859796D01*
X465326Y855292D01*
X468773Y851844D01*
X473277Y849979D01*
G37*
G36*
X441545Y848926D02*
X446420Y848926D01*
X450924Y850792D01*
X454372Y854239D01*
X456238Y858743D01*
X456238Y863619D01*
X454372Y868123D01*
X450924Y871570D01*
X446420Y873436D01*
X441545Y873436D01*
X437041Y871570D01*
X433593Y868123D01*
X431728Y863619D01*
X431728Y858743D01*
X433593Y854239D01*
X437041Y850792D01*
X441545Y848926D01*
G37*
G36*
X278314Y861723D02*
X281026Y861723D01*
X282944Y863640D01*
X282944Y866353D01*
X281026Y868271D01*
X278314Y868271D01*
X276396Y866353D01*
X276396Y863640D01*
X278314Y861723D01*
G37*
G36*
X287010Y861293D02*
X289722Y861293D01*
X291640Y863211D01*
X291640Y865923D01*
X289722Y867841D01*
X287010Y867841D01*
X285092Y865923D01*
X285092Y863211D01*
X287010Y861293D01*
G37*
G36*
X316496Y861882D02*
X318794Y861882D01*
X320419Y863507D01*
X320419Y865805D01*
X318794Y867430D01*
X316496Y867430D01*
X314871Y865805D01*
X314871Y863507D01*
X316496Y861882D01*
G37*
G36*
X236330Y854287D02*
X238421Y854287D01*
X239900Y855765D01*
X239900Y857856D01*
X238421Y859335D01*
X236330Y859335D01*
X234852Y857856D01*
X234852Y855765D01*
X236330Y854287D01*
G37*
G36*
X359201Y836555D02*
X362639Y836555D01*
X365069Y838985D01*
X365069Y842422D01*
X362639Y844853D01*
X359201Y844853D01*
X356771Y842422D01*
X356771Y838985D01*
X359201Y836555D01*
G37*
G36*
X356009Y822208D02*
X358514Y822208D01*
X360286Y823979D01*
X360286Y826484D01*
X355496Y831274D01*
X340818Y831274D01*
X340555Y831321D01*
X340297Y831480D01*
X340122Y831727D01*
X340057Y832024D01*
X340112Y832322D01*
X340280Y832575D01*
X341042Y833337D01*
X341042Y836774D01*
X338612Y839205D01*
X335175Y839205D01*
X332744Y836774D01*
X332744Y833337D01*
X333507Y832575D01*
X333660Y832355D01*
X333730Y832060D01*
X333679Y831761D01*
X333515Y831506D01*
X333265Y831334D01*
X332968Y831274D01*
X299865Y831274D01*
X298094Y829502D01*
X298094Y826997D01*
X299865Y825226D01*
X352675Y825226D01*
X352961Y825170D01*
X353214Y825003D01*
X356009Y822208D01*
G37*
G36*
X234154Y827322D02*
X236659Y827322D01*
X238430Y829094D01*
X238430Y831599D01*
X236659Y833370D01*
X234154Y833370D01*
X232382Y831599D01*
X232382Y829094D01*
X234154Y827322D01*
G37*
G36*
X398281Y815851D02*
X401719Y815851D01*
X404149Y818281D01*
X404149Y821719D01*
X401719Y824149D01*
X398281Y824149D01*
X395851Y821719D01*
X395851Y818281D01*
X398281Y815851D01*
G37*
G36*
X311965Y816568D02*
X314056Y816568D01*
X315535Y818046D01*
X315535Y820137D01*
X314056Y821616D01*
X311965Y821616D01*
X310487Y820137D01*
X310487Y818046D01*
X311965Y816568D01*
G37*
G36*
X300471Y813468D02*
X302562Y813468D01*
X304040Y814947D01*
X304040Y817038D01*
X302562Y818516D01*
X300471Y818516D01*
X298992Y817038D01*
X298992Y814947D01*
X300471Y813468D01*
G37*
G36*
X287579Y806054D02*
X289669Y806054D01*
X291148Y807533D01*
X291148Y809624D01*
X289669Y811102D01*
X287579Y811102D01*
X286100Y809624D01*
X286100Y807533D01*
X287579Y806054D01*
G37*
G36*
X191625Y797869D02*
X195062Y797869D01*
X197493Y800299D01*
X197493Y803736D01*
X195062Y806167D01*
X191625Y806167D01*
X189195Y803736D01*
X189195Y800299D01*
X191625Y797869D01*
G37*
G36*
X312378Y773872D02*
X314924Y773872D01*
X316725Y775672D01*
X316725Y778219D01*
X315584Y779360D01*
X315426Y779591D01*
X315361Y779887D01*
X315416Y780185D01*
X315584Y780438D01*
X316088Y780942D01*
X316088Y782992D01*
X315552Y783528D01*
X315394Y783759D01*
X315329Y784055D01*
X315384Y784353D01*
X315552Y784606D01*
X316630Y785684D01*
X316630Y788231D01*
X314829Y790032D01*
X314031Y790032D01*
X313745Y790087D01*
X313492Y790255D01*
X305416Y798331D01*
X305258Y798561D01*
X305193Y798857D01*
X305249Y799155D01*
X305416Y799408D01*
X306136Y800128D01*
X306136Y802219D01*
X304657Y803697D01*
X302566Y803697D01*
X301088Y802219D01*
X301088Y800794D01*
X301036Y800519D01*
X300873Y800263D01*
X300623Y800092D01*
X300326Y800032D01*
X299023Y800032D01*
X297573Y798582D01*
X297573Y797628D01*
X297527Y797365D01*
X297367Y797107D01*
X297120Y796931D01*
X296824Y796866D01*
X296525Y796922D01*
X296273Y797089D01*
X295846Y797516D01*
X293299Y797516D01*
X291498Y795716D01*
X291498Y793169D01*
X292157Y792510D01*
X292310Y792291D01*
X292380Y791996D01*
X292329Y791697D01*
X292166Y791441D01*
X291916Y791270D01*
X291618Y791209D01*
X286827Y791209D01*
X284612Y788995D01*
X284371Y788832D01*
X284136Y788784D01*
X282674Y787322D01*
X282674Y785273D01*
X284123Y783824D01*
X286173Y783824D01*
X287634Y785285D01*
X287678Y785509D01*
X287845Y785762D01*
X288498Y786414D01*
X288739Y786577D01*
X289037Y786637D01*
X298483Y786637D01*
X298758Y786586D01*
X299014Y786423D01*
X299185Y786173D01*
X299245Y785875D01*
X299245Y783712D01*
X300724Y782233D01*
X302815Y782233D01*
X304293Y783712D01*
X304293Y785803D01*
X302613Y787483D01*
X302606Y787487D01*
X302599Y787497D01*
X302592Y787504D01*
X302593Y787505D01*
X302430Y787735D01*
X302365Y788031D01*
X302421Y788329D01*
X302588Y788582D01*
X302701Y788694D01*
X302942Y788857D01*
X303177Y788905D01*
X304639Y790367D01*
X304639Y790802D01*
X304686Y791065D01*
X304845Y791323D01*
X305093Y791499D01*
X305389Y791564D01*
X305687Y791508D01*
X305940Y791341D01*
X310259Y787022D01*
X310422Y786780D01*
X310482Y786483D01*
X310482Y785684D01*
X311619Y784548D01*
X311777Y784317D01*
X311842Y784021D01*
X311786Y783723D01*
X311619Y783470D01*
X311140Y782992D01*
X311140Y780942D01*
X311681Y780401D01*
X311839Y780170D01*
X311904Y779874D01*
X311849Y779576D01*
X311681Y779323D01*
X310577Y778219D01*
X310577Y775672D01*
X312378Y773872D01*
G37*
G36*
X270486Y786325D02*
X272577Y786325D01*
X274056Y787803D01*
X274056Y789894D01*
X272577Y791373D01*
X270486Y791373D01*
X269008Y789894D01*
X269008Y787803D01*
X270486Y786325D01*
G37*
G36*
X240432Y783967D02*
X242523Y783967D01*
X244001Y785446D01*
X244001Y787537D01*
X242523Y789015D01*
X240432Y789015D01*
X238953Y787537D01*
X238953Y785446D01*
X240432Y783967D01*
G37*
G36*
X378551Y770015D02*
X380642Y770015D01*
X380656Y770030D01*
X380898Y770192D01*
X381195Y770253D01*
X416341Y770253D01*
X421758Y775669D01*
X421999Y775832D01*
X422297Y775893D01*
X424616Y775893D01*
X427046Y778323D01*
X427046Y781760D01*
X424616Y784191D01*
X421178Y784191D01*
X418748Y781760D01*
X418748Y779441D01*
X418692Y779155D01*
X418525Y778902D01*
X414671Y775048D01*
X414429Y774885D01*
X414132Y774825D01*
X381195Y774825D01*
X380909Y774880D01*
X380656Y775048D01*
X380642Y775063D01*
X378551Y775063D01*
X377072Y773584D01*
X377072Y771493D01*
X378551Y770015D01*
G37*
G36*
X251071Y777795D02*
X253162Y777795D01*
X254641Y779274D01*
X254641Y781365D01*
X253162Y782843D01*
X251071Y782843D01*
X249593Y781365D01*
X249593Y779274D01*
X251071Y777795D01*
G37*
G36*
X261422Y761121D02*
X263513Y761121D01*
X264992Y762600D01*
X264992Y764691D01*
X264069Y765614D01*
X263916Y765834D01*
X263846Y766129D01*
X263897Y766428D01*
X264060Y766683D01*
X264310Y766855D01*
X264607Y766915D01*
X301542Y766915D01*
X304639Y770012D01*
X304639Y771455D01*
X304695Y771741D01*
X304862Y771994D01*
X304877Y772009D01*
X304877Y774100D01*
X303398Y775578D01*
X301307Y775578D01*
X300861Y775132D01*
X300630Y774974D01*
X300334Y774909D01*
X300036Y774964D01*
X299783Y775132D01*
X298433Y776482D01*
X295887Y776482D01*
X294086Y774681D01*
X294086Y772249D01*
X294035Y771974D01*
X293871Y771719D01*
X293621Y771547D01*
X293324Y771487D01*
X251173Y771487D01*
X250887Y771543D01*
X250634Y771710D01*
X249309Y773036D01*
X247218Y773036D01*
X245740Y771557D01*
X245740Y769466D01*
X247218Y767988D01*
X247239Y767988D01*
X247525Y767932D01*
X247778Y767764D01*
X248627Y766915D01*
X260329Y766915D01*
X260592Y766868D01*
X260850Y766709D01*
X261025Y766461D01*
X261090Y766165D01*
X261035Y765867D01*
X260867Y765614D01*
X259944Y764691D01*
X259944Y762600D01*
X261422Y761121D01*
G37*
G36*
X340162Y757105D02*
X342253Y757105D01*
X343731Y758584D01*
X343731Y760675D01*
X342253Y762153D01*
X340162Y762153D01*
X338683Y760675D01*
X338683Y758584D01*
X340162Y757105D01*
G37*
G36*
X325073Y756402D02*
X327164Y756402D01*
X328643Y757880D01*
X328643Y759971D01*
X327164Y761450D01*
X325073Y761450D01*
X323595Y759971D01*
X323595Y757880D01*
X325073Y756402D01*
G37*
G36*
X385771Y747674D02*
X388276Y747674D01*
X390048Y749446D01*
X390048Y751951D01*
X388276Y753722D01*
X385771Y753722D01*
X384000Y751951D01*
X384000Y749446D01*
X385771Y747674D01*
G37*
G36*
X255909Y745068D02*
X296001Y745068D01*
X296430Y745497D01*
X296672Y745660D01*
X296969Y745720D01*
X299072Y745720D01*
X300844Y747491D01*
X300844Y749996D01*
X299072Y751768D01*
X294148Y751768D01*
X293719Y751339D01*
X293478Y751176D01*
X293180Y751116D01*
X255909Y751116D01*
X254138Y749344D01*
X254138Y746839D01*
X255909Y745068D01*
G37*
G36*
X348818Y744210D02*
X350909Y744210D01*
X352387Y745689D01*
X352387Y747780D01*
X350909Y749258D01*
X348818Y749258D01*
X347339Y747780D01*
X347339Y745689D01*
X348818Y744210D01*
G37*
G36*
X319776Y743870D02*
X321867Y743870D01*
X323346Y745349D01*
X323346Y747440D01*
X321867Y748918D01*
X319776Y748918D01*
X318298Y747440D01*
X318298Y745349D01*
X319776Y743870D01*
G37*
G36*
X360201Y743434D02*
X362292Y743434D01*
X363770Y744912D01*
X363770Y747003D01*
X362292Y748482D01*
X360201Y748482D01*
X358722Y747003D01*
X358722Y744912D01*
X360201Y743434D01*
G37*
G36*
X319225Y708239D02*
X322662Y708239D01*
X325093Y710669D01*
X325093Y714107D01*
X322662Y716537D01*
X319225Y716537D01*
X316795Y714107D01*
X316795Y710669D01*
X319225Y708239D01*
G37*
G36*
X463661Y705826D02*
X467098Y705826D01*
X469528Y708256D01*
X469528Y711693D01*
X467098Y714124D01*
X463661Y714124D01*
X461230Y711693D01*
X461230Y708256D01*
X463661Y705826D01*
G37*
G36*
X479293Y702657D02*
X482006Y702657D01*
X483924Y704575D01*
X483924Y707287D01*
X482006Y709205D01*
X479293Y709205D01*
X477376Y707287D01*
X477376Y704575D01*
X479293Y702657D01*
G37*
G36*
X244682Y687437D02*
X248119Y687437D01*
X250550Y689868D01*
X250550Y693305D01*
X248119Y695735D01*
X244682Y695735D01*
X242252Y693305D01*
X242252Y689868D01*
X244682Y687437D01*
G37*
G36*
X463281Y682853D02*
X466719Y682853D01*
X469149Y685283D01*
X469149Y688720D01*
X466719Y691151D01*
X463281Y691151D01*
X460851Y688720D01*
X460851Y685283D01*
X463281Y682853D01*
G37*
G36*
X206904Y684518D02*
X209616Y684518D01*
X211534Y686436D01*
X211534Y689148D01*
X209616Y691066D01*
X206904Y691066D01*
X204986Y689148D01*
X204986Y686436D01*
X206904Y684518D01*
G37*
G36*
X415708Y674767D02*
X419145Y674767D01*
X421576Y677197D01*
X421576Y680635D01*
X419145Y683065D01*
X415708Y683065D01*
X413278Y680635D01*
X413278Y677197D01*
X415708Y674767D01*
G37*
G36*
X197408Y647420D02*
X200136Y647420D01*
X202657Y648464D01*
X204586Y650393D01*
X205630Y652913D01*
X205630Y655642D01*
X204586Y658162D01*
X202657Y660092D01*
X200136Y661136D01*
X197408Y661136D01*
X194887Y660092D01*
X192958Y658162D01*
X191914Y655642D01*
X191914Y652913D01*
X192958Y650393D01*
X194887Y648464D01*
X197408Y647420D01*
G37*
G36*
X160452Y647226D02*
X163180Y647226D01*
X165701Y648270D01*
X167630Y650199D01*
X168674Y652720D01*
X168674Y655448D01*
X167630Y657969D01*
X165701Y659898D01*
X163180Y660942D01*
X160452Y660942D01*
X157932Y659898D01*
X156002Y657969D01*
X154958Y655448D01*
X154958Y652720D01*
X156002Y650199D01*
X157932Y648270D01*
X160452Y647226D01*
G37*
G36*
X271447Y646518D02*
X274175Y646518D01*
X276696Y647562D01*
X278625Y649491D01*
X279669Y652012D01*
X279669Y654740D01*
X278625Y657261D01*
X276696Y659190D01*
X274175Y660234D01*
X271447Y660234D01*
X268926Y659190D01*
X266997Y657261D01*
X265953Y654740D01*
X265953Y652012D01*
X266997Y649491D01*
X268926Y647562D01*
X271447Y646518D01*
G37*
G36*
X417626Y646412D02*
X420354Y646412D01*
X422875Y647456D01*
X424804Y649385D01*
X425848Y651906D01*
X425848Y654634D01*
X424804Y657154D01*
X422875Y659084D01*
X420354Y660128D01*
X417626Y660128D01*
X415105Y659084D01*
X413176Y657154D01*
X412132Y654634D01*
X412132Y651906D01*
X413176Y649385D01*
X415105Y647456D01*
X417626Y646412D01*
G37*
G36*
X380670Y646283D02*
X383398Y646283D01*
X385919Y647327D01*
X387848Y649256D01*
X388892Y651777D01*
X388892Y654505D01*
X387848Y657025D01*
X385919Y658955D01*
X383398Y659999D01*
X380670Y659999D01*
X378149Y658955D01*
X376220Y657025D01*
X375176Y654505D01*
X375176Y651777D01*
X376220Y649256D01*
X378149Y647327D01*
X380670Y646283D01*
G37*
G36*
X308402Y646195D02*
X311130Y646195D01*
X313651Y647239D01*
X315580Y649169D01*
X316624Y651689D01*
X316624Y654418D01*
X315580Y656938D01*
X313651Y658867D01*
X311130Y659911D01*
X308402Y659911D01*
X305881Y658867D01*
X303952Y656938D01*
X302908Y654418D01*
X302908Y651689D01*
X303952Y649169D01*
X305881Y647239D01*
X308402Y646195D01*
G37*
%LPD*%
D10*
X352822Y963954D03*
X266424Y963351D03*
X353112Y922455D03*
X266714Y921852D03*
D11*
X418990Y653270D03*
X382034Y653141D03*
X309766Y653053D03*
X272811Y653376D03*
X198772Y654278D03*
X161816Y654084D03*
D12*
X335064Y793081D03*
X323064Y793018D03*
X323001Y805018D03*
X335001Y805081D03*
X347001Y805144D03*
X359001Y805206D03*
X359064Y793207D03*
X347064Y793144D03*
X323127Y781018D03*
X335127Y781081D03*
X347127Y781144D03*
X359126Y781207D03*
X359189Y769207D03*
X347189Y769144D03*
X335190Y769081D03*
X323190Y769018D03*
D13*
X145555Y901124D03*
D14*
X192920Y947956D03*
D15*
X259615Y808805D03*
X262468Y763645D03*
D16*
X239225Y807453D02*
X145555Y901124D01*
X239225Y807453D02*
X258263Y807453D01*
X259615Y808805D01*
D17*
X285148Y786298D03*
X302165Y791392D03*
D16*
X287774Y788923D02*
X285148Y786298D01*
X299697Y788923D02*
X302165Y791392D01*
X299697Y788923D02*
X287774Y788923D01*
D15*
X248264Y770512D03*
X302353Y773054D03*
D16*
X300595Y769201D02*
X249574Y769201D01*
X248264Y770512D01*
X302353Y770959D02*
X302353Y773054D01*
X302353Y770959D02*
X300595Y769201D01*
D18*
X313651Y776946D03*
D15*
X241477Y786491D03*
X257162Y748092D03*
D19*
X294749Y748092D01*
D15*
X297820Y748744D03*
D19*
X295401Y748744D01*
X294749Y748092D01*
D15*
X102233Y893143D03*
X188124Y887812D03*
X271532Y788849D03*
D17*
X300047Y797558D03*
D15*
X252117Y780319D03*
X237376Y856811D03*
D18*
X313556Y786958D03*
D16*
X302956Y797558D02*
X300047Y797558D01*
X302956Y797558D02*
X313556Y786958D01*
D13*
X139967Y951175D03*
X143212Y939572D03*
X262988Y684070D03*
X496301Y710840D03*
D14*
X192495Y913376D03*
D15*
X273480Y817788D03*
X303927Y727712D03*
D14*
X256643Y775409D03*
D17*
X285274Y797870D03*
D13*
X292600Y679034D03*
D14*
X285667Y713448D03*
D15*
X281160Y831646D03*
X272407Y861626D03*
X271778Y829662D03*
D17*
X401047Y778021D03*
X389878Y777201D03*
D15*
X95533Y906564D03*
X138022Y925344D03*
X142221Y930149D03*
D13*
X97526Y928943D03*
D15*
X301769Y784757D03*
D17*
X313614Y781967D03*
D13*
X148420Y916315D03*
X360920Y840704D03*
D14*
X152780Y936117D03*
D15*
X349863Y746734D03*
X361246Y745958D03*
X288624Y808578D03*
X301516Y815992D03*
D13*
X163972Y874125D03*
D19*
X167199Y874125D01*
X238335Y802989D02*
X273300Y802989D01*
X238335Y802989D02*
X167199Y874125D01*
D13*
X273185Y803418D03*
D16*
X273300Y803304D01*
X273300Y802989D01*
D15*
X301118Y828250D03*
X357262Y825232D03*
D19*
X354243Y828250D02*
X301118Y828250D01*
X354243Y828250D02*
X357262Y825232D01*
D13*
X430652Y934342D03*
D18*
X294572Y794442D03*
X297160Y773408D03*
D15*
X326119Y758926D03*
X320822Y746394D03*
D13*
X422897Y780042D03*
D15*
X379596Y772539D03*
D16*
X415394Y772539D02*
X422897Y780042D01*
X415394Y772539D02*
X379596Y772539D01*
D15*
X341207Y759629D03*
X303612Y801173D03*
X313011Y819092D03*
D13*
X400000Y820000D03*
X336893Y835056D03*
X510186Y769681D03*
D14*
X387024Y750698D03*
D13*
X417427Y678916D03*
X193344Y802018D03*
X320944Y712388D03*
X465000Y687002D03*
D14*
X235406Y830346D03*
D13*
X215263Y839998D03*
X331665Y886776D03*
D20*
X317645Y864656D03*
D21*
X279670Y864997D03*
X288366Y864567D03*
D13*
X246401Y691586D03*
D21*
X208260Y687792D03*
D13*
X465379Y709975D03*
D21*
X480650Y705931D03*
M02*
