G04 EAGLE Gerber RS-274X export*
G75*
%MOMM*%
%FSLAX34Y34*%
%LPD*%
%INTop Copper*%
%IPPOS*%
%AMOC8*
5,1,8,0,0,1.08239X$1,22.5*%
G01*
G04 Define Apertures*
%ADD10R,1.150000X1.800000*%
%ADD11R,0.280000X0.430000*%
%ADD12R,0.500000X0.600000*%
%ADD13R,0.430000X0.280000*%
%ADD14R,0.600000X0.500000*%
%ADD15R,1.150000X0.800000*%
%ADD16R,1.200000X0.600000*%
%ADD17C,0.200000*%
%ADD18R,0.350000X0.300000*%
%ADD19C,0.250000*%
%ADD20C,0.216000*%
%ADD21R,0.700000X0.300000*%
%ADD22R,1.000000X0.300000*%
%ADD23C,0.783000*%
%ADD24R,0.300000X1.150000*%
%ADD25R,0.600000X1.150000*%
%ADD26C,1.158000*%
%ADD27R,2.200000X1.200000*%
%ADD28R,0.900000X0.800000*%
%ADD29R,1.050000X0.500000*%
%ADD30R,0.350000X0.250000*%
%ADD31R,0.250000X0.350000*%
%ADD32R,1.168400X1.600200*%
%ADD33R,0.711200X1.092200*%
%ADD34R,1.066800X1.066800*%
%ADD35R,1.397000X1.092200*%
%ADD36C,2.000000*%
%ADD37R,4.850000X4.850000*%
%ADD38C,0.808000*%
%ADD39C,0.067500*%
%ADD40R,0.900000X1.300000*%
%ADD41R,0.950000X0.850000*%
%ADD42R,1.000000X1.800000*%
%ADD43C,0.525000*%
%ADD44C,0.152400*%
%ADD45C,0.300000*%
%ADD46C,0.190000*%
%ADD47C,0.300000*%
%ADD48C,0.310000*%
%ADD49C,0.304800*%
%ADD50C,0.350000*%
G36*
X155805Y626600D02*
X155507Y626540D01*
X131907Y626540D01*
X131621Y626596D01*
X131368Y626763D01*
X103779Y654353D01*
X103616Y654594D01*
X103556Y654892D01*
X103556Y729198D01*
X103607Y729473D01*
X103770Y729728D01*
X104020Y729900D01*
X104318Y729960D01*
X131347Y729960D01*
X131865Y730478D01*
X132014Y730705D01*
X132266Y730874D01*
X132563Y730931D01*
X137006Y730885D01*
X137091Y738964D01*
X132547Y739012D01*
X132281Y739063D01*
X132025Y739227D01*
X131854Y739477D01*
X131793Y739774D01*
X131793Y756273D01*
X131835Y756522D01*
X131990Y756783D01*
X132234Y756964D01*
X132340Y757013D01*
X132349Y757068D01*
X132349Y860971D01*
X132403Y861253D01*
X132569Y861507D01*
X132821Y861676D01*
X133119Y861733D01*
X138376Y861678D01*
X138460Y869757D01*
X133103Y869813D01*
X132836Y869865D01*
X132581Y870028D01*
X132410Y870278D01*
X132349Y870575D01*
X132349Y870701D01*
X132324Y870807D01*
X132305Y870833D01*
X127862Y875277D01*
X127778Y875330D01*
X127741Y875337D01*
X64140Y876835D01*
X63884Y876886D01*
X63628Y877050D01*
X63457Y877300D01*
X63396Y877597D01*
X63396Y918948D01*
X63401Y919033D01*
X63515Y920045D01*
X63553Y920211D01*
X68617Y934685D01*
X68691Y934838D01*
X76849Y947822D01*
X76956Y947955D01*
X87798Y958798D01*
X87932Y958904D01*
X100915Y967062D01*
X101069Y967136D01*
X115542Y972201D01*
X115709Y972239D01*
X117335Y972422D01*
X117420Y972427D01*
X258985Y972427D01*
X259365Y972325D01*
X259592Y972125D01*
X259723Y971851D01*
X259738Y971548D01*
X259633Y971264D01*
X259450Y970968D01*
X259345Y970783D01*
X259260Y970602D01*
X259194Y970427D01*
X258819Y969332D01*
X258758Y969128D01*
X258716Y968933D01*
X258690Y968748D01*
X258569Y967605D01*
X258553Y967277D01*
X258560Y966289D01*
X258502Y965992D01*
X258094Y965008D01*
X258094Y964055D01*
X274754Y964171D01*
X274754Y965008D01*
X274305Y966092D01*
X274247Y966378D01*
X274240Y967386D01*
X274219Y967714D01*
X274083Y968854D01*
X274050Y969064D01*
X274003Y969258D01*
X273946Y969436D01*
X273556Y970527D01*
X273476Y970724D01*
X273388Y970903D01*
X273293Y971063D01*
X273171Y971255D01*
X273051Y971640D01*
X273102Y971939D01*
X273266Y972195D01*
X273516Y972366D01*
X273813Y972427D01*
X345032Y972427D01*
X345332Y972365D01*
X345582Y972192D01*
X345744Y971936D01*
X345793Y971637D01*
X345722Y971342D01*
X345658Y971205D01*
X345592Y971031D01*
X345217Y969935D01*
X345156Y969731D01*
X345114Y969536D01*
X345088Y969351D01*
X344967Y968208D01*
X344951Y967880D01*
X344958Y966892D01*
X344900Y966595D01*
X344492Y965611D01*
X344492Y964658D01*
X361152Y964774D01*
X361152Y965611D01*
X360703Y966695D01*
X360645Y966982D01*
X360638Y967990D01*
X360617Y968318D01*
X360481Y969457D01*
X360447Y969667D01*
X360401Y969861D01*
X360344Y970039D01*
X359953Y971130D01*
X359863Y971355D01*
X359867Y971356D01*
X359796Y971640D01*
X359847Y971939D01*
X360010Y972195D01*
X360260Y972366D01*
X360557Y972427D01*
X464643Y972427D01*
X464728Y972422D01*
X466354Y972239D01*
X466520Y972201D01*
X480994Y967136D01*
X481147Y967062D01*
X494131Y958904D01*
X494264Y958798D01*
X505107Y947955D01*
X505213Y947822D01*
X513371Y934838D01*
X513445Y934685D01*
X518510Y920211D01*
X518548Y920045D01*
X518784Y917950D01*
X518789Y917865D01*
X518789Y801762D01*
X518737Y801488D01*
X518574Y801232D01*
X518324Y801061D01*
X518027Y801000D01*
X513234Y801000D01*
X512959Y801052D01*
X512704Y801215D01*
X512532Y801465D01*
X512472Y801762D01*
X512472Y818029D01*
X512527Y818315D01*
X512695Y818568D01*
X514581Y820454D01*
X516335Y824690D01*
X516335Y829275D01*
X514581Y833510D01*
X511339Y836752D01*
X507104Y838506D01*
X502519Y838506D01*
X498748Y836944D01*
X498468Y836886D01*
X498170Y836942D01*
X497917Y837109D01*
X483458Y851568D01*
X483300Y851799D01*
X483235Y852095D01*
X483291Y852393D01*
X483458Y852646D01*
X486104Y855292D01*
X487970Y859796D01*
X487970Y864671D01*
X486104Y869176D01*
X482657Y872623D01*
X478153Y874489D01*
X473277Y874489D01*
X468773Y872623D01*
X466285Y870135D01*
X466066Y869982D01*
X465770Y869912D01*
X465471Y869963D01*
X465216Y870126D01*
X465044Y870376D01*
X464984Y870674D01*
X464984Y874681D01*
X464900Y874766D01*
X464737Y875007D01*
X464676Y875304D01*
X464676Y875426D01*
X464721Y875682D01*
X464878Y875942D01*
X465124Y876120D01*
X465623Y876346D01*
X467101Y877926D01*
X467862Y879951D01*
X467791Y882114D01*
X466897Y884084D01*
X465317Y885563D01*
X463291Y886324D01*
X461129Y886252D01*
X459158Y885358D01*
X457680Y883779D01*
X456919Y881753D01*
X456990Y879591D01*
X457884Y877620D01*
X459464Y876142D01*
X459611Y876087D01*
X459873Y875921D01*
X460044Y875671D01*
X460104Y875373D01*
X460104Y873095D01*
X460189Y873010D01*
X460352Y872769D01*
X460412Y872472D01*
X460412Y872153D01*
X460365Y871889D01*
X460206Y871631D01*
X459958Y871456D01*
X459662Y871391D01*
X459364Y871446D01*
X459111Y871614D01*
X454355Y876370D01*
X454208Y876577D01*
X454133Y876871D01*
X454179Y877171D01*
X454338Y877429D01*
X454408Y877505D01*
X455169Y879530D01*
X455098Y881693D01*
X454204Y883663D01*
X452624Y885142D01*
X451437Y885588D01*
X451207Y885724D01*
X451022Y885964D01*
X450944Y886258D01*
X450988Y886558D01*
X451145Y886817D01*
X451390Y886995D01*
X453112Y887776D01*
X454867Y889651D01*
X455532Y891421D01*
X455669Y891651D01*
X455909Y891837D01*
X456202Y891914D01*
X456502Y891870D01*
X456762Y891713D01*
X456939Y891468D01*
X457463Y890313D01*
X459043Y888835D01*
X461068Y888073D01*
X463231Y888145D01*
X465202Y889039D01*
X466680Y890619D01*
X467441Y892644D01*
X467370Y894807D01*
X466476Y896777D01*
X464956Y898200D01*
X464775Y898459D01*
X464714Y898756D01*
X464714Y903152D01*
X464761Y903415D01*
X464920Y903673D01*
X465168Y903848D01*
X465464Y903914D01*
X465762Y903858D01*
X466015Y903690D01*
X467089Y902617D01*
X471593Y900751D01*
X476469Y900751D01*
X480973Y902617D01*
X484420Y906064D01*
X486286Y910568D01*
X486286Y915444D01*
X484420Y919948D01*
X480973Y923395D01*
X476469Y925261D01*
X471593Y925261D01*
X467089Y923395D01*
X463642Y919948D01*
X461776Y915444D01*
X461776Y911924D01*
X461729Y911661D01*
X461570Y911403D01*
X461322Y911228D01*
X461026Y911163D01*
X460728Y911218D01*
X460475Y911386D01*
X460451Y911409D01*
X460289Y911651D01*
X460228Y911948D01*
X460228Y945459D01*
X460282Y945739D01*
X460447Y945993D01*
X460699Y946163D01*
X464093Y947569D01*
X467335Y950811D01*
X469089Y955046D01*
X469089Y959631D01*
X467335Y963866D01*
X464093Y967108D01*
X459858Y968863D01*
X455273Y968863D01*
X451037Y967108D01*
X447796Y963866D01*
X446041Y959631D01*
X446041Y955046D01*
X447298Y952013D01*
X447356Y951733D01*
X447300Y951435D01*
X447133Y951183D01*
X433945Y937994D01*
X433714Y937836D01*
X433418Y937771D01*
X433120Y937827D01*
X432867Y937994D01*
X432370Y938491D01*
X428933Y938491D01*
X426503Y936061D01*
X426503Y932624D01*
X428933Y930193D01*
X432370Y930193D01*
X433272Y931095D01*
X433513Y931258D01*
X433811Y931318D01*
X435821Y931318D01*
X451409Y946906D01*
X451645Y947066D01*
X451942Y947129D01*
X452240Y947071D01*
X453710Y946462D01*
X453948Y946305D01*
X454120Y946055D01*
X454180Y945758D01*
X454180Y919122D01*
X454135Y918865D01*
X453978Y918605D01*
X453732Y918428D01*
X453436Y918360D01*
X453138Y918414D01*
X452884Y918579D01*
X452714Y918831D01*
X452688Y918895D01*
X449240Y922342D01*
X444736Y924208D01*
X439861Y924208D01*
X435356Y922342D01*
X431909Y918895D01*
X430043Y914391D01*
X430043Y909515D01*
X431909Y905011D01*
X435356Y901564D01*
X437561Y900651D01*
X437763Y900527D01*
X437950Y900289D01*
X438029Y899996D01*
X437989Y899696D01*
X437834Y899435D01*
X437589Y899255D01*
X437294Y899185D01*
X437121Y899179D01*
X437360Y891966D01*
X430147Y891727D01*
X430165Y891205D01*
X431225Y888867D01*
X433100Y887112D01*
X434870Y886447D01*
X435100Y886310D01*
X435286Y886070D01*
X435363Y885777D01*
X435320Y885477D01*
X435163Y885217D01*
X434917Y885040D01*
X433762Y884516D01*
X432284Y882936D01*
X431523Y880911D01*
X431594Y878748D01*
X431659Y878606D01*
X431727Y878303D01*
X431671Y878005D01*
X431504Y877752D01*
X430820Y877068D01*
X430595Y876912D01*
X430299Y876845D01*
X430001Y876898D01*
X429746Y877064D01*
X429577Y877315D01*
X428961Y878803D01*
X427460Y880304D01*
X425499Y881116D01*
X423377Y881116D01*
X421416Y880304D01*
X419915Y878803D01*
X419103Y876842D01*
X419103Y874720D01*
X419915Y872759D01*
X421416Y871258D01*
X423377Y870446D01*
X425499Y870446D01*
X427460Y871258D01*
X428020Y871818D01*
X428239Y871971D01*
X428534Y872041D01*
X428833Y871990D01*
X429089Y871827D01*
X429260Y871577D01*
X429321Y871279D01*
X429321Y870925D01*
X429265Y870639D01*
X429097Y870386D01*
X416434Y857723D01*
X416434Y837010D01*
X416379Y836724D01*
X416211Y836471D01*
X414886Y835147D01*
X413132Y830911D01*
X413132Y826327D01*
X414886Y822091D01*
X418128Y818849D01*
X421900Y817287D01*
X422138Y817131D01*
X422310Y816880D01*
X422370Y816583D01*
X422370Y802842D01*
X422314Y802556D01*
X422147Y802304D01*
X420611Y800768D01*
X420611Y783939D01*
X420555Y783653D01*
X420388Y783400D01*
X418748Y781760D01*
X418748Y778323D01*
X421178Y775893D01*
X424616Y775893D01*
X427046Y778323D01*
X427046Y781760D01*
X425406Y783400D01*
X425243Y783642D01*
X425183Y783939D01*
X425183Y798558D01*
X425239Y798844D01*
X425406Y799097D01*
X426942Y800633D01*
X426942Y816583D01*
X426995Y816864D01*
X427161Y817118D01*
X427412Y817287D01*
X431184Y818849D01*
X434426Y822091D01*
X436180Y826327D01*
X436180Y830911D01*
X434426Y835147D01*
X431184Y838389D01*
X426948Y840143D01*
X422364Y840143D01*
X422060Y840017D01*
X421793Y839959D01*
X421494Y840010D01*
X421238Y840174D01*
X421067Y840424D01*
X421006Y840721D01*
X421006Y855514D01*
X421062Y855800D01*
X421229Y856053D01*
X431092Y865915D01*
X431306Y866066D01*
X431600Y866138D01*
X431900Y866089D01*
X432157Y865928D01*
X432330Y865679D01*
X432393Y865382D01*
X432335Y865085D01*
X431728Y863619D01*
X431728Y858743D01*
X433593Y854239D01*
X437041Y850792D01*
X441545Y848926D01*
X446420Y848926D01*
X450924Y850792D01*
X454372Y854239D01*
X455898Y857924D01*
X456038Y858145D01*
X456283Y858324D01*
X456578Y858394D01*
X456877Y858343D01*
X457132Y858180D01*
X457304Y857930D01*
X457364Y857632D01*
X457364Y825116D01*
X480179Y802301D01*
X480332Y802082D01*
X480402Y801787D01*
X480351Y801488D01*
X480188Y801232D01*
X479938Y801061D01*
X479640Y801000D01*
X431702Y801000D01*
X431662Y800995D01*
X431659Y800994D01*
X431650Y800938D01*
X431650Y770743D01*
X431675Y770637D01*
X431694Y770611D01*
X434111Y768194D01*
X434264Y767975D01*
X434334Y767680D01*
X434283Y767381D01*
X434119Y767125D01*
X433869Y766954D01*
X433572Y766893D01*
X429698Y766893D01*
X429397Y766955D01*
X429148Y767128D01*
X428818Y767473D01*
X423256Y767589D01*
X422751Y767105D01*
X422521Y766953D01*
X422224Y766893D01*
X418278Y766892D01*
X417994Y766947D01*
X417741Y767113D01*
X417573Y767365D01*
X417518Y767654D01*
X417061Y768122D01*
X416904Y768357D01*
X416844Y768654D01*
X416844Y787610D01*
X409771Y794684D01*
X409608Y794925D01*
X409547Y795222D01*
X409547Y799329D01*
X408766Y800111D01*
X408645Y800284D01*
X408642Y800282D01*
X408345Y800222D01*
X402392Y800222D01*
X401499Y799329D01*
X401499Y792067D01*
X402392Y791174D01*
X406499Y791174D01*
X406785Y791118D01*
X407038Y790951D01*
X412049Y785940D01*
X412212Y785698D01*
X412272Y785401D01*
X412272Y770400D01*
X412217Y770117D01*
X412051Y769863D01*
X411799Y769695D01*
X411501Y769638D01*
X410278Y769653D01*
X410163Y760274D01*
X411853Y760253D01*
X412655Y761036D01*
X412899Y761196D01*
X413197Y761253D01*
X416544Y761212D01*
X417458Y762103D01*
X417692Y762259D01*
X417990Y762320D01*
X420458Y762320D01*
X420748Y762263D01*
X421000Y762094D01*
X421166Y761841D01*
X421220Y761542D01*
X421196Y760369D01*
X430574Y760172D01*
X430603Y761575D01*
X430654Y761834D01*
X430818Y762090D01*
X431068Y762261D01*
X431365Y762321D01*
X436702Y762321D01*
X440266Y765885D01*
X440507Y766048D01*
X440805Y766108D01*
X492377Y766108D01*
X492635Y766064D01*
X492894Y765906D01*
X493072Y765660D01*
X493139Y765365D01*
X493086Y765066D01*
X492921Y764812D01*
X492669Y764642D01*
X489487Y763324D01*
X486245Y760082D01*
X484925Y756896D01*
X484768Y756657D01*
X484518Y756486D01*
X484221Y756425D01*
X431273Y756425D01*
X430984Y756482D01*
X430732Y756651D01*
X430566Y756905D01*
X430512Y757203D01*
X430542Y758648D01*
X421164Y758845D01*
X421129Y757171D01*
X421078Y756913D01*
X420914Y756657D01*
X420664Y756486D01*
X420367Y756425D01*
X398047Y756425D01*
X397761Y756481D01*
X397508Y756648D01*
X393993Y760164D01*
X393840Y760383D01*
X393770Y760678D01*
X393821Y760977D01*
X393985Y761233D01*
X394235Y761404D01*
X394532Y761464D01*
X396973Y761464D01*
X397259Y761409D01*
X397512Y761241D01*
X398305Y760448D01*
X399995Y760448D01*
X399995Y769828D01*
X398705Y769828D01*
X398430Y769880D01*
X398175Y770043D01*
X398003Y770293D01*
X397943Y770590D01*
X397943Y790412D01*
X397994Y790687D01*
X398158Y790942D01*
X398408Y791114D01*
X398642Y791161D01*
X399547Y792067D01*
X399547Y799329D01*
X398655Y800222D01*
X394548Y800222D01*
X394262Y800278D01*
X394135Y800362D01*
X372824Y800362D01*
X372553Y800411D01*
X372297Y800573D01*
X372124Y800823D01*
X372062Y801120D01*
X372060Y801489D01*
X372110Y801764D01*
X372272Y802020D01*
X372521Y802193D01*
X372818Y802255D01*
X374562Y802264D01*
X374568Y802270D01*
X374813Y802436D01*
X375110Y802496D01*
X399031Y802496D01*
X399317Y802441D01*
X399337Y802427D01*
X405678Y802427D01*
X406290Y803039D01*
X406520Y803197D01*
X406817Y803262D01*
X407115Y803206D01*
X407368Y803039D01*
X408884Y801523D01*
X409005Y801349D01*
X409007Y801351D01*
X409305Y801411D01*
X411785Y801411D01*
X411785Y812491D01*
X408995Y812491D01*
X407368Y810864D01*
X407137Y810706D01*
X406841Y810641D01*
X406543Y810696D01*
X406290Y810864D01*
X405678Y811475D01*
X403048Y811475D01*
X402773Y811527D01*
X402518Y811690D01*
X402346Y811940D01*
X402286Y812237D01*
X402286Y816103D01*
X402342Y816389D01*
X402509Y816642D01*
X404149Y818281D01*
X404149Y821719D01*
X401719Y824149D01*
X398281Y824149D01*
X397012Y822880D01*
X396782Y822722D01*
X396486Y822657D01*
X396187Y822712D01*
X395935Y822880D01*
X394691Y824124D01*
X393001Y824124D01*
X393001Y818672D01*
X391477Y818672D01*
X391477Y824124D01*
X389787Y824124D01*
X388994Y823331D01*
X388752Y823168D01*
X388455Y823108D01*
X385305Y823108D01*
X385030Y823159D01*
X384775Y823322D01*
X384603Y823572D01*
X384543Y823870D01*
X384543Y837133D01*
X384599Y837419D01*
X384766Y837672D01*
X390585Y843491D01*
X390585Y863267D01*
X390585Y863272D01*
X390664Y874603D01*
X389718Y875562D01*
X389547Y875736D01*
X389388Y875974D01*
X389328Y876271D01*
X389328Y878064D01*
X389383Y878350D01*
X389551Y878602D01*
X391761Y880813D01*
X391761Y893046D01*
X388967Y895841D01*
X388802Y896087D01*
X388743Y896385D01*
X388791Y903270D01*
X387905Y904169D01*
X377143Y904244D01*
X376527Y903637D01*
X376295Y903480D01*
X375999Y903417D01*
X375701Y903475D01*
X375449Y903644D01*
X373833Y905283D01*
X368793Y905318D01*
X368741Y897767D01*
X360689Y897823D01*
X360657Y893283D01*
X361444Y892485D01*
X361605Y892242D01*
X361664Y891944D01*
X361610Y884284D01*
X361555Y884003D01*
X361387Y883751D01*
X354360Y876723D01*
X354119Y876561D01*
X353822Y876500D01*
X348702Y876491D01*
X347811Y875597D01*
X347817Y872249D01*
X347761Y871963D01*
X347594Y871710D01*
X346803Y870916D01*
X346806Y869226D01*
X352258Y869235D01*
X352261Y867711D01*
X346809Y867702D01*
X346812Y866012D01*
X348302Y864526D01*
X348799Y864527D01*
X349077Y864475D01*
X349332Y864311D01*
X349503Y864060D01*
X349562Y863763D01*
X349501Y863466D01*
X349328Y863216D01*
X347776Y861723D01*
X347723Y858933D01*
X358801Y858720D01*
X358854Y861510D01*
X357395Y863026D01*
X355065Y863071D01*
X354818Y863117D01*
X354559Y863276D01*
X354383Y863523D01*
X354318Y863819D01*
X354373Y864118D01*
X354540Y864371D01*
X356303Y866140D01*
X356535Y866299D01*
X356831Y866364D01*
X357129Y866309D01*
X357382Y866141D01*
X365915Y857607D01*
X366078Y857366D01*
X366139Y857069D01*
X366139Y843192D01*
X366092Y842929D01*
X365932Y842671D01*
X365685Y842495D01*
X365389Y842430D01*
X365091Y842486D01*
X364838Y842653D01*
X362639Y844853D01*
X361363Y844853D01*
X361077Y844908D01*
X360824Y845076D01*
X357814Y848086D01*
X357646Y848342D01*
X357591Y848640D01*
X357638Y851111D01*
X357039Y851734D01*
X356885Y851967D01*
X356826Y852265D01*
X356887Y852562D01*
X357059Y852811D01*
X358718Y854407D01*
X358771Y857197D01*
X347693Y857409D01*
X347640Y854620D01*
X349236Y852961D01*
X349389Y852728D01*
X349449Y852431D01*
X349387Y852134D01*
X349215Y851884D01*
X348592Y851284D01*
X348562Y849740D01*
X348516Y849491D01*
X348356Y849233D01*
X348109Y849058D01*
X347813Y848993D01*
X347515Y849048D01*
X347352Y849156D01*
X345631Y849156D01*
X345631Y839776D01*
X347321Y839776D01*
X348809Y841264D01*
X348809Y843347D01*
X348866Y843635D01*
X349034Y843887D01*
X349288Y844054D01*
X349586Y844109D01*
X353003Y844043D01*
X353274Y843988D01*
X353527Y843820D01*
X356548Y840799D01*
X356711Y840558D01*
X356771Y840261D01*
X356771Y838819D01*
X356720Y838544D01*
X356556Y838288D01*
X356306Y838117D01*
X356009Y838057D01*
X354805Y838057D01*
X354805Y834129D01*
X357983Y834129D01*
X357983Y835933D01*
X358030Y836197D01*
X358189Y836455D01*
X358437Y836630D01*
X358733Y836695D01*
X359031Y836640D01*
X359159Y836555D01*
X359639Y836555D01*
X359913Y836504D01*
X360169Y836340D01*
X360340Y836090D01*
X360401Y835793D01*
X360401Y829018D01*
X360350Y828743D01*
X360186Y828487D01*
X359936Y828316D01*
X359639Y828256D01*
X357914Y828256D01*
X357651Y828303D01*
X357393Y828462D01*
X357217Y828709D01*
X357152Y829005D01*
X357208Y829304D01*
X357375Y829556D01*
X357983Y830164D01*
X357983Y832605D01*
X354805Y832605D01*
X354805Y828638D01*
X354854Y828630D01*
X355112Y828470D01*
X355287Y828223D01*
X355352Y827927D01*
X355297Y827629D01*
X355129Y827376D01*
X354238Y826484D01*
X354238Y823937D01*
X354191Y823674D01*
X354031Y823416D01*
X353784Y823240D01*
X353488Y823175D01*
X353190Y823231D01*
X352937Y823398D01*
X351452Y824883D01*
X351289Y825125D01*
X351229Y825422D01*
X351229Y827915D01*
X351280Y828189D01*
X351444Y828445D01*
X351694Y828616D01*
X351991Y828677D01*
X353281Y828677D01*
X353281Y838057D01*
X351591Y838057D01*
X350798Y837264D01*
X350557Y837101D01*
X350259Y837041D01*
X346912Y837041D01*
X346019Y836148D01*
X346019Y830585D01*
X346434Y830170D01*
X346597Y829929D01*
X346657Y829632D01*
X346657Y823212D01*
X346996Y822873D01*
X347152Y822647D01*
X347219Y822351D01*
X347165Y822052D01*
X346999Y821799D01*
X346455Y821249D01*
X346226Y821090D01*
X345930Y821023D01*
X345631Y821077D01*
X345378Y821244D01*
X344457Y822155D01*
X342366Y822144D01*
X341455Y821223D01*
X341226Y821064D01*
X340930Y820997D01*
X340632Y821051D01*
X340378Y821217D01*
X339457Y822128D01*
X337366Y822117D01*
X336456Y821197D01*
X336226Y821038D01*
X335930Y820971D01*
X335632Y821025D01*
X335378Y821191D01*
X334457Y822102D01*
X332765Y822093D01*
X332487Y822145D01*
X332231Y822308D01*
X332060Y822558D01*
X331999Y822855D01*
X331999Y824911D01*
X327297Y824911D01*
X327297Y826435D01*
X331999Y826435D01*
X331999Y828875D01*
X330511Y830363D01*
X329683Y830363D01*
X329420Y830410D01*
X329162Y830570D01*
X328987Y830817D01*
X328921Y831113D01*
X328977Y831411D01*
X329145Y831664D01*
X331443Y833963D01*
X331663Y834116D01*
X331958Y834186D01*
X332257Y834135D01*
X332512Y833972D01*
X332684Y833722D01*
X332744Y833424D01*
X332744Y833337D01*
X335175Y830907D01*
X338612Y830907D01*
X341042Y833337D01*
X341042Y835656D01*
X341098Y835942D01*
X341265Y836195D01*
X342055Y836985D01*
X342055Y839014D01*
X342106Y839289D01*
X342270Y839544D01*
X342520Y839716D01*
X342817Y839776D01*
X344107Y839776D01*
X344107Y849156D01*
X342417Y849156D01*
X341624Y848363D01*
X341383Y848200D01*
X341085Y848140D01*
X337738Y848140D01*
X337587Y847989D01*
X337356Y847831D01*
X337060Y847766D01*
X336762Y847821D01*
X336509Y847989D01*
X335458Y849039D01*
X335294Y849284D01*
X335235Y849582D01*
X335257Y853656D01*
X334369Y854553D01*
X327106Y854591D01*
X326490Y853981D01*
X326273Y853831D01*
X325978Y853761D01*
X325679Y853812D01*
X325423Y853975D01*
X325252Y854226D01*
X325192Y854523D01*
X325192Y856635D01*
X325240Y856902D01*
X325401Y857159D01*
X325649Y857333D01*
X325945Y857397D01*
X326243Y857340D01*
X326495Y857171D01*
X327116Y856543D01*
X334379Y856505D01*
X335276Y857393D01*
X335309Y863705D01*
X335252Y863790D01*
X335192Y864088D01*
X335192Y868692D01*
X335243Y868967D01*
X335406Y869222D01*
X335656Y869394D01*
X335954Y869454D01*
X336037Y869454D01*
X336930Y870347D01*
X336930Y877610D01*
X336037Y878502D01*
X329774Y878502D01*
X328882Y877610D01*
X328882Y870347D01*
X329774Y869454D01*
X329858Y869454D01*
X330132Y869403D01*
X330388Y869240D01*
X330559Y868989D01*
X330620Y868692D01*
X330620Y865339D01*
X330567Y865061D01*
X330402Y864806D01*
X330151Y864636D01*
X329854Y864577D01*
X327158Y864591D01*
X326490Y863929D01*
X326273Y863779D01*
X325978Y863709D01*
X325679Y863760D01*
X325423Y863924D01*
X325252Y864174D01*
X325192Y864471D01*
X325192Y868692D01*
X325243Y868967D01*
X325406Y869222D01*
X325656Y869394D01*
X325954Y869454D01*
X326037Y869454D01*
X326930Y870347D01*
X326930Y877610D01*
X326037Y878502D01*
X319774Y878502D01*
X318882Y877610D01*
X318882Y870347D01*
X319774Y869454D01*
X319858Y869454D01*
X320132Y869403D01*
X320388Y869240D01*
X320559Y868989D01*
X320620Y868692D01*
X320620Y867797D01*
X320573Y867534D01*
X320413Y867276D01*
X320166Y867100D01*
X319870Y867035D01*
X319572Y867091D01*
X319319Y867258D01*
X318897Y867680D01*
X317918Y867680D01*
X317662Y867724D01*
X317402Y867881D01*
X317224Y868126D01*
X317156Y868422D01*
X316824Y881084D01*
X315909Y881953D01*
X308649Y881763D01*
X308084Y881168D01*
X307858Y881004D01*
X307563Y880931D01*
X307264Y880979D01*
X307007Y881139D01*
X306412Y881704D01*
X299152Y881514D01*
X298587Y880919D01*
X298361Y880755D01*
X298067Y880682D01*
X297767Y880730D01*
X297510Y880891D01*
X296915Y881455D01*
X289655Y881265D01*
X288786Y880349D01*
X289093Y868623D01*
X289042Y868328D01*
X288879Y868073D01*
X288629Y867901D01*
X288331Y867841D01*
X287010Y867841D01*
X285092Y865923D01*
X285092Y863211D01*
X286496Y861807D01*
X286649Y861588D01*
X286718Y861292D01*
X286667Y860993D01*
X286504Y860738D01*
X286254Y860566D01*
X285957Y860506D01*
X281649Y860506D01*
X281386Y860553D01*
X281128Y860712D01*
X280952Y860960D01*
X280887Y861256D01*
X280943Y861554D01*
X281110Y861807D01*
X282944Y863640D01*
X282944Y866353D01*
X282917Y866379D01*
X282754Y866621D01*
X282694Y866918D01*
X282694Y873760D01*
X279976Y876478D01*
X279819Y876706D01*
X279753Y877002D01*
X279807Y877300D01*
X279974Y877554D01*
X280226Y877722D01*
X280524Y877779D01*
X281734Y877764D01*
X283240Y879234D01*
X283270Y881674D01*
X278568Y881731D01*
X278635Y887183D01*
X277829Y887193D01*
X277564Y887244D01*
X277308Y887407D01*
X277137Y887657D01*
X277077Y887955D01*
X277077Y896452D01*
X277132Y896738D01*
X277300Y896991D01*
X278946Y898637D01*
X279142Y898779D01*
X279434Y898859D01*
X279735Y898818D01*
X279996Y898664D01*
X280176Y898420D01*
X280247Y898125D01*
X280350Y895161D01*
X280304Y894874D01*
X280146Y894615D01*
X279381Y893795D01*
X279435Y892256D01*
X284484Y892432D01*
X284643Y887883D01*
X286682Y887954D01*
X288117Y889493D01*
X288076Y890666D01*
X288116Y890937D01*
X288268Y891199D01*
X288511Y891381D01*
X288805Y891454D01*
X289105Y891406D01*
X289362Y891245D01*
X289395Y891214D01*
X296718Y891406D01*
X296746Y891426D01*
X297041Y891499D01*
X297340Y891451D01*
X297597Y891290D01*
X298497Y890436D01*
X301786Y890522D01*
X301543Y899821D01*
X303066Y899861D01*
X303310Y890562D01*
X306599Y890648D01*
X307453Y891548D01*
X307679Y891712D01*
X307974Y891785D01*
X308273Y891737D01*
X308318Y891709D01*
X315648Y891901D01*
X316517Y892817D01*
X316171Y906048D01*
X316226Y906354D01*
X316394Y906607D01*
X318758Y908971D01*
X318995Y909132D01*
X319291Y909195D01*
X319400Y909195D01*
X319679Y909144D01*
X319935Y908981D01*
X320106Y908731D01*
X320167Y908433D01*
X320167Y906476D01*
X320114Y906196D01*
X319948Y905941D01*
X318996Y904973D01*
X319029Y901226D01*
X318976Y900939D01*
X318811Y900685D01*
X318025Y899885D01*
X318038Y898345D01*
X326618Y898420D01*
X326604Y899960D01*
X325805Y900746D01*
X325640Y900986D01*
X325577Y901283D01*
X325544Y905030D01*
X324967Y905598D01*
X324799Y905844D01*
X324739Y906141D01*
X324739Y908476D01*
X324788Y908746D01*
X324950Y909002D01*
X325199Y909175D01*
X325495Y909238D01*
X329750Y909268D01*
X329991Y909322D01*
X330276Y909271D01*
X332151Y909284D01*
X332431Y909233D01*
X332687Y909070D01*
X332858Y908820D01*
X332918Y908522D01*
X332918Y902329D01*
X334913Y900334D01*
X337391Y897856D01*
X337549Y897626D01*
X337614Y897330D01*
X337558Y897031D01*
X337391Y896779D01*
X331760Y891148D01*
X331519Y890985D01*
X331221Y890925D01*
X329946Y890925D01*
X327516Y888494D01*
X327516Y885057D01*
X329946Y882627D01*
X333383Y882627D01*
X335814Y885057D01*
X335814Y886333D01*
X335869Y886619D01*
X336037Y886871D01*
X341503Y892338D01*
X341745Y892501D01*
X342042Y892561D01*
X347215Y892561D01*
X347827Y893172D01*
X348057Y893330D01*
X348353Y893396D01*
X348652Y893340D01*
X348904Y893172D01*
X350532Y891545D01*
X353322Y891545D01*
X353322Y902625D01*
X350532Y902625D01*
X348904Y900997D01*
X348674Y900839D01*
X348378Y900774D01*
X348080Y900830D01*
X347827Y900997D01*
X347215Y901609D01*
X342507Y901609D01*
X342221Y901665D01*
X341968Y901832D01*
X339190Y904611D01*
X339027Y904852D01*
X338966Y905149D01*
X338966Y907559D01*
X339016Y907829D01*
X339177Y908085D01*
X339426Y908259D01*
X339723Y908321D01*
X341248Y908332D01*
X341185Y917384D01*
X342709Y917394D01*
X342772Y908342D01*
X346062Y908365D01*
X347540Y909864D01*
X347540Y909869D01*
X347641Y910254D01*
X347842Y910482D01*
X348115Y910613D01*
X348418Y910627D01*
X348702Y910522D01*
X349533Y910008D01*
X349718Y909904D01*
X349899Y909819D01*
X350073Y909753D01*
X351169Y909378D01*
X351374Y909317D01*
X351568Y909274D01*
X351753Y909248D01*
X352443Y909176D01*
X352257Y935724D01*
X351570Y935641D01*
X351360Y935608D01*
X351166Y935561D01*
X350989Y935505D01*
X349897Y935114D01*
X349701Y935035D01*
X349522Y934946D01*
X349361Y934851D01*
X348384Y934228D01*
X348210Y934107D01*
X348055Y933981D01*
X347919Y933852D01*
X347106Y933027D01*
X346962Y932870D01*
X346840Y932713D01*
X346736Y932557D01*
X346127Y931572D01*
X346022Y931387D01*
X345937Y931206D01*
X345871Y931032D01*
X345496Y929936D01*
X345435Y929732D01*
X345393Y929537D01*
X345367Y929352D01*
X345246Y928209D01*
X345230Y927881D01*
X345245Y925702D01*
X345196Y925427D01*
X345034Y925170D01*
X344785Y924997D01*
X344489Y924935D01*
X343045Y924925D01*
X342765Y924976D01*
X342509Y925139D01*
X342338Y925389D01*
X342277Y925687D01*
X342277Y928805D01*
X340227Y930855D01*
X337328Y930855D01*
X335277Y928805D01*
X335277Y925905D01*
X336026Y925157D01*
X336177Y924942D01*
X336248Y924648D01*
X336200Y924348D01*
X336038Y924092D01*
X335789Y923918D01*
X335492Y923856D01*
X330155Y923819D01*
X329914Y923764D01*
X329630Y923815D01*
X325155Y923784D01*
X324915Y923729D01*
X324630Y923780D01*
X320156Y923749D01*
X319914Y923694D01*
X319630Y923745D01*
X315156Y923714D01*
X314915Y923659D01*
X314630Y923710D01*
X314148Y923707D01*
X313857Y923763D01*
X313604Y923930D01*
X310809Y926725D01*
X304038Y926725D01*
X301148Y923836D01*
X300912Y923675D01*
X300615Y923612D01*
X300156Y923609D01*
X299915Y923555D01*
X299631Y923606D01*
X295156Y923574D01*
X294915Y923520D01*
X294631Y923571D01*
X290156Y923539D01*
X289915Y923485D01*
X289631Y923536D01*
X284321Y923499D01*
X284052Y923546D01*
X283794Y923705D01*
X283619Y923952D01*
X283553Y924249D01*
X283609Y924547D01*
X283777Y924800D01*
X284479Y925502D01*
X284479Y928401D01*
X282429Y930451D01*
X279529Y930451D01*
X277479Y928401D01*
X277479Y925224D01*
X277429Y924954D01*
X277268Y924697D01*
X277019Y924524D01*
X276722Y924462D01*
X275302Y924452D01*
X275027Y924501D01*
X274770Y924663D01*
X274597Y924912D01*
X274535Y925208D01*
X274519Y927387D01*
X274499Y927715D01*
X274362Y928855D01*
X274329Y929065D01*
X274282Y929259D01*
X274225Y929437D01*
X273835Y930528D01*
X273756Y930725D01*
X273667Y930904D01*
X273572Y931064D01*
X272949Y932041D01*
X272828Y932216D01*
X272701Y932370D01*
X272573Y932506D01*
X271748Y933319D01*
X271591Y933463D01*
X271434Y933585D01*
X271278Y933689D01*
X270293Y934298D01*
X270108Y934403D01*
X269927Y934488D01*
X269753Y934554D01*
X268657Y934929D01*
X268452Y934990D01*
X268258Y935032D01*
X268073Y935058D01*
X267383Y935131D01*
X267569Y908583D01*
X268256Y908665D01*
X268465Y908699D01*
X268660Y908746D01*
X268837Y908802D01*
X269929Y909193D01*
X270125Y909272D01*
X270304Y909361D01*
X270465Y909456D01*
X271290Y909982D01*
X271670Y910101D01*
X271969Y910052D01*
X272226Y909890D01*
X272399Y909641D01*
X272461Y909345D01*
X272461Y909340D01*
X273960Y907862D01*
X277250Y907885D01*
X277187Y916937D01*
X278711Y916947D01*
X278776Y907515D01*
X278447Y907512D01*
X278502Y907435D01*
X278567Y907139D01*
X278511Y906841D01*
X278344Y906588D01*
X271029Y899273D01*
X271029Y881464D01*
X271156Y881275D01*
X271216Y880978D01*
X271216Y876685D01*
X276423Y871478D01*
X276585Y871237D01*
X276646Y870940D01*
X276646Y866918D01*
X276590Y866632D01*
X276423Y866379D01*
X276396Y866353D01*
X276396Y863640D01*
X278314Y861723D01*
X279860Y861723D01*
X280123Y861676D01*
X280381Y861516D01*
X280556Y861269D01*
X280622Y860973D01*
X280566Y860675D01*
X280398Y860422D01*
X279590Y859613D01*
X279590Y847007D01*
X279534Y846721D01*
X279367Y846468D01*
X276144Y843245D01*
X276144Y836639D01*
X276088Y836353D01*
X275921Y836101D01*
X274306Y834485D01*
X274306Y829164D01*
X274256Y828893D01*
X274094Y828637D01*
X273845Y828464D01*
X273601Y828413D01*
X272801Y827606D01*
X272561Y827442D01*
X272264Y827380D01*
X268516Y827360D01*
X267884Y826720D01*
X267663Y826565D01*
X267368Y826495D01*
X267068Y826545D01*
X266962Y826613D01*
X266962Y826475D01*
X262279Y826466D01*
X262277Y827990D01*
X266579Y827998D01*
X266577Y828702D01*
X264354Y830918D01*
X264245Y830987D01*
X264074Y831238D01*
X264013Y831535D01*
X264013Y841068D01*
X264065Y841343D01*
X264228Y841599D01*
X264478Y841770D01*
X264775Y841830D01*
X266122Y841830D01*
X267015Y842723D01*
X267015Y848986D01*
X266403Y849597D01*
X266245Y849828D01*
X266180Y850124D01*
X266236Y850422D01*
X266403Y850675D01*
X268031Y852302D01*
X268031Y855092D01*
X261729Y855092D01*
X261729Y860894D01*
X258897Y860894D01*
X258623Y860946D01*
X258367Y861109D01*
X258196Y861359D01*
X258135Y861656D01*
X258135Y881186D01*
X258189Y881466D01*
X258354Y881720D01*
X258606Y881890D01*
X262304Y883422D01*
X265545Y886663D01*
X267300Y890899D01*
X267300Y895483D01*
X265545Y899719D01*
X262304Y902961D01*
X258068Y904715D01*
X253484Y904715D01*
X249248Y902961D01*
X246006Y899719D01*
X244750Y896685D01*
X244593Y896447D01*
X244343Y896275D01*
X244046Y896215D01*
X232595Y896215D01*
X232309Y896271D01*
X232056Y896438D01*
X165079Y963415D01*
X164917Y963656D01*
X164856Y963953D01*
X164851Y967025D01*
X163956Y967916D01*
X156694Y967903D01*
X155927Y967134D01*
X155684Y966970D01*
X155387Y966910D01*
X136811Y966910D01*
X127263Y957362D01*
X127037Y957206D01*
X126741Y957139D01*
X126442Y957193D01*
X126189Y957359D01*
X125694Y957849D01*
X125694Y957849D01*
X125037Y958499D01*
X124147Y959389D01*
X122897Y959383D01*
X116371Y959383D01*
X109182Y952194D01*
X108952Y952036D01*
X108655Y951971D01*
X108357Y952026D01*
X108104Y952194D01*
X107467Y952831D01*
X101204Y952831D01*
X100593Y952220D01*
X100362Y952062D01*
X100066Y951997D01*
X99768Y952052D01*
X99515Y952220D01*
X97888Y953847D01*
X95098Y953847D01*
X95098Y942767D01*
X97888Y942767D01*
X99515Y944395D01*
X99746Y944553D01*
X100042Y944618D01*
X100340Y944562D01*
X100593Y944395D01*
X101204Y943783D01*
X107467Y943783D01*
X108395Y944712D01*
X108411Y944796D01*
X108574Y945052D01*
X108824Y945223D01*
X109122Y945283D01*
X110825Y945283D01*
X115046Y949505D01*
X115262Y949656D01*
X115557Y949727D01*
X115856Y949678D01*
X116112Y949516D01*
X116285Y949267D01*
X116347Y948970D01*
X116352Y947948D01*
X117848Y946468D01*
X119538Y946477D01*
X119509Y951929D01*
X121033Y951937D01*
X121062Y946485D01*
X122752Y946494D01*
X123541Y947291D01*
X123781Y947455D01*
X124078Y947517D01*
X127426Y947534D01*
X127835Y947948D01*
X128079Y948113D01*
X128376Y948174D01*
X136785Y948174D01*
X137071Y948118D01*
X137324Y947950D01*
X138249Y947026D01*
X141686Y947026D01*
X144116Y949456D01*
X144116Y952893D01*
X141686Y955324D01*
X138249Y955324D01*
X137369Y954445D01*
X137128Y954282D01*
X136831Y954222D01*
X134515Y954222D01*
X134252Y954268D01*
X133994Y954428D01*
X133819Y954675D01*
X133754Y954971D01*
X133809Y955269D01*
X133977Y955522D01*
X139093Y960639D01*
X139335Y960801D01*
X139632Y960862D01*
X155383Y960862D01*
X155668Y960807D01*
X155921Y960640D01*
X156426Y960136D01*
X156584Y959906D01*
X156650Y959610D01*
X156595Y959312D01*
X156428Y959059D01*
X154803Y957428D01*
X154808Y954638D01*
X161110Y954649D01*
X161120Y948847D01*
X164410Y948853D01*
X165896Y950343D01*
X165892Y952208D01*
X165939Y952473D01*
X166099Y952731D01*
X166346Y952906D01*
X166642Y952971D01*
X166940Y952916D01*
X167193Y952748D01*
X172959Y946982D01*
X173112Y946763D01*
X173182Y946468D01*
X173131Y946169D01*
X172968Y945913D01*
X172717Y945742D01*
X172420Y945681D01*
X169867Y945681D01*
X168240Y944054D01*
X168010Y943896D01*
X167713Y943831D01*
X167415Y943886D01*
X167162Y944054D01*
X166551Y944665D01*
X160288Y944665D01*
X159360Y943737D01*
X159344Y943653D01*
X159181Y943397D01*
X158931Y943226D01*
X158634Y943165D01*
X155552Y943165D01*
X149756Y937370D01*
X149756Y934865D01*
X151527Y933093D01*
X154033Y933093D01*
X157834Y936894D01*
X158075Y937057D01*
X158373Y937117D01*
X158634Y937117D01*
X158908Y937066D01*
X159164Y936903D01*
X159335Y936653D01*
X159356Y936550D01*
X160288Y935617D01*
X166551Y935617D01*
X167162Y936229D01*
X167393Y936387D01*
X167689Y936452D01*
X167987Y936396D01*
X168240Y936229D01*
X169867Y934601D01*
X172658Y934601D01*
X172658Y940903D01*
X178841Y940903D01*
X178841Y940287D01*
X178913Y940339D01*
X179209Y940404D01*
X179508Y940348D01*
X179760Y940181D01*
X229774Y890167D01*
X244046Y890167D01*
X244326Y890114D01*
X244580Y889948D01*
X244750Y889697D01*
X246006Y886663D01*
X249248Y883422D01*
X251617Y882440D01*
X251856Y882284D01*
X252027Y882033D01*
X252087Y881736D01*
X252087Y852634D01*
X252045Y852385D01*
X251891Y852124D01*
X251647Y851944D01*
X251352Y851873D01*
X251053Y851923D01*
X250797Y852085D01*
X249861Y852986D01*
X247072Y852932D01*
X247284Y841855D01*
X250074Y841908D01*
X250776Y842638D01*
X251006Y842802D01*
X251301Y842871D01*
X251600Y842821D01*
X251856Y842657D01*
X252027Y842407D01*
X252087Y842110D01*
X252087Y830995D01*
X252036Y830720D01*
X251873Y830465D01*
X251623Y830293D01*
X251325Y830233D01*
X246087Y830233D01*
X245812Y830284D01*
X245556Y830447D01*
X245385Y830698D01*
X245325Y830995D01*
X245325Y841069D01*
X245371Y841330D01*
X245529Y841589D01*
X245762Y841755D01*
X245548Y852903D01*
X242758Y852850D01*
X241162Y851191D01*
X240935Y851029D01*
X240640Y850958D01*
X240341Y851008D01*
X240085Y851171D01*
X239462Y851770D01*
X233200Y851650D01*
X232325Y850740D01*
X232337Y850126D01*
X232290Y849848D01*
X232131Y849590D01*
X231883Y849414D01*
X231587Y849349D01*
X231289Y849405D01*
X231036Y849572D01*
X220913Y859696D01*
X220749Y859939D01*
X220689Y860236D01*
X220697Y864333D01*
X219805Y865228D01*
X213543Y865239D01*
X212649Y864347D01*
X212636Y857085D01*
X213527Y856191D01*
X217645Y856183D01*
X217929Y856128D01*
X218182Y855960D01*
X227829Y846313D01*
X227992Y846072D01*
X228052Y845775D01*
X228052Y827096D01*
X228081Y826956D01*
X228081Y758382D01*
X228027Y758101D01*
X227861Y757847D01*
X227610Y757678D01*
X227312Y757620D01*
X226304Y757629D01*
X226036Y757680D01*
X225780Y757844D01*
X225609Y758094D01*
X225549Y758391D01*
X225549Y786878D01*
X221567Y790860D01*
X221399Y791114D01*
X221343Y791412D01*
X221469Y798599D01*
X220592Y799508D01*
X211331Y799669D01*
X210423Y798792D01*
X210200Y786032D01*
X211077Y785123D01*
X218578Y784993D01*
X218851Y784937D01*
X219104Y784769D01*
X219277Y784596D01*
X219440Y784354D01*
X219501Y784057D01*
X219501Y781838D01*
X219451Y781567D01*
X219289Y781311D01*
X219039Y781138D01*
X218743Y781076D01*
X217164Y781068D01*
X217195Y775266D01*
X210893Y775233D01*
X210907Y772443D01*
X212543Y770824D01*
X212702Y770595D01*
X212769Y770299D01*
X212715Y770000D01*
X212549Y769747D01*
X211941Y769132D01*
X211962Y765058D01*
X211906Y764768D01*
X211739Y764515D01*
X211669Y764445D01*
X211427Y764282D01*
X211130Y764222D01*
X203880Y764222D01*
X203606Y764273D01*
X203351Y764436D01*
X203179Y764686D01*
X203118Y764983D01*
X203115Y766492D01*
X197313Y766482D01*
X197310Y768006D01*
X203112Y768016D01*
X203107Y771306D01*
X202369Y772042D01*
X202213Y772267D01*
X202145Y772562D01*
X202198Y772861D01*
X202363Y773115D01*
X202614Y773285D01*
X202912Y773343D01*
X203641Y773338D01*
X205139Y774816D01*
X205162Y778106D01*
X199360Y778146D01*
X199404Y784448D01*
X196614Y784468D01*
X194975Y782852D01*
X194743Y782695D01*
X194447Y782632D01*
X194149Y782690D01*
X193897Y782859D01*
X193290Y783475D01*
X187028Y783519D01*
X186129Y782632D01*
X186125Y782016D01*
X186073Y781746D01*
X185910Y781491D01*
X185660Y781319D01*
X185363Y781259D01*
X179611Y781259D01*
X172822Y774470D01*
X172580Y774307D01*
X172283Y774247D01*
X171534Y774247D01*
X171252Y774301D01*
X170998Y774467D01*
X170829Y774719D01*
X170772Y775017D01*
X170790Y776712D01*
X158711Y776838D01*
X158692Y775048D01*
X159476Y774247D01*
X159637Y774004D01*
X159694Y773706D01*
X159659Y770343D01*
X159709Y770101D01*
X159653Y769818D01*
X159606Y765344D01*
X159657Y765102D01*
X159601Y764818D01*
X159554Y760344D01*
X159604Y760102D01*
X159548Y759818D01*
X159501Y755344D01*
X159552Y755102D01*
X159496Y754819D01*
X159449Y750344D01*
X159500Y750102D01*
X159444Y749819D01*
X159397Y745345D01*
X159447Y745103D01*
X159391Y744819D01*
X159352Y741039D01*
X159296Y740761D01*
X159129Y740509D01*
X135399Y716779D01*
X135157Y716616D01*
X134860Y716556D01*
X131657Y716556D01*
X128754Y713653D01*
X128517Y713492D01*
X128221Y713429D01*
X122877Y713392D01*
X121991Y712493D01*
X122041Y705231D01*
X122940Y704344D01*
X129203Y704388D01*
X129810Y705004D01*
X130039Y705163D01*
X130335Y705231D01*
X130634Y705177D01*
X130888Y705011D01*
X132526Y703395D01*
X135316Y703415D01*
X135272Y709717D01*
X141074Y709757D01*
X141051Y713047D01*
X140128Y713957D01*
X139967Y714192D01*
X139901Y714488D01*
X139957Y714786D01*
X140125Y715039D01*
X164372Y739286D01*
X164621Y739452D01*
X164919Y739509D01*
X168491Y739472D01*
X169393Y740355D01*
X169410Y742017D01*
X169462Y742283D01*
X169625Y742539D01*
X169875Y742710D01*
X170172Y742771D01*
X171450Y742771D01*
X171736Y742715D01*
X171989Y742548D01*
X184702Y729834D01*
X184854Y729617D01*
X184925Y729322D01*
X184875Y729023D01*
X184849Y728982D01*
X185028Y719649D01*
X185938Y718774D01*
X198698Y719019D01*
X199574Y719929D01*
X199396Y729189D01*
X198486Y730065D01*
X193452Y729968D01*
X193151Y730024D01*
X192898Y730191D01*
X185751Y737338D01*
X185597Y737561D01*
X185528Y737857D01*
X185581Y738155D01*
X185746Y738410D01*
X185997Y738580D01*
X186294Y738639D01*
X190232Y738618D01*
X190847Y739226D01*
X191078Y739383D01*
X191374Y739447D01*
X191672Y739390D01*
X191924Y739221D01*
X193543Y737585D01*
X196333Y737570D01*
X196391Y748650D01*
X193601Y748665D01*
X191965Y747046D01*
X191734Y746889D01*
X191437Y746825D01*
X191139Y746883D01*
X190887Y747051D01*
X190279Y747666D01*
X184017Y747699D01*
X183090Y746782D01*
X183069Y746670D01*
X182905Y746414D01*
X182655Y746243D01*
X182358Y746183D01*
X177222Y746183D01*
X176936Y746238D01*
X176684Y746406D01*
X174138Y748951D01*
X173985Y749171D01*
X173915Y749466D01*
X173966Y749765D01*
X174129Y750020D01*
X174380Y750192D01*
X174677Y750252D01*
X198040Y750252D01*
X198326Y750197D01*
X198579Y750029D01*
X198666Y749942D01*
X198821Y749719D01*
X198889Y749423D01*
X198837Y749125D01*
X198672Y748870D01*
X198421Y748700D01*
X198124Y748641D01*
X197915Y748642D01*
X197890Y743864D01*
X202168Y743842D01*
X202172Y744601D01*
X202219Y744860D01*
X202378Y745118D01*
X202626Y745293D01*
X202922Y745358D01*
X203220Y745303D01*
X203473Y745135D01*
X207207Y741401D01*
X207373Y741152D01*
X207430Y740854D01*
X207388Y736802D01*
X208271Y735900D01*
X214534Y735835D01*
X215151Y736440D01*
X215384Y736595D01*
X215680Y736657D01*
X215978Y736599D01*
X216229Y736429D01*
X217839Y734784D01*
X220629Y734755D01*
X220695Y741056D01*
X222219Y741040D01*
X222153Y734739D01*
X224166Y734718D01*
X224432Y734667D01*
X224688Y734503D01*
X224859Y734253D01*
X224920Y733956D01*
X224920Y731320D01*
X224874Y731059D01*
X224715Y730800D01*
X224468Y730624D01*
X224172Y730558D01*
X220720Y730492D01*
X219844Y729582D01*
X220022Y720321D01*
X220932Y719446D01*
X223491Y719495D01*
X223781Y719444D01*
X224036Y719280D01*
X224208Y719030D01*
X224268Y718733D01*
X224268Y711795D01*
X224217Y711521D01*
X224053Y711265D01*
X223803Y711094D01*
X223506Y711033D01*
X220173Y711033D01*
X219280Y710141D01*
X219280Y700878D01*
X220173Y699985D01*
X232935Y699985D01*
X233828Y700878D01*
X233828Y710141D01*
X232935Y711033D01*
X229602Y711033D01*
X229327Y711085D01*
X229072Y711248D01*
X228900Y711498D01*
X228840Y711795D01*
X228840Y718850D01*
X228886Y719111D01*
X229045Y719370D01*
X229291Y719546D01*
X229587Y719612D01*
X233692Y719691D01*
X234567Y720600D01*
X234389Y729861D01*
X233480Y730737D01*
X230268Y730675D01*
X229979Y730726D01*
X229724Y730890D01*
X229552Y731140D01*
X229492Y731437D01*
X229492Y740470D01*
X229547Y740756D01*
X229715Y741009D01*
X232653Y743946D01*
X232653Y806424D01*
X232709Y806711D01*
X232877Y806963D01*
X233130Y807131D01*
X233428Y807186D01*
X233724Y807120D01*
X233971Y806945D01*
X234288Y806606D01*
X234433Y806383D01*
X234493Y806085D01*
X234493Y732861D01*
X237201Y730153D01*
X237364Y729912D01*
X237424Y729615D01*
X237424Y681572D01*
X259860Y659136D01*
X260023Y658894D01*
X260083Y658597D01*
X260083Y658209D01*
X260848Y657444D01*
X261011Y657203D01*
X261071Y656905D01*
X261071Y656678D01*
X261016Y656392D01*
X260848Y656139D01*
X256256Y651547D01*
X256015Y651385D01*
X255717Y651324D01*
X243217Y651324D01*
X243148Y651277D01*
X242851Y651212D01*
X242553Y651267D01*
X242300Y651435D01*
X241395Y652340D01*
X235263Y652340D01*
X235263Y631258D01*
X241395Y631258D01*
X242300Y632164D01*
X242531Y632322D01*
X242827Y632387D01*
X243125Y632331D01*
X243211Y632274D01*
X256214Y632274D01*
X257107Y633167D01*
X257107Y645617D01*
X257163Y645903D01*
X257330Y646155D01*
X264648Y653474D01*
X264874Y653630D01*
X265169Y653697D01*
X265468Y653643D01*
X265722Y653478D01*
X265891Y653226D01*
X265949Y652928D01*
X265901Y647471D01*
X266310Y647055D01*
X266470Y646812D01*
X266528Y646515D01*
X266505Y643814D01*
X266517Y643668D01*
X266464Y643318D01*
X266296Y643065D01*
X266269Y643038D01*
X266269Y627302D01*
X266218Y627027D01*
X266055Y626772D01*
X265805Y626600D01*
X265507Y626540D01*
X206555Y626540D01*
X206281Y626591D01*
X206025Y626755D01*
X205854Y627005D01*
X205793Y627302D01*
X205793Y643038D01*
X205206Y643626D01*
X205011Y643957D01*
X204989Y644260D01*
X205045Y644708D01*
X205031Y647394D01*
X205085Y647681D01*
X205251Y647934D01*
X205661Y648348D01*
X205598Y660279D01*
X204701Y661167D01*
X201118Y661148D01*
X200843Y661198D01*
X200587Y661360D01*
X200414Y661609D01*
X200352Y661906D01*
X200325Y667049D01*
X193467Y667013D01*
X193421Y675776D01*
X189575Y675756D01*
X189480Y675659D01*
X189250Y675500D01*
X188954Y675433D01*
X188656Y675487D01*
X188402Y675654D01*
X187795Y676254D01*
X172563Y676175D01*
X171674Y675277D01*
X171675Y675180D01*
X171629Y674916D01*
X171471Y674657D01*
X171225Y674481D01*
X170929Y674414D01*
X170631Y674468D01*
X170377Y674634D01*
X170372Y674639D01*
X169993Y674637D01*
X169726Y674684D01*
X169468Y674843D01*
X169293Y675091D01*
X169228Y675387D01*
X169283Y675685D01*
X169451Y675938D01*
X177896Y684383D01*
X178127Y684541D01*
X178423Y684607D01*
X178721Y684551D01*
X178974Y684383D01*
X181083Y682275D01*
X187670Y682275D01*
X190678Y685283D01*
X190920Y685445D01*
X191217Y685506D01*
X205601Y685506D01*
X205886Y685450D01*
X206139Y685283D01*
X206904Y684518D01*
X209616Y684518D01*
X211534Y686436D01*
X211534Y689148D01*
X209616Y691066D01*
X206904Y691066D01*
X206139Y690301D01*
X205898Y690138D01*
X205601Y690078D01*
X189078Y690078D01*
X188804Y690129D01*
X188548Y690292D01*
X188377Y690543D01*
X188316Y690840D01*
X188316Y692199D01*
X186828Y693687D01*
X185138Y693687D01*
X185138Y688235D01*
X183614Y688235D01*
X183614Y693687D01*
X181924Y693687D01*
X181131Y692894D01*
X180890Y692731D01*
X180593Y692671D01*
X177245Y692671D01*
X176352Y691778D01*
X176352Y689621D01*
X176297Y689335D01*
X176129Y689082D01*
X163935Y676889D01*
X163935Y675363D01*
X163886Y675093D01*
X163724Y674836D01*
X163474Y674663D01*
X163177Y674601D01*
X161998Y674595D01*
X161110Y673698D01*
X161172Y661701D01*
X161123Y661426D01*
X160961Y661170D01*
X160711Y660997D01*
X160414Y660935D01*
X155815Y660911D01*
X154927Y660013D01*
X154990Y648083D01*
X155404Y647673D01*
X155568Y647433D01*
X155630Y647136D01*
X155644Y644435D01*
X155675Y644117D01*
X155755Y643844D01*
X155885Y643591D01*
X156103Y643310D01*
X156090Y643300D01*
X156209Y643135D01*
X156269Y642838D01*
X156269Y627302D01*
X156218Y627027D01*
X156055Y626772D01*
X155805Y626600D01*
G37*
%LPC*%
G36*
X191668Y944932D02*
X194173Y944932D01*
X195944Y946704D01*
X195944Y947432D01*
X196000Y947718D01*
X196168Y947970D01*
X201663Y953466D01*
X201905Y953629D01*
X202202Y953689D01*
X204626Y953689D01*
X204800Y953669D01*
X205076Y953543D01*
X205280Y953319D01*
X206974Y950488D01*
X210655Y947755D01*
X215101Y946638D01*
X219636Y947308D01*
X223570Y949662D01*
X226304Y953343D01*
X227420Y957789D01*
X226751Y962324D01*
X224396Y966258D01*
X220716Y968992D01*
X216269Y970108D01*
X211734Y969439D01*
X207800Y967084D01*
X205067Y963404D01*
X203920Y958838D01*
X203728Y958493D01*
X203478Y958322D01*
X203181Y958261D01*
X199993Y958261D01*
X192935Y951203D01*
X192693Y951041D01*
X192396Y950980D01*
X191668Y950980D01*
X189896Y949209D01*
X189896Y946704D01*
X191668Y944932D01*
G37*
G36*
X382562Y956183D02*
X394340Y956183D01*
X394340Y957915D01*
X392431Y962524D01*
X388903Y966052D01*
X384294Y967961D01*
X382562Y967961D01*
X382562Y956183D01*
G37*
G36*
X369260Y956183D02*
X381038Y956183D01*
X381038Y967961D01*
X379306Y967961D01*
X374697Y966052D01*
X371169Y962524D01*
X369260Y957915D01*
X369260Y956183D01*
G37*
G36*
X353590Y963197D02*
X353666Y952185D01*
X354353Y952267D01*
X354563Y952301D01*
X354757Y952347D01*
X354935Y952404D01*
X356026Y952795D01*
X356223Y952874D01*
X356402Y952962D01*
X356562Y953057D01*
X357540Y953681D01*
X357714Y953802D01*
X357869Y953928D01*
X358004Y954057D01*
X358818Y954882D01*
X358961Y955039D01*
X359084Y955196D01*
X359187Y955351D01*
X359797Y956337D01*
X359902Y956522D01*
X359986Y956703D01*
X360053Y956877D01*
X360428Y957973D01*
X360489Y958177D01*
X360531Y958372D01*
X360557Y958557D01*
X360677Y959700D01*
X360694Y960028D01*
X360687Y961016D01*
X360745Y961313D01*
X361152Y962297D01*
X361152Y963250D01*
X353590Y963197D01*
G37*
G36*
X351453Y952247D02*
X352142Y952175D01*
X352066Y963187D01*
X344492Y963134D01*
X344492Y962297D01*
X344941Y961212D01*
X344999Y960926D01*
X345006Y959918D01*
X345027Y959590D01*
X345164Y958451D01*
X345197Y958241D01*
X345244Y958047D01*
X345300Y957869D01*
X345691Y956778D01*
X345770Y956581D01*
X345859Y956402D01*
X345954Y956241D01*
X346577Y955265D01*
X346698Y955090D01*
X346824Y954935D01*
X346953Y954800D01*
X347778Y953986D01*
X347935Y953843D01*
X348092Y953721D01*
X348248Y953617D01*
X349233Y953007D01*
X349418Y952903D01*
X349599Y952818D01*
X349773Y952751D01*
X350869Y952377D01*
X351073Y952315D01*
X351268Y952273D01*
X351453Y952247D01*
G37*
G36*
X267192Y962594D02*
X267268Y951582D01*
X267955Y951664D01*
X268165Y951698D01*
X268359Y951744D01*
X268537Y951801D01*
X269629Y952192D01*
X269825Y952271D01*
X270004Y952359D01*
X270165Y952454D01*
X271141Y953078D01*
X271316Y953199D01*
X271471Y953325D01*
X271607Y953454D01*
X272420Y954278D01*
X272563Y954436D01*
X272686Y954593D01*
X272790Y954749D01*
X273399Y955733D01*
X273504Y955919D01*
X273588Y956100D01*
X273655Y956274D01*
X274030Y957370D01*
X274091Y957574D01*
X274133Y957768D01*
X274159Y957954D01*
X274280Y959096D01*
X274296Y959425D01*
X274289Y960413D01*
X274347Y960710D01*
X274754Y961694D01*
X274754Y962647D01*
X267192Y962594D01*
G37*
G36*
X265055Y951644D02*
X265745Y951571D01*
X265668Y962583D01*
X258094Y962531D01*
X258094Y961694D01*
X258544Y960609D01*
X258602Y960323D01*
X258609Y959315D01*
X258629Y958987D01*
X258766Y957848D01*
X258799Y957638D01*
X258846Y957444D01*
X258902Y957266D01*
X259293Y956175D01*
X259372Y955978D01*
X259461Y955799D01*
X259556Y955638D01*
X260179Y954662D01*
X260300Y954487D01*
X260427Y954332D01*
X260555Y954196D01*
X261380Y953383D01*
X261537Y953240D01*
X261694Y953117D01*
X261850Y953013D01*
X262835Y952404D01*
X263020Y952299D01*
X263201Y952215D01*
X263375Y952148D01*
X264471Y951773D01*
X264675Y951712D01*
X264870Y951670D01*
X265055Y951644D01*
G37*
G36*
X379306Y942881D02*
X381038Y942881D01*
X381038Y954659D01*
X369260Y954659D01*
X369260Y952926D01*
X371169Y948317D01*
X374697Y944790D01*
X379306Y942881D01*
G37*
G36*
X382562Y942881D02*
X384294Y942881D01*
X388903Y944790D01*
X392431Y948317D01*
X394340Y952926D01*
X394340Y954659D01*
X382562Y954659D01*
X382562Y942881D01*
G37*
G36*
X89296Y949069D02*
X93574Y949069D01*
X93574Y953847D01*
X90783Y953847D01*
X89296Y952359D01*
X89296Y949069D01*
G37*
G36*
X412464Y941852D02*
X424242Y941852D01*
X424242Y943585D01*
X422333Y948194D01*
X418805Y951721D01*
X414196Y953630D01*
X412464Y953630D01*
X412464Y941852D01*
G37*
G36*
X399162Y941852D02*
X410940Y941852D01*
X410940Y953630D01*
X409207Y953630D01*
X404598Y951721D01*
X401071Y948194D01*
X399162Y943585D01*
X399162Y941852D01*
G37*
G36*
X154816Y950324D02*
X156306Y948839D01*
X159596Y948845D01*
X159589Y953123D01*
X154811Y953114D01*
X154816Y950324D01*
G37*
G36*
X90783Y942767D02*
X93574Y942767D01*
X93574Y947545D01*
X89296Y947545D01*
X89296Y944255D01*
X90783Y942767D01*
G37*
G36*
X162253Y869976D02*
X165691Y869976D01*
X168121Y872406D01*
X168121Y875844D01*
X165691Y878274D01*
X164415Y878274D01*
X164129Y878330D01*
X163876Y878497D01*
X155220Y887153D01*
X155062Y887384D01*
X154997Y887680D01*
X155053Y887978D01*
X155220Y888231D01*
X162354Y895365D01*
X162354Y902495D01*
X162410Y902781D01*
X162578Y903034D01*
X170593Y911049D01*
X170834Y911212D01*
X171131Y911272D01*
X174195Y911272D01*
X174806Y911884D01*
X175037Y912042D01*
X175333Y912107D01*
X175631Y912051D01*
X175884Y911884D01*
X177511Y910256D01*
X180301Y910256D01*
X180301Y921336D01*
X177511Y921336D01*
X175884Y919709D01*
X175653Y919551D01*
X175357Y919486D01*
X175059Y919541D01*
X174806Y919709D01*
X174195Y920320D01*
X167932Y920320D01*
X167039Y919428D01*
X167039Y916365D01*
X166984Y916079D01*
X166816Y915826D01*
X159815Y908824D01*
X159584Y908666D01*
X159288Y908601D01*
X158990Y908657D01*
X158737Y908824D01*
X152792Y914770D01*
X152629Y915012D01*
X152569Y915309D01*
X152569Y918034D01*
X150138Y920464D01*
X148863Y920464D01*
X148577Y920520D01*
X148324Y920687D01*
X146887Y922124D01*
X140212Y922124D01*
X139949Y922171D01*
X139690Y922330D01*
X139515Y922578D01*
X139450Y922874D01*
X139506Y923172D01*
X139673Y923425D01*
X140546Y924298D01*
X140546Y926417D01*
X140458Y926544D01*
X140389Y926839D01*
X140439Y927138D01*
X140603Y927393D01*
X140853Y927565D01*
X141150Y927625D01*
X143266Y927625D01*
X144745Y929103D01*
X144745Y931194D01*
X143266Y932673D01*
X143246Y932673D01*
X142960Y932729D01*
X142707Y932896D01*
X142299Y933304D01*
X142141Y933535D01*
X142076Y933831D01*
X142131Y934129D01*
X142299Y934382D01*
X143117Y935200D01*
X143358Y935362D01*
X143655Y935423D01*
X144931Y935423D01*
X147361Y937853D01*
X147361Y941290D01*
X144931Y943721D01*
X141494Y943721D01*
X139063Y941290D01*
X139063Y940106D01*
X139012Y939831D01*
X138849Y939576D01*
X138598Y939404D01*
X138301Y939344D01*
X131240Y939344D01*
X130243Y938347D01*
X130002Y938184D01*
X129704Y938124D01*
X122020Y938124D01*
X120249Y936353D01*
X120249Y933580D01*
X120259Y933534D01*
X120203Y933236D01*
X120036Y932983D01*
X119653Y932600D01*
X119653Y931862D01*
X124035Y931862D01*
X124035Y930338D01*
X119653Y930338D01*
X119653Y929583D01*
X119772Y929408D01*
X119837Y929112D01*
X119782Y928814D01*
X119653Y928619D01*
X119653Y927862D01*
X124035Y927862D01*
X124035Y926338D01*
X119653Y926338D01*
X119653Y926148D01*
X119601Y925873D01*
X119438Y925618D01*
X119188Y925446D01*
X118891Y925386D01*
X105393Y925386D01*
X105107Y925442D01*
X104854Y925609D01*
X104684Y925779D01*
X102069Y925779D01*
X101805Y925826D01*
X101547Y925986D01*
X101372Y926233D01*
X101307Y926529D01*
X101362Y926827D01*
X101530Y927080D01*
X101675Y927225D01*
X101675Y930662D01*
X99244Y933092D01*
X95807Y933092D01*
X93377Y930662D01*
X93377Y927225D01*
X93670Y926931D01*
X93828Y926701D01*
X93893Y926405D01*
X93837Y926106D01*
X93670Y925854D01*
X83556Y915740D01*
X83299Y915570D01*
X83000Y915517D01*
X67670Y915865D01*
X66758Y914992D01*
X66457Y901733D01*
X67329Y900821D01*
X86469Y900386D01*
X86715Y900340D01*
X86973Y900180D01*
X87148Y899933D01*
X87213Y899637D01*
X87158Y899338D01*
X86990Y899086D01*
X83090Y895185D01*
X82832Y895016D01*
X82534Y894962D01*
X67204Y895310D01*
X66291Y894438D01*
X65990Y881179D01*
X66863Y880266D01*
X90119Y879738D01*
X91032Y880610D01*
X91333Y893869D01*
X90336Y894912D01*
X90190Y895131D01*
X90125Y895427D01*
X90181Y895725D01*
X90348Y895978D01*
X91385Y897015D01*
X91627Y897178D01*
X91883Y897230D01*
X97819Y903166D01*
X97819Y904965D01*
X97875Y905251D01*
X98042Y905504D01*
X98057Y905519D01*
X98057Y907610D01*
X96579Y909088D01*
X94488Y909088D01*
X92957Y907557D01*
X92721Y907397D01*
X92425Y907334D01*
X92127Y907392D01*
X91875Y907561D01*
X91710Y907815D01*
X91656Y908113D01*
X91799Y914424D01*
X90802Y915467D01*
X90657Y915685D01*
X90591Y915981D01*
X90647Y916280D01*
X90815Y916532D01*
X97728Y923445D01*
X97947Y923598D01*
X98242Y923668D01*
X98541Y923617D01*
X98797Y923454D01*
X98968Y923204D01*
X99028Y922907D01*
X99028Y921124D01*
X99358Y920794D01*
X99516Y920564D01*
X99581Y920268D01*
X99526Y919969D01*
X99358Y919717D01*
X99028Y919387D01*
X99028Y915624D01*
X99723Y914929D01*
X99886Y914688D01*
X99947Y914390D01*
X99947Y894742D01*
X99891Y894456D01*
X99723Y894203D01*
X99709Y894188D01*
X99709Y892097D01*
X101187Y890619D01*
X103278Y890619D01*
X104757Y892097D01*
X104757Y894188D01*
X104742Y894203D01*
X104579Y894445D01*
X104519Y894742D01*
X104519Y914251D01*
X104574Y914537D01*
X104742Y914789D01*
X105576Y915624D01*
X105576Y919387D01*
X105450Y919513D01*
X105297Y919733D01*
X105227Y920028D01*
X105278Y920327D01*
X105441Y920582D01*
X105691Y920754D01*
X105989Y920814D01*
X119907Y920814D01*
X120181Y920763D01*
X120437Y920599D01*
X120608Y920349D01*
X120669Y920052D01*
X120669Y918021D01*
X120691Y917999D01*
X120854Y917758D01*
X120914Y917460D01*
X120914Y904221D01*
X120849Y903912D01*
X120673Y903665D01*
X120507Y903509D01*
X120349Y898749D01*
X121211Y897827D01*
X124972Y897703D01*
X125313Y898021D01*
X125548Y898172D01*
X125846Y898227D01*
X126142Y898161D01*
X126390Y897986D01*
X126708Y897645D01*
X130469Y897520D01*
X131546Y898528D01*
X131596Y898606D01*
X131846Y898777D01*
X132143Y898838D01*
X141658Y898838D01*
X141944Y898782D01*
X142197Y898614D01*
X143836Y896975D01*
X147274Y896975D01*
X148980Y898681D01*
X149202Y898835D01*
X149497Y898904D01*
X149796Y898852D01*
X150051Y898687D01*
X150221Y898437D01*
X150281Y898139D01*
X150279Y897754D01*
X151762Y896261D01*
X152856Y896257D01*
X153117Y896210D01*
X153375Y896051D01*
X153550Y895804D01*
X153616Y895507D01*
X153560Y895209D01*
X153392Y894956D01*
X147922Y889486D01*
X147717Y889340D01*
X147423Y889264D01*
X146839Y889233D01*
X146551Y889274D01*
X146289Y889428D01*
X145456Y890178D01*
X143768Y890090D01*
X144259Y880723D01*
X145947Y880811D01*
X146697Y881644D01*
X146930Y881819D01*
X147224Y881895D01*
X150567Y882071D01*
X150590Y882096D01*
X150848Y882283D01*
X151144Y882348D01*
X151442Y882293D01*
X151695Y882125D01*
X159600Y874221D01*
X159763Y873979D01*
X159823Y873682D01*
X159823Y872406D01*
X162253Y869976D01*
G37*
G36*
X412464Y928550D02*
X414196Y928550D01*
X418805Y930459D01*
X422333Y933987D01*
X424242Y938596D01*
X424242Y940328D01*
X412464Y940328D01*
X412464Y928550D01*
G37*
G36*
X409207Y928550D02*
X410940Y928550D01*
X410940Y940328D01*
X399162Y940328D01*
X399162Y938596D01*
X401071Y933987D01*
X404598Y930459D01*
X409207Y928550D01*
G37*
G36*
X174182Y934601D02*
X176972Y934601D01*
X178460Y936089D01*
X178460Y939379D01*
X174182Y939379D01*
X174182Y934601D01*
G37*
G36*
X353781Y935734D02*
X353869Y923222D01*
X361442Y923275D01*
X361442Y924112D01*
X360993Y925196D01*
X360935Y925483D01*
X360917Y927991D01*
X360896Y928319D01*
X360760Y929458D01*
X360727Y929668D01*
X360680Y929862D01*
X360623Y930040D01*
X360233Y931131D01*
X360154Y931328D01*
X360065Y931507D01*
X359970Y931668D01*
X359347Y932644D01*
X359226Y932819D01*
X359099Y932973D01*
X358971Y933109D01*
X358146Y933922D01*
X357989Y934066D01*
X357832Y934188D01*
X357676Y934292D01*
X356691Y934902D01*
X356506Y935006D01*
X356325Y935091D01*
X356151Y935157D01*
X355055Y935532D01*
X354850Y935593D01*
X354656Y935635D01*
X354470Y935661D01*
X353781Y935734D01*
G37*
G36*
X258384Y923509D02*
X258384Y922556D01*
X265947Y922608D01*
X265859Y935120D01*
X265172Y935038D01*
X264963Y935005D01*
X264768Y934958D01*
X264591Y934901D01*
X263499Y934511D01*
X263302Y934432D01*
X263124Y934343D01*
X262963Y934248D01*
X261986Y933624D01*
X261812Y933504D01*
X261657Y933377D01*
X261522Y933249D01*
X260708Y932424D01*
X260565Y932267D01*
X260442Y932109D01*
X260339Y931954D01*
X259729Y930969D01*
X259624Y930784D01*
X259540Y930603D01*
X259473Y930428D01*
X259098Y929333D01*
X259037Y929129D01*
X258995Y928934D01*
X258969Y928749D01*
X258848Y927606D01*
X258832Y927278D01*
X258850Y924790D01*
X258792Y924493D01*
X258384Y923509D01*
G37*
G36*
X353879Y921698D02*
X353967Y909186D01*
X354654Y909269D01*
X354863Y909302D01*
X355058Y909349D01*
X355235Y909405D01*
X356327Y909796D01*
X356523Y909875D01*
X356702Y909964D01*
X356863Y910059D01*
X357840Y910682D01*
X358014Y910803D01*
X358169Y910930D01*
X358304Y911057D01*
X359118Y911883D01*
X359261Y912040D01*
X359384Y912197D01*
X359488Y912353D01*
X360097Y913338D01*
X360202Y913523D01*
X360286Y913703D01*
X360353Y913878D01*
X360728Y914974D01*
X360789Y915178D01*
X360831Y915373D01*
X360857Y915558D01*
X360978Y916701D01*
X360994Y917029D01*
X360976Y919517D01*
X361034Y919814D01*
X361442Y920798D01*
X361442Y921751D01*
X353879Y921698D01*
G37*
G36*
X181825Y916558D02*
X186103Y916558D01*
X186103Y919848D01*
X184615Y921336D01*
X181825Y921336D01*
X181825Y916558D01*
G37*
G36*
X265355Y908645D02*
X266045Y908572D01*
X265957Y921084D01*
X258384Y921032D01*
X258384Y920195D01*
X258833Y919110D01*
X258891Y918824D01*
X258909Y916316D01*
X258929Y915988D01*
X259066Y914849D01*
X259099Y914639D01*
X259146Y914445D01*
X259203Y914267D01*
X259593Y913176D01*
X259672Y912979D01*
X259761Y912800D01*
X259856Y912639D01*
X260479Y911663D01*
X260601Y911488D01*
X260727Y911333D01*
X260854Y911198D01*
X261680Y910384D01*
X261837Y910241D01*
X261994Y910118D01*
X262150Y910015D01*
X263136Y909405D01*
X263320Y909300D01*
X263501Y909216D01*
X263676Y909149D01*
X264772Y908774D01*
X264975Y908713D01*
X265170Y908671D01*
X265355Y908645D01*
G37*
G36*
X181825Y910256D02*
X184615Y910256D01*
X186103Y911744D01*
X186103Y915034D01*
X181825Y915034D01*
X181825Y910256D01*
G37*
G36*
X177009Y903666D02*
X180537Y903666D01*
X180537Y906694D01*
X178497Y906694D01*
X177009Y905206D01*
X177009Y903666D01*
G37*
G36*
X182061Y903666D02*
X185589Y903666D01*
X185589Y905206D01*
X184101Y906694D01*
X182061Y906694D01*
X182061Y903666D01*
G37*
G36*
X360699Y899347D02*
X367227Y899301D01*
X367269Y905329D01*
X362229Y905364D01*
X360731Y903887D01*
X360699Y899347D01*
G37*
G36*
X354846Y897847D02*
X359124Y897847D01*
X359124Y901137D01*
X357636Y902625D01*
X354846Y902625D01*
X354846Y897847D01*
G37*
G36*
X187090Y798836D02*
X187096Y794908D01*
X190274Y794913D01*
X190270Y797383D01*
X190317Y797647D01*
X190476Y797905D01*
X190724Y798081D01*
X191020Y798146D01*
X191318Y798090D01*
X191571Y797923D01*
X191625Y797869D01*
X195062Y797869D01*
X197493Y800299D01*
X197493Y803736D01*
X195853Y805376D01*
X195690Y805617D01*
X195630Y805915D01*
X195630Y810481D01*
X195681Y810756D01*
X195844Y811011D01*
X196094Y811183D01*
X196392Y811243D01*
X202081Y811243D01*
X202974Y812136D01*
X202974Y816242D01*
X203030Y816528D01*
X203197Y816781D01*
X209537Y823121D01*
X209768Y823280D01*
X210065Y823344D01*
X210363Y823288D01*
X210615Y823120D01*
X210783Y822867D01*
X210838Y822569D01*
X210811Y821026D01*
X211688Y820118D01*
X220949Y819956D01*
X221857Y820833D01*
X222080Y833594D01*
X221909Y833771D01*
X221760Y833992D01*
X221695Y834288D01*
X221751Y834586D01*
X221918Y834839D01*
X223617Y836537D01*
X223617Y843458D01*
X210874Y856200D01*
X210716Y856432D01*
X210651Y856728D01*
X210684Y856901D01*
X210697Y864351D01*
X209805Y865245D01*
X209713Y865245D01*
X209440Y865296D01*
X209184Y865460D01*
X209013Y865710D01*
X208952Y866007D01*
X208952Y866898D01*
X209004Y867172D01*
X209167Y867428D01*
X209259Y867491D01*
X210320Y868552D01*
X210320Y874815D01*
X209428Y875708D01*
X197665Y875708D01*
X196772Y874815D01*
X196772Y868552D01*
X197665Y867660D01*
X203618Y867660D01*
X203893Y867609D01*
X204149Y867445D01*
X204320Y867195D01*
X204380Y866898D01*
X204380Y866018D01*
X204329Y865742D01*
X204165Y865487D01*
X203914Y865316D01*
X203617Y865256D01*
X203543Y865256D01*
X202649Y864365D01*
X202636Y857102D01*
X203527Y856208D01*
X204087Y856207D01*
X204372Y856151D01*
X204625Y855984D01*
X215161Y845447D01*
X215314Y845228D01*
X215384Y844933D01*
X215333Y844634D01*
X215170Y844378D01*
X214920Y844207D01*
X214622Y844147D01*
X213388Y844147D01*
X213199Y844105D01*
X212901Y844161D01*
X212648Y844328D01*
X189544Y867432D01*
X189381Y867674D01*
X189320Y867971D01*
X189320Y868315D01*
X188428Y869208D01*
X185833Y869208D01*
X185570Y869255D01*
X185312Y869414D01*
X185137Y869661D01*
X185071Y869958D01*
X185127Y870256D01*
X185295Y870509D01*
X188428Y873642D01*
X188428Y873844D01*
X188483Y874130D01*
X188651Y874383D01*
X189320Y875052D01*
X189320Y881315D01*
X188428Y882208D01*
X182071Y882208D01*
X181785Y882263D01*
X181532Y882431D01*
X180478Y883485D01*
X180315Y883726D01*
X180255Y884024D01*
X180255Y892812D01*
X180311Y893098D01*
X180478Y893351D01*
X181534Y894407D01*
X181776Y894570D01*
X182073Y894630D01*
X183680Y894630D01*
X184573Y895523D01*
X184573Y899271D01*
X184629Y899557D01*
X184796Y899809D01*
X185589Y900602D01*
X185589Y902142D01*
X177009Y902142D01*
X177009Y900602D01*
X177802Y899809D01*
X177965Y899568D01*
X178025Y899271D01*
X178025Y897679D01*
X177969Y897393D01*
X177802Y897140D01*
X177246Y896584D01*
X177245Y896584D01*
X176201Y895540D01*
X176201Y895540D01*
X175683Y895022D01*
X175683Y894037D01*
X175683Y894037D01*
X175683Y892813D01*
X175683Y892813D01*
X175683Y881750D01*
X175712Y881706D01*
X175772Y881409D01*
X175772Y875052D01*
X176665Y874160D01*
X180640Y874160D01*
X180904Y874113D01*
X181162Y873953D01*
X181337Y873706D01*
X181402Y873410D01*
X181347Y873112D01*
X181179Y872859D01*
X180799Y872479D01*
X180557Y872316D01*
X180260Y872256D01*
X175403Y872256D01*
X172724Y869578D01*
X172724Y855581D01*
X172673Y855306D01*
X172510Y855051D01*
X172260Y854879D01*
X171962Y854819D01*
X171362Y854819D01*
X171080Y854873D01*
X170826Y855039D01*
X170657Y855291D01*
X170600Y855589D01*
X170642Y859611D01*
X169759Y860513D01*
X161497Y860599D01*
X160594Y859716D01*
X160549Y855339D01*
X160599Y855097D01*
X160543Y854813D01*
X160496Y850339D01*
X160547Y850097D01*
X160491Y849813D01*
X160444Y845339D01*
X160494Y845097D01*
X160438Y844814D01*
X160392Y840340D01*
X160442Y840098D01*
X160386Y839814D01*
X160339Y835340D01*
X160390Y835098D01*
X160334Y834814D01*
X160287Y830340D01*
X160337Y830098D01*
X160281Y829815D01*
X160246Y826471D01*
X160188Y826185D01*
X160018Y825934D01*
X159216Y825150D01*
X159198Y823360D01*
X171277Y823233D01*
X171296Y825023D01*
X170511Y825824D01*
X170351Y826067D01*
X170294Y826365D01*
X170329Y829728D01*
X170278Y829970D01*
X170334Y830253D01*
X170358Y832520D01*
X170409Y832787D01*
X170573Y833043D01*
X170823Y833214D01*
X171120Y833274D01*
X185987Y833274D01*
X186253Y833227D01*
X186511Y833066D01*
X186685Y832818D01*
X186749Y832522D01*
X186757Y831880D01*
X187661Y830999D01*
X193923Y831075D01*
X194527Y831694D01*
X194755Y831855D01*
X195051Y831924D01*
X195349Y831872D01*
X195604Y831707D01*
X197252Y830100D01*
X200041Y830134D01*
X199964Y836435D01*
X205766Y836506D01*
X205726Y839796D01*
X204954Y840550D01*
X204784Y840798D01*
X204724Y841095D01*
X204724Y843947D01*
X204771Y844210D01*
X204930Y844468D01*
X205177Y844644D01*
X205474Y844709D01*
X205772Y844653D01*
X206025Y844486D01*
X210890Y839620D01*
X211053Y839378D01*
X211114Y839081D01*
X211114Y838279D01*
X213444Y835948D01*
X213603Y835716D01*
X213668Y835420D01*
X213612Y835122D01*
X213444Y834870D01*
X213191Y834702D01*
X212892Y834647D01*
X211942Y834664D01*
X211033Y833787D01*
X210973Y830345D01*
X210922Y830083D01*
X210759Y829828D01*
X210509Y829657D01*
X210212Y829596D01*
X209546Y829596D01*
X200464Y820514D01*
X200223Y820351D01*
X199925Y820291D01*
X195819Y820291D01*
X194926Y819398D01*
X194926Y814863D01*
X194879Y814600D01*
X194720Y814342D01*
X194472Y814167D01*
X194176Y814102D01*
X193878Y814157D01*
X193625Y814325D01*
X193197Y814753D01*
X193034Y814994D01*
X192974Y815291D01*
X192974Y819398D01*
X192081Y820291D01*
X185819Y820291D01*
X184926Y819398D01*
X184926Y812136D01*
X185819Y811243D01*
X189925Y811243D01*
X190211Y811187D01*
X190464Y811020D01*
X190835Y810649D01*
X190997Y810408D01*
X191058Y810111D01*
X191058Y805915D01*
X191002Y805629D01*
X190835Y805376D01*
X189195Y803736D01*
X189195Y800299D01*
X189354Y800139D01*
X189507Y799921D01*
X189577Y799626D01*
X189527Y799327D01*
X189364Y799071D01*
X189114Y798899D01*
X188817Y798839D01*
X187090Y798836D01*
G37*
G36*
X422703Y890755D02*
X424825Y890755D01*
X426786Y891567D01*
X428287Y893068D01*
X428619Y893871D01*
X428743Y894073D01*
X428981Y894260D01*
X429274Y894339D01*
X429574Y894299D01*
X429835Y894144D01*
X430015Y893899D01*
X430085Y893604D01*
X430097Y893250D01*
X435787Y893439D01*
X435598Y899129D01*
X435076Y899112D01*
X432737Y898051D01*
X430983Y896176D01*
X430574Y895089D01*
X430425Y894845D01*
X430180Y894665D01*
X429885Y894595D01*
X429586Y894646D01*
X429331Y894810D01*
X429159Y895060D01*
X429099Y895357D01*
X429099Y897151D01*
X428287Y899112D01*
X426786Y900613D01*
X424825Y901425D01*
X422703Y901425D01*
X420742Y900613D01*
X419241Y899112D01*
X418429Y897151D01*
X418429Y895029D01*
X419241Y893068D01*
X420742Y891567D01*
X422703Y890755D01*
G37*
G36*
X323103Y896865D02*
X323130Y893837D01*
X325170Y893855D01*
X326645Y895356D01*
X326631Y896896D01*
X323103Y896865D01*
G37*
G36*
X318065Y895281D02*
X319566Y893806D01*
X321606Y893824D01*
X321579Y896852D01*
X318052Y896821D01*
X318065Y895281D01*
G37*
G36*
X354846Y891545D02*
X357636Y891545D01*
X359124Y893033D01*
X359124Y896323D01*
X354846Y896323D01*
X354846Y891545D01*
G37*
G36*
X473812Y882285D02*
X475934Y882285D01*
X477895Y883097D01*
X479396Y884598D01*
X480208Y886559D01*
X480208Y888681D01*
X479396Y890642D01*
X477895Y892143D01*
X475934Y892955D01*
X473812Y892955D01*
X471851Y892143D01*
X470350Y890642D01*
X469538Y888681D01*
X469538Y886559D01*
X470350Y884598D01*
X471851Y883097D01*
X473812Y882285D01*
G37*
G36*
X280111Y883236D02*
X283289Y883198D01*
X283318Y885637D01*
X282447Y886531D01*
X282312Y886720D01*
X282232Y887012D01*
X282272Y887313D01*
X282426Y887574D01*
X282670Y887754D01*
X282965Y887825D01*
X283120Y887830D01*
X283014Y890856D01*
X279488Y890733D01*
X279542Y889194D01*
X280299Y888488D01*
X280475Y888242D01*
X280541Y887946D01*
X280486Y887647D01*
X280320Y887394D01*
X280160Y887288D01*
X280111Y883236D01*
G37*
G36*
X236330Y854287D02*
X238421Y854287D01*
X239900Y855765D01*
X239900Y857856D01*
X238421Y859335D01*
X238400Y859335D01*
X238114Y859391D01*
X237862Y859558D01*
X237726Y859693D01*
X237564Y859935D01*
X237503Y860232D01*
X237503Y862584D01*
X237557Y862864D01*
X237722Y863118D01*
X237974Y863288D01*
X241745Y864850D01*
X244987Y868091D01*
X246741Y872327D01*
X246741Y876912D01*
X244987Y881147D01*
X241745Y884389D01*
X237509Y886143D01*
X232925Y886143D01*
X229153Y884581D01*
X228874Y884523D01*
X228576Y884579D01*
X228323Y884746D01*
X222972Y890098D01*
X189723Y890098D01*
X189437Y890154D01*
X189185Y890321D01*
X189170Y890336D01*
X187079Y890336D01*
X185600Y888857D01*
X185600Y886766D01*
X187079Y885288D01*
X189170Y885288D01*
X189185Y885303D01*
X189426Y885465D01*
X189723Y885526D01*
X220762Y885526D01*
X221048Y885470D01*
X221301Y885303D01*
X225090Y881513D01*
X225251Y881277D01*
X225313Y880981D01*
X225255Y880683D01*
X223693Y876912D01*
X223693Y872327D01*
X225448Y868091D01*
X228689Y864850D01*
X232461Y863288D01*
X232699Y863131D01*
X232871Y862881D01*
X232931Y862584D01*
X232931Y858023D01*
X234629Y856325D01*
X234792Y856084D01*
X234852Y855786D01*
X234852Y855765D01*
X236330Y854287D01*
G37*
G36*
X139151Y888358D02*
X139278Y885921D01*
X142452Y886087D01*
X142246Y890010D01*
X140559Y889922D01*
X139151Y888358D01*
G37*
G36*
X139486Y881962D02*
X141050Y880554D01*
X142737Y880643D01*
X142532Y884565D01*
X139358Y884399D01*
X139486Y881962D01*
G37*
G36*
X139950Y866463D02*
X146728Y866393D01*
X146746Y868182D01*
X145274Y869686D01*
X139984Y869741D01*
X139950Y866463D01*
G37*
G36*
X139900Y861662D02*
X145190Y861606D01*
X146693Y863079D01*
X146712Y864869D01*
X139934Y864940D01*
X139900Y861662D01*
G37*
G36*
X263253Y856616D02*
X268031Y856616D01*
X268031Y859407D01*
X266543Y860894D01*
X263253Y860894D01*
X263253Y856616D01*
G37*
G36*
X201507Y834930D02*
X201565Y830152D01*
X204355Y830186D01*
X205825Y831692D01*
X205785Y834982D01*
X201507Y834930D01*
G37*
G36*
X158726Y778362D02*
X170806Y778236D01*
X170825Y780026D01*
X170040Y780827D01*
X169880Y781070D01*
X169823Y781368D01*
X169855Y784496D01*
X169906Y784763D01*
X170070Y785018D01*
X170320Y785190D01*
X170617Y785250D01*
X175584Y785250D01*
X180571Y790238D01*
X180812Y790400D01*
X181109Y790461D01*
X182558Y790464D01*
X182844Y790408D01*
X183098Y790241D01*
X183892Y789450D01*
X185582Y789453D01*
X185566Y798833D01*
X183875Y798830D01*
X183084Y798036D01*
X182843Y797872D01*
X182546Y797812D01*
X179198Y797806D01*
X178307Y796911D01*
X178311Y794760D01*
X178255Y794473D01*
X178087Y794220D01*
X173913Y790045D01*
X173671Y789883D01*
X173374Y789822D01*
X170681Y789822D01*
X170399Y789876D01*
X170145Y790043D01*
X169976Y790294D01*
X169919Y790592D01*
X169962Y794730D01*
X169912Y794972D01*
X169968Y795255D01*
X170015Y799729D01*
X169964Y799971D01*
X170020Y800255D01*
X170067Y804729D01*
X170017Y804971D01*
X170073Y805255D01*
X170120Y809729D01*
X170069Y809971D01*
X170125Y810254D01*
X170172Y814729D01*
X170121Y814971D01*
X170177Y815254D01*
X170212Y818598D01*
X170271Y818884D01*
X170441Y819135D01*
X171242Y819919D01*
X171261Y821709D01*
X159182Y821836D01*
X159163Y820046D01*
X159947Y819245D01*
X160108Y819001D01*
X160165Y818703D01*
X160130Y815341D01*
X160180Y815099D01*
X160124Y814815D01*
X160077Y810341D01*
X160128Y810099D01*
X160072Y809816D01*
X160025Y805341D01*
X160076Y805099D01*
X160020Y804816D01*
X159973Y800342D01*
X160023Y800100D01*
X159967Y799816D01*
X159920Y795342D01*
X159971Y795100D01*
X159915Y794816D01*
X159868Y790342D01*
X159918Y790100D01*
X159862Y789817D01*
X159816Y785343D01*
X159866Y785101D01*
X159810Y784817D01*
X159775Y781473D01*
X159716Y781188D01*
X159546Y780937D01*
X158745Y780152D01*
X158726Y778362D01*
G37*
G36*
X413309Y807713D02*
X417587Y807713D01*
X417587Y811004D01*
X416099Y812491D01*
X413309Y812491D01*
X413309Y807713D01*
G37*
G36*
X413309Y801411D02*
X416099Y801411D01*
X417587Y802899D01*
X417587Y806189D01*
X413309Y806189D01*
X413309Y801411D01*
G37*
G36*
X187099Y793384D02*
X187106Y789456D01*
X188796Y789459D01*
X190281Y790949D01*
X190277Y793389D01*
X187099Y793384D01*
G37*
G36*
X200895Y779660D02*
X205172Y779630D01*
X205195Y782920D01*
X203718Y784418D01*
X200928Y784438D01*
X200895Y779660D01*
G37*
G36*
X210870Y779547D02*
X210885Y776757D01*
X215663Y776782D01*
X215640Y781060D01*
X212350Y781043D01*
X210870Y779547D01*
G37*
G36*
X406949Y760313D02*
X408639Y760292D01*
X408754Y769672D01*
X407064Y769692D01*
X405721Y768381D01*
X405497Y768230D01*
X405201Y768165D01*
X404902Y768220D01*
X404650Y768388D01*
X403209Y769828D01*
X401519Y769828D01*
X401519Y760448D01*
X403209Y760448D01*
X404490Y761729D01*
X404729Y761891D01*
X405026Y761952D01*
X405323Y761893D01*
X405574Y761722D01*
X406949Y760313D01*
G37*
G36*
X197857Y737562D02*
X200647Y737548D01*
X202143Y739028D01*
X202160Y742318D01*
X197882Y742340D01*
X197857Y737562D01*
G37*
G36*
X138580Y735671D02*
X145358Y735600D01*
X145377Y737390D01*
X143904Y738893D01*
X138615Y738948D01*
X138580Y735671D01*
G37*
G36*
X138530Y730869D02*
X143820Y730814D01*
X145323Y732286D01*
X145342Y734076D01*
X138564Y734147D01*
X138530Y730869D01*
G37*
G36*
X183264Y706271D02*
X190792Y706271D01*
X190792Y712049D01*
X184752Y712049D01*
X183264Y710561D01*
X183264Y706271D01*
G37*
G36*
X192316Y706271D02*
X199844Y706271D01*
X199844Y710561D01*
X198356Y712049D01*
X192316Y712049D01*
X192316Y706271D01*
G37*
G36*
X136807Y708203D02*
X136840Y703425D01*
X139630Y703445D01*
X141108Y704943D01*
X141085Y708233D01*
X136807Y708203D01*
G37*
G36*
X184752Y698969D02*
X190792Y698969D01*
X190792Y704747D01*
X183264Y704747D01*
X183264Y700457D01*
X184752Y698969D01*
G37*
G36*
X192316Y698969D02*
X198356Y698969D01*
X199844Y700457D01*
X199844Y704747D01*
X192316Y704747D01*
X192316Y698969D01*
G37*
G36*
X194945Y675784D02*
X194983Y668545D01*
X200317Y668573D01*
X200287Y674324D01*
X198791Y675804D01*
X194945Y675784D01*
G37*
G36*
X226119Y642561D02*
X233739Y642561D01*
X233739Y652340D01*
X227607Y652340D01*
X226119Y650852D01*
X226119Y642561D01*
G37*
G36*
X227607Y631258D02*
X233739Y631258D01*
X233739Y641037D01*
X226119Y641037D01*
X226119Y632746D01*
X227607Y631258D01*
G37*
%LPD*%
G36*
X135274Y926980D02*
X135274Y926338D01*
X130511Y926338D01*
X130511Y927862D01*
X134893Y927862D01*
X134893Y928052D01*
X134944Y928327D01*
X135107Y928582D01*
X135357Y928754D01*
X135655Y928814D01*
X136084Y928814D01*
X136347Y928767D01*
X136605Y928608D01*
X136780Y928360D01*
X136846Y928064D01*
X136790Y927766D01*
X136622Y927513D01*
X136193Y927084D01*
X135974Y926931D01*
X135679Y926861D01*
X135380Y926912D01*
X135274Y926980D01*
G37*
G36*
X450063Y892388D02*
X448540Y892337D01*
X448301Y899550D01*
X448228Y899548D01*
X447946Y899592D01*
X447686Y899750D01*
X447509Y899996D01*
X447441Y900291D01*
X447495Y900590D01*
X447660Y900844D01*
X447912Y901014D01*
X449240Y901564D01*
X452688Y905011D01*
X453894Y907924D01*
X454042Y908153D01*
X454290Y908329D01*
X454586Y908394D01*
X454884Y908338D01*
X455137Y908171D01*
X458443Y904865D01*
X458606Y904623D01*
X458666Y904326D01*
X458666Y898276D01*
X458620Y898014D01*
X458461Y897756D01*
X457259Y896472D01*
X456813Y895285D01*
X456676Y895055D01*
X456436Y894869D01*
X456143Y894792D01*
X455843Y894835D01*
X455583Y894992D01*
X455406Y895238D01*
X454624Y896960D01*
X452749Y898715D01*
X450346Y899618D01*
X449824Y899601D01*
X450063Y892388D01*
G37*
G36*
X368842Y810906D02*
X368548Y810835D01*
X368248Y810884D01*
X367992Y811046D01*
X367819Y811295D01*
X367757Y811592D01*
X367752Y812555D01*
X366257Y814035D01*
X359241Y813998D01*
X358966Y814048D01*
X358709Y814210D01*
X358537Y814459D01*
X358475Y814756D01*
X358470Y815749D01*
X358339Y815878D01*
X358185Y816097D01*
X358114Y816392D01*
X358163Y816691D01*
X358325Y816947D01*
X358574Y817120D01*
X358871Y817182D01*
X359483Y817185D01*
X360044Y817751D01*
X360277Y817912D01*
X360573Y817977D01*
X360871Y817921D01*
X361124Y817754D01*
X362172Y816706D01*
X364677Y816706D01*
X365754Y817782D01*
X365980Y817938D01*
X366276Y818005D01*
X366575Y817951D01*
X366828Y817785D01*
X367392Y817227D01*
X369483Y817238D01*
X370954Y818724D01*
X370943Y820815D01*
X370937Y820821D01*
X370771Y821066D01*
X370711Y821363D01*
X370711Y859278D01*
X369148Y860840D01*
X357584Y872404D01*
X357426Y872635D01*
X357361Y872931D01*
X357417Y873229D01*
X357584Y873482D01*
X365155Y881052D01*
X365401Y881217D01*
X365699Y881275D01*
X373244Y881223D01*
X373860Y881830D01*
X374092Y881986D01*
X374388Y882049D01*
X374686Y881992D01*
X374938Y881823D01*
X376554Y880184D01*
X381594Y880148D01*
X381647Y887700D01*
X383171Y887690D01*
X383118Y880138D01*
X383999Y880132D01*
X384268Y880080D01*
X384524Y879917D01*
X384695Y879667D01*
X384756Y879370D01*
X384756Y875031D01*
X384756Y875026D01*
X384749Y874081D01*
X385419Y873411D01*
X385423Y873407D01*
X385857Y872966D01*
X386018Y872724D01*
X386077Y872426D01*
X386022Y864545D01*
X386013Y864501D01*
X386013Y863292D01*
X386013Y863286D01*
X386004Y862071D01*
X386013Y862029D01*
X386013Y845700D01*
X385957Y845414D01*
X385790Y845161D01*
X379971Y839342D01*
X379971Y824851D01*
X379915Y824565D01*
X379748Y824312D01*
X372960Y817524D01*
X372722Y817363D01*
X372425Y817301D01*
X372392Y817301D01*
X370921Y815815D01*
X370933Y813665D01*
X370955Y813633D01*
X371025Y813338D01*
X370974Y813039D01*
X370810Y812784D01*
X370728Y812727D01*
X369058Y811057D01*
X368842Y810906D01*
G37*
G36*
X310033Y817826D02*
X309737Y817761D01*
X309439Y817817D01*
X309186Y817984D01*
X308154Y819016D01*
X304904Y819016D01*
X304629Y819067D01*
X304374Y819231D01*
X304202Y819481D01*
X304142Y819778D01*
X304142Y824584D01*
X304189Y824847D01*
X304348Y825105D01*
X304596Y825281D01*
X304892Y825346D01*
X305190Y825290D01*
X305443Y825123D01*
X305469Y825097D01*
X307159Y825097D01*
X307159Y834477D01*
X305469Y834477D01*
X303981Y832989D01*
X303981Y831503D01*
X303934Y831240D01*
X303774Y830982D01*
X303527Y830807D01*
X303231Y830741D01*
X302933Y830797D01*
X302680Y830965D01*
X302371Y831274D01*
X299865Y831274D01*
X298271Y829680D01*
X298066Y829534D01*
X297773Y829458D01*
X297473Y829502D01*
X297214Y829660D01*
X297037Y829907D01*
X296971Y830203D01*
X296883Y834382D01*
X295972Y835256D01*
X292625Y835186D01*
X292338Y835236D01*
X292082Y835398D01*
X291273Y836174D01*
X289583Y836139D01*
X289779Y826761D01*
X290954Y826785D01*
X291245Y826734D01*
X291500Y826571D01*
X291672Y826321D01*
X291732Y826023D01*
X291732Y818607D01*
X291685Y818344D01*
X291526Y818086D01*
X291278Y817910D01*
X290982Y817845D01*
X290684Y817901D01*
X290431Y818068D01*
X286267Y822233D01*
X286104Y822474D01*
X286044Y822772D01*
X286044Y823114D01*
X285151Y824007D01*
X282994Y824007D01*
X282708Y824063D01*
X282455Y824230D01*
X281961Y824725D01*
X281798Y824967D01*
X281737Y825264D01*
X281737Y827772D01*
X279101Y830409D01*
X278938Y830650D01*
X278878Y830947D01*
X278878Y832276D01*
X278933Y832562D01*
X279101Y832815D01*
X280716Y834430D01*
X280716Y838696D01*
X280767Y838971D01*
X280931Y839226D01*
X281181Y839398D01*
X281478Y839458D01*
X291745Y839458D01*
X292638Y840351D01*
X292638Y859613D01*
X292010Y860242D01*
X291857Y860461D01*
X291787Y860756D01*
X291838Y861055D01*
X292001Y861311D01*
X292251Y861482D01*
X292548Y861543D01*
X299509Y861543D01*
X302826Y864859D01*
X303056Y865017D01*
X303352Y865082D01*
X303651Y865027D01*
X303903Y864859D01*
X306956Y861807D01*
X307109Y861588D01*
X307178Y861292D01*
X307128Y860993D01*
X306964Y860738D01*
X306714Y860566D01*
X306417Y860506D01*
X305483Y860506D01*
X304590Y859613D01*
X304590Y840351D01*
X305483Y839458D01*
X308066Y839458D01*
X308341Y839407D01*
X308596Y839243D01*
X308768Y838993D01*
X308828Y838696D01*
X308828Y835239D01*
X308777Y834964D01*
X308683Y834817D01*
X308683Y825097D01*
X309973Y825097D01*
X310247Y825046D01*
X310503Y824882D01*
X310674Y824632D01*
X310735Y824335D01*
X310735Y821002D01*
X310725Y820950D01*
X310725Y820691D01*
X310669Y820405D01*
X310501Y820152D01*
X310487Y820137D01*
X310487Y818523D01*
X310440Y818260D01*
X310280Y818002D01*
X310033Y817826D01*
G37*
%LPC*%
G36*
X284913Y834553D02*
X284964Y832113D01*
X288141Y832180D01*
X288059Y836107D01*
X286369Y836071D01*
X284913Y834553D01*
G37*
G36*
X285047Y828150D02*
X286566Y826693D01*
X288256Y826729D01*
X288173Y830656D01*
X284996Y830589D01*
X285047Y828150D01*
G37*
%LPD*%
G36*
X258414Y793774D02*
X258119Y793705D01*
X257820Y793756D01*
X257565Y793919D01*
X257393Y794169D01*
X257333Y794466D01*
X257333Y805678D01*
X257380Y805942D01*
X257539Y806200D01*
X257787Y806375D01*
X258083Y806440D01*
X258381Y806385D01*
X258537Y806281D01*
X260660Y806281D01*
X262139Y807760D01*
X262139Y809851D01*
X261813Y810177D01*
X261650Y810418D01*
X261590Y810715D01*
X261590Y819943D01*
X261641Y820216D01*
X261804Y820472D01*
X262054Y820644D01*
X262351Y820705D01*
X264097Y820708D01*
X264822Y821435D01*
X265064Y821599D01*
X265361Y821659D01*
X265387Y821659D01*
X265522Y821750D01*
X265819Y821810D01*
X267229Y821810D01*
X267511Y821756D01*
X267765Y821590D01*
X268551Y820812D01*
X272298Y820832D01*
X272584Y820778D01*
X272838Y820611D01*
X273635Y819823D01*
X275175Y819831D01*
X275149Y824883D01*
X276673Y824891D01*
X276699Y819839D01*
X277242Y819842D01*
X277510Y819795D01*
X277768Y819635D01*
X277943Y819388D01*
X278008Y819092D01*
X277953Y818794D01*
X277785Y818541D01*
X277680Y818435D01*
X277680Y816745D01*
X283132Y816745D01*
X283132Y812043D01*
X285572Y812043D01*
X287242Y813714D01*
X287473Y813872D01*
X287769Y813937D01*
X288067Y813881D01*
X288320Y813714D01*
X289107Y812927D01*
X289260Y812708D01*
X289329Y812413D01*
X289279Y812114D01*
X289115Y811858D01*
X288865Y811687D01*
X288568Y811626D01*
X287361Y811626D01*
X282425Y806690D01*
X282183Y806527D01*
X281886Y806466D01*
X276321Y806466D01*
X276035Y806522D01*
X275782Y806690D01*
X274904Y807567D01*
X271467Y807567D01*
X269036Y805137D01*
X269036Y804680D01*
X268981Y804394D01*
X268813Y804141D01*
X268811Y804139D01*
X268745Y804038D01*
X258634Y793927D01*
X258414Y793774D01*
G37*
%LPC*%
G36*
X279167Y812043D02*
X281608Y812043D01*
X281608Y815221D01*
X277680Y815221D01*
X277680Y813531D01*
X279167Y812043D01*
G37*
%LPD*%
G36*
X325147Y818069D02*
X324333Y818065D01*
X324055Y818116D01*
X323799Y818280D01*
X323628Y818530D01*
X323567Y818827D01*
X323567Y821184D01*
X323614Y821447D01*
X323774Y821705D01*
X324021Y821880D01*
X324317Y821945D01*
X324615Y821890D01*
X324868Y821722D01*
X325674Y820917D01*
X325835Y820679D01*
X325897Y820382D01*
X325905Y818835D01*
X325855Y818560D01*
X325693Y818304D01*
X325444Y818131D01*
X325147Y818069D01*
G37*
G36*
X397249Y807129D02*
X396952Y807068D01*
X394442Y807068D01*
X394168Y807120D01*
X393912Y807283D01*
X393741Y807533D01*
X393680Y807830D01*
X393680Y809504D01*
X388978Y809504D01*
X388978Y811028D01*
X393680Y811028D01*
X393680Y813479D01*
X393552Y813662D01*
X393483Y813957D01*
X393533Y814256D01*
X393697Y814512D01*
X393947Y814683D01*
X394244Y814744D01*
X394691Y814744D01*
X396204Y816257D01*
X396226Y816378D01*
X396385Y816636D01*
X396632Y816811D01*
X396928Y816876D01*
X397227Y816821D01*
X397479Y816653D01*
X397491Y816642D01*
X397654Y816400D01*
X397714Y816103D01*
X397714Y807830D01*
X397663Y807556D01*
X397499Y807300D01*
X397249Y807129D01*
G37*
G36*
X291173Y781559D02*
X288566Y781496D01*
X288272Y781547D01*
X288017Y781710D01*
X287846Y781960D01*
X287785Y782257D01*
X287785Y786923D01*
X287682Y787075D01*
X287635Y787310D01*
X286841Y788104D01*
X286696Y788306D01*
X286619Y788600D01*
X286662Y788900D01*
X286819Y789159D01*
X287065Y789337D01*
X287361Y789404D01*
X289004Y789445D01*
X288794Y798022D01*
X287425Y797989D01*
X287424Y797989D01*
X285319Y797937D01*
X285443Y792887D01*
X283919Y792849D01*
X283796Y797900D01*
X281842Y797852D01*
X281537Y797908D01*
X281284Y798075D01*
X280290Y799070D01*
X280137Y799289D01*
X280067Y799584D01*
X280118Y799883D01*
X280281Y800139D01*
X280531Y800310D01*
X280829Y800370D01*
X284727Y800370D01*
X288102Y803746D01*
X288333Y803904D01*
X288629Y803969D01*
X288927Y803913D01*
X289180Y803746D01*
X291325Y801600D01*
X291488Y801359D01*
X291548Y801062D01*
X291548Y798833D01*
X291504Y798576D01*
X291347Y798316D01*
X291101Y798139D01*
X290805Y798071D01*
X290318Y798059D01*
X290528Y789482D01*
X290979Y789493D01*
X291255Y789448D01*
X291515Y789291D01*
X291692Y789045D01*
X291760Y788750D01*
X291820Y786306D01*
X291878Y786066D01*
X291832Y785781D01*
X291916Y782340D01*
X291872Y782064D01*
X291715Y781804D01*
X291469Y781627D01*
X291173Y781559D01*
G37*
G36*
X392279Y762567D02*
X391983Y762501D01*
X391685Y762557D01*
X391432Y762725D01*
X387088Y767069D01*
X376378Y767069D01*
X376118Y767115D01*
X375859Y767273D01*
X375683Y767519D01*
X375616Y767815D01*
X375670Y768113D01*
X375836Y768367D01*
X376216Y768751D01*
X376207Y770515D01*
X376254Y770783D01*
X376413Y771041D01*
X376468Y771080D01*
X376326Y771048D01*
X376028Y771102D01*
X375774Y771268D01*
X375284Y771752D01*
X375125Y771982D01*
X375059Y772278D01*
X375113Y772576D01*
X375279Y772830D01*
X375768Y773325D01*
X375991Y773481D01*
X376286Y773551D01*
X376585Y773500D01*
X376840Y773336D01*
X377012Y773086D01*
X377072Y772789D01*
X377072Y771809D01*
X377027Y771550D01*
X376869Y771291D01*
X376810Y771249D01*
X376956Y771281D01*
X377255Y771226D01*
X377507Y771058D01*
X378551Y770015D01*
X380642Y770015D01*
X382120Y771493D01*
X382120Y773584D01*
X380642Y775063D01*
X378551Y775063D01*
X377486Y773999D01*
X377271Y773847D01*
X376976Y773776D01*
X376677Y773825D01*
X376420Y773987D01*
X376247Y774236D01*
X376186Y774533D01*
X376179Y775841D01*
X375258Y776752D01*
X375099Y776982D01*
X375032Y777278D01*
X375086Y777576D01*
X375253Y777830D01*
X376163Y778750D01*
X376153Y780841D01*
X375797Y781193D01*
X375641Y781415D01*
X375572Y781710D01*
X375622Y782009D01*
X375786Y782265D01*
X376036Y782436D01*
X376333Y782497D01*
X378640Y782497D01*
X378915Y782445D01*
X379171Y782282D01*
X379342Y782032D01*
X379402Y781735D01*
X379402Y781392D01*
X380295Y780500D01*
X383643Y780500D01*
X383929Y780444D01*
X384182Y780276D01*
X384974Y779484D01*
X386664Y779484D01*
X386664Y788864D01*
X384974Y788864D01*
X384182Y788071D01*
X383940Y787908D01*
X383643Y787848D01*
X380295Y787848D01*
X379739Y787292D01*
X379498Y787129D01*
X379201Y787069D01*
X376273Y787069D01*
X376013Y787114D01*
X375755Y787272D01*
X375578Y787519D01*
X375511Y787815D01*
X375565Y788113D01*
X375731Y788367D01*
X376111Y788750D01*
X376100Y790841D01*
X375180Y791752D01*
X375020Y791982D01*
X374954Y792278D01*
X375008Y792576D01*
X375174Y792830D01*
X376085Y793750D01*
X376078Y795024D01*
X376130Y795302D01*
X376293Y795558D01*
X376543Y795729D01*
X376840Y795790D01*
X390737Y795790D01*
X391012Y795738D01*
X391268Y795575D01*
X391439Y795325D01*
X391499Y795028D01*
X391499Y792067D01*
X392392Y791174D01*
X392609Y791174D01*
X392884Y791123D01*
X393139Y790959D01*
X393311Y790709D01*
X393371Y790412D01*
X393371Y768873D01*
X393315Y768587D01*
X393148Y768334D01*
X392733Y767920D01*
X392733Y763263D01*
X392686Y763000D01*
X392527Y762742D01*
X392279Y762567D01*
G37*
%LPC*%
G36*
X388188Y784936D02*
X391366Y784936D01*
X391366Y787376D01*
X389879Y788864D01*
X388188Y788864D01*
X388188Y784936D01*
G37*
G36*
X388188Y779484D02*
X389879Y779484D01*
X391366Y780971D01*
X391366Y783412D01*
X388188Y783412D01*
X388188Y779484D01*
G37*
%LPD*%
G36*
X370632Y784503D02*
X370336Y784437D01*
X370037Y784491D01*
X369784Y784657D01*
X369653Y784786D01*
X368660Y784781D01*
X368385Y784831D01*
X368129Y784993D01*
X367956Y785242D01*
X367894Y785539D01*
X367889Y786491D01*
X340337Y786347D01*
X340329Y787870D01*
X367881Y788015D01*
X367850Y793967D01*
X367900Y794242D01*
X368062Y794498D01*
X368311Y794671D01*
X368608Y794733D01*
X369601Y794738D01*
X369608Y794744D01*
X369852Y794910D01*
X370149Y794970D01*
X370272Y794970D01*
X370543Y794921D01*
X370800Y794758D01*
X370973Y794509D01*
X371034Y794212D01*
X371037Y793724D01*
X371957Y792813D01*
X372117Y792583D01*
X372183Y792287D01*
X372129Y791989D01*
X371963Y791735D01*
X371052Y790815D01*
X371063Y788724D01*
X371984Y787813D01*
X372143Y787583D01*
X372210Y787288D01*
X372155Y786989D01*
X371989Y786735D01*
X371078Y785815D01*
X371082Y785203D01*
X371036Y784939D01*
X370878Y784680D01*
X370632Y784503D01*
G37*
G36*
X258085Y693932D02*
X257788Y693872D01*
X250298Y693872D01*
X250012Y693928D01*
X249759Y694095D01*
X248119Y695735D01*
X244682Y695735D01*
X243297Y694350D01*
X243078Y694197D01*
X242782Y694127D01*
X242483Y694178D01*
X242228Y694342D01*
X242056Y694592D01*
X241996Y694889D01*
X241996Y731824D01*
X239289Y734531D01*
X239126Y734773D01*
X239065Y735070D01*
X239065Y782787D01*
X239112Y783050D01*
X239272Y783308D01*
X239519Y783484D01*
X239815Y783549D01*
X240113Y783493D01*
X240153Y783467D01*
X242730Y783467D01*
X243564Y784302D01*
X243784Y784455D01*
X244079Y784525D01*
X244378Y784474D01*
X244633Y784310D01*
X244805Y784060D01*
X244865Y783763D01*
X244865Y770677D01*
X245516Y770026D01*
X245679Y769784D01*
X245740Y769487D01*
X245740Y769466D01*
X247218Y767988D01*
X249309Y767988D01*
X250788Y769466D01*
X250788Y771557D01*
X249660Y772684D01*
X249497Y772926D01*
X249437Y773223D01*
X249437Y777590D01*
X249484Y777853D01*
X249643Y778111D01*
X249891Y778287D01*
X250187Y778352D01*
X250485Y778296D01*
X250738Y778129D01*
X251071Y777795D01*
X253162Y777795D01*
X253177Y777810D01*
X253419Y777973D01*
X253716Y778033D01*
X255994Y778033D01*
X257333Y779372D01*
X257333Y780836D01*
X257396Y781139D01*
X257569Y781388D01*
X257826Y781549D01*
X258126Y781597D01*
X261922Y781445D01*
X262333Y781824D01*
X262553Y781966D01*
X262850Y782026D01*
X264196Y782026D01*
X264460Y781979D01*
X264718Y781820D01*
X264893Y781573D01*
X264958Y781276D01*
X264903Y780978D01*
X264812Y780842D01*
X264812Y778763D01*
X269364Y778763D01*
X269364Y773711D01*
X270904Y773711D01*
X271697Y774503D01*
X271939Y774666D01*
X272236Y774727D01*
X275984Y774727D01*
X276417Y775160D01*
X276631Y775311D01*
X276925Y775383D01*
X277225Y775335D01*
X277482Y775173D01*
X277992Y774687D01*
X278150Y774691D01*
X278432Y774644D01*
X278690Y774485D01*
X278866Y774238D01*
X278931Y773941D01*
X278875Y773643D01*
X278708Y773390D01*
X274832Y769515D01*
X274590Y769352D01*
X274293Y769292D01*
X264881Y769292D01*
X261982Y766393D01*
X261741Y766230D01*
X261443Y766169D01*
X261422Y766169D01*
X259944Y764691D01*
X259944Y762600D01*
X261422Y761121D01*
X263513Y761121D01*
X264992Y762600D01*
X264992Y762621D01*
X265048Y762907D01*
X265215Y763160D01*
X266552Y764496D01*
X266793Y764659D01*
X267091Y764720D01*
X276503Y764720D01*
X280789Y769006D01*
X281008Y769159D01*
X281304Y769229D01*
X281603Y769178D01*
X281858Y769015D01*
X282030Y768764D01*
X282090Y768467D01*
X282090Y758487D01*
X283895Y756682D01*
X284056Y756444D01*
X284118Y756147D01*
X284127Y754526D01*
X285024Y753638D01*
X288598Y753657D01*
X288877Y753605D01*
X289132Y753442D01*
X289304Y753192D01*
X289364Y752895D01*
X289364Y751640D01*
X289309Y751354D01*
X289141Y751101D01*
X276803Y738762D01*
X276555Y738597D01*
X276257Y738539D01*
X273231Y738566D01*
X272331Y737681D01*
X272276Y731418D01*
X272882Y730802D01*
X273038Y730570D01*
X273101Y730273D01*
X273042Y729975D01*
X272873Y729724D01*
X271231Y728111D01*
X271207Y725321D01*
X277508Y725266D01*
X277458Y719464D01*
X280748Y719435D01*
X282249Y720910D01*
X282266Y722961D01*
X282313Y723218D01*
X282473Y723476D01*
X282720Y723651D01*
X283016Y723716D01*
X283314Y723661D01*
X283567Y723493D01*
X290594Y716466D01*
X317315Y716466D01*
X317578Y716419D01*
X317836Y716260D01*
X318012Y716013D01*
X318077Y715716D01*
X318021Y715418D01*
X317854Y715165D01*
X316795Y714107D01*
X316795Y712831D01*
X316739Y712545D01*
X316572Y712292D01*
X315493Y711213D01*
X315493Y709395D01*
X315437Y709109D01*
X315269Y708856D01*
X309296Y702882D01*
X309054Y702719D01*
X308757Y702659D01*
X296089Y702659D01*
X295814Y702710D01*
X295559Y702873D01*
X295387Y703124D01*
X295327Y703421D01*
X295327Y703890D01*
X291784Y707433D01*
X276121Y707433D01*
X275257Y706569D01*
X275015Y706406D01*
X274718Y706346D01*
X274155Y706346D01*
X273825Y706016D01*
X273595Y705858D01*
X273299Y705793D01*
X273000Y705849D01*
X272748Y706016D01*
X272418Y706346D01*
X268655Y706346D01*
X267762Y705453D01*
X267762Y703847D01*
X267707Y703561D01*
X267539Y703308D01*
X258327Y694095D01*
X258085Y693932D01*
G37*
%LPC*%
G36*
X266300Y773711D02*
X267840Y773711D01*
X267840Y777239D01*
X264812Y777239D01*
X264812Y775199D01*
X266300Y773711D01*
G37*
G36*
X256116Y745568D02*
X258207Y745568D01*
X259686Y747046D01*
X259686Y749137D01*
X258207Y750616D01*
X256116Y750616D01*
X254638Y749137D01*
X254638Y747046D01*
X256116Y745568D01*
G37*
G36*
X272644Y719506D02*
X275934Y719477D01*
X275971Y723755D01*
X271193Y723797D01*
X271169Y721007D01*
X272644Y719506D01*
G37*
%LPD*%
G36*
X443127Y626600D02*
X442830Y626540D01*
X426555Y626540D01*
X426281Y626591D01*
X426025Y626755D01*
X425854Y627005D01*
X425793Y627302D01*
X425793Y643038D01*
X425469Y643363D01*
X425307Y643602D01*
X425246Y643899D01*
X425237Y646376D01*
X425292Y646662D01*
X425458Y646915D01*
X425869Y647328D01*
X425827Y659259D01*
X424931Y660148D01*
X421348Y660136D01*
X421073Y660186D01*
X420817Y660349D01*
X420645Y660598D01*
X420583Y660895D01*
X420565Y666038D01*
X413707Y666014D01*
X413677Y674777D01*
X409831Y674764D01*
X409735Y674668D01*
X409505Y674509D01*
X409209Y674443D01*
X408911Y674497D01*
X408657Y674664D01*
X408051Y675266D01*
X392819Y675212D01*
X391929Y674317D01*
X391930Y674219D01*
X391884Y673956D01*
X391725Y673697D01*
X391478Y673521D01*
X391182Y673455D01*
X390884Y673509D01*
X390631Y673676D01*
X390626Y673681D01*
X388788Y673674D01*
X388511Y673726D01*
X388255Y673889D01*
X388084Y674139D01*
X388024Y674436D01*
X388024Y678503D01*
X388075Y678778D01*
X388238Y679034D01*
X388488Y679205D01*
X388786Y679265D01*
X390076Y679265D01*
X390076Y688645D01*
X388385Y688645D01*
X387593Y687853D01*
X387351Y687690D01*
X387054Y687629D01*
X383706Y687629D01*
X382814Y686737D01*
X382814Y681174D01*
X383228Y680759D01*
X383391Y680518D01*
X383452Y680221D01*
X383452Y674415D01*
X383401Y674143D01*
X383239Y673887D01*
X382989Y673715D01*
X382692Y673653D01*
X382251Y673652D01*
X381362Y672756D01*
X381371Y670124D01*
X381320Y669847D01*
X381156Y669591D01*
X380906Y669420D01*
X380609Y669359D01*
X361948Y669359D01*
X361673Y669411D01*
X361639Y669433D01*
X357803Y669372D01*
X357478Y669037D01*
X357250Y668876D01*
X356955Y668806D01*
X356656Y668857D01*
X356401Y669020D01*
X356066Y669345D01*
X355545Y669337D01*
X355247Y669392D01*
X354995Y669560D01*
X324191Y700363D01*
X324028Y700605D01*
X323968Y700902D01*
X323968Y709229D01*
X324024Y709515D01*
X324191Y709768D01*
X325093Y710669D01*
X325093Y714107D01*
X324034Y715165D01*
X323881Y715385D01*
X323811Y715680D01*
X323862Y715979D01*
X324026Y716234D01*
X324276Y716406D01*
X324573Y716466D01*
X329085Y716466D01*
X342628Y730009D01*
X342847Y730162D01*
X343142Y730231D01*
X343441Y730181D01*
X343697Y730017D01*
X343868Y729767D01*
X343928Y729470D01*
X343928Y726079D01*
X345683Y721844D01*
X348925Y718602D01*
X353160Y716847D01*
X357745Y716847D01*
X361980Y718602D01*
X365222Y721844D01*
X366976Y726079D01*
X366976Y730664D01*
X366653Y731446D01*
X366595Y731701D01*
X366642Y732001D01*
X366801Y732259D01*
X367048Y732434D01*
X367345Y732499D01*
X369106Y732527D01*
X369056Y735704D01*
X364748Y735637D01*
X364739Y736213D01*
X364656Y736154D01*
X364360Y736089D01*
X364062Y736145D01*
X363809Y736312D01*
X361980Y738141D01*
X359435Y739195D01*
X359196Y739352D01*
X359025Y739602D01*
X358964Y739899D01*
X358964Y742172D01*
X359016Y742446D01*
X359179Y742702D01*
X359429Y742873D01*
X359726Y742934D01*
X363778Y742934D01*
X364064Y742878D01*
X364317Y742711D01*
X365843Y741184D01*
X366001Y740953D01*
X366066Y740657D01*
X366073Y740204D01*
X366022Y739917D01*
X365859Y739661D01*
X365078Y738856D01*
X365105Y737166D01*
X374484Y737314D01*
X374476Y737780D01*
X374528Y738066D01*
X374691Y738322D01*
X374941Y738493D01*
X375238Y738553D01*
X377526Y738553D01*
X377812Y738498D01*
X378065Y738330D01*
X383354Y733041D01*
X383517Y732800D01*
X383577Y732502D01*
X383577Y731893D01*
X384470Y731000D01*
X387817Y731000D01*
X388103Y730945D01*
X388356Y730777D01*
X389149Y729984D01*
X390839Y729984D01*
X390839Y739364D01*
X389149Y739364D01*
X388356Y738571D01*
X388114Y738409D01*
X387817Y738348D01*
X386916Y738348D01*
X386630Y738404D01*
X386377Y738571D01*
X385144Y739804D01*
X384986Y740035D01*
X384921Y740331D01*
X384977Y740629D01*
X385144Y740882D01*
X385169Y740906D01*
X385410Y741069D01*
X385708Y741130D01*
X401414Y741130D01*
X401700Y741074D01*
X401953Y740906D01*
X404026Y738833D01*
X404187Y738597D01*
X404250Y738300D01*
X404192Y738003D01*
X402935Y734969D01*
X402935Y730385D01*
X404690Y726149D01*
X407931Y722908D01*
X412167Y721153D01*
X416751Y721153D01*
X420987Y722908D01*
X424229Y726149D01*
X425983Y730385D01*
X425983Y734969D01*
X424229Y739205D01*
X420987Y742447D01*
X416751Y744201D01*
X412167Y744201D01*
X409133Y742945D01*
X408854Y742887D01*
X408556Y742942D01*
X408303Y743110D01*
X404235Y747178D01*
X389619Y747178D01*
X389356Y747225D01*
X389098Y747384D01*
X388922Y747631D01*
X388857Y747927D01*
X388913Y748226D01*
X389080Y748478D01*
X390048Y749446D01*
X390048Y751951D01*
X388276Y753722D01*
X387548Y753722D01*
X387262Y753778D01*
X387010Y753946D01*
X379759Y761196D01*
X379606Y761416D01*
X379536Y761711D01*
X379587Y762010D01*
X379750Y762265D01*
X380001Y762437D01*
X380298Y762497D01*
X384878Y762497D01*
X385164Y762441D01*
X385417Y762274D01*
X395838Y751853D01*
X483737Y751853D01*
X484017Y751800D01*
X484271Y751634D01*
X484441Y751383D01*
X486245Y747027D01*
X489487Y743785D01*
X493722Y742031D01*
X498307Y742031D01*
X502542Y743785D01*
X505784Y747027D01*
X507539Y751262D01*
X507539Y755847D01*
X505784Y760082D01*
X502542Y763324D01*
X499360Y764642D01*
X499139Y764782D01*
X498960Y765027D01*
X498890Y765322D01*
X498941Y765621D01*
X499104Y765877D01*
X499354Y766048D01*
X499652Y766108D01*
X507575Y766108D01*
X507861Y766053D01*
X508114Y765885D01*
X508467Y765532D01*
X511904Y765532D01*
X512258Y765885D01*
X512499Y766048D01*
X512797Y766108D01*
X517714Y766108D01*
X518000Y766053D01*
X518252Y765885D01*
X519323Y764815D01*
X519486Y764573D01*
X519546Y764276D01*
X519546Y705774D01*
X519501Y705516D01*
X519344Y705257D01*
X519098Y705080D01*
X518802Y705012D01*
X518504Y705065D01*
X518250Y705231D01*
X518080Y705482D01*
X517719Y706354D01*
X514477Y709596D01*
X510242Y711351D01*
X505657Y711351D01*
X501422Y709596D01*
X498180Y706354D01*
X496618Y702583D01*
X496461Y702344D01*
X496211Y702173D01*
X495914Y702113D01*
X488978Y702113D01*
X488715Y702159D01*
X488457Y702319D01*
X488281Y702566D01*
X488216Y702862D01*
X488272Y703160D01*
X488439Y703413D01*
X489359Y704333D01*
X489359Y705140D01*
X484807Y705140D01*
X484807Y706664D01*
X489359Y706664D01*
X489359Y707472D01*
X488362Y708469D01*
X488204Y708700D01*
X488139Y708996D01*
X488194Y709294D01*
X488362Y709547D01*
X499100Y720285D01*
X499336Y720445D01*
X499633Y720508D01*
X499930Y720450D01*
X503702Y718888D01*
X508286Y718888D01*
X512522Y720642D01*
X515763Y723884D01*
X517518Y728120D01*
X517518Y732704D01*
X515763Y736940D01*
X512522Y740181D01*
X508286Y741936D01*
X503702Y741936D01*
X499466Y740181D01*
X496224Y736940D01*
X494831Y733575D01*
X494683Y733346D01*
X494435Y733170D01*
X494139Y733105D01*
X493841Y733161D01*
X493588Y733328D01*
X492222Y734694D01*
X489432Y734694D01*
X489432Y723614D01*
X492222Y723614D01*
X493710Y725102D01*
X493710Y726123D01*
X493755Y726380D01*
X493912Y726639D01*
X494158Y726817D01*
X494454Y726884D01*
X494753Y726831D01*
X495007Y726666D01*
X495176Y726414D01*
X496032Y724348D01*
X496090Y724069D01*
X496034Y723771D01*
X495867Y723518D01*
X486249Y713900D01*
X486007Y713737D01*
X485710Y713676D01*
X484420Y713676D01*
X484155Y713412D01*
X483936Y713259D01*
X483641Y713189D01*
X483342Y713240D01*
X483086Y713404D01*
X482915Y713654D01*
X482855Y713951D01*
X482855Y724038D01*
X482902Y724301D01*
X483061Y724559D01*
X483308Y724735D01*
X483604Y724800D01*
X483903Y724744D01*
X484155Y724577D01*
X485118Y723614D01*
X487908Y723614D01*
X487908Y734694D01*
X485118Y734694D01*
X483491Y733066D01*
X483260Y732908D01*
X482964Y732843D01*
X482666Y732899D01*
X482413Y733066D01*
X481802Y733678D01*
X475539Y733678D01*
X474646Y732785D01*
X474646Y725523D01*
X475539Y724630D01*
X477521Y724630D01*
X477795Y724579D01*
X478051Y724415D01*
X478222Y724165D01*
X478283Y723868D01*
X478283Y713951D01*
X478236Y713688D01*
X478076Y713430D01*
X477829Y713254D01*
X477533Y713189D01*
X477235Y713245D01*
X476982Y713412D01*
X476718Y713676D01*
X474420Y713676D01*
X472795Y712051D01*
X472795Y709753D01*
X472888Y709660D01*
X473046Y709429D01*
X473111Y709133D01*
X473056Y708835D01*
X472888Y708582D01*
X471779Y707472D01*
X471779Y706664D01*
X476331Y706664D01*
X476331Y705140D01*
X471779Y705140D01*
X471779Y704333D01*
X472888Y703223D01*
X473046Y702992D01*
X473111Y702696D01*
X473056Y702398D01*
X472888Y702145D01*
X472795Y702051D01*
X472795Y702000D01*
X472740Y701718D01*
X472574Y701464D01*
X472322Y701295D01*
X472025Y701238D01*
X463134Y701331D01*
X462890Y701374D01*
X462630Y701529D01*
X462450Y701774D01*
X462381Y702069D01*
X462431Y702368D01*
X462595Y702623D01*
X462845Y702795D01*
X463142Y702855D01*
X463323Y702855D01*
X465532Y702855D01*
X467665Y704988D01*
X467665Y706077D01*
X467721Y706363D01*
X467888Y706616D01*
X469528Y708256D01*
X469528Y711693D01*
X467098Y714124D01*
X463661Y714124D01*
X461230Y711693D01*
X461230Y708189D01*
X461179Y707914D01*
X461015Y707659D01*
X460765Y707487D01*
X460468Y707427D01*
X455456Y707427D01*
X455162Y707486D01*
X455013Y707587D01*
X446512Y707676D01*
X445389Y706577D01*
X445146Y706417D01*
X444848Y706360D01*
X441643Y706393D01*
X441454Y688314D01*
X444659Y688281D01*
X444944Y688222D01*
X445195Y688052D01*
X446294Y686930D01*
X454761Y686841D01*
X455863Y687920D01*
X455897Y691167D01*
X455955Y691453D01*
X456126Y691704D01*
X456927Y692488D01*
X456942Y693930D01*
X449840Y694005D01*
X449856Y695529D01*
X456958Y695454D01*
X456964Y696061D01*
X457018Y696336D01*
X457184Y696589D01*
X457436Y696758D01*
X457734Y696815D01*
X475151Y696633D01*
X475217Y696620D01*
X476402Y696620D01*
X476410Y696620D01*
X476791Y696616D01*
X477057Y696565D01*
X477313Y696401D01*
X477484Y696151D01*
X477545Y695854D01*
X477545Y691719D01*
X479539Y689725D01*
X482176Y687088D01*
X482334Y686857D01*
X482399Y686561D01*
X482343Y686263D01*
X482176Y686010D01*
X476239Y680073D01*
X476008Y679915D01*
X475712Y679850D01*
X475414Y679906D01*
X475161Y680073D01*
X469372Y685862D01*
X469209Y686104D01*
X469149Y686401D01*
X469149Y688720D01*
X466719Y691151D01*
X463281Y691151D01*
X460851Y688720D01*
X460851Y685283D01*
X463281Y682853D01*
X465600Y682853D01*
X465886Y682797D01*
X466139Y682629D01*
X470534Y678234D01*
X470687Y678015D01*
X470757Y677720D01*
X470706Y677421D01*
X470543Y677165D01*
X470293Y676994D01*
X469995Y676934D01*
X468061Y676934D01*
X467168Y676041D01*
X467168Y666778D01*
X468061Y665886D01*
X474124Y665886D01*
X474410Y665830D01*
X474581Y665717D01*
X484651Y665717D01*
X484912Y665670D01*
X485171Y665512D01*
X485347Y665265D01*
X485413Y664969D01*
X485441Y663525D01*
X485385Y663224D01*
X485218Y662971D01*
X479791Y657544D01*
X479560Y657386D01*
X479264Y657321D01*
X478966Y657377D01*
X478713Y657544D01*
X478323Y657934D01*
X468061Y657934D01*
X467168Y657041D01*
X467168Y647778D01*
X468061Y646886D01*
X478323Y646886D01*
X479216Y647778D01*
X479216Y650188D01*
X479272Y650474D01*
X479439Y650727D01*
X488971Y660259D01*
X489199Y660416D01*
X489495Y660482D01*
X491155Y660514D01*
X492030Y661424D01*
X491958Y665185D01*
X491622Y665509D01*
X491459Y665736D01*
X491389Y666031D01*
X491439Y666330D01*
X491601Y666586D01*
X491925Y666922D01*
X491852Y670684D01*
X490943Y671560D01*
X490413Y671550D01*
X490113Y671605D01*
X489872Y671765D01*
X479978Y671765D01*
X479704Y671816D01*
X479448Y671979D01*
X479277Y672229D01*
X479216Y672527D01*
X479216Y674182D01*
X479272Y674468D01*
X479439Y674721D01*
X482563Y677844D01*
X482771Y677992D01*
X483065Y678066D01*
X483365Y678020D01*
X483623Y677860D01*
X483798Y677613D01*
X483817Y677526D01*
X485372Y676020D01*
X487811Y676058D01*
X487738Y680760D01*
X493189Y680845D01*
X493162Y682535D01*
X492357Y683315D01*
X492191Y683554D01*
X492126Y683851D01*
X492073Y687198D01*
X491166Y688076D01*
X490085Y688059D01*
X489787Y688115D01*
X489535Y688282D01*
X489170Y688647D01*
X488021Y689796D01*
X488021Y689796D01*
X483816Y694001D01*
X483653Y694243D01*
X483593Y694540D01*
X483593Y697366D01*
X483644Y697641D01*
X483807Y697897D01*
X484057Y698068D01*
X484355Y698128D01*
X484794Y698128D01*
X485080Y698073D01*
X485333Y697905D01*
X485698Y697541D01*
X495914Y697541D01*
X496194Y697487D01*
X496448Y697322D01*
X496618Y697070D01*
X498180Y693299D01*
X501422Y690057D01*
X505657Y688303D01*
X510242Y688303D01*
X514477Y690057D01*
X517719Y693299D01*
X518080Y694171D01*
X518220Y694391D01*
X518465Y694571D01*
X518760Y694641D01*
X519059Y694590D01*
X519314Y694426D01*
X519486Y694176D01*
X519546Y693879D01*
X519546Y688304D01*
X519541Y688219D01*
X518548Y679400D01*
X518510Y679233D01*
X513445Y664760D01*
X513371Y664606D01*
X505213Y651623D01*
X505107Y651489D01*
X494264Y640647D01*
X494131Y640540D01*
X481147Y632382D01*
X480994Y632308D01*
X466520Y627244D01*
X466354Y627206D01*
X460487Y626545D01*
X460402Y626540D01*
X452916Y626540D01*
X452670Y626581D01*
X452408Y626734D01*
X452227Y626977D01*
X452155Y627271D01*
X452203Y627571D01*
X452364Y627828D01*
X453496Y629016D01*
X453428Y631805D01*
X442351Y631535D01*
X442419Y628745D01*
X443355Y627854D01*
X443522Y627622D01*
X443591Y627326D01*
X443540Y627027D01*
X443377Y626772D01*
X443127Y626600D01*
G37*
%LPC*%
G36*
X392363Y735436D02*
X395541Y735436D01*
X395541Y737876D01*
X394053Y739364D01*
X392363Y739364D01*
X392363Y735436D01*
G37*
G36*
X370580Y735728D02*
X370630Y732551D01*
X373070Y732589D01*
X374534Y734100D01*
X374508Y735790D01*
X370580Y735728D01*
G37*
G36*
X392363Y729984D02*
X394053Y729984D01*
X395541Y731472D01*
X395541Y733912D01*
X392363Y733912D01*
X392363Y729984D01*
G37*
G36*
X391600Y684717D02*
X394778Y684717D01*
X394778Y687248D01*
X394827Y687517D01*
X394988Y687774D01*
X395237Y687948D01*
X395533Y688010D01*
X395831Y687952D01*
X397397Y687304D01*
X401981Y687304D01*
X406217Y689058D01*
X409458Y692300D01*
X411186Y696470D01*
X411343Y696709D01*
X411593Y696880D01*
X411890Y696941D01*
X424838Y696941D01*
X425120Y696887D01*
X425373Y696720D01*
X425542Y696469D01*
X425600Y696171D01*
X425572Y693557D01*
X425513Y693271D01*
X425343Y693020D01*
X424542Y692236D01*
X424527Y690794D01*
X431629Y690719D01*
X431580Y686068D01*
X435472Y686027D01*
X437198Y687717D01*
X437228Y687871D01*
X437395Y688125D01*
X437646Y688294D01*
X437944Y688351D01*
X439930Y688330D01*
X440120Y706409D01*
X438134Y706430D01*
X437859Y706484D01*
X437606Y706650D01*
X437437Y706902D01*
X437403Y707077D01*
X435711Y708805D01*
X431819Y708846D01*
X431770Y704195D01*
X424668Y704269D01*
X424663Y703743D01*
X424612Y703476D01*
X424448Y703221D01*
X424198Y703049D01*
X423901Y702989D01*
X410948Y702989D01*
X410668Y703042D01*
X410414Y703208D01*
X410244Y703459D01*
X409458Y705356D01*
X406217Y708597D01*
X401981Y710352D01*
X397397Y710352D01*
X393161Y708597D01*
X389919Y705356D01*
X389452Y704227D01*
X389295Y703988D01*
X389045Y703817D01*
X388748Y703757D01*
X347469Y703757D01*
X347170Y703817D01*
X346920Y703989D01*
X346442Y704485D01*
X343095Y704543D01*
X342810Y704604D01*
X342560Y704776D01*
X341781Y705582D01*
X340091Y705612D01*
X339928Y696233D01*
X341617Y696204D01*
X342424Y696983D01*
X342668Y697141D01*
X342967Y697196D01*
X346314Y697138D01*
X346683Y697495D01*
X346915Y697648D01*
X347212Y697709D01*
X387403Y697709D01*
X387678Y697657D01*
X387933Y697494D01*
X388105Y697244D01*
X388165Y696947D01*
X388165Y696536D01*
X389919Y692300D01*
X392273Y689946D01*
X392426Y689727D01*
X392496Y689432D01*
X392445Y689133D01*
X392282Y688877D01*
X392031Y688706D01*
X391734Y688645D01*
X391600Y688645D01*
X391600Y684717D01*
G37*
G36*
X424684Y705793D02*
X430262Y705734D01*
X430295Y708862D01*
X426403Y708903D01*
X424699Y707235D01*
X424684Y705793D01*
G37*
G36*
X335321Y701767D02*
X338499Y701711D01*
X338567Y705638D01*
X336878Y705668D01*
X335364Y704206D01*
X335321Y701767D01*
G37*
G36*
X336714Y696289D02*
X338404Y696260D01*
X338472Y700187D01*
X335295Y700243D01*
X335252Y697803D01*
X336714Y696289D01*
G37*
G36*
X426164Y686124D02*
X430056Y686084D01*
X430089Y689211D01*
X424511Y689270D01*
X424496Y687827D01*
X426164Y686124D01*
G37*
G36*
X391600Y679265D02*
X393290Y679265D01*
X394778Y680753D01*
X394778Y683193D01*
X391600Y683193D01*
X391600Y679265D01*
G37*
G36*
X442246Y635847D02*
X442314Y633058D01*
X453390Y633329D01*
X453322Y636118D01*
X451655Y637705D01*
X451492Y637932D01*
X451420Y638226D01*
X451468Y638526D01*
X451629Y638783D01*
X452225Y639409D01*
X452154Y642345D01*
X452209Y642650D01*
X452377Y642902D01*
X455216Y645742D01*
X455216Y655624D01*
X455267Y655898D01*
X455431Y656154D01*
X455681Y656325D01*
X455978Y656386D01*
X457323Y656386D01*
X458216Y657278D01*
X458216Y666541D01*
X457323Y667434D01*
X447061Y667434D01*
X446168Y666541D01*
X446168Y665696D01*
X446117Y665421D01*
X445954Y665165D01*
X445703Y664994D01*
X445406Y664934D01*
X436001Y664934D01*
X435715Y664989D01*
X435462Y665157D01*
X421799Y678820D01*
X421636Y679062D01*
X421576Y679359D01*
X421576Y680635D01*
X419145Y683065D01*
X415708Y683065D01*
X413278Y680635D01*
X413278Y677197D01*
X414396Y676079D01*
X414548Y675862D01*
X414619Y675567D01*
X414569Y675268D01*
X414502Y675161D01*
X415199Y675164D01*
X415226Y667544D01*
X420560Y667562D01*
X420553Y669671D01*
X420600Y669937D01*
X420759Y670195D01*
X421006Y670371D01*
X421302Y670436D01*
X421601Y670380D01*
X421853Y670213D01*
X433180Y658886D01*
X445406Y658886D01*
X445681Y658834D01*
X445936Y658671D01*
X446108Y658421D01*
X446168Y658124D01*
X446168Y657278D01*
X447061Y656386D01*
X448406Y656386D01*
X448681Y656334D01*
X448936Y656171D01*
X449108Y655921D01*
X449168Y655624D01*
X449168Y648563D01*
X449113Y648277D01*
X448945Y648024D01*
X447584Y646663D01*
X447360Y646508D01*
X447064Y646440D01*
X443898Y646363D01*
X443027Y645449D01*
X443180Y639188D01*
X443807Y638591D01*
X443970Y638365D01*
X444042Y638070D01*
X443994Y637771D01*
X443833Y637514D01*
X442246Y635847D01*
G37*
G36*
X489285Y679260D02*
X489335Y676082D01*
X491775Y676120D01*
X493239Y677632D01*
X493213Y679321D01*
X489285Y679260D01*
G37*
%LPD*%
G36*
X326562Y722575D02*
X326264Y722514D01*
X293415Y722514D01*
X293129Y722570D01*
X292876Y722737D01*
X281642Y733971D01*
X281484Y734202D01*
X281419Y734498D01*
X281475Y734796D01*
X281642Y735049D01*
X293901Y747308D01*
X294132Y747466D01*
X294428Y747531D01*
X294726Y747475D01*
X294979Y747308D01*
X298141Y744146D01*
X298286Y743943D01*
X298363Y743650D01*
X298320Y743350D01*
X298162Y743090D01*
X297917Y742913D01*
X297621Y742845D01*
X296383Y742815D01*
X296654Y731738D01*
X299443Y731807D01*
X301030Y733473D01*
X301257Y733637D01*
X301551Y733709D01*
X301851Y733661D01*
X302107Y733500D01*
X302734Y732903D01*
X308994Y733056D01*
X309865Y733971D01*
X309793Y736931D01*
X309848Y737235D01*
X310016Y737488D01*
X316790Y744262D01*
X316790Y745017D01*
X316837Y745281D01*
X316996Y745539D01*
X317243Y745714D01*
X317540Y745779D01*
X317838Y745724D01*
X318091Y745556D01*
X318313Y745334D01*
X318476Y745092D01*
X318536Y744795D01*
X318536Y740679D01*
X318480Y740393D01*
X318313Y740140D01*
X317566Y739394D01*
X317566Y732131D01*
X318459Y731238D01*
X324721Y731238D01*
X325333Y731850D01*
X325563Y732008D01*
X325859Y732073D01*
X326157Y732017D01*
X326410Y731850D01*
X328038Y730222D01*
X330828Y730222D01*
X330828Y741302D01*
X328038Y741302D01*
X326410Y739675D01*
X326180Y739517D01*
X325884Y739452D01*
X325585Y739507D01*
X325333Y739675D01*
X324721Y740286D01*
X323870Y740286D01*
X323595Y740337D01*
X323340Y740501D01*
X323168Y740751D01*
X323108Y741048D01*
X323108Y744795D01*
X323164Y745081D01*
X323331Y745334D01*
X323346Y745349D01*
X323346Y747440D01*
X321867Y748918D01*
X319776Y748918D01*
X318091Y747232D01*
X317871Y747079D01*
X317576Y747010D01*
X317277Y747060D01*
X317022Y747224D01*
X316850Y747474D01*
X316790Y747771D01*
X316790Y751203D01*
X316840Y751474D01*
X317002Y751730D01*
X317251Y751903D01*
X317548Y751965D01*
X319824Y751977D01*
X320735Y752897D01*
X320965Y753056D01*
X321261Y753123D01*
X321559Y753069D01*
X321813Y752903D01*
X322733Y751992D01*
X324824Y752003D01*
X325735Y752923D01*
X325965Y753082D01*
X326261Y753149D01*
X326559Y753095D01*
X326813Y752929D01*
X327733Y752018D01*
X329824Y752029D01*
X330735Y752949D01*
X330965Y753109D01*
X331261Y753175D01*
X331559Y753121D01*
X331813Y752955D01*
X332733Y752044D01*
X334824Y752055D01*
X335735Y752976D01*
X335965Y753135D01*
X336261Y753202D01*
X336559Y753147D01*
X336813Y752981D01*
X337733Y752070D01*
X339008Y752077D01*
X339287Y752026D01*
X339542Y751862D01*
X339714Y751612D01*
X339774Y751315D01*
X339774Y736024D01*
X339718Y735738D01*
X339551Y735485D01*
X337931Y733865D01*
X337711Y733712D01*
X337416Y733642D01*
X337117Y733693D01*
X336862Y733856D01*
X336690Y734106D01*
X336630Y734404D01*
X336630Y735000D01*
X332352Y735000D01*
X332352Y730222D01*
X332448Y730222D01*
X332712Y730175D01*
X332970Y730016D01*
X333145Y729769D01*
X333210Y729472D01*
X333155Y729174D01*
X332987Y728921D01*
X326803Y722737D01*
X326562Y722575D01*
G37*
%LPC*%
G36*
X290619Y741186D02*
X290699Y737897D01*
X294976Y738001D01*
X294859Y742778D01*
X292070Y742710D01*
X290619Y741186D01*
G37*
G36*
X332352Y736524D02*
X336630Y736524D01*
X336630Y739814D01*
X335142Y741302D01*
X332352Y741302D01*
X332352Y736524D01*
G37*
G36*
X290817Y733084D02*
X292341Y731633D01*
X295130Y731701D01*
X295013Y736478D01*
X290737Y736373D01*
X290817Y733084D01*
G37*
%LPD*%
G36*
X226835Y744672D02*
X226539Y744610D01*
X226241Y744668D01*
X225990Y744838D01*
X225582Y745255D01*
X225432Y745475D01*
X225365Y745771D01*
X225418Y746069D01*
X225487Y746175D01*
X224733Y746181D01*
X224791Y752864D01*
X226315Y752851D01*
X226260Y746549D01*
X226951Y746543D01*
X227207Y746496D01*
X227465Y746337D01*
X227641Y746090D01*
X227706Y745793D01*
X227650Y745495D01*
X227483Y745242D01*
X227073Y744833D01*
X226835Y744672D01*
G37*
G36*
X375805Y626600D02*
X375507Y626540D01*
X316555Y626540D01*
X316281Y626591D01*
X316025Y626755D01*
X315854Y627005D01*
X315793Y627302D01*
X315793Y642677D01*
X315838Y642920D01*
X315905Y643397D01*
X315928Y646083D01*
X315986Y646369D01*
X316156Y646620D01*
X316571Y647029D01*
X316676Y658959D01*
X315791Y659859D01*
X312208Y659890D01*
X311933Y659944D01*
X311679Y660110D01*
X311510Y660361D01*
X311452Y660659D01*
X311497Y665802D01*
X304639Y665862D01*
X304716Y674624D01*
X300870Y674658D01*
X300773Y674563D01*
X300541Y674407D01*
X300244Y674344D01*
X299947Y674402D01*
X299695Y674572D01*
X299097Y675181D01*
X283865Y675314D01*
X282964Y674429D01*
X282964Y674332D01*
X282914Y674069D01*
X282753Y673812D01*
X282504Y673639D01*
X282207Y673577D01*
X281909Y673635D01*
X281658Y673805D01*
X281653Y673810D01*
X280446Y673820D01*
X280178Y673871D01*
X279923Y674035D01*
X279751Y674285D01*
X279691Y674582D01*
X279691Y677015D01*
X279747Y677301D01*
X279914Y677554D01*
X287520Y685160D01*
X287762Y685323D01*
X288059Y685383D01*
X289501Y685383D01*
X289787Y685327D01*
X290040Y685160D01*
X290833Y684367D01*
X292523Y684367D01*
X292523Y693747D01*
X291233Y693747D01*
X290958Y693798D01*
X290703Y693962D01*
X290531Y694212D01*
X290471Y694509D01*
X290471Y695698D01*
X290518Y695962D01*
X290677Y696220D01*
X290924Y696395D01*
X291221Y696460D01*
X291519Y696405D01*
X291585Y696361D01*
X295410Y696361D01*
X295437Y696388D01*
X295679Y696550D01*
X295976Y696611D01*
X311578Y696611D01*
X316619Y701652D01*
X316838Y701805D01*
X317134Y701875D01*
X317433Y701824D01*
X317688Y701661D01*
X317860Y701411D01*
X317920Y701113D01*
X317920Y698081D01*
X351267Y664734D01*
X351426Y664503D01*
X351491Y664207D01*
X351500Y663617D01*
X352406Y662739D01*
X356168Y662798D01*
X356493Y663133D01*
X356721Y663295D01*
X357016Y663364D01*
X357315Y663313D01*
X357571Y663150D01*
X357906Y662825D01*
X361668Y662884D01*
X362546Y663791D01*
X362543Y664013D01*
X362594Y664300D01*
X362757Y664556D01*
X363008Y664727D01*
X363305Y664787D01*
X380630Y664787D01*
X380902Y664737D01*
X381158Y664575D01*
X381331Y664325D01*
X381392Y664028D01*
X381403Y660759D01*
X381353Y660484D01*
X381191Y660228D01*
X380941Y660055D01*
X380644Y659994D01*
X376045Y659978D01*
X375155Y659082D01*
X375197Y647152D01*
X375610Y646741D01*
X375774Y646500D01*
X375835Y646203D01*
X375845Y643503D01*
X375876Y643184D01*
X375955Y642911D01*
X376084Y642658D01*
X376110Y642625D01*
X376209Y642456D01*
X376269Y642159D01*
X376269Y627302D01*
X376218Y627027D01*
X376055Y626772D01*
X375805Y626600D01*
G37*
%LPC*%
G36*
X294047Y689819D02*
X297225Y689819D01*
X297225Y692259D01*
X295737Y693747D01*
X294047Y693747D01*
X294047Y689819D01*
G37*
G36*
X294047Y684367D02*
X295737Y684367D01*
X297225Y685855D01*
X297225Y688295D01*
X294047Y688295D01*
X294047Y684367D01*
G37*
G36*
X306177Y667372D02*
X311510Y667326D01*
X311561Y673077D01*
X310086Y674577D01*
X306240Y674611D01*
X306177Y667372D01*
G37*
%LPD*%
G36*
X271803Y660303D02*
X271505Y660246D01*
X267387Y660282D01*
X267119Y660333D01*
X266863Y660496D01*
X266692Y660746D01*
X266631Y661043D01*
X266631Y661957D01*
X266687Y662243D01*
X266854Y662495D01*
X267647Y663288D01*
X267647Y664828D01*
X262595Y664828D01*
X262595Y669380D01*
X260555Y669380D01*
X258857Y667682D01*
X258627Y667524D01*
X258330Y667459D01*
X258032Y667515D01*
X257779Y667682D01*
X242219Y683242D01*
X242056Y683484D01*
X241996Y683781D01*
X241996Y688283D01*
X242043Y688547D01*
X242202Y688805D01*
X242450Y688980D01*
X242746Y689045D01*
X243044Y688990D01*
X243297Y688822D01*
X244682Y687437D01*
X248119Y687437D01*
X249759Y689077D01*
X250000Y689240D01*
X250298Y689300D01*
X259997Y689300D01*
X270272Y699575D01*
X270514Y699738D01*
X270811Y699798D01*
X272418Y699798D01*
X272748Y700128D01*
X272978Y700286D01*
X273274Y700351D01*
X273572Y700295D01*
X273825Y700128D01*
X274155Y699798D01*
X277918Y699798D01*
X278826Y700706D01*
X278862Y700897D01*
X279025Y701153D01*
X279275Y701324D01*
X279572Y701385D01*
X284493Y701385D01*
X284768Y701334D01*
X285023Y701170D01*
X285195Y700920D01*
X285255Y700623D01*
X285255Y697254D01*
X285676Y696833D01*
X285838Y696591D01*
X285899Y696294D01*
X285899Y692792D01*
X285843Y692506D01*
X285676Y692253D01*
X285261Y691838D01*
X285261Y689682D01*
X285205Y689396D01*
X285038Y689143D01*
X275119Y679224D01*
X275119Y674635D01*
X275065Y674354D01*
X274900Y674100D01*
X274648Y673931D01*
X274350Y673873D01*
X273279Y673883D01*
X272378Y672998D01*
X272274Y661001D01*
X272220Y660727D01*
X272054Y660473D01*
X271803Y660303D01*
G37*
%LPC*%
G36*
X264119Y666352D02*
X267647Y666352D01*
X267647Y667892D01*
X266159Y669380D01*
X264119Y669380D01*
X264119Y666352D01*
G37*
%LPD*%
G36*
X351858Y933114D02*
X353037Y933255D01*
X354217Y933130D01*
X355340Y932746D01*
X356349Y932122D01*
X357194Y931288D01*
X357833Y930288D01*
X358233Y929170D01*
X358373Y927995D01*
X358450Y916989D01*
X358326Y915812D01*
X357942Y914689D01*
X357317Y913679D01*
X356484Y912834D01*
X355483Y912196D01*
X354366Y911796D01*
X353187Y911655D01*
X352007Y911780D01*
X350884Y912164D01*
X349875Y912788D01*
X349030Y913622D01*
X348391Y914622D01*
X347991Y915740D01*
X347850Y916915D01*
X347774Y927921D01*
X347898Y929098D01*
X348282Y930221D01*
X348907Y931230D01*
X349740Y932076D01*
X350741Y932714D01*
X351858Y933114D01*
G37*
G36*
X351858Y933114D02*
X353037Y933255D01*
X354217Y933130D01*
X355340Y932746D01*
X356349Y932122D01*
X357194Y931288D01*
X357833Y930288D01*
X358233Y929170D01*
X358373Y927995D01*
X358450Y916989D01*
X358326Y915812D01*
X357942Y914689D01*
X357317Y913679D01*
X356484Y912834D01*
X355483Y912196D01*
X354366Y911796D01*
X353187Y911655D01*
X352007Y911780D01*
X350884Y912164D01*
X349875Y912788D01*
X349030Y913622D01*
X348391Y914622D01*
X347991Y915740D01*
X347850Y916915D01*
X347774Y927921D01*
X347898Y929098D01*
X348282Y930221D01*
X348907Y931230D01*
X349740Y932076D01*
X350741Y932714D01*
X351858Y933114D01*
G37*
G36*
X265460Y932511D02*
X266639Y932652D01*
X267819Y932527D01*
X268942Y932143D01*
X269951Y931519D01*
X270796Y930685D01*
X271435Y929685D01*
X271835Y928567D01*
X271975Y927391D01*
X272052Y916386D01*
X271928Y915209D01*
X271544Y914086D01*
X270919Y913076D01*
X270086Y912231D01*
X269085Y911593D01*
X267968Y911193D01*
X266789Y911052D01*
X265609Y911176D01*
X264486Y911561D01*
X263477Y912185D01*
X262632Y913018D01*
X261993Y914019D01*
X261593Y915136D01*
X261453Y916312D01*
X261376Y927317D01*
X261500Y928495D01*
X261884Y929618D01*
X262509Y930627D01*
X263342Y931472D01*
X264343Y932111D01*
X265460Y932511D01*
G37*
G36*
X265460Y932511D02*
X266639Y932652D01*
X267819Y932527D01*
X268942Y932143D01*
X269951Y931519D01*
X270796Y930685D01*
X271435Y929685D01*
X271835Y928567D01*
X271975Y927391D01*
X272052Y916386D01*
X271928Y915209D01*
X271544Y914086D01*
X270919Y913076D01*
X270086Y912231D01*
X269085Y911593D01*
X267968Y911193D01*
X266789Y911052D01*
X265609Y911176D01*
X264486Y911561D01*
X263477Y912185D01*
X262632Y913018D01*
X261993Y914019D01*
X261593Y915136D01*
X261453Y916312D01*
X261376Y927317D01*
X261500Y928495D01*
X261884Y929618D01*
X262509Y930627D01*
X263342Y931472D01*
X264343Y932111D01*
X265460Y932511D01*
G37*
G36*
X265181Y972510D02*
X266359Y972651D01*
X267540Y972526D01*
X268663Y972142D01*
X269672Y971518D01*
X270517Y970684D01*
X271156Y969684D01*
X271555Y968566D01*
X271696Y967390D01*
X271752Y959385D01*
X271628Y958208D01*
X271244Y957085D01*
X270619Y956075D01*
X269786Y955230D01*
X268785Y954592D01*
X267668Y954192D01*
X266489Y954051D01*
X265309Y954175D01*
X264186Y954559D01*
X263177Y955184D01*
X262331Y956017D01*
X261693Y957018D01*
X261293Y958135D01*
X261152Y959311D01*
X261096Y967316D01*
X261221Y968494D01*
X261605Y969617D01*
X262229Y970626D01*
X263063Y971471D01*
X264063Y972110D01*
X265181Y972510D01*
G37*
G36*
X265181Y972510D02*
X266359Y972651D01*
X267540Y972526D01*
X268663Y972142D01*
X269672Y971518D01*
X270517Y970684D01*
X271156Y969684D01*
X271555Y968566D01*
X271696Y967390D01*
X271752Y959385D01*
X271628Y958208D01*
X271244Y957085D01*
X270619Y956075D01*
X269786Y955230D01*
X268785Y954592D01*
X267668Y954192D01*
X266489Y954051D01*
X265309Y954175D01*
X264186Y954559D01*
X263177Y955184D01*
X262331Y956017D01*
X261693Y957018D01*
X261293Y958135D01*
X261152Y959311D01*
X261096Y967316D01*
X261221Y968494D01*
X261605Y969617D01*
X262229Y970626D01*
X263063Y971471D01*
X264063Y972110D01*
X265181Y972510D01*
G37*
G36*
X351579Y973113D02*
X352757Y973254D01*
X353938Y973129D01*
X355061Y972745D01*
X356070Y972121D01*
X356915Y971287D01*
X357554Y970287D01*
X357953Y969169D01*
X358094Y967994D01*
X358150Y959988D01*
X358026Y958811D01*
X357641Y957688D01*
X357017Y956678D01*
X356184Y955833D01*
X355183Y955195D01*
X354066Y954795D01*
X352887Y954654D01*
X351707Y954778D01*
X350584Y955163D01*
X349574Y955787D01*
X348729Y956620D01*
X348091Y957621D01*
X347691Y958739D01*
X347550Y959914D01*
X347494Y967920D01*
X347619Y969097D01*
X348003Y970220D01*
X348627Y971230D01*
X349461Y972075D01*
X350461Y972713D01*
X351579Y973113D01*
G37*
G36*
X351579Y973113D02*
X352757Y973254D01*
X353938Y973129D01*
X355061Y972745D01*
X356070Y972121D01*
X356915Y971287D01*
X357554Y970287D01*
X357953Y969169D01*
X358094Y967994D01*
X358150Y959988D01*
X358026Y958811D01*
X357641Y957688D01*
X357017Y956678D01*
X356184Y955833D01*
X355183Y955195D01*
X354066Y954795D01*
X352887Y954654D01*
X351707Y954778D01*
X350584Y955163D01*
X349574Y955787D01*
X348729Y956620D01*
X348091Y957621D01*
X347691Y958739D01*
X347550Y959914D01*
X347494Y967920D01*
X347619Y969097D01*
X348003Y970220D01*
X348627Y971230D01*
X349461Y972075D01*
X350461Y972713D01*
X351579Y973113D01*
G37*
G36*
X412039Y643593D02*
X412015Y650451D01*
X423699Y650492D01*
X423723Y643634D01*
X412039Y643593D01*
G37*
G36*
X268028Y643765D02*
X268088Y650623D01*
X279772Y650521D01*
X279712Y643663D01*
X268028Y643765D01*
G37*
G36*
X157168Y644408D02*
X157132Y651266D01*
X168816Y651327D01*
X168852Y644469D01*
X157168Y644408D01*
G37*
G36*
X191837Y644589D02*
X191802Y651447D01*
X203485Y651508D01*
X203521Y644650D01*
X191837Y644589D01*
G37*
G36*
X302697Y643463D02*
X302757Y650320D01*
X314440Y650218D01*
X314380Y643361D01*
X302697Y643463D01*
G37*
G36*
X377369Y643472D02*
X377345Y650330D01*
X389029Y650371D01*
X389053Y643513D01*
X377369Y643472D01*
G37*
D10*
X453119Y781971D03*
X483119Y781971D03*
D11*
X387139Y819434D03*
X392239Y819434D03*
D12*
G36*
X444688Y639857D02*
X444566Y644854D01*
X450564Y645001D01*
X450686Y640004D01*
X444688Y639857D01*
G37*
G36*
X444933Y629860D02*
X444811Y634857D01*
X450809Y635004D01*
X450931Y630007D01*
X444933Y629860D01*
G37*
D11*
X339769Y844466D03*
X344869Y844466D03*
X384640Y810266D03*
X389740Y810266D03*
G36*
X367599Y740144D02*
X367555Y742943D01*
X371853Y743010D01*
X371897Y740211D01*
X367599Y740144D01*
G37*
G36*
X367679Y735045D02*
X367635Y737844D01*
X371933Y737911D01*
X371977Y735112D01*
X367679Y735045D01*
G37*
X348943Y833367D03*
X354043Y833367D03*
D12*
G36*
X356102Y850508D02*
X356006Y845510D01*
X350008Y845626D01*
X350104Y850624D01*
X356102Y850508D01*
G37*
G36*
X356294Y860506D02*
X356198Y855508D01*
X350200Y855624D01*
X350296Y860622D01*
X356294Y860506D01*
G37*
X402547Y806951D03*
X412547Y806951D03*
D11*
X322959Y825673D03*
X328059Y825673D03*
D13*
X282370Y815983D03*
X282370Y821083D03*
D11*
X307921Y829787D03*
X313021Y829787D03*
G36*
X146836Y887706D02*
X149631Y887853D01*
X149856Y883560D01*
X147061Y883413D01*
X146836Y887706D01*
G37*
G36*
X141743Y887439D02*
X144538Y887586D01*
X144763Y883293D01*
X141968Y883146D01*
X141743Y887439D01*
G37*
G36*
X349341Y872169D02*
X349336Y874968D01*
X353635Y874975D01*
X353640Y872176D01*
X349341Y872169D01*
G37*
G36*
X349350Y867069D02*
X349345Y869868D01*
X353644Y869875D01*
X353649Y867076D01*
X349350Y867069D01*
G37*
D12*
X321590Y735762D03*
X331590Y735762D03*
G36*
X303181Y740440D02*
X308178Y740562D01*
X308325Y734564D01*
X303328Y734442D01*
X303181Y740440D01*
G37*
G36*
X293184Y740196D02*
X298181Y740318D01*
X298328Y734320D01*
X293331Y734198D01*
X293184Y740196D01*
G37*
D11*
G36*
X423798Y763253D02*
X423856Y766051D01*
X428154Y765961D01*
X428096Y763163D01*
X423798Y763253D01*
G37*
G36*
X423691Y758155D02*
X423749Y760953D01*
X428047Y760863D01*
X427989Y758065D01*
X423691Y758155D01*
G37*
G36*
X121686Y949029D02*
X118887Y949014D01*
X118864Y953313D01*
X121663Y953328D01*
X121686Y949029D01*
G37*
G36*
X126786Y949056D02*
X123987Y949041D01*
X123964Y953340D01*
X126763Y953355D01*
X126786Y949056D01*
G37*
D12*
X94336Y948307D03*
X104336Y948307D03*
X163420Y940141D03*
X173420Y940141D03*
D11*
G36*
X342985Y703021D02*
X345784Y702972D01*
X345709Y698673D01*
X342910Y698722D01*
X342985Y703021D01*
G37*
G36*
X337886Y703110D02*
X340685Y703061D01*
X340610Y698762D01*
X337811Y698811D01*
X337886Y703110D01*
G37*
X385738Y683955D03*
X390838Y683955D03*
X395657Y765138D03*
X400757Y765138D03*
X179276Y688997D03*
X184376Y688997D03*
X288185Y689057D03*
X293285Y689057D03*
D12*
X478670Y729154D03*
X488670Y729154D03*
X171063Y915796D03*
X181063Y915796D03*
D11*
G36*
X486304Y683676D02*
X486260Y686475D01*
X490558Y686542D01*
X490602Y683743D01*
X486304Y683676D01*
G37*
G36*
X486384Y678577D02*
X486340Y681376D01*
X490638Y681443D01*
X490682Y678644D01*
X486384Y678577D01*
G37*
D14*
X262491Y845854D03*
X262491Y855854D03*
D12*
G36*
X238975Y844236D02*
X233977Y844140D01*
X233861Y850138D01*
X238859Y850234D01*
X238975Y844236D01*
G37*
G36*
X248973Y844428D02*
X243975Y844332D01*
X243859Y850330D01*
X248857Y850426D01*
X248973Y844428D01*
G37*
G36*
X157337Y961381D02*
X157328Y966380D01*
X163327Y966391D01*
X163336Y961392D01*
X157337Y961381D01*
G37*
G36*
X157354Y951381D02*
X157345Y956380D01*
X163344Y956391D01*
X163353Y951392D01*
X157354Y951381D01*
G37*
D11*
G36*
X413185Y767076D02*
X415984Y767042D01*
X415931Y762744D01*
X413132Y762778D01*
X413185Y767076D01*
G37*
G36*
X408085Y767139D02*
X410884Y767105D01*
X410831Y762807D01*
X408032Y762841D01*
X408085Y767139D01*
G37*
G36*
X275613Y880380D02*
X272814Y880414D01*
X272867Y884712D01*
X275666Y884678D01*
X275613Y880380D01*
G37*
G36*
X280713Y880318D02*
X277914Y880352D01*
X277967Y884650D01*
X280766Y884616D01*
X280713Y880318D01*
G37*
D12*
X344084Y897085D03*
X354084Y897085D03*
D11*
G36*
X292574Y833660D02*
X295372Y833718D01*
X295462Y829420D01*
X292664Y829362D01*
X292574Y833660D01*
G37*
G36*
X287475Y833554D02*
X290273Y833612D01*
X290363Y829314D01*
X287565Y829256D01*
X287475Y833554D01*
G37*
D12*
G36*
X273806Y732037D02*
X273849Y737036D01*
X279848Y736983D01*
X279805Y731984D01*
X273806Y732037D01*
G37*
G36*
X273719Y722038D02*
X273762Y727037D01*
X279761Y726984D01*
X279718Y721985D01*
X273719Y722038D01*
G37*
D11*
G36*
X157938Y903079D02*
X160737Y903070D01*
X160722Y898771D01*
X157923Y898780D01*
X157938Y903079D01*
G37*
G36*
X152838Y903096D02*
X155637Y903087D01*
X155622Y898788D01*
X152823Y898797D01*
X152838Y903096D01*
G37*
X386501Y734674D03*
X391601Y734674D03*
X382326Y784174D03*
X387426Y784174D03*
D15*
G36*
X221381Y728979D02*
X232878Y729200D01*
X233031Y721203D01*
X221534Y720982D01*
X221381Y728979D01*
G37*
G36*
X186387Y728307D02*
X197884Y728528D01*
X198037Y720531D01*
X186540Y720310D01*
X186387Y728307D01*
G37*
D16*
G36*
X308980Y893252D02*
X308665Y905247D01*
X314662Y905404D01*
X314977Y893409D01*
X308980Y893252D01*
G37*
G36*
X299483Y893003D02*
X299168Y904998D01*
X305165Y905155D01*
X305480Y893160D01*
X299483Y893003D01*
G37*
G36*
X289987Y892754D02*
X289672Y904749D01*
X295669Y904906D01*
X295984Y892911D01*
X289987Y892754D01*
G37*
G36*
X290641Y867763D02*
X290326Y879758D01*
X296323Y879915D01*
X296638Y867920D01*
X290641Y867763D01*
G37*
G36*
X300138Y868012D02*
X299823Y880007D01*
X305820Y880164D01*
X306135Y868169D01*
X300138Y868012D01*
G37*
G36*
X309635Y868260D02*
X309320Y880255D01*
X315317Y880412D01*
X315632Y868417D01*
X309635Y868260D01*
G37*
D15*
X191554Y705509D03*
X226554Y705509D03*
G36*
X219933Y797995D02*
X219733Y786498D01*
X211735Y786637D01*
X211935Y798134D01*
X219933Y797995D01*
G37*
G36*
X220544Y832989D02*
X220344Y821492D01*
X212346Y821631D01*
X212546Y833128D01*
X220544Y832989D01*
G37*
D12*
G36*
X198200Y838652D02*
X203199Y838713D01*
X203272Y832714D01*
X198273Y832653D01*
X198200Y838652D01*
G37*
G36*
X188200Y838529D02*
X193199Y838590D01*
X193272Y832591D01*
X188273Y832530D01*
X188200Y838529D01*
G37*
G36*
X218981Y743313D02*
X223980Y743260D01*
X223917Y737261D01*
X218918Y737314D01*
X218981Y743313D01*
G37*
G36*
X208982Y743417D02*
X213981Y743364D01*
X213918Y737365D01*
X208919Y737418D01*
X208982Y743417D01*
G37*
G36*
X194640Y746119D02*
X199639Y746092D01*
X199608Y740093D01*
X194609Y740120D01*
X194640Y746119D01*
G37*
G36*
X184640Y746172D02*
X189639Y746145D01*
X189608Y740146D01*
X184609Y740173D01*
X184640Y746172D01*
G37*
G36*
X133520Y711942D02*
X138518Y711977D01*
X138560Y705978D01*
X133562Y705943D01*
X133520Y711942D01*
G37*
G36*
X123520Y711872D02*
X128518Y711907D01*
X128560Y705908D01*
X123562Y705873D01*
X123520Y711872D01*
G37*
X199684Y845326D03*
X189684Y845326D03*
D11*
G36*
X184933Y796291D02*
X187732Y796296D01*
X187739Y791997D01*
X184940Y791992D01*
X184933Y796291D01*
G37*
G36*
X179833Y796282D02*
X182632Y796287D01*
X182639Y791988D01*
X179840Y791983D01*
X179833Y796282D01*
G37*
D12*
G36*
X197649Y781920D02*
X202647Y781885D01*
X202605Y775886D01*
X197607Y775921D01*
X197649Y781920D01*
G37*
G36*
X187649Y781990D02*
X192647Y781955D01*
X192605Y775956D01*
X187607Y775991D01*
X187649Y781990D01*
G37*
G36*
X195569Y770240D02*
X200568Y770249D01*
X200579Y764250D01*
X195580Y764241D01*
X195569Y770240D01*
G37*
G36*
X185569Y770223D02*
X190568Y770232D01*
X190579Y764233D01*
X185580Y764224D01*
X185569Y770223D01*
G37*
G36*
X213443Y773509D02*
X213416Y778508D01*
X219415Y778539D01*
X219442Y773540D01*
X213443Y773509D01*
G37*
G36*
X213495Y763509D02*
X213468Y768508D01*
X219467Y768539D01*
X219494Y763540D01*
X213495Y763509D01*
G37*
G36*
X223073Y755117D02*
X228072Y755074D01*
X228019Y749075D01*
X223020Y749118D01*
X223073Y755117D01*
G37*
G36*
X213074Y755204D02*
X218073Y755161D01*
X218020Y749162D01*
X213021Y749205D01*
X213074Y755204D01*
G37*
D17*
X251047Y823209D03*
X251040Y827209D03*
X255047Y823216D03*
X255040Y827216D03*
X259047Y823223D03*
X259040Y827223D03*
X263047Y823230D03*
X263040Y827230D03*
D18*
G36*
X281499Y779798D02*
X281585Y776300D01*
X278587Y776226D01*
X278501Y779724D01*
X281499Y779798D01*
G37*
G36*
X286497Y779920D02*
X286583Y776422D01*
X283585Y776348D01*
X283499Y779846D01*
X286497Y779920D01*
G37*
G36*
X291496Y780043D02*
X291582Y776545D01*
X288584Y776471D01*
X288498Y779969D01*
X291496Y780043D01*
G37*
G36*
X296494Y780165D02*
X296580Y776667D01*
X293582Y776593D01*
X293496Y780091D01*
X296494Y780165D01*
G37*
G36*
X296946Y782177D02*
X293448Y782091D01*
X293374Y785089D01*
X296872Y785175D01*
X296946Y782177D01*
G37*
G36*
X296824Y787176D02*
X293326Y787090D01*
X293252Y790088D01*
X296750Y790174D01*
X296824Y787176D01*
G37*
G36*
X296115Y795660D02*
X296201Y792162D01*
X293203Y792088D01*
X293117Y795586D01*
X296115Y795660D01*
G37*
G36*
X291117Y795538D02*
X291203Y792040D01*
X288205Y791966D01*
X288119Y795464D01*
X291117Y795538D01*
G37*
G36*
X286118Y795416D02*
X286204Y791918D01*
X283206Y791844D01*
X283120Y795342D01*
X286118Y795416D01*
G37*
G36*
X281120Y795294D02*
X281206Y791796D01*
X278208Y791722D01*
X278122Y795220D01*
X281120Y795294D01*
G37*
G36*
X281328Y786797D02*
X277830Y786711D01*
X277756Y789709D01*
X281254Y789795D01*
X281328Y786797D01*
G37*
G36*
X281450Y781799D02*
X277952Y781713D01*
X277878Y784711D01*
X281376Y784797D01*
X281450Y781799D01*
G37*
D19*
X475569Y710902D03*
X480569Y710902D03*
X485569Y710902D03*
X475569Y705902D03*
X480569Y705902D03*
X485569Y705902D03*
X475569Y700902D03*
X480569Y700902D03*
X485569Y700902D03*
D20*
X123273Y935100D03*
X127273Y935100D03*
X131273Y935100D03*
X123273Y931100D03*
X127273Y931100D03*
X131273Y931100D03*
X123273Y927100D03*
X127273Y927100D03*
X131273Y927100D03*
X123273Y923100D03*
X127273Y923100D03*
X131273Y923100D03*
X123273Y919100D03*
X127273Y919100D03*
X131273Y919100D03*
D21*
G36*
X169080Y855996D02*
X162081Y856069D01*
X162112Y859068D01*
X169111Y858995D01*
X169080Y855996D01*
G37*
G36*
X169028Y850997D02*
X162029Y851070D01*
X162060Y854069D01*
X169059Y853996D01*
X169028Y850997D01*
G37*
G36*
X168975Y845997D02*
X161976Y846070D01*
X162007Y849069D01*
X169006Y848996D01*
X168975Y845997D01*
G37*
G36*
X168923Y840997D02*
X161924Y841070D01*
X161955Y844069D01*
X168954Y843996D01*
X168923Y840997D01*
G37*
G36*
X168870Y835998D02*
X161871Y836071D01*
X161902Y839070D01*
X168901Y838997D01*
X168870Y835998D01*
G37*
G36*
X168818Y830998D02*
X161819Y831071D01*
X161850Y834070D01*
X168849Y833997D01*
X168818Y830998D01*
G37*
G36*
X168766Y825998D02*
X161767Y826071D01*
X161798Y829070D01*
X168797Y828997D01*
X168766Y825998D01*
G37*
G36*
X168713Y820998D02*
X161714Y821071D01*
X161745Y824070D01*
X168744Y823997D01*
X168713Y820998D01*
G37*
G36*
X168661Y815999D02*
X161662Y816072D01*
X161693Y819071D01*
X168692Y818998D01*
X168661Y815999D01*
G37*
G36*
X168609Y810999D02*
X161610Y811072D01*
X161641Y814071D01*
X168640Y813998D01*
X168609Y810999D01*
G37*
G36*
X168556Y805999D02*
X161557Y806072D01*
X161588Y809071D01*
X168587Y808998D01*
X168556Y805999D01*
G37*
G36*
X168504Y800999D02*
X161505Y801072D01*
X161536Y804071D01*
X168535Y803998D01*
X168504Y800999D01*
G37*
G36*
X168452Y796000D02*
X161453Y796073D01*
X161484Y799072D01*
X168483Y798999D01*
X168452Y796000D01*
G37*
G36*
X168399Y791000D02*
X161400Y791073D01*
X161431Y794072D01*
X168430Y793999D01*
X168399Y791000D01*
G37*
G36*
X168347Y786000D02*
X161348Y786073D01*
X161379Y789072D01*
X168378Y788999D01*
X168347Y786000D01*
G37*
G36*
X168295Y781001D02*
X161296Y781074D01*
X161327Y784073D01*
X168326Y784000D01*
X168295Y781001D01*
G37*
G36*
X168242Y776001D02*
X161243Y776074D01*
X161274Y779073D01*
X168273Y779000D01*
X168242Y776001D01*
G37*
G36*
X168190Y771001D02*
X161191Y771074D01*
X161222Y774073D01*
X168221Y774000D01*
X168190Y771001D01*
G37*
G36*
X168137Y766001D02*
X161138Y766074D01*
X161169Y769073D01*
X168168Y769000D01*
X168137Y766001D01*
G37*
G36*
X168085Y761002D02*
X161086Y761075D01*
X161117Y764074D01*
X168116Y764001D01*
X168085Y761002D01*
G37*
G36*
X168033Y756002D02*
X161034Y756075D01*
X161065Y759074D01*
X168064Y759001D01*
X168033Y756002D01*
G37*
G36*
X167980Y751002D02*
X160981Y751075D01*
X161012Y754074D01*
X168011Y754001D01*
X167980Y751002D01*
G37*
G36*
X167928Y746002D02*
X160929Y746075D01*
X160960Y749074D01*
X167959Y749001D01*
X167928Y746002D01*
G37*
G36*
X167876Y741003D02*
X160877Y741076D01*
X160908Y744075D01*
X167907Y744002D01*
X167876Y741003D01*
G37*
D22*
G36*
X144164Y864158D02*
X134165Y864263D01*
X134196Y867262D01*
X144195Y867157D01*
X144164Y864158D01*
G37*
G36*
X142794Y733365D02*
X132795Y733470D01*
X132826Y736469D01*
X142825Y736364D01*
X142794Y733365D01*
G37*
D23*
X461969Y893545D03*
X462390Y880852D03*
X449276Y893124D03*
X449697Y880431D03*
X436573Y892703D03*
X436994Y880010D03*
D24*
G36*
X310913Y922160D02*
X313912Y922181D01*
X313993Y910682D01*
X310994Y910661D01*
X310913Y922160D01*
G37*
G36*
X315913Y922195D02*
X318912Y922216D01*
X318993Y910717D01*
X315994Y910696D01*
X315913Y922195D01*
G37*
G36*
X320913Y922230D02*
X323912Y922251D01*
X323993Y910752D01*
X320994Y910731D01*
X320913Y922230D01*
G37*
G36*
X325913Y922265D02*
X328912Y922286D01*
X328993Y910787D01*
X325994Y910766D01*
X325913Y922265D01*
G37*
G36*
X305913Y922125D02*
X308912Y922146D01*
X308993Y910647D01*
X305994Y910626D01*
X305913Y922125D01*
G37*
G36*
X300913Y922090D02*
X303912Y922111D01*
X303993Y910612D01*
X300994Y910591D01*
X300913Y922090D01*
G37*
G36*
X295913Y922055D02*
X298912Y922076D01*
X298993Y910577D01*
X295994Y910556D01*
X295913Y922055D01*
G37*
G36*
X290914Y922020D02*
X293913Y922041D01*
X293994Y910542D01*
X290995Y910521D01*
X290914Y922020D01*
G37*
D25*
G36*
X338912Y922355D02*
X344911Y922397D01*
X344992Y910899D01*
X338993Y910857D01*
X338912Y922355D01*
G37*
G36*
X330913Y922299D02*
X336912Y922341D01*
X336993Y910843D01*
X330994Y910801D01*
X330913Y922299D01*
G37*
G36*
X282914Y921964D02*
X288913Y922006D01*
X288994Y910508D01*
X282995Y910466D01*
X282914Y921964D01*
G37*
G36*
X274914Y921908D02*
X280913Y921950D01*
X280994Y910452D01*
X274995Y910410D01*
X274914Y921908D01*
G37*
D26*
X352822Y963954D03*
X266424Y963351D03*
X353112Y922455D03*
X266714Y921852D03*
D12*
X395523Y795698D03*
X405523Y795698D03*
X322906Y873978D03*
X332906Y873978D03*
G36*
X327756Y858064D02*
X327783Y863063D01*
X333782Y863032D01*
X333755Y858033D01*
X327756Y858064D01*
G37*
G36*
X327703Y848064D02*
X327730Y853063D01*
X333729Y853032D01*
X333702Y848033D01*
X327703Y848064D01*
G37*
X188950Y815767D03*
X198950Y815767D03*
D27*
G36*
X89989Y901831D02*
X67995Y902331D01*
X68267Y914327D01*
X90261Y913827D01*
X89989Y901831D01*
G37*
G36*
X89523Y881276D02*
X67529Y881776D01*
X67801Y893772D01*
X89795Y893272D01*
X89523Y881276D01*
G37*
D28*
X473192Y652410D03*
X473192Y671410D03*
X452192Y661910D03*
D29*
X182546Y878184D03*
X182546Y865184D03*
X203546Y871684D03*
D30*
G36*
X261573Y788489D02*
X258077Y788630D01*
X258177Y791127D01*
X261673Y790986D01*
X261573Y788489D01*
G37*
G36*
X261352Y782993D02*
X257856Y783134D01*
X257956Y785631D01*
X261452Y785490D01*
X261352Y782993D01*
G37*
G36*
X291148Y755194D02*
X291129Y758693D01*
X293628Y758706D01*
X293647Y755207D01*
X291148Y755194D01*
G37*
G36*
X285648Y755166D02*
X285629Y758665D01*
X288128Y758678D01*
X288147Y755179D01*
X285648Y755166D01*
G37*
G36*
X235072Y810585D02*
X238569Y810469D01*
X238486Y807971D01*
X234989Y808087D01*
X235072Y810585D01*
G37*
G36*
X235255Y816082D02*
X238752Y815966D01*
X238669Y813468D01*
X235172Y813584D01*
X235255Y816082D01*
G37*
G36*
X320575Y898854D02*
X324074Y898885D01*
X324095Y896386D01*
X320596Y896355D01*
X320575Y898854D01*
G37*
G36*
X320527Y904354D02*
X324026Y904385D01*
X324047Y901886D01*
X320548Y901855D01*
X320527Y904354D01*
G37*
G36*
X127390Y899148D02*
X127506Y902645D01*
X130004Y902562D01*
X129888Y899065D01*
X127390Y899148D01*
G37*
G36*
X121893Y899330D02*
X122009Y902827D01*
X124507Y902744D01*
X124391Y899247D01*
X121893Y899330D01*
G37*
X181299Y902904D03*
X181299Y897404D03*
G36*
X285349Y895953D02*
X281852Y895831D01*
X281765Y898329D01*
X285262Y898451D01*
X285349Y895953D01*
G37*
G36*
X285541Y890456D02*
X282044Y890334D01*
X281957Y892832D01*
X285454Y892954D01*
X285541Y890456D01*
G37*
D31*
X268602Y778001D03*
X274102Y778001D03*
D30*
X102302Y917505D03*
X102302Y923005D03*
D31*
X270536Y703072D03*
X276036Y703072D03*
D30*
G36*
X358513Y664359D02*
X358458Y667858D01*
X360957Y667897D01*
X361012Y664398D01*
X358513Y664359D01*
G37*
G36*
X353014Y664273D02*
X352959Y667772D01*
X355458Y667811D01*
X355513Y664312D01*
X353014Y664273D01*
G37*
D31*
X288029Y699635D03*
X293529Y699635D03*
D30*
G36*
X274675Y822369D02*
X274656Y825868D01*
X277155Y825881D01*
X277174Y822382D01*
X274675Y822369D01*
G37*
G36*
X269175Y822340D02*
X269156Y825839D01*
X271655Y825852D01*
X271674Y822353D01*
X269175Y822340D01*
G37*
G36*
X486948Y664458D02*
X490446Y664525D01*
X490494Y662026D01*
X486996Y661959D01*
X486948Y664458D01*
G37*
G36*
X486842Y669957D02*
X490340Y670024D01*
X490388Y667525D01*
X486890Y667458D01*
X486842Y669957D01*
G37*
X263357Y665590D03*
X263357Y660090D03*
D32*
X234501Y641799D03*
X249741Y641799D03*
D33*
G36*
X410892Y672227D02*
X418003Y672252D01*
X418042Y661331D01*
X410931Y661306D01*
X410892Y672227D01*
G37*
G36*
X382888Y672129D02*
X389999Y672154D01*
X390038Y661233D01*
X382927Y661208D01*
X382888Y672129D01*
G37*
D34*
G36*
X413638Y658585D02*
X424305Y658622D01*
X424342Y647955D01*
X413675Y647918D01*
X413638Y658585D01*
G37*
G36*
X376682Y658456D02*
X387349Y658493D01*
X387386Y647826D01*
X376719Y647789D01*
X376682Y658456D01*
G37*
D35*
G36*
X393455Y673690D02*
X407424Y673739D01*
X407463Y662818D01*
X393494Y662769D01*
X393455Y673690D01*
G37*
D33*
G36*
X301900Y672108D02*
X309011Y672046D01*
X308916Y661126D01*
X301805Y661188D01*
X301900Y672108D01*
G37*
G36*
X273897Y672352D02*
X281008Y672290D01*
X280913Y661370D01*
X273802Y661432D01*
X273897Y672352D01*
G37*
D34*
G36*
X304479Y658433D02*
X315146Y658340D01*
X315053Y647673D01*
X304386Y647766D01*
X304479Y658433D01*
G37*
G36*
X267524Y658756D02*
X278191Y658663D01*
X278098Y647996D01*
X267431Y648089D01*
X267524Y658756D01*
G37*
D35*
G36*
X284483Y673784D02*
X298452Y673662D01*
X298357Y662742D01*
X284388Y662864D01*
X284483Y673784D01*
G37*
D33*
G36*
X190641Y673221D02*
X197752Y673258D01*
X197809Y662337D01*
X190698Y662300D01*
X190641Y673221D01*
G37*
G36*
X162637Y673074D02*
X169748Y673111D01*
X169805Y662190D01*
X162694Y662153D01*
X162637Y673074D01*
G37*
D34*
G36*
X193411Y659583D02*
X204077Y659639D01*
X204133Y648973D01*
X193467Y648917D01*
X193411Y659583D01*
G37*
G36*
X156455Y659389D02*
X167121Y659445D01*
X167177Y648779D01*
X156511Y648723D01*
X156455Y659389D01*
G37*
D35*
G36*
X173202Y674654D02*
X187171Y674727D01*
X187228Y663806D01*
X173259Y663733D01*
X173202Y674654D01*
G37*
D36*
X414459Y732677D03*
X457565Y957339D03*
X411702Y941090D03*
X381800Y955421D03*
X507950Y699827D03*
X505994Y730412D03*
X424656Y828619D03*
X235217Y874619D03*
X215685Y958373D03*
X496015Y753555D03*
X504811Y826982D03*
X355452Y728371D03*
X399689Y698828D03*
X255776Y893191D03*
D12*
G36*
X214172Y863713D02*
X219171Y863704D01*
X219160Y857705D01*
X214161Y857714D01*
X214172Y863713D01*
G37*
G36*
X204172Y863731D02*
X209171Y863722D01*
X209160Y857723D01*
X204161Y857732D01*
X204172Y863731D01*
G37*
D37*
G36*
X365471Y762990D02*
X316973Y762736D01*
X316719Y811234D01*
X365217Y811488D01*
X365471Y762990D01*
G37*
D17*
X313596Y786968D03*
X313569Y791968D03*
X313543Y796968D03*
X313517Y801968D03*
X313491Y806968D03*
X308478Y809442D03*
X308530Y799442D03*
X308556Y794442D03*
X308583Y789442D03*
X308609Y784442D03*
X313622Y781969D03*
X313648Y776969D03*
X308635Y779442D03*
X308661Y774442D03*
X308687Y769443D03*
X313700Y766969D03*
X313726Y761969D03*
X313766Y754469D03*
X318766Y754495D03*
X321239Y759508D03*
X323766Y754521D03*
X328766Y754547D03*
X333765Y754574D03*
X338765Y754600D03*
X343765Y754626D03*
X348765Y754652D03*
X353765Y754678D03*
X358765Y754705D03*
X363765Y754731D03*
X368765Y754757D03*
X361239Y759718D03*
X356239Y759691D03*
X351239Y759665D03*
X346239Y759639D03*
X341239Y759613D03*
X336239Y759587D03*
X331239Y759560D03*
X368700Y767257D03*
X373713Y764783D03*
X373739Y759783D03*
X373686Y769783D03*
X368673Y772257D03*
X373660Y774783D03*
X368647Y777257D03*
X368621Y782257D03*
X373634Y779783D03*
X373608Y784783D03*
X373582Y789783D03*
X373556Y794783D03*
X368542Y797256D03*
X368516Y802256D03*
X373503Y804782D03*
X368490Y807256D03*
X373451Y814782D03*
X308452Y814442D03*
X320952Y814507D03*
X325951Y814534D03*
X330951Y814560D03*
X333425Y819573D03*
X335951Y814586D03*
X338425Y819599D03*
X340951Y814612D03*
X343425Y819625D03*
X345951Y814638D03*
X348425Y819651D03*
X350951Y814664D03*
X353425Y819677D03*
X355951Y814691D03*
X358425Y819704D03*
X363425Y819730D03*
X368425Y819756D03*
X315952Y814481D03*
X328425Y819547D03*
D38*
X335064Y793081D03*
X323064Y793018D03*
X323001Y805018D03*
X335001Y805081D03*
X347001Y805144D03*
X359001Y805206D03*
X359064Y793207D03*
X347064Y793144D03*
X323127Y781018D03*
X335127Y781081D03*
X347127Y781144D03*
X359126Y781207D03*
X359189Y769207D03*
X347189Y769144D03*
X335190Y769081D03*
X323190Y769018D03*
D39*
X427543Y703988D02*
X434468Y703915D01*
X427543Y703988D02*
X427564Y706013D01*
X434489Y705940D01*
X434468Y703915D01*
X434475Y704556D02*
X427549Y704556D01*
X427556Y705197D02*
X434481Y705197D01*
X434488Y705838D02*
X427562Y705838D01*
X427491Y698989D02*
X434416Y698916D01*
X427491Y698989D02*
X427512Y701014D01*
X434437Y700941D01*
X434416Y698916D01*
X434423Y699557D02*
X427497Y699557D01*
X427504Y700198D02*
X434429Y700198D01*
X434436Y700839D02*
X427510Y700839D01*
X427438Y693989D02*
X434363Y693916D01*
X427438Y693989D02*
X427459Y696014D01*
X434384Y695941D01*
X434363Y693916D01*
X434370Y694557D02*
X427444Y694557D01*
X427451Y695198D02*
X434376Y695198D01*
X434383Y695839D02*
X427457Y695839D01*
X427386Y688989D02*
X434311Y688916D01*
X427386Y688989D02*
X427407Y691014D01*
X434332Y690941D01*
X434311Y688916D01*
X434318Y689557D02*
X427392Y689557D01*
X427399Y690198D02*
X434324Y690198D01*
X434331Y690839D02*
X427405Y690839D01*
X447085Y688783D02*
X454010Y688710D01*
X447085Y688783D02*
X447106Y690808D01*
X454031Y690735D01*
X454010Y688710D01*
X454017Y689351D02*
X447091Y689351D01*
X447098Y689992D02*
X454023Y689992D01*
X454030Y690633D02*
X447104Y690633D01*
X447137Y693783D02*
X454062Y693710D01*
X447137Y693783D02*
X447158Y695808D01*
X454083Y695735D01*
X454062Y693710D01*
X454069Y694351D02*
X447143Y694351D01*
X447150Y694992D02*
X454075Y694992D01*
X454082Y695633D02*
X447156Y695633D01*
X447189Y698782D02*
X454114Y698709D01*
X447189Y698782D02*
X447210Y700807D01*
X454135Y700734D01*
X454114Y698709D01*
X454121Y699350D02*
X447195Y699350D01*
X447202Y699991D02*
X454127Y699991D01*
X454134Y700632D02*
X447208Y700632D01*
X447242Y703782D02*
X454167Y703709D01*
X447242Y703782D02*
X447263Y705807D01*
X454188Y705734D01*
X454167Y703709D01*
X454174Y704350D02*
X447248Y704350D01*
X447255Y704991D02*
X454180Y704991D01*
X454187Y705632D02*
X447261Y705632D01*
D40*
G36*
X445218Y690816D02*
X436220Y690910D01*
X436356Y703908D01*
X445354Y703814D01*
X445218Y690816D01*
G37*
D41*
G36*
X377764Y902716D02*
X387263Y902649D01*
X387204Y894150D01*
X377705Y894217D01*
X377764Y902716D01*
G37*
G36*
X363264Y902817D02*
X372763Y902750D01*
X372704Y894251D01*
X363205Y894318D01*
X363264Y902817D01*
G37*
G36*
X363184Y891317D02*
X372683Y891250D01*
X372624Y882751D01*
X363125Y882818D01*
X363184Y891317D01*
G37*
G36*
X377683Y891216D02*
X387182Y891149D01*
X387123Y882650D01*
X377624Y882717D01*
X377683Y891216D01*
G37*
D42*
X286114Y849982D03*
X311114Y849982D03*
D43*
X145555Y901124D03*
D44*
X128966Y901124D02*
X128697Y900855D01*
X128966Y901124D02*
X145555Y901124D01*
X215685Y955975D02*
X215685Y958373D01*
D45*
X192920Y947956D03*
D44*
X200940Y955975D01*
X215685Y955975D01*
X285041Y778134D02*
X284376Y777469D01*
X284376Y759434D01*
X286888Y756922D01*
X259304Y808805D02*
X259304Y822966D01*
X259047Y823223D01*
D17*
X259615Y808805D03*
D44*
X259304Y808805D02*
X259304Y808805D01*
X259615Y808805D01*
X283893Y776987D02*
X283893Y775343D01*
X283893Y776987D02*
X285041Y778134D01*
X283893Y775343D02*
X275556Y767006D01*
D17*
X262468Y763645D03*
D44*
X265828Y767006D01*
X275556Y767006D01*
D46*
X285148Y786298D03*
D44*
X285499Y778592D02*
X285041Y778134D01*
X285499Y785947D02*
X285148Y786298D01*
X285499Y785947D02*
X285499Y778592D01*
D46*
X302165Y791392D03*
D44*
X305529Y788028D01*
X307168Y788028D02*
X308583Y789442D01*
X307168Y788028D02*
X305529Y788028D01*
D47*
X260989Y831263D02*
X259040Y829313D01*
X259040Y827223D01*
X260989Y844353D02*
X262491Y845854D01*
X260989Y844353D02*
X260989Y831263D01*
D44*
X263762Y823945D02*
X263047Y823230D01*
X263762Y823945D02*
X264406Y823945D01*
X264557Y824096D02*
X270415Y824096D01*
X264557Y824096D02*
X264406Y823945D01*
D17*
X248264Y770512D03*
X302353Y773054D03*
D44*
X251047Y823209D02*
X247151Y819313D01*
X247151Y771624D01*
X248264Y770512D01*
D48*
X313651Y776946D03*
D44*
X313651Y776966D02*
X313648Y776969D01*
X313651Y776966D02*
X313651Y776946D01*
D47*
X313766Y754469D02*
X313766Y745515D01*
X306371Y738120D01*
X305753Y737502D01*
D17*
X241477Y786491D03*
D47*
X243456Y827209D02*
X251040Y827209D01*
X243456Y827209D02*
X242301Y826053D01*
D17*
X257162Y748092D03*
X297820Y748744D03*
D47*
X306371Y740192D02*
X306371Y738120D01*
X306371Y740192D02*
X297820Y748744D01*
X242301Y814778D02*
X242301Y826053D01*
X242301Y814778D02*
X241742Y814219D01*
X241742Y786756D01*
X241477Y786491D01*
X242301Y841304D02*
X236418Y847187D01*
X242301Y841304D02*
X242301Y826053D01*
D17*
X102233Y893143D03*
D44*
X102233Y917436D02*
X102302Y917505D01*
X102233Y917436D02*
X102233Y893143D01*
D17*
X188124Y887812D03*
D44*
X222025Y887812D01*
X235217Y874619D01*
X255047Y784698D02*
X255047Y780319D01*
X255047Y784698D02*
X255047Y823216D01*
X255047Y784698D02*
X259269Y784698D01*
X259654Y784312D01*
D17*
X271532Y788849D03*
D44*
X277126Y783255D02*
X279664Y783255D01*
X277126Y783255D02*
X271532Y788849D01*
D46*
X300047Y797558D03*
D17*
X252117Y780319D03*
X237376Y856811D03*
D44*
X235217Y858970D02*
X235217Y874619D01*
X235217Y858970D02*
X237376Y856811D01*
X252117Y780319D02*
X255047Y780319D01*
X266995Y784312D02*
X271532Y788849D01*
X266995Y784312D02*
X259654Y784312D01*
D48*
X313556Y786958D03*
D44*
X313585Y786958D02*
X313596Y786968D01*
X313585Y786958D02*
X313556Y786958D01*
D47*
X127273Y935100D02*
X123273Y935100D01*
X127273Y935100D02*
X131273Y935100D01*
X125375Y951198D02*
X138064Y963886D01*
X160332Y963886D01*
X125375Y951198D02*
X124699Y951198D01*
X124681Y954596D01*
X122901Y956359D01*
D43*
X139967Y951175D03*
D47*
X139945Y951198D02*
X125375Y951198D01*
X139945Y951198D02*
X139967Y951175D01*
X117623Y956359D02*
X109572Y948307D01*
X104336Y948307D01*
X117623Y956359D02*
X122901Y956359D01*
D43*
X143212Y939572D03*
D47*
X139960Y936320D01*
X132492Y936320D01*
X131273Y935100D01*
X160332Y963886D02*
X231027Y893191D01*
X255111Y893191D01*
X255776Y893191D01*
X255111Y893191D02*
X255111Y827287D01*
X255040Y827216D01*
D43*
X262988Y684070D03*
D44*
X293285Y681375D02*
X293285Y689057D01*
X293285Y681375D02*
X294830Y679830D01*
X208521Y667779D02*
X194225Y667779D01*
X208521Y667779D02*
X234501Y641799D01*
X165334Y776961D02*
X164758Y777537D01*
X165334Y776961D02*
X173598Y776961D01*
X186336Y789698D01*
X186336Y794144D01*
X200127Y780353D01*
X200127Y778903D01*
X199613Y835683D02*
X200736Y835683D01*
X447871Y632675D02*
X447871Y632432D01*
X447871Y632675D02*
X428352Y652194D01*
X263357Y683700D02*
X262988Y684070D01*
X263357Y683700D02*
X263357Y665590D01*
X352822Y922165D02*
X353112Y922455D01*
X325951Y814534D02*
X325951Y813710D01*
X325951Y807968D01*
X323001Y805018D01*
X361951Y802256D02*
X368516Y802256D01*
X361951Y802256D02*
X359001Y805206D01*
X369806Y736478D02*
X371195Y736478D01*
X200127Y769299D02*
X200127Y778903D01*
X200127Y769299D02*
X198074Y767245D01*
X94336Y948307D02*
X94336Y951238D01*
X430775Y689881D02*
X430859Y689965D01*
X436983Y693558D02*
X440787Y697362D01*
X436983Y693558D02*
X436983Y692810D01*
X434138Y689965D01*
X430859Y689965D01*
X203006Y776024D02*
X200127Y778903D01*
X203006Y776024D02*
X216429Y776024D01*
X186336Y794144D02*
X186336Y808158D01*
X199684Y836735D02*
X199684Y845326D01*
X199684Y836735D02*
X200736Y835683D01*
X131273Y927100D02*
X127273Y927100D01*
X184376Y690590D02*
X184376Y688997D01*
X345000Y790000D02*
X347064Y793144D01*
X345000Y790000D02*
X341095Y787112D01*
X181299Y902904D02*
X181299Y915561D01*
X181063Y915796D01*
X389740Y815253D02*
X389740Y810266D01*
X389740Y815253D02*
X390825Y816337D01*
X390825Y818020D01*
X392239Y819434D01*
X127273Y927100D02*
X123273Y927100D01*
X123273Y931100D01*
X381800Y955421D02*
X385000Y955000D01*
X294830Y679830D02*
X298713Y675947D01*
X299413Y675947D02*
X300746Y674613D01*
X299413Y675947D02*
X298713Y675947D01*
X300746Y674613D02*
X300746Y671279D01*
X305408Y666617D01*
X414467Y666779D02*
X420334Y660912D01*
X425253Y660912D01*
X428352Y657813D01*
X428352Y652194D01*
X166456Y821307D02*
X165229Y822534D01*
X166456Y821307D02*
X169663Y821274D01*
X173220Y821274D01*
X186336Y808158D01*
X328970Y787112D02*
X341095Y787112D01*
X328970Y787112D02*
X323064Y793018D01*
X272282Y921852D02*
X266714Y921852D01*
X272282Y921852D02*
X277954Y916180D01*
X376746Y891932D02*
X377404Y891932D01*
X382403Y886933D01*
X370144Y898534D02*
X367984Y898534D01*
X370144Y898534D02*
X376746Y891932D01*
X436573Y892703D02*
X448855Y892703D01*
X449276Y893124D01*
X283749Y891644D02*
X283290Y891186D01*
D43*
X496301Y710840D03*
D44*
X143253Y885366D02*
X143253Y889965D01*
X154230Y900942D01*
D45*
X192495Y913376D03*
D44*
X284785Y793752D02*
X284662Y793630D01*
X284785Y793752D02*
X289661Y793752D01*
X325132Y820890D02*
X327047Y822825D01*
X325132Y820890D02*
X325146Y818168D01*
X327081Y816253D01*
X328059Y823838D02*
X328059Y825673D01*
X328059Y823838D02*
X327047Y822825D01*
X327081Y816253D02*
X327081Y814840D01*
X325951Y813710D01*
D17*
X273480Y817788D03*
X303927Y727712D03*
D44*
X225546Y744384D02*
X225546Y752096D01*
X225546Y744384D02*
X221449Y740287D01*
X165229Y822534D02*
X166397Y823702D01*
X187632Y823702D02*
X199613Y835683D01*
X187632Y823702D02*
X166397Y823702D01*
D45*
X256643Y775409D03*
D44*
X266011Y775409D02*
X268602Y778001D01*
X266011Y775409D02*
X256643Y775409D01*
D46*
X285274Y797870D03*
D43*
X292600Y679034D03*
D44*
X294034Y679034D01*
X294830Y679830D01*
D45*
X285667Y713448D03*
D17*
X281160Y831646D03*
X272407Y861626D03*
X271778Y829662D03*
D44*
X173420Y940816D02*
X160349Y953886D01*
X173420Y940816D02*
X173420Y940141D01*
D46*
X401047Y778021D03*
X389878Y777201D03*
D17*
X95533Y906564D03*
D44*
X90661Y899524D02*
X78662Y887524D01*
X90661Y899524D02*
X90945Y899524D01*
X95533Y904113D01*
X95533Y906564D01*
D17*
X138022Y925344D03*
D44*
X131273Y923100D02*
X127273Y923100D01*
X135779Y923100D02*
X138022Y925344D01*
X135779Y923100D02*
X131273Y923100D01*
D17*
X142221Y930149D03*
D43*
X97526Y928943D03*
D44*
X97526Y926476D02*
X79128Y908079D01*
X97526Y926476D02*
X97526Y928943D01*
X127273Y931100D02*
X131273Y931100D01*
X141270Y931100D02*
X142221Y930149D01*
X141270Y931100D02*
X131273Y931100D01*
X308370Y784442D02*
X308609Y784442D01*
X308370Y784442D02*
X303583Y779655D01*
X300404Y779655D01*
X296426Y783633D01*
X295160Y783633D01*
D17*
X301769Y784757D03*
D44*
X297895Y788632D02*
X295038Y788632D01*
X297895Y788632D02*
X301769Y784757D01*
D46*
X313614Y781967D03*
D44*
X313620Y781967D02*
X313622Y781969D01*
X313620Y781967D02*
X313614Y781967D01*
D47*
X368765Y754757D02*
X369726Y753796D01*
X369726Y741577D01*
X379094Y741577D01*
X380160Y740512D01*
X385997Y734674D02*
X386501Y734674D01*
X385997Y734674D02*
X380160Y740512D01*
X461690Y905894D02*
X457204Y910380D01*
X461690Y905894D02*
X461690Y893824D01*
X461969Y893545D01*
X457204Y956978D02*
X457565Y957339D01*
X457204Y956978D02*
X457204Y910380D01*
X402983Y744154D02*
X414459Y732677D01*
X402983Y744154D02*
X384139Y744154D01*
X380498Y740512D02*
X380160Y740512D01*
X380498Y740512D02*
X384139Y744154D01*
X159330Y896618D02*
X159330Y900925D01*
X159330Y896618D02*
X148346Y885633D01*
X159330Y904063D02*
X171063Y915796D01*
X159330Y904063D02*
X159330Y900925D01*
X131273Y919100D02*
X127273Y919100D01*
X308687Y769443D02*
X311227Y769443D01*
X313700Y766969D01*
D43*
X148420Y916315D03*
X360920Y840704D03*
D47*
X363425Y838199D01*
X363425Y819730D01*
X159330Y900925D02*
X159330Y903955D01*
X148420Y914866D01*
X148420Y916315D01*
X145635Y919100D01*
X131273Y919100D01*
D45*
X152780Y936117D03*
D47*
X156804Y940141D01*
X163420Y940141D01*
D49*
X279664Y795385D02*
X279664Y793508D01*
X279664Y795385D02*
X272016Y803033D01*
D47*
X353055Y848067D02*
X353557Y848067D01*
X360920Y840704D01*
X343765Y754626D02*
X342798Y753659D01*
D17*
X349863Y746734D03*
X361246Y745958D03*
D47*
X343765Y752832D02*
X343765Y754626D01*
X343765Y752832D02*
X349863Y746734D01*
X361246Y745958D02*
X365346Y745958D01*
X369726Y741577D01*
X305437Y754050D02*
X295289Y754050D01*
X292388Y756950D01*
X290528Y777768D02*
X290040Y778257D01*
X290528Y777768D02*
X290528Y775328D01*
X293608Y772248D02*
X293608Y758170D01*
X292388Y756950D01*
X293608Y772248D02*
X292159Y773697D01*
X290528Y775328D01*
X342798Y753659D02*
X342798Y734456D01*
X327833Y719490D01*
X291847Y719490D01*
X276827Y734510D01*
D17*
X288624Y808578D03*
X301516Y815992D03*
D43*
X163972Y874125D03*
D47*
X152464Y885633D02*
X148346Y885633D01*
X152464Y885633D02*
X163972Y874125D01*
X259875Y790892D02*
X272016Y803033D01*
X259875Y790892D02*
X259875Y789808D01*
D43*
X273185Y803418D03*
D49*
X272401Y803418D01*
X272016Y803033D01*
D17*
X301118Y828250D03*
X357262Y825232D03*
D47*
X362444Y820711D02*
X363425Y819730D01*
X362444Y820711D02*
X362444Y821388D01*
X358600Y825232D02*
X357262Y825232D01*
X358600Y825232D02*
X362444Y821388D01*
X308687Y769443D02*
X308687Y757300D01*
X305437Y754050D01*
D43*
X430652Y934342D03*
D47*
X434569Y934342D02*
X457565Y957339D01*
X434569Y934342D02*
X430652Y934342D01*
X292388Y756950D02*
X292388Y750071D01*
X276827Y734510D01*
D48*
X294572Y794442D03*
X297160Y773408D03*
D47*
X296871Y773697D02*
X292159Y773697D01*
X296871Y773697D02*
X297160Y773408D01*
X294572Y802630D02*
X288624Y808578D01*
X294572Y802630D02*
X294572Y794442D01*
D49*
X283464Y803418D02*
X273185Y803418D01*
X283464Y803418D02*
X288624Y808578D01*
X294572Y793961D02*
X294659Y793874D01*
X294572Y793961D02*
X294572Y794442D01*
D47*
X301118Y816390D02*
X301118Y828250D01*
X301118Y816390D02*
X301516Y815992D01*
X306902Y815992D01*
X308452Y814442D01*
D17*
X326119Y758926D03*
X320822Y746394D03*
D44*
X320822Y736530D02*
X321590Y735762D01*
X320822Y736530D02*
X320822Y746394D01*
X326119Y758926D02*
X325536Y759508D01*
X321239Y759508D01*
X431607Y874622D02*
X436994Y880010D01*
X431607Y874622D02*
X431607Y869663D01*
X418720Y856776D01*
X418720Y834555D02*
X424656Y828619D01*
X418720Y834555D02*
X418720Y856776D01*
D43*
X422897Y780042D03*
D44*
X424656Y801580D02*
X424656Y828619D01*
X424656Y801580D02*
X422897Y799821D01*
X422897Y780042D01*
D17*
X379596Y772539D03*
X341207Y759629D03*
D44*
X341224Y759613D02*
X341239Y759613D01*
X341224Y759613D02*
X341207Y759629D01*
X356678Y747850D02*
X359354Y750526D01*
X359560Y750526D01*
X363765Y754731D01*
X356678Y729597D02*
X355452Y728371D01*
X356678Y729597D02*
X356678Y747850D01*
X311114Y833376D02*
X311114Y849982D01*
X311114Y833376D02*
X311607Y832884D01*
X311607Y831201D01*
X313021Y829787D01*
D17*
X303612Y801173D03*
D44*
X313021Y819740D02*
X313021Y829787D01*
D17*
X313011Y819092D03*
D44*
X313011Y819730D02*
X313021Y819740D01*
X313011Y819730D02*
X313011Y819092D01*
X312696Y802789D02*
X305228Y802790D01*
X303612Y801173D01*
X312696Y802789D02*
X313517Y801968D01*
X278430Y842298D02*
X286114Y849982D01*
X284183Y821083D02*
X282370Y821083D01*
X311063Y806725D02*
X313247Y806725D01*
X313491Y806968D01*
X299282Y805985D02*
X284183Y821083D01*
X299282Y805985D02*
X310323Y805985D01*
X311063Y806725D01*
X282370Y821083D02*
X279451Y824001D01*
X279451Y826825D01*
X278430Y835377D02*
X278430Y842298D01*
X278430Y835377D02*
X276592Y833539D01*
X276592Y829685D01*
X279451Y826825D01*
X294018Y831540D02*
X294018Y815796D01*
X308390Y809354D02*
X308478Y809442D01*
X308390Y809354D02*
X300461Y809354D01*
X294018Y815796D01*
X102397Y923100D02*
X102302Y923005D01*
X102397Y923100D02*
X123273Y923100D01*
X123200Y919028D02*
X123200Y901037D01*
X123200Y919028D02*
X123273Y919100D01*
X315952Y814481D02*
X317579Y816108D01*
X322906Y845565D02*
X322906Y873978D01*
X322906Y845565D02*
X324224Y844247D01*
X324224Y835077D01*
X317579Y828431D01*
X317579Y816108D01*
X332906Y862685D02*
X332906Y873978D01*
X332906Y862685D02*
X330769Y860548D01*
X322959Y825673D02*
X321281Y823996D01*
X321281Y814837D01*
X320952Y814507D01*
X400000Y804782D02*
X400378Y804782D01*
X400000Y804782D02*
X373503Y804782D01*
X400378Y804782D02*
X402547Y806951D01*
X335669Y845596D02*
X330716Y850548D01*
X322679Y825954D02*
X322959Y825673D01*
X336799Y844466D02*
X339769Y844466D01*
X336799Y844466D02*
X330716Y850548D01*
X322679Y828431D02*
X322679Y825954D01*
X335669Y841421D02*
X335669Y845596D01*
X335669Y841421D02*
X322679Y828431D01*
X400000Y820000D02*
X400000Y804782D01*
D43*
X400000Y820000D03*
X336893Y835056D03*
D44*
X339769Y837932D01*
X339769Y844466D01*
X348943Y833367D02*
X348943Y824159D01*
X353425Y819677D01*
X449697Y877795D02*
X449697Y880431D01*
X496015Y789699D02*
X496015Y753555D01*
X495430Y754139D01*
X396785Y754139D01*
X386141Y764783D01*
X373713Y764783D01*
X459650Y867842D02*
X449697Y877795D01*
X459650Y867842D02*
X459650Y826063D01*
X496015Y789699D01*
X462390Y874042D02*
X462390Y880852D01*
X462698Y856842D02*
X470323Y849217D01*
X482577Y849217D02*
X504811Y826982D01*
X462698Y873734D02*
X462390Y874042D01*
X470323Y849217D02*
X482577Y849217D01*
X462698Y856842D02*
X462698Y873734D01*
D43*
X510186Y769681D03*
D44*
X510186Y821608D02*
X504811Y826982D01*
X510186Y821608D02*
X510186Y769681D01*
D45*
X387024Y750698D03*
D44*
X377939Y759783D02*
X373739Y759783D01*
X377939Y759783D02*
X387024Y750698D01*
X382326Y784174D02*
X380629Y784174D01*
X380020Y784783D01*
X373608Y784783D01*
X371372Y797256D02*
X372191Y798076D01*
X371372Y797256D02*
X368542Y797256D01*
X393146Y798076D02*
X395523Y795698D01*
X393146Y798076D02*
X372191Y798076D01*
X395523Y795698D02*
X395657Y795564D01*
X395657Y765138D01*
X414863Y764605D02*
X425976Y764607D01*
X414863Y764605D02*
X414558Y764910D01*
X414558Y786663D02*
X405523Y795698D01*
X414558Y786663D02*
X414558Y764910D01*
X425976Y764607D02*
X435755Y764607D01*
X453119Y781971D01*
X371500Y810266D02*
X368490Y807256D01*
X371500Y810266D02*
X384640Y810266D01*
X382257Y823588D02*
X382257Y838395D01*
X382257Y823588D02*
X373451Y814782D01*
X378102Y819434D02*
X387139Y819434D01*
X378102Y819434D02*
X373451Y814782D01*
X388299Y863279D02*
X388371Y873673D01*
X387042Y875021D01*
X388299Y863279D02*
X388299Y844437D01*
X382257Y838395D01*
X389475Y881760D02*
X389475Y892099D01*
X388106Y893469D01*
X387448Y893469D01*
X382484Y898433D01*
X387042Y879326D02*
X387042Y875021D01*
X387042Y879326D02*
X389475Y881760D01*
X367904Y887034D02*
X354441Y873572D01*
X351488Y873572D01*
X352897Y872163D01*
X354592Y872163D01*
X368425Y858331D01*
X368425Y819756D01*
X280043Y778012D02*
X274114Y778012D01*
X274102Y778001D01*
X206666Y860727D02*
X206666Y868564D01*
X203546Y871684D01*
X210493Y827310D02*
X198950Y815767D01*
X210493Y827310D02*
X216445Y827310D01*
X216445Y832599D01*
X221331Y837484D02*
X221331Y842511D01*
X221331Y837484D02*
X216445Y832599D01*
X206666Y857175D02*
X206666Y860727D01*
X206666Y857175D02*
X221331Y842511D01*
D47*
X452192Y661910D02*
X452192Y646995D01*
X447626Y642429D01*
D43*
X417427Y678916D03*
D47*
X434433Y661910D02*
X452192Y661910D01*
X434433Y661910D02*
X417427Y678916D01*
D43*
X193344Y802018D03*
D44*
X193344Y811373D01*
X188950Y815767D01*
D47*
X210192Y757538D02*
X164549Y757538D01*
X210192Y757538D02*
X215547Y752183D01*
X222525Y785625D02*
X215834Y792316D01*
X222525Y785625D02*
X222525Y759161D01*
X215547Y752183D01*
D44*
X227206Y725091D02*
X226554Y724440D01*
X226554Y705509D01*
X227206Y725091D02*
X227206Y741732D01*
X230367Y744893D01*
X230367Y828219D01*
X230338Y828247D01*
X230338Y847037D02*
X216666Y860709D01*
X230338Y847037D02*
X230338Y828247D01*
X169732Y747538D02*
X171476Y745795D01*
X169732Y747538D02*
X164444Y747538D01*
D47*
X175654Y743159D02*
X187124Y743159D01*
X173018Y745795D02*
X171476Y745795D01*
X173018Y745795D02*
X175654Y743159D01*
X192212Y726601D02*
X192212Y724419D01*
X192212Y726601D02*
X175654Y743159D01*
D44*
X174960Y852533D02*
X165544Y852533D01*
X177969Y894075D02*
X181299Y897404D01*
X177969Y894075D02*
X177969Y882761D01*
X182546Y878184D01*
X186142Y874589D01*
X176350Y869970D02*
X175010Y868631D01*
X181523Y869970D02*
X186142Y874589D01*
X181523Y869970D02*
X176350Y869970D01*
X175010Y852583D02*
X174960Y852533D01*
X175010Y852583D02*
X175010Y868631D01*
X263357Y655416D02*
X249741Y641799D01*
X263357Y658871D02*
X263357Y660090D01*
X263357Y658871D02*
X263357Y655416D01*
X236779Y733808D02*
X236779Y809278D01*
X239710Y682519D02*
X263357Y658871D01*
X239710Y730877D02*
X236779Y733808D01*
X239710Y730877D02*
X239710Y682519D01*
X477889Y652410D02*
X488721Y663242D01*
X477889Y652410D02*
X473192Y652410D01*
D43*
X320944Y712388D03*
D47*
X320944Y699334D02*
X354236Y666042D01*
X320944Y699334D02*
X320944Y712388D01*
X293529Y699635D02*
X292303Y700861D01*
X292303Y702637D01*
D44*
X473192Y678809D02*
X473192Y671410D01*
X473192Y678809D02*
X465000Y687002D01*
D43*
X465000Y687002D03*
D47*
X292303Y702637D02*
X290532Y704409D01*
X318517Y709961D02*
X320944Y712388D01*
X318517Y709961D02*
X318517Y707826D01*
X310325Y699635D01*
X293529Y699635D01*
X290532Y704409D02*
X277373Y704409D01*
X276036Y703072D01*
X487546Y685995D02*
X488431Y685109D01*
X487546Y685995D02*
X486991Y686549D01*
X480569Y692972D01*
X480569Y700902D01*
X486991Y686549D02*
X473192Y672750D01*
X473192Y671410D01*
X475861Y668741D02*
X488615Y668741D01*
X475861Y668741D02*
X473192Y671410D01*
D44*
X182546Y855172D02*
X182546Y865184D01*
X182546Y855172D02*
X174907Y847533D01*
X165491Y847533D01*
D45*
X235406Y830346D03*
D44*
X236962Y828791D01*
X236962Y814775D01*
X188559Y865184D02*
X182546Y865184D01*
D43*
X215263Y839998D03*
D44*
X213746Y839998D01*
X188559Y865184D01*
X189684Y845326D02*
X186891Y842533D01*
X165439Y842533D01*
X165386Y837534D02*
X166613Y836307D01*
X170533Y835560D02*
X190736Y835560D01*
X170533Y835560D02*
X169787Y836307D01*
X166613Y836307D01*
X164863Y787536D02*
X174637Y787536D01*
X181236Y794135D01*
X164811Y787484D02*
X164811Y782537D01*
X164811Y787484D02*
X164863Y787536D01*
X164706Y772537D02*
X165282Y771961D01*
X173546Y771961D01*
X180558Y778973D02*
X190127Y778973D01*
X180558Y778973D02*
X173546Y771961D01*
X187764Y767537D02*
X188074Y767228D01*
X187764Y767537D02*
X164653Y767537D01*
X164601Y762538D02*
X184033Y762538D01*
X184634Y761936D01*
X212393Y761936D01*
X216481Y766024D01*
X199303Y752538D02*
X164496Y752538D01*
X199303Y752538D02*
X211450Y740391D01*
X164392Y742539D02*
X136123Y714270D01*
X132604Y714270D01*
X127224Y708890D02*
X126040Y708890D01*
X127224Y708890D02*
X132604Y714270D01*
D47*
X333953Y916571D02*
X335942Y914581D01*
D44*
X342439Y897085D02*
X344084Y897085D01*
D47*
X342439Y897085D02*
X335942Y903581D01*
X335942Y914581D01*
D43*
X331665Y886776D03*
D47*
X341974Y897085D01*
X342439Y897085D01*
D19*
X317645Y864656D03*
D47*
X308383Y864656D01*
X302979Y870060D01*
X302979Y874088D01*
X285954Y909921D02*
X285954Y916236D01*
X285954Y909921D02*
X274053Y898020D01*
X274053Y882733D01*
X274240Y882546D01*
D50*
X279670Y864997D03*
X288366Y864567D03*
D47*
X279670Y872508D02*
X274240Y877938D01*
X274240Y882546D01*
X279670Y872508D02*
X279670Y864997D01*
X298257Y864567D02*
X302979Y869289D01*
X298257Y864567D02*
X288366Y864567D01*
X302979Y869289D02*
X302979Y874088D01*
D44*
X308676Y915163D02*
X307453Y916386D01*
X311821Y906590D02*
X311821Y899328D01*
X308676Y909736D02*
X308676Y915163D01*
X308676Y909736D02*
X311213Y907198D01*
X311821Y906590D01*
X312399Y908384D02*
X314938Y908384D01*
X312399Y908384D02*
X311213Y907198D01*
X317453Y910899D02*
X317453Y916456D01*
X317453Y910899D02*
X314938Y908384D01*
X299948Y908289D02*
X298702Y908289D01*
X295207Y904793D01*
X302453Y910795D02*
X302453Y916351D01*
X302453Y910795D02*
X299948Y908289D01*
X295000Y905000D02*
X295000Y900000D01*
X292828Y898830D01*
X295207Y904793D02*
X295000Y905000D01*
X303621Y917518D02*
X303621Y923075D01*
X304984Y924439D01*
X309863Y924439D01*
X312384Y921917D01*
X303621Y917518D02*
X302453Y916351D01*
X312384Y916490D02*
X312384Y921917D01*
X312384Y916490D02*
X312453Y916421D01*
X292454Y916281D02*
X291286Y915114D01*
X291286Y909557D01*
X288744Y907016D01*
X288671Y907016D01*
X283557Y901902D01*
X283557Y897141D01*
X322453Y903286D02*
X322453Y916491D01*
X322453Y903286D02*
X322287Y903120D01*
D47*
X400826Y699965D02*
X430964Y699965D01*
X400826Y699965D02*
X399689Y698828D01*
X430964Y699965D02*
X430964Y695017D01*
X430911Y694965D01*
X399689Y698828D02*
X397784Y700733D01*
X344461Y700733D01*
X344347Y700847D01*
D44*
X476419Y700052D02*
X476419Y698906D01*
X476419Y700052D02*
X475569Y700902D01*
X476419Y698906D02*
X451251Y699169D01*
X450662Y699758D01*
X486644Y699827D02*
X507950Y699827D01*
X486644Y699827D02*
X485569Y700902D01*
X480569Y710902D02*
X480569Y727256D01*
X478670Y729154D01*
X486484Y710902D02*
X505994Y730412D01*
X486484Y710902D02*
X485569Y710902D01*
X166221Y675942D02*
X166221Y667632D01*
D43*
X246401Y691586D03*
D44*
X179276Y688997D02*
X166221Y675942D01*
X259051Y691586D02*
X270536Y703072D01*
X259051Y691586D02*
X246401Y691586D01*
D50*
X208260Y687792D03*
D44*
X182029Y684561D02*
X180690Y685900D01*
X182029Y684561D02*
X186723Y684561D01*
X180690Y685900D02*
X180690Y687583D01*
X189954Y687792D02*
X208260Y687792D01*
X180690Y687583D02*
X179276Y688997D01*
X186723Y684561D02*
X189954Y687792D01*
X277405Y678277D02*
X288185Y689057D01*
X277405Y678277D02*
X277405Y666861D01*
X288185Y699479D02*
X288029Y699635D01*
X288185Y699479D02*
X288185Y689057D01*
X385738Y683955D02*
X385738Y667073D01*
X386071Y667073D02*
X386463Y666681D01*
X360681Y667073D02*
X359735Y666128D01*
X360681Y667073D02*
X385738Y667073D01*
X386071Y667073D01*
X450715Y704758D02*
X451098Y705141D01*
X464585Y705141D01*
D43*
X465379Y709975D03*
D44*
X465379Y705935D02*
X464585Y705141D01*
X465379Y705935D02*
X465379Y709975D01*
D50*
X480650Y705931D03*
D44*
X480598Y705931D02*
X480569Y705902D01*
X480598Y705931D02*
X480650Y705931D01*
M02*
