G04 EAGLE Gerber RS-274X export*
G75*
%MOMM*%
%FSLAX34Y34*%
%LPD*%
%INCopper Layer 63*%
%IPPOS*%
%AMOC8*
5,1,8,0,0,1.08239X$1,22.5*%
G01*
G04 Define Apertures*
%ADD10C,1.158000*%
%ADD11C,1.066800*%
%ADD12C,0.808000*%
%ADD13C,0.525000*%
%ADD14C,0.300000*%
%ADD15C,0.200000*%
%ADD16C,0.190000*%
%ADD17C,0.310000*%
%ADD18C,0.250000*%
%ADD19C,0.350000*%
D10*
X352822Y963954D03*
X266424Y963351D03*
X353112Y922455D03*
X266714Y921852D03*
D11*
X418990Y653270D03*
X382034Y653141D03*
X309766Y653053D03*
X272811Y653376D03*
X198772Y654278D03*
X161816Y654084D03*
D12*
X335064Y793081D03*
X323064Y793018D03*
X323001Y805018D03*
X335001Y805081D03*
X347001Y805144D03*
X359001Y805206D03*
X359064Y793207D03*
X347064Y793144D03*
X323127Y781018D03*
X335127Y781081D03*
X347127Y781144D03*
X359126Y781207D03*
X359189Y769207D03*
X347189Y769144D03*
X335190Y769081D03*
X323190Y769018D03*
D13*
X145555Y901124D03*
D14*
X192920Y947956D03*
D15*
X259615Y808805D03*
X262468Y763645D03*
D16*
X285148Y786298D03*
X302165Y791392D03*
D15*
X248264Y770512D03*
X302353Y773054D03*
D17*
X313651Y776946D03*
D15*
X241477Y786491D03*
X257162Y748092D03*
X297820Y748744D03*
X102233Y893143D03*
X188124Y887812D03*
X271532Y788849D03*
D16*
X300047Y797558D03*
D15*
X252117Y780319D03*
X237376Y856811D03*
D17*
X313556Y786958D03*
D13*
X139967Y951175D03*
X143212Y939572D03*
X262988Y684070D03*
X496301Y710840D03*
D14*
X192495Y913376D03*
D15*
X273480Y817788D03*
X303927Y727712D03*
D14*
X256643Y775409D03*
D16*
X285274Y797870D03*
D13*
X292600Y679034D03*
D14*
X285667Y713448D03*
D15*
X281160Y831646D03*
X272407Y861626D03*
X271778Y829662D03*
D16*
X401047Y778021D03*
X389878Y777201D03*
D15*
X95533Y906564D03*
X138022Y925344D03*
X142221Y930149D03*
D13*
X97526Y928943D03*
D15*
X301769Y784757D03*
D16*
X313614Y781967D03*
D13*
X148420Y916315D03*
X360920Y840704D03*
D14*
X152780Y936117D03*
D15*
X349863Y746734D03*
X361246Y745958D03*
X288624Y808578D03*
X301516Y815992D03*
D13*
X163972Y874125D03*
X273185Y803418D03*
D15*
X301118Y828250D03*
X357262Y825232D03*
D13*
X430652Y934342D03*
D17*
X294572Y794442D03*
X297160Y773408D03*
D15*
X326119Y758926D03*
X320822Y746394D03*
D13*
X422897Y780042D03*
D15*
X379596Y772539D03*
X341207Y759629D03*
X303612Y801173D03*
X313011Y819092D03*
D13*
X400000Y820000D03*
X336893Y835056D03*
X510186Y769681D03*
D14*
X387024Y750698D03*
D13*
X417427Y678916D03*
X193344Y802018D03*
X320944Y712388D03*
X465000Y687002D03*
D14*
X235406Y830346D03*
D13*
X215263Y839998D03*
X331665Y886776D03*
D18*
X317645Y864656D03*
D19*
X279670Y864997D03*
X288366Y864567D03*
D13*
X246401Y691586D03*
D19*
X208260Y687792D03*
D13*
X465379Y709975D03*
D19*
X480650Y705931D03*
M02*
