G04 EAGLE Gerber RS-274X export*
G75*
%MOMM*%
%FSLAX34Y34*%
%LPD*%
%INSoldermask Top*%
%IPPOS*%
%AMOC8*
5,1,8,0,0,1.08239X$1,22.5*%
G01*
G04 Define Apertures*
%ADD10R,1.353200X2.003200*%
%ADD11R,0.483200X0.633200*%
%ADD12R,0.703200X0.803200*%
%ADD13R,0.633200X0.483200*%
%ADD14R,0.803200X0.703200*%
%ADD15R,1.353200X1.003200*%
%ADD16R,1.403200X0.803200*%
%ADD17C,0.403200*%
%ADD18R,0.553200X0.503200*%
%ADD19C,0.453200*%
%ADD20C,0.419200*%
%ADD21R,0.903200X0.503200*%
%ADD22R,1.203200X0.503200*%
%ADD23C,0.986200*%
%ADD24C,2.654200*%
%ADD25C,1.270200*%
%ADD26R,0.503200X1.353200*%
%ADD27C,0.903200*%
%ADD28R,0.803200X1.353200*%
%ADD29C,1.361200*%
%ADD30R,2.403200X1.403200*%
%ADD31R,1.103200X1.003200*%
%ADD32R,1.253200X0.703200*%
%ADD33R,0.553200X0.453200*%
%ADD34R,0.453200X0.553200*%
%ADD35R,0.152400X1.828800*%
%ADD36R,1.371600X1.803400*%
%ADD37R,0.914400X1.295400*%
%ADD38R,1.270000X1.270000*%
%ADD39R,1.600200X1.295400*%
%ADD40C,2.203200*%
%ADD41R,5.053200X5.053200*%
%ADD42C,0.269722*%
%ADD43R,1.103200X1.503200*%
%ADD44R,1.153200X1.053200*%
%ADD45R,1.203200X2.003200*%
%ADD46C,0.728200*%
%ADD47C,0.553200*%
%ADD48C,0.703200*%
G36*
X265403Y933522D02*
X266632Y933652D01*
X267862Y933539D01*
X269046Y933189D01*
X270139Y932614D01*
X271099Y931838D01*
X271890Y930888D01*
X272479Y929803D01*
X272846Y928624D01*
X272975Y927398D01*
X273052Y916393D01*
X272940Y915166D01*
X272590Y913982D01*
X272015Y912888D01*
X271238Y911928D01*
X270289Y911138D01*
X269204Y910548D01*
X268025Y910181D01*
X266796Y910052D01*
X265566Y910164D01*
X264382Y910515D01*
X263289Y911089D01*
X262329Y911866D01*
X261539Y912815D01*
X260949Y913900D01*
X260582Y915080D01*
X260453Y916305D01*
X260376Y927310D01*
X260488Y928538D01*
X260838Y929722D01*
X261413Y930815D01*
X262190Y931775D01*
X263139Y932566D01*
X264224Y933155D01*
X265403Y933522D01*
G37*
G36*
X351801Y934125D02*
X353030Y934255D01*
X354259Y934142D01*
X355444Y933792D01*
X356537Y933218D01*
X357497Y932441D01*
X358287Y931492D01*
X358877Y930406D01*
X359244Y929227D01*
X359373Y928001D01*
X359450Y916997D01*
X359338Y915769D01*
X358988Y914585D01*
X358413Y913492D01*
X357636Y912531D01*
X356687Y911741D01*
X355602Y911151D01*
X354423Y910785D01*
X353194Y910655D01*
X351964Y910767D01*
X350780Y911118D01*
X349687Y911692D01*
X348727Y912469D01*
X347936Y913418D01*
X347347Y914504D01*
X346980Y915683D01*
X346850Y916909D01*
X346774Y927913D01*
X346886Y929141D01*
X347236Y930325D01*
X347811Y931418D01*
X348588Y932379D01*
X349537Y933169D01*
X350622Y933758D01*
X351801Y934125D01*
G37*
G36*
X265124Y973521D02*
X266352Y973651D01*
X267582Y973538D01*
X268767Y973188D01*
X269860Y972613D01*
X270820Y971837D01*
X271610Y970887D01*
X272200Y969802D01*
X272567Y968623D01*
X272696Y967397D01*
X272752Y959392D01*
X272640Y958165D01*
X272290Y956981D01*
X271715Y955887D01*
X270938Y954927D01*
X269989Y954137D01*
X268904Y953547D01*
X267724Y953180D01*
X266496Y953051D01*
X265266Y953163D01*
X264082Y953514D01*
X262989Y954088D01*
X262028Y954865D01*
X261238Y955814D01*
X260649Y956899D01*
X260282Y958079D01*
X260152Y959304D01*
X260097Y967309D01*
X260209Y968537D01*
X260559Y969721D01*
X261134Y970814D01*
X261910Y971774D01*
X262860Y972565D01*
X263945Y973154D01*
X265124Y973521D01*
G37*
G36*
X351522Y974124D02*
X352750Y974254D01*
X353980Y974141D01*
X355165Y973791D01*
X356258Y973217D01*
X357218Y972440D01*
X358008Y971491D01*
X358598Y970405D01*
X358965Y969226D01*
X359094Y968000D01*
X359150Y959996D01*
X359038Y958768D01*
X358687Y957584D01*
X358113Y956490D01*
X357336Y955530D01*
X356387Y954740D01*
X355302Y954150D01*
X354122Y953784D01*
X352894Y953654D01*
X351664Y953766D01*
X350480Y954117D01*
X349387Y954691D01*
X348426Y955468D01*
X347636Y956417D01*
X347046Y957502D01*
X346680Y958682D01*
X346550Y959908D01*
X346494Y967912D01*
X346607Y969140D01*
X346957Y970324D01*
X347531Y971417D01*
X348308Y972378D01*
X349258Y973168D01*
X350343Y973758D01*
X351522Y974124D01*
G37*
G36*
X412039Y643593D02*
X412015Y650451D01*
X423699Y650492D01*
X423723Y643634D01*
X412039Y643593D01*
G37*
G36*
X268028Y643765D02*
X268088Y650623D01*
X279772Y650521D01*
X279712Y643663D01*
X268028Y643765D01*
G37*
G36*
X157600Y643542D02*
X157565Y650400D01*
X169248Y650461D01*
X169284Y643603D01*
X157600Y643542D01*
G37*
G36*
X192270Y643723D02*
X192234Y650581D01*
X203918Y650642D01*
X203954Y643784D01*
X192270Y643723D01*
G37*
G36*
X302697Y643463D02*
X302757Y650320D01*
X314440Y650218D01*
X314380Y643361D01*
X302697Y643463D01*
G37*
G36*
X377369Y643472D02*
X377345Y650330D01*
X389029Y650371D01*
X389053Y643513D01*
X377369Y643472D01*
G37*
D10*
X453119Y781971D03*
X483119Y781971D03*
D11*
X387139Y819434D03*
X392239Y819434D03*
D12*
G36*
X443698Y638816D02*
X443526Y645845D01*
X451554Y646042D01*
X451726Y639013D01*
X443698Y638816D01*
G37*
G36*
X443943Y628819D02*
X443771Y635848D01*
X451799Y636045D01*
X451971Y629016D01*
X443943Y628819D01*
G37*
D11*
X339769Y844466D03*
X344869Y844466D03*
X384640Y810266D03*
X389740Y810266D03*
G36*
X366599Y739112D02*
X366523Y743942D01*
X372853Y744042D01*
X372929Y739212D01*
X366599Y739112D01*
G37*
G36*
X366679Y734013D02*
X366603Y738843D01*
X372933Y738943D01*
X373009Y734113D01*
X366679Y734013D01*
G37*
X348943Y833367D03*
X354043Y833367D03*
D12*
G36*
X357137Y851505D02*
X357002Y844475D01*
X348973Y844629D01*
X349108Y851659D01*
X357137Y851505D01*
G37*
G36*
X357329Y861503D02*
X357194Y854473D01*
X349165Y854627D01*
X349300Y861657D01*
X357329Y861503D01*
G37*
X402547Y806951D03*
X412547Y806951D03*
D11*
X322959Y825673D03*
X328059Y825673D03*
D13*
X282370Y815983D03*
X282370Y821083D03*
D11*
X307921Y829787D03*
X313021Y829787D03*
G36*
X145768Y888668D02*
X150592Y888921D01*
X150924Y882598D01*
X146100Y882345D01*
X145768Y888668D01*
G37*
G36*
X140675Y888401D02*
X145499Y888654D01*
X145831Y882331D01*
X141007Y882078D01*
X140675Y888401D01*
G37*
G36*
X348327Y871151D02*
X348318Y875982D01*
X354649Y875993D01*
X354658Y871162D01*
X348327Y871151D01*
G37*
G36*
X348336Y866051D02*
X348327Y870882D01*
X354658Y870893D01*
X354667Y866062D01*
X348336Y866051D01*
G37*
D12*
X321590Y735762D03*
X331590Y735762D03*
G36*
X302140Y741430D02*
X309169Y741602D01*
X309366Y733574D01*
X302337Y733402D01*
X302140Y741430D01*
G37*
G36*
X292143Y741186D02*
X299172Y741358D01*
X299369Y733330D01*
X292340Y733158D01*
X292143Y741186D01*
G37*
D11*
G36*
X422761Y762258D02*
X422862Y767088D01*
X429191Y766956D01*
X429090Y762126D01*
X422761Y762258D01*
G37*
G36*
X422654Y757160D02*
X422755Y761990D01*
X429084Y761858D01*
X428983Y757028D01*
X422654Y757160D01*
G37*
G36*
X122707Y948018D02*
X117876Y947993D01*
X117843Y954324D01*
X122674Y954349D01*
X122707Y948018D01*
G37*
G36*
X127807Y948045D02*
X122976Y948020D01*
X122943Y954351D01*
X127774Y954376D01*
X127807Y948045D01*
G37*
D12*
X94336Y948307D03*
X104336Y948307D03*
X163420Y940141D03*
X173420Y940141D03*
D11*
X395657Y765138D03*
X400757Y765138D03*
D12*
X171063Y915796D03*
X181063Y915796D03*
D14*
X262491Y845854D03*
X262491Y855854D03*
D12*
G36*
X240010Y843240D02*
X232980Y843105D01*
X232826Y851134D01*
X239856Y851269D01*
X240010Y843240D01*
G37*
G36*
X250008Y843432D02*
X242978Y843297D01*
X242824Y851326D01*
X249854Y851461D01*
X250008Y843432D01*
G37*
G36*
X156323Y960363D02*
X156310Y967394D01*
X164341Y967409D01*
X164354Y960378D01*
X156323Y960363D01*
G37*
G36*
X156340Y950363D02*
X156327Y957394D01*
X164358Y957409D01*
X164371Y950378D01*
X156340Y950363D01*
G37*
D11*
G36*
X412181Y768105D02*
X417012Y768046D01*
X416935Y761715D01*
X412104Y761774D01*
X412181Y768105D01*
G37*
G36*
X407081Y768168D02*
X411912Y768109D01*
X411835Y761778D01*
X407004Y761837D01*
X407081Y768168D01*
G37*
G36*
X276617Y879351D02*
X271786Y879410D01*
X271863Y885741D01*
X276694Y885682D01*
X276617Y879351D01*
G37*
G36*
X281717Y879289D02*
X276886Y879348D01*
X276963Y885679D01*
X281794Y885620D01*
X281717Y879289D01*
G37*
D12*
X344084Y897085D03*
X354084Y897085D03*
D11*
G36*
X291537Y834654D02*
X296367Y834755D01*
X296499Y828426D01*
X291669Y828325D01*
X291537Y834654D01*
G37*
G36*
X286438Y834548D02*
X291268Y834649D01*
X291400Y828320D01*
X286570Y828219D01*
X286438Y834548D01*
G37*
D12*
G36*
X272781Y731030D02*
X272842Y738060D01*
X280873Y737990D01*
X280812Y730960D01*
X272781Y731030D01*
G37*
G36*
X272694Y721031D02*
X272755Y728061D01*
X280786Y727991D01*
X280725Y720961D01*
X272694Y721031D01*
G37*
D11*
G36*
X156926Y904099D02*
X161757Y904082D01*
X161734Y897751D01*
X156903Y897768D01*
X156926Y904099D01*
G37*
G36*
X151826Y904116D02*
X156657Y904099D01*
X156634Y897768D01*
X151803Y897785D01*
X151826Y904116D01*
G37*
X386501Y734674D03*
X391601Y734674D03*
X382326Y784174D03*
X387426Y784174D03*
D15*
G36*
X220345Y729976D02*
X233874Y730235D01*
X234067Y720206D01*
X220538Y719947D01*
X220345Y729976D01*
G37*
G36*
X185351Y729304D02*
X198880Y729563D01*
X199073Y719534D01*
X185544Y719275D01*
X185351Y729304D01*
G37*
D16*
G36*
X307991Y892210D02*
X307623Y906236D01*
X315651Y906446D01*
X316019Y892420D01*
X307991Y892210D01*
G37*
G36*
X298494Y891961D02*
X298126Y905987D01*
X306154Y906197D01*
X306522Y892171D01*
X298494Y891961D01*
G37*
G36*
X288998Y891712D02*
X288630Y905738D01*
X296658Y905948D01*
X297026Y891922D01*
X288998Y891712D01*
G37*
G36*
X289652Y866721D02*
X289284Y880747D01*
X297312Y880957D01*
X297680Y866931D01*
X289652Y866721D01*
G37*
G36*
X299149Y866970D02*
X298781Y880996D01*
X306809Y881206D01*
X307177Y867180D01*
X299149Y866970D01*
G37*
G36*
X308646Y867218D02*
X308278Y881244D01*
X316306Y881454D01*
X316674Y867428D01*
X308646Y867218D01*
G37*
D15*
X191554Y705509D03*
X226554Y705509D03*
G36*
X220967Y798993D02*
X220731Y785464D01*
X210701Y785639D01*
X210937Y799168D01*
X220967Y798993D01*
G37*
G36*
X221578Y833987D02*
X221342Y820458D01*
X211312Y820633D01*
X211548Y834162D01*
X221578Y833987D01*
G37*
D12*
G36*
X197172Y839655D02*
X204202Y839741D01*
X204300Y831711D01*
X197270Y831625D01*
X197172Y839655D01*
G37*
G36*
X187172Y839532D02*
X194202Y839618D01*
X194300Y831588D01*
X187270Y831502D01*
X187172Y839532D01*
G37*
G36*
X217976Y744339D02*
X225006Y744265D01*
X224922Y736235D01*
X217892Y736309D01*
X217976Y744339D01*
G37*
G36*
X207977Y744443D02*
X215007Y744369D01*
X214923Y736339D01*
X207893Y736413D01*
X207977Y744443D01*
G37*
G36*
X193630Y747140D02*
X200660Y747103D01*
X200618Y739072D01*
X193588Y739109D01*
X193630Y747140D01*
G37*
G36*
X183630Y747193D02*
X190660Y747156D01*
X190618Y739125D01*
X183588Y739162D01*
X183630Y747193D01*
G37*
G36*
X132497Y712951D02*
X139527Y713000D01*
X139583Y704969D01*
X132553Y704920D01*
X132497Y712951D01*
G37*
G36*
X122497Y712881D02*
X129527Y712930D01*
X129583Y704899D01*
X122553Y704850D01*
X122497Y712881D01*
G37*
X199684Y845326D03*
X189684Y845326D03*
D11*
G36*
X183915Y797305D02*
X188746Y797314D01*
X188757Y790983D01*
X183926Y790974D01*
X183915Y797305D01*
G37*
G36*
X178815Y797296D02*
X183646Y797305D01*
X183657Y790974D01*
X178826Y790965D01*
X178815Y797296D01*
G37*
D12*
G36*
X196640Y782943D02*
X203670Y782894D01*
X203614Y774863D01*
X196584Y774912D01*
X196640Y782943D01*
G37*
G36*
X186640Y783013D02*
X193670Y782964D01*
X193614Y774933D01*
X186584Y774982D01*
X186640Y783013D01*
G37*
G36*
X194551Y771254D02*
X201582Y771267D01*
X201597Y763236D01*
X194566Y763223D01*
X194551Y771254D01*
G37*
G36*
X184551Y771237D02*
X191582Y771250D01*
X191597Y763219D01*
X184566Y763206D01*
X184551Y771237D01*
G37*
G36*
X212432Y772488D02*
X212395Y779518D01*
X220426Y779560D01*
X220463Y772530D01*
X212432Y772488D01*
G37*
G36*
X212484Y762488D02*
X212447Y769518D01*
X220478Y769560D01*
X220515Y762530D01*
X212484Y762488D01*
G37*
G36*
X222066Y756142D02*
X229096Y756081D01*
X229026Y748050D01*
X221996Y748111D01*
X222066Y756142D01*
G37*
G36*
X212067Y756229D02*
X219097Y756168D01*
X219027Y748137D01*
X211997Y748198D01*
X212067Y756229D01*
G37*
D17*
X251047Y823209D03*
X251040Y827209D03*
X255047Y823216D03*
X255040Y827216D03*
X259047Y823223D03*
X259040Y827223D03*
X263047Y823230D03*
X263040Y827230D03*
D18*
G36*
X282490Y780838D02*
X282625Y775309D01*
X277596Y775186D01*
X277461Y780715D01*
X282490Y780838D01*
G37*
G36*
X287488Y780960D02*
X287623Y775431D01*
X282594Y775308D01*
X282459Y780837D01*
X287488Y780960D01*
G37*
G36*
X292487Y781083D02*
X292622Y775554D01*
X287593Y775431D01*
X287458Y780960D01*
X292487Y781083D01*
G37*
G36*
X297485Y781205D02*
X297620Y775676D01*
X292591Y775553D01*
X292456Y781082D01*
X297485Y781205D01*
G37*
G36*
X297986Y781186D02*
X292457Y781051D01*
X292334Y786080D01*
X297863Y786215D01*
X297986Y781186D01*
G37*
G36*
X297864Y786185D02*
X292335Y786050D01*
X292212Y791079D01*
X297741Y791214D01*
X297864Y786185D01*
G37*
G36*
X297106Y796700D02*
X297241Y791171D01*
X292212Y791048D01*
X292077Y796577D01*
X297106Y796700D01*
G37*
G36*
X292108Y796578D02*
X292243Y791049D01*
X287214Y790926D01*
X287079Y796455D01*
X292108Y796578D01*
G37*
G36*
X287109Y796456D02*
X287244Y790927D01*
X282215Y790804D01*
X282080Y796333D01*
X287109Y796456D01*
G37*
G36*
X282111Y796334D02*
X282246Y790805D01*
X277217Y790682D01*
X277082Y796211D01*
X282111Y796334D01*
G37*
G36*
X282368Y785806D02*
X276839Y785671D01*
X276716Y790700D01*
X282245Y790835D01*
X282368Y785806D01*
G37*
G36*
X282490Y780808D02*
X276961Y780673D01*
X276838Y785702D01*
X282367Y785837D01*
X282490Y780808D01*
G37*
D19*
X475569Y710902D03*
X480569Y710902D03*
X485569Y710902D03*
X475569Y705902D03*
X480569Y705902D03*
X485569Y705902D03*
X475569Y700902D03*
X480569Y700902D03*
X485569Y700902D03*
D20*
X123273Y935100D03*
X127273Y935100D03*
X131273Y935100D03*
X123273Y931100D03*
X127273Y931100D03*
X131273Y931100D03*
X123273Y927100D03*
X127273Y927100D03*
X131273Y927100D03*
X123273Y923100D03*
X127273Y923100D03*
X131273Y923100D03*
X123273Y919100D03*
X127273Y919100D03*
X131273Y919100D03*
D21*
G36*
X170085Y854969D02*
X161054Y855064D01*
X161107Y860095D01*
X170138Y860000D01*
X170085Y854969D01*
G37*
G36*
X170033Y849970D02*
X161002Y850065D01*
X161055Y855096D01*
X170086Y855001D01*
X170033Y849970D01*
G37*
G36*
X169980Y844970D02*
X160949Y845065D01*
X161002Y850096D01*
X170033Y850001D01*
X169980Y844970D01*
G37*
G36*
X169928Y839970D02*
X160897Y840065D01*
X160950Y845096D01*
X169981Y845001D01*
X169928Y839970D01*
G37*
G36*
X169875Y834971D02*
X160844Y835066D01*
X160897Y840097D01*
X169928Y840002D01*
X169875Y834971D01*
G37*
G36*
X169823Y829971D02*
X160792Y830066D01*
X160845Y835097D01*
X169876Y835002D01*
X169823Y829971D01*
G37*
G36*
X169771Y824971D02*
X160740Y825066D01*
X160793Y830097D01*
X169824Y830002D01*
X169771Y824971D01*
G37*
G36*
X169718Y819971D02*
X160687Y820066D01*
X160740Y825097D01*
X169771Y825002D01*
X169718Y819971D01*
G37*
G36*
X169666Y814972D02*
X160635Y815067D01*
X160688Y820098D01*
X169719Y820003D01*
X169666Y814972D01*
G37*
G36*
X169614Y809972D02*
X160583Y810067D01*
X160636Y815098D01*
X169667Y815003D01*
X169614Y809972D01*
G37*
G36*
X169561Y804972D02*
X160530Y805067D01*
X160583Y810098D01*
X169614Y810003D01*
X169561Y804972D01*
G37*
G36*
X169509Y799972D02*
X160478Y800067D01*
X160531Y805098D01*
X169562Y805003D01*
X169509Y799972D01*
G37*
G36*
X169457Y794973D02*
X160426Y795068D01*
X160479Y800099D01*
X169510Y800004D01*
X169457Y794973D01*
G37*
G36*
X169404Y789973D02*
X160373Y790068D01*
X160426Y795099D01*
X169457Y795004D01*
X169404Y789973D01*
G37*
G36*
X169352Y784973D02*
X160321Y785068D01*
X160374Y790099D01*
X169405Y790004D01*
X169352Y784973D01*
G37*
G36*
X169300Y779974D02*
X160269Y780069D01*
X160322Y785100D01*
X169353Y785005D01*
X169300Y779974D01*
G37*
G36*
X169247Y774974D02*
X160216Y775069D01*
X160269Y780100D01*
X169300Y780005D01*
X169247Y774974D01*
G37*
G36*
X169195Y769974D02*
X160164Y770069D01*
X160217Y775100D01*
X169248Y775005D01*
X169195Y769974D01*
G37*
G36*
X169142Y764974D02*
X160111Y765069D01*
X160164Y770100D01*
X169195Y770005D01*
X169142Y764974D01*
G37*
G36*
X169090Y759975D02*
X160059Y760070D01*
X160112Y765101D01*
X169143Y765006D01*
X169090Y759975D01*
G37*
G36*
X169038Y754975D02*
X160007Y755070D01*
X160060Y760101D01*
X169091Y760006D01*
X169038Y754975D01*
G37*
G36*
X168985Y749975D02*
X159954Y750070D01*
X160007Y755101D01*
X169038Y755006D01*
X168985Y749975D01*
G37*
G36*
X168933Y744975D02*
X159902Y745070D01*
X159955Y750101D01*
X168986Y750006D01*
X168933Y744975D01*
G37*
G36*
X168881Y739976D02*
X159850Y740071D01*
X159903Y745102D01*
X168934Y745007D01*
X168881Y739976D01*
G37*
D22*
G36*
X145169Y863132D02*
X133138Y863258D01*
X133191Y868288D01*
X145222Y868162D01*
X145169Y863132D01*
G37*
G36*
X143799Y732339D02*
X131768Y732465D01*
X131821Y737495D01*
X143852Y737369D01*
X143799Y732339D01*
G37*
D23*
X461969Y893545D03*
X462390Y880852D03*
X449276Y893124D03*
X449697Y880431D03*
X436573Y892703D03*
X436994Y880010D03*
D24*
X474031Y913006D03*
D25*
X474873Y887620D03*
D24*
X475715Y862234D03*
X442298Y911953D03*
X443983Y861181D03*
D25*
X423764Y896090D03*
X424438Y875781D03*
D26*
G36*
X309890Y923169D02*
X314921Y923204D01*
X315016Y909673D01*
X309985Y909638D01*
X309890Y923169D01*
G37*
G36*
X314890Y923204D02*
X319921Y923239D01*
X320016Y909708D01*
X314985Y909673D01*
X314890Y923204D01*
G37*
G36*
X319890Y923239D02*
X324921Y923274D01*
X325016Y909743D01*
X319985Y909708D01*
X319890Y923239D01*
G37*
G36*
X324890Y923274D02*
X329921Y923309D01*
X330016Y909778D01*
X324985Y909743D01*
X324890Y923274D01*
G37*
G36*
X304890Y923134D02*
X309921Y923169D01*
X310016Y909638D01*
X304985Y909603D01*
X304890Y923134D01*
G37*
G36*
X299890Y923099D02*
X304921Y923134D01*
X305016Y909603D01*
X299985Y909568D01*
X299890Y923099D01*
G37*
G36*
X294890Y923064D02*
X299921Y923099D01*
X300016Y909568D01*
X294985Y909533D01*
X294890Y923064D01*
G37*
G36*
X289891Y923029D02*
X294922Y923064D01*
X295017Y909533D01*
X289986Y909498D01*
X289891Y923029D01*
G37*
D27*
X338777Y927355D03*
X280979Y926951D03*
D28*
G36*
X337889Y923364D02*
X345920Y923420D01*
X346015Y909890D01*
X337984Y909834D01*
X337889Y923364D01*
G37*
G36*
X329890Y923308D02*
X337921Y923364D01*
X338016Y909834D01*
X329985Y909778D01*
X329890Y923308D01*
G37*
G36*
X281891Y922973D02*
X289922Y923029D01*
X290017Y909499D01*
X281986Y909443D01*
X281891Y922973D01*
G37*
G36*
X273891Y922917D02*
X281922Y922973D01*
X282017Y909443D01*
X273986Y909387D01*
X273891Y922917D01*
G37*
D29*
X352822Y963954D03*
X266424Y963351D03*
X353112Y922455D03*
X266714Y921852D03*
D12*
X395523Y795698D03*
X405523Y795698D03*
X322906Y873978D03*
X332906Y873978D03*
G36*
X326735Y857054D02*
X326772Y864084D01*
X334803Y864042D01*
X334766Y857012D01*
X326735Y857054D01*
G37*
G36*
X326682Y847054D02*
X326719Y854084D01*
X334750Y854042D01*
X334713Y847012D01*
X326682Y847054D01*
G37*
X188950Y815767D03*
X198950Y815767D03*
D30*
G36*
X90981Y900793D02*
X66956Y901338D01*
X67275Y915365D01*
X91300Y914820D01*
X90981Y900793D01*
G37*
G36*
X90515Y880238D02*
X66490Y880783D01*
X66809Y894810D01*
X90834Y894265D01*
X90515Y880238D01*
G37*
D31*
X473192Y652410D03*
X473192Y671410D03*
X452192Y661910D03*
D32*
X182546Y878184D03*
X182546Y865184D03*
X203546Y871684D03*
D33*
G36*
X262547Y787433D02*
X257021Y787655D01*
X257203Y792183D01*
X262729Y791961D01*
X262547Y787433D01*
G37*
G36*
X262326Y781937D02*
X256800Y782159D01*
X256982Y786687D01*
X262508Y786465D01*
X262326Y781937D01*
G37*
G36*
X290137Y754173D02*
X290108Y759704D01*
X294639Y759727D01*
X294668Y754196D01*
X290137Y754173D01*
G37*
G36*
X284637Y754145D02*
X284608Y759676D01*
X289139Y759699D01*
X289168Y754168D01*
X284637Y754145D01*
G37*
G36*
X234090Y811634D02*
X239618Y811451D01*
X239468Y806922D01*
X233940Y807105D01*
X234090Y811634D01*
G37*
G36*
X234273Y817131D02*
X239801Y816948D01*
X239651Y812419D01*
X234123Y812602D01*
X234273Y817131D01*
G37*
G36*
X319550Y899861D02*
X325081Y899910D01*
X325120Y895379D01*
X319589Y895330D01*
X319550Y899861D01*
G37*
G36*
X319502Y905361D02*
X325033Y905410D01*
X325072Y900879D01*
X319541Y900830D01*
X319502Y905361D01*
G37*
G36*
X126341Y898166D02*
X126524Y903694D01*
X131053Y903544D01*
X130870Y898016D01*
X126341Y898166D01*
G37*
G36*
X120844Y898348D02*
X121027Y903876D01*
X125556Y903726D01*
X125373Y898198D01*
X120844Y898348D01*
G37*
X181299Y902904D03*
X181299Y897404D03*
G36*
X286400Y894973D02*
X280872Y894780D01*
X280714Y899309D01*
X286242Y899502D01*
X286400Y894973D01*
G37*
G36*
X286592Y889476D02*
X281064Y889283D01*
X280906Y893812D01*
X286434Y894005D01*
X286592Y889476D01*
G37*
D34*
X268602Y778001D03*
X274102Y778001D03*
D33*
X102302Y917505D03*
X102302Y923005D03*
D34*
X270536Y703072D03*
X276036Y703072D03*
D33*
G36*
X357513Y663327D02*
X357426Y668858D01*
X361957Y668929D01*
X362044Y663398D01*
X357513Y663327D01*
G37*
G36*
X352014Y663241D02*
X351927Y668772D01*
X356458Y668843D01*
X356545Y663312D01*
X352014Y663241D01*
G37*
D34*
X288029Y699635D03*
X293529Y699635D03*
D33*
G36*
X273664Y821348D02*
X273635Y826879D01*
X278166Y826902D01*
X278195Y821371D01*
X273664Y821348D01*
G37*
G36*
X268164Y821319D02*
X268135Y826850D01*
X272666Y826873D01*
X272695Y821342D01*
X268164Y821319D01*
G37*
G36*
X485913Y665454D02*
X491442Y665560D01*
X491529Y661030D01*
X486000Y660924D01*
X485913Y665454D01*
G37*
G36*
X485807Y670953D02*
X491336Y671059D01*
X491423Y666529D01*
X485894Y666423D01*
X485807Y670953D01*
G37*
X263357Y665590D03*
X263357Y660090D03*
D35*
X242121Y641799D03*
D36*
X234501Y641799D03*
X249741Y641799D03*
D37*
G36*
X409873Y673240D02*
X419016Y673271D01*
X419061Y660318D01*
X409918Y660287D01*
X409873Y673240D01*
G37*
G36*
X381869Y673142D02*
X391012Y673173D01*
X391057Y660220D01*
X381914Y660189D01*
X381869Y673142D01*
G37*
D38*
G36*
X412618Y659597D02*
X425317Y659642D01*
X425362Y646943D01*
X412663Y646898D01*
X412618Y659597D01*
G37*
G36*
X375662Y659468D02*
X388361Y659513D01*
X388406Y646814D01*
X375707Y646769D01*
X375662Y659468D01*
G37*
D39*
G36*
X392436Y674703D02*
X408437Y674758D01*
X408482Y661805D01*
X392481Y661750D01*
X392436Y674703D01*
G37*
D37*
G36*
X300893Y673133D02*
X310036Y673053D01*
X309923Y660101D01*
X300780Y660181D01*
X300893Y673133D01*
G37*
G36*
X272890Y673377D02*
X282033Y673297D01*
X281920Y660345D01*
X272777Y660425D01*
X272890Y673377D01*
G37*
D38*
G36*
X303472Y659458D02*
X316171Y659347D01*
X316060Y646648D01*
X303361Y646759D01*
X303472Y659458D01*
G37*
G36*
X266517Y659781D02*
X279216Y659670D01*
X279105Y646971D01*
X266406Y647082D01*
X266517Y659781D01*
G37*
D39*
G36*
X283476Y674809D02*
X299477Y674669D01*
X299364Y661717D01*
X283363Y661857D01*
X283476Y674809D01*
G37*
D37*
G36*
X190053Y673365D02*
X199196Y673413D01*
X199263Y660461D01*
X190120Y660413D01*
X190053Y673365D01*
G37*
G36*
X162049Y673218D02*
X171192Y673266D01*
X171259Y660314D01*
X162116Y660266D01*
X162049Y673218D01*
G37*
D38*
G36*
X192821Y659728D02*
X205520Y659795D01*
X205587Y647096D01*
X192888Y647029D01*
X192821Y659728D01*
G37*
G36*
X155866Y659534D02*
X168565Y659601D01*
X168632Y646902D01*
X155933Y646835D01*
X155866Y659534D01*
G37*
D39*
G36*
X172614Y674799D02*
X188614Y674882D01*
X188682Y661929D01*
X172682Y661846D01*
X172614Y674799D01*
G37*
D40*
X414459Y732677D03*
X457565Y957339D03*
X411702Y941090D03*
X381800Y955421D03*
X507950Y699827D03*
X505994Y730412D03*
X424656Y828619D03*
X235217Y874619D03*
X215685Y958373D03*
X496015Y753555D03*
X504811Y826982D03*
X355452Y728371D03*
X399689Y698828D03*
X255776Y893191D03*
D12*
G36*
X213158Y864731D02*
X220189Y864718D01*
X220174Y856687D01*
X213143Y856700D01*
X213158Y864731D01*
G37*
G36*
X203158Y864749D02*
X210189Y864736D01*
X210174Y856705D01*
X203143Y856718D01*
X203158Y864749D01*
G37*
D41*
G36*
X366492Y761979D02*
X315962Y761715D01*
X315698Y812245D01*
X366228Y812509D01*
X366492Y761979D01*
G37*
D17*
X313596Y786968D03*
X313569Y791968D03*
X313543Y796968D03*
X313517Y801968D03*
X313491Y806968D03*
X308478Y809442D03*
X308530Y799442D03*
X308556Y794442D03*
X308583Y789442D03*
X308609Y784442D03*
X313622Y781969D03*
X313648Y776969D03*
X308635Y779442D03*
X308661Y774442D03*
X308687Y769443D03*
X313700Y766969D03*
X313726Y761969D03*
X313766Y754469D03*
X318766Y754495D03*
X321239Y759508D03*
X323766Y754521D03*
X328766Y754547D03*
X333765Y754574D03*
X338765Y754600D03*
X343765Y754626D03*
X348765Y754652D03*
X353765Y754678D03*
X358765Y754705D03*
X363765Y754731D03*
X368765Y754757D03*
X361239Y759718D03*
X356239Y759691D03*
X351239Y759665D03*
X346239Y759639D03*
X341239Y759613D03*
X336239Y759587D03*
X331239Y759560D03*
X368700Y767257D03*
X373713Y764783D03*
X373739Y759783D03*
X373686Y769783D03*
X368673Y772257D03*
X373660Y774783D03*
X368647Y777257D03*
X368621Y782257D03*
X373634Y779783D03*
X373608Y784783D03*
X373582Y789783D03*
X373556Y794783D03*
X368542Y797256D03*
X368516Y802256D03*
X373503Y804782D03*
X368490Y807256D03*
X373451Y814782D03*
X308452Y814442D03*
X320952Y814507D03*
X325951Y814534D03*
X330951Y814560D03*
X333425Y819573D03*
X335951Y814586D03*
X338425Y819599D03*
X340951Y814612D03*
X343425Y819625D03*
X345951Y814638D03*
X348425Y819651D03*
X350951Y814664D03*
X353425Y819677D03*
X355951Y814691D03*
X358425Y819704D03*
X363425Y819730D03*
X368425Y819756D03*
X315952Y814481D03*
X328425Y819547D03*
D42*
X427538Y703983D02*
X434473Y703910D01*
X427538Y703983D02*
X427559Y706018D01*
X434494Y705945D01*
X434473Y703910D01*
X434421Y698911D02*
X427486Y698984D01*
X427507Y701019D01*
X434442Y700946D01*
X434421Y698911D01*
X434368Y693911D02*
X427433Y693984D01*
X427454Y696019D01*
X434389Y695946D01*
X434368Y693911D01*
X434316Y688911D02*
X427381Y688984D01*
X427402Y691019D01*
X434337Y690946D01*
X434316Y688911D01*
X447080Y688778D02*
X454015Y688705D01*
X447080Y688778D02*
X447101Y690813D01*
X454036Y690740D01*
X454015Y688705D01*
X454067Y693705D02*
X447132Y693778D01*
X447153Y695813D01*
X454088Y695740D01*
X454067Y693705D01*
X454119Y698704D02*
X447184Y698777D01*
X447205Y700812D01*
X454140Y700739D01*
X454119Y698704D01*
X454172Y703704D02*
X447237Y703777D01*
X447258Y705812D01*
X454193Y705739D01*
X454172Y703704D01*
D43*
G36*
X446223Y689789D02*
X435193Y689905D01*
X435351Y704935D01*
X446381Y704819D01*
X446223Y689789D01*
G37*
D44*
G36*
X376755Y903739D02*
X388286Y903658D01*
X388213Y893127D01*
X376682Y893208D01*
X376755Y903739D01*
G37*
G36*
X362255Y903840D02*
X373786Y903759D01*
X373713Y893228D01*
X362182Y893309D01*
X362255Y903840D01*
G37*
G36*
X362175Y892340D02*
X373706Y892259D01*
X373633Y881728D01*
X362102Y881809D01*
X362175Y892340D01*
G37*
G36*
X376674Y892239D02*
X388205Y892158D01*
X388132Y881627D01*
X376601Y881708D01*
X376674Y892239D01*
G37*
D45*
X286114Y849982D03*
X311114Y849982D03*
D33*
X337239Y706177D03*
X337239Y700677D03*
D34*
X271065Y692979D03*
X276565Y692979D03*
D33*
X480587Y733974D03*
X480587Y728474D03*
X155167Y690830D03*
X155167Y685330D03*
X268723Y675877D03*
X268723Y670377D03*
D34*
X346973Y653914D03*
X352473Y653914D03*
D46*
X145555Y901124D03*
D47*
X192920Y947956D03*
X259615Y808805D03*
X262468Y763645D03*
X285148Y786298D03*
X302165Y791392D03*
X248264Y770512D03*
X302353Y773054D03*
X313516Y776946D03*
X241477Y786491D03*
X257162Y748092D03*
X297820Y748744D03*
X102233Y893143D03*
X188124Y887812D03*
X271532Y788849D03*
X300047Y797558D03*
X252117Y780319D03*
X237376Y856811D03*
X313556Y786958D03*
D46*
X139967Y951175D03*
X143212Y939572D03*
X262988Y684070D03*
X496301Y710840D03*
D47*
X192495Y913376D03*
X273480Y817788D03*
X303927Y727712D03*
X256643Y775409D03*
X286490Y798765D03*
X285667Y713448D03*
X281160Y831646D03*
X272407Y861626D03*
X271778Y829662D03*
X401047Y778021D03*
X389878Y777201D03*
X95533Y906564D03*
X138022Y925344D03*
X142221Y930149D03*
D46*
X97526Y928943D03*
D47*
X302073Y784780D03*
X313556Y781967D03*
D46*
X148420Y916315D03*
X360920Y840704D03*
D47*
X152780Y936117D03*
X349863Y746734D03*
X361246Y745958D03*
X288624Y808578D03*
X301516Y815992D03*
D46*
X163972Y874125D03*
X273185Y803418D03*
D47*
X301118Y828250D03*
X357262Y825232D03*
D46*
X430652Y934342D03*
D47*
X294572Y794442D03*
X297160Y773408D03*
X326119Y758926D03*
D48*
X320822Y746394D03*
D46*
X422897Y780042D03*
D47*
X379596Y772539D03*
X341275Y759528D03*
X303836Y801594D03*
X313011Y819092D03*
D46*
X336893Y835056D03*
X510186Y769681D03*
D47*
X387024Y750698D03*
D46*
X417427Y678916D03*
X320944Y712388D03*
D47*
X235406Y830346D03*
D46*
X215263Y839998D03*
X331665Y886776D03*
D47*
X317645Y864656D03*
X279670Y864997D03*
X288366Y864567D03*
D46*
X246401Y691586D03*
D47*
X208260Y687792D03*
D46*
X465379Y709975D03*
D47*
X480650Y705931D03*
M02*
