G04 EAGLE Gerber RS-274X export*
G75*
%MOMM*%
%FSLAX34Y34*%
%LPD*%
%INSolderpaste Top*%
%IPPOS*%
%AMOC8*
5,1,8,0,0,1.08239X$1,22.5*%
G01*
G04 Define Apertures*
%ADD10R,1.150000X1.800000*%
%ADD11R,0.280000X0.430000*%
%ADD12R,0.500000X0.600000*%
%ADD13R,0.430000X0.280000*%
%ADD14R,0.600000X0.500000*%
%ADD15R,1.150000X0.800000*%
%ADD16R,1.200000X0.600000*%
%ADD17C,0.200000*%
%ADD18R,0.350000X0.300000*%
%ADD19C,0.250000*%
%ADD20C,0.216000*%
%ADD21R,0.700000X0.300000*%
%ADD22R,1.000000X0.300000*%
%ADD23C,0.783000*%
%ADD24R,0.300000X1.150000*%
%ADD25R,0.600000X1.150000*%
%ADD26R,2.200000X1.200000*%
%ADD27R,0.900000X0.800000*%
%ADD28R,1.050000X0.500000*%
%ADD29R,0.350000X0.250000*%
%ADD30R,0.250000X0.350000*%
%ADD31R,1.168400X1.600200*%
%ADD32R,0.711200X1.092200*%
%ADD33R,1.397000X1.092200*%
%ADD34R,4.850000X4.850000*%
%ADD35R,0.560000X0.820000*%
%ADD36C,0.067500*%
%ADD37R,0.950000X0.850000*%
%ADD38R,1.000000X1.800000*%
G36*
X412039Y643593D02*
X412015Y650451D01*
X423699Y650492D01*
X423723Y643634D01*
X412039Y643593D01*
G37*
G36*
X268028Y643765D02*
X268088Y650623D01*
X279772Y650521D01*
X279712Y643663D01*
X268028Y643765D01*
G37*
G36*
X157600Y643542D02*
X157565Y650400D01*
X169248Y650461D01*
X169284Y643603D01*
X157600Y643542D01*
G37*
G36*
X192270Y643723D02*
X192234Y650581D01*
X203918Y650642D01*
X203954Y643784D01*
X192270Y643723D01*
G37*
G36*
X302697Y643463D02*
X302757Y650320D01*
X314440Y650218D01*
X314380Y643361D01*
X302697Y643463D01*
G37*
G36*
X377369Y643472D02*
X377345Y650330D01*
X389029Y650371D01*
X389053Y643513D01*
X377369Y643472D01*
G37*
D10*
X453119Y781971D03*
X483119Y781971D03*
D11*
X387139Y819434D03*
X392239Y819434D03*
D12*
G36*
X444688Y639857D02*
X444566Y644854D01*
X450564Y645001D01*
X450686Y640004D01*
X444688Y639857D01*
G37*
G36*
X444933Y629860D02*
X444811Y634857D01*
X450809Y635004D01*
X450931Y630007D01*
X444933Y629860D01*
G37*
D11*
X339769Y844466D03*
X344869Y844466D03*
X384640Y810266D03*
X389740Y810266D03*
G36*
X367599Y740144D02*
X367555Y742943D01*
X371853Y743010D01*
X371897Y740211D01*
X367599Y740144D01*
G37*
G36*
X367679Y735045D02*
X367635Y737844D01*
X371933Y737911D01*
X371977Y735112D01*
X367679Y735045D01*
G37*
X348943Y833367D03*
X354043Y833367D03*
D12*
G36*
X356102Y850508D02*
X356006Y845510D01*
X350008Y845626D01*
X350104Y850624D01*
X356102Y850508D01*
G37*
G36*
X356294Y860506D02*
X356198Y855508D01*
X350200Y855624D01*
X350296Y860622D01*
X356294Y860506D01*
G37*
X402547Y806951D03*
X412547Y806951D03*
D11*
X322959Y825673D03*
X328059Y825673D03*
D13*
X282370Y815983D03*
X282370Y821083D03*
D11*
X307921Y829787D03*
X313021Y829787D03*
G36*
X146836Y887706D02*
X149631Y887853D01*
X149856Y883560D01*
X147061Y883413D01*
X146836Y887706D01*
G37*
G36*
X141743Y887439D02*
X144538Y887586D01*
X144763Y883293D01*
X141968Y883146D01*
X141743Y887439D01*
G37*
G36*
X349341Y872169D02*
X349336Y874968D01*
X353635Y874975D01*
X353640Y872176D01*
X349341Y872169D01*
G37*
G36*
X349350Y867069D02*
X349345Y869868D01*
X353644Y869875D01*
X353649Y867076D01*
X349350Y867069D01*
G37*
D12*
X321590Y735762D03*
X331590Y735762D03*
G36*
X303181Y740440D02*
X308178Y740562D01*
X308325Y734564D01*
X303328Y734442D01*
X303181Y740440D01*
G37*
G36*
X293184Y740196D02*
X298181Y740318D01*
X298328Y734320D01*
X293331Y734198D01*
X293184Y740196D01*
G37*
D11*
G36*
X423798Y763253D02*
X423856Y766051D01*
X428154Y765961D01*
X428096Y763163D01*
X423798Y763253D01*
G37*
G36*
X423691Y758155D02*
X423749Y760953D01*
X428047Y760863D01*
X427989Y758065D01*
X423691Y758155D01*
G37*
G36*
X121686Y949029D02*
X118887Y949014D01*
X118864Y953313D01*
X121663Y953328D01*
X121686Y949029D01*
G37*
G36*
X126786Y949056D02*
X123987Y949041D01*
X123964Y953340D01*
X126763Y953355D01*
X126786Y949056D01*
G37*
D12*
X94336Y948307D03*
X104336Y948307D03*
X163420Y940141D03*
X173420Y940141D03*
D11*
X395657Y765138D03*
X400757Y765138D03*
D12*
X171063Y915796D03*
X181063Y915796D03*
D14*
X262491Y845854D03*
X262491Y855854D03*
D12*
G36*
X238975Y844236D02*
X233977Y844140D01*
X233861Y850138D01*
X238859Y850234D01*
X238975Y844236D01*
G37*
G36*
X248973Y844428D02*
X243975Y844332D01*
X243859Y850330D01*
X248857Y850426D01*
X248973Y844428D01*
G37*
G36*
X157337Y961381D02*
X157328Y966380D01*
X163327Y966391D01*
X163336Y961392D01*
X157337Y961381D01*
G37*
G36*
X157354Y951381D02*
X157345Y956380D01*
X163344Y956391D01*
X163353Y951392D01*
X157354Y951381D01*
G37*
D11*
G36*
X413185Y767076D02*
X415984Y767042D01*
X415931Y762744D01*
X413132Y762778D01*
X413185Y767076D01*
G37*
G36*
X408085Y767139D02*
X410884Y767105D01*
X410831Y762807D01*
X408032Y762841D01*
X408085Y767139D01*
G37*
G36*
X275613Y880380D02*
X272814Y880414D01*
X272867Y884712D01*
X275666Y884678D01*
X275613Y880380D01*
G37*
G36*
X280713Y880318D02*
X277914Y880352D01*
X277967Y884650D01*
X280766Y884616D01*
X280713Y880318D01*
G37*
D12*
X344084Y897085D03*
X354084Y897085D03*
D11*
G36*
X292574Y833660D02*
X295372Y833718D01*
X295462Y829420D01*
X292664Y829362D01*
X292574Y833660D01*
G37*
G36*
X287475Y833554D02*
X290273Y833612D01*
X290363Y829314D01*
X287565Y829256D01*
X287475Y833554D01*
G37*
D12*
G36*
X273806Y732037D02*
X273849Y737036D01*
X279848Y736983D01*
X279805Y731984D01*
X273806Y732037D01*
G37*
G36*
X273719Y722038D02*
X273762Y727037D01*
X279761Y726984D01*
X279718Y721985D01*
X273719Y722038D01*
G37*
D11*
G36*
X157938Y903079D02*
X160737Y903070D01*
X160722Y898771D01*
X157923Y898780D01*
X157938Y903079D01*
G37*
G36*
X152838Y903096D02*
X155637Y903087D01*
X155622Y898788D01*
X152823Y898797D01*
X152838Y903096D01*
G37*
X386501Y734674D03*
X391601Y734674D03*
X382326Y784174D03*
X387426Y784174D03*
D15*
G36*
X221381Y728979D02*
X232878Y729200D01*
X233031Y721203D01*
X221534Y720982D01*
X221381Y728979D01*
G37*
G36*
X186387Y728307D02*
X197884Y728528D01*
X198037Y720531D01*
X186540Y720310D01*
X186387Y728307D01*
G37*
D16*
G36*
X308980Y893252D02*
X308665Y905247D01*
X314662Y905404D01*
X314977Y893409D01*
X308980Y893252D01*
G37*
G36*
X299483Y893003D02*
X299168Y904998D01*
X305165Y905155D01*
X305480Y893160D01*
X299483Y893003D01*
G37*
G36*
X289987Y892754D02*
X289672Y904749D01*
X295669Y904906D01*
X295984Y892911D01*
X289987Y892754D01*
G37*
G36*
X290641Y867763D02*
X290326Y879758D01*
X296323Y879915D01*
X296638Y867920D01*
X290641Y867763D01*
G37*
G36*
X300138Y868012D02*
X299823Y880007D01*
X305820Y880164D01*
X306135Y868169D01*
X300138Y868012D01*
G37*
G36*
X309635Y868260D02*
X309320Y880255D01*
X315317Y880412D01*
X315632Y868417D01*
X309635Y868260D01*
G37*
D15*
X191554Y705509D03*
X226554Y705509D03*
G36*
X219933Y797995D02*
X219733Y786498D01*
X211735Y786637D01*
X211935Y798134D01*
X219933Y797995D01*
G37*
G36*
X220544Y832989D02*
X220344Y821492D01*
X212346Y821631D01*
X212546Y833128D01*
X220544Y832989D01*
G37*
D12*
G36*
X198200Y838652D02*
X203199Y838713D01*
X203272Y832714D01*
X198273Y832653D01*
X198200Y838652D01*
G37*
G36*
X188200Y838529D02*
X193199Y838590D01*
X193272Y832591D01*
X188273Y832530D01*
X188200Y838529D01*
G37*
G36*
X218981Y743313D02*
X223980Y743260D01*
X223917Y737261D01*
X218918Y737314D01*
X218981Y743313D01*
G37*
G36*
X208982Y743417D02*
X213981Y743364D01*
X213918Y737365D01*
X208919Y737418D01*
X208982Y743417D01*
G37*
G36*
X194640Y746119D02*
X199639Y746092D01*
X199608Y740093D01*
X194609Y740120D01*
X194640Y746119D01*
G37*
G36*
X184640Y746172D02*
X189639Y746145D01*
X189608Y740146D01*
X184609Y740173D01*
X184640Y746172D01*
G37*
G36*
X133520Y711942D02*
X138518Y711977D01*
X138560Y705978D01*
X133562Y705943D01*
X133520Y711942D01*
G37*
G36*
X123520Y711872D02*
X128518Y711907D01*
X128560Y705908D01*
X123562Y705873D01*
X123520Y711872D01*
G37*
X199684Y845326D03*
X189684Y845326D03*
D11*
G36*
X184933Y796291D02*
X187732Y796296D01*
X187739Y791997D01*
X184940Y791992D01*
X184933Y796291D01*
G37*
G36*
X179833Y796282D02*
X182632Y796287D01*
X182639Y791988D01*
X179840Y791983D01*
X179833Y796282D01*
G37*
D12*
G36*
X197649Y781920D02*
X202647Y781885D01*
X202605Y775886D01*
X197607Y775921D01*
X197649Y781920D01*
G37*
G36*
X187649Y781990D02*
X192647Y781955D01*
X192605Y775956D01*
X187607Y775991D01*
X187649Y781990D01*
G37*
G36*
X195569Y770240D02*
X200568Y770249D01*
X200579Y764250D01*
X195580Y764241D01*
X195569Y770240D01*
G37*
G36*
X185569Y770223D02*
X190568Y770232D01*
X190579Y764233D01*
X185580Y764224D01*
X185569Y770223D01*
G37*
G36*
X213443Y773509D02*
X213416Y778508D01*
X219415Y778539D01*
X219442Y773540D01*
X213443Y773509D01*
G37*
G36*
X213495Y763509D02*
X213468Y768508D01*
X219467Y768539D01*
X219494Y763540D01*
X213495Y763509D01*
G37*
G36*
X223073Y755117D02*
X228072Y755074D01*
X228019Y749075D01*
X223020Y749118D01*
X223073Y755117D01*
G37*
G36*
X213074Y755204D02*
X218073Y755161D01*
X218020Y749162D01*
X213021Y749205D01*
X213074Y755204D01*
G37*
D17*
X251047Y823209D03*
X251040Y827209D03*
X255047Y823216D03*
X255040Y827216D03*
X259047Y823223D03*
X259040Y827223D03*
X263047Y823230D03*
X263040Y827230D03*
D18*
G36*
X281499Y779798D02*
X281585Y776300D01*
X278587Y776226D01*
X278501Y779724D01*
X281499Y779798D01*
G37*
G36*
X286497Y779920D02*
X286583Y776422D01*
X283585Y776348D01*
X283499Y779846D01*
X286497Y779920D01*
G37*
G36*
X291496Y780043D02*
X291582Y776545D01*
X288584Y776471D01*
X288498Y779969D01*
X291496Y780043D01*
G37*
G36*
X296494Y780165D02*
X296580Y776667D01*
X293582Y776593D01*
X293496Y780091D01*
X296494Y780165D01*
G37*
G36*
X296946Y782177D02*
X293448Y782091D01*
X293374Y785089D01*
X296872Y785175D01*
X296946Y782177D01*
G37*
G36*
X296824Y787176D02*
X293326Y787090D01*
X293252Y790088D01*
X296750Y790174D01*
X296824Y787176D01*
G37*
G36*
X296115Y795660D02*
X296201Y792162D01*
X293203Y792088D01*
X293117Y795586D01*
X296115Y795660D01*
G37*
G36*
X291117Y795538D02*
X291203Y792040D01*
X288205Y791966D01*
X288119Y795464D01*
X291117Y795538D01*
G37*
G36*
X286118Y795416D02*
X286204Y791918D01*
X283206Y791844D01*
X283120Y795342D01*
X286118Y795416D01*
G37*
G36*
X281120Y795294D02*
X281206Y791796D01*
X278208Y791722D01*
X278122Y795220D01*
X281120Y795294D01*
G37*
G36*
X281328Y786797D02*
X277830Y786711D01*
X277756Y789709D01*
X281254Y789795D01*
X281328Y786797D01*
G37*
G36*
X281450Y781799D02*
X277952Y781713D01*
X277878Y784711D01*
X281376Y784797D01*
X281450Y781799D01*
G37*
D19*
X475569Y710902D03*
X480569Y710902D03*
X485569Y710902D03*
X475569Y705902D03*
X480569Y705902D03*
X485569Y705902D03*
X475569Y700902D03*
X480569Y700902D03*
X485569Y700902D03*
D20*
X123273Y935100D03*
X127273Y935100D03*
X131273Y935100D03*
X123273Y931100D03*
X127273Y931100D03*
X131273Y931100D03*
X123273Y927100D03*
X127273Y927100D03*
X131273Y927100D03*
X123273Y923100D03*
X127273Y923100D03*
X131273Y923100D03*
X123273Y919100D03*
X127273Y919100D03*
X131273Y919100D03*
D21*
G36*
X169080Y855996D02*
X162081Y856069D01*
X162112Y859068D01*
X169111Y858995D01*
X169080Y855996D01*
G37*
G36*
X169028Y850997D02*
X162029Y851070D01*
X162060Y854069D01*
X169059Y853996D01*
X169028Y850997D01*
G37*
G36*
X168975Y845997D02*
X161976Y846070D01*
X162007Y849069D01*
X169006Y848996D01*
X168975Y845997D01*
G37*
G36*
X168923Y840997D02*
X161924Y841070D01*
X161955Y844069D01*
X168954Y843996D01*
X168923Y840997D01*
G37*
G36*
X168870Y835998D02*
X161871Y836071D01*
X161902Y839070D01*
X168901Y838997D01*
X168870Y835998D01*
G37*
G36*
X168818Y830998D02*
X161819Y831071D01*
X161850Y834070D01*
X168849Y833997D01*
X168818Y830998D01*
G37*
G36*
X168766Y825998D02*
X161767Y826071D01*
X161798Y829070D01*
X168797Y828997D01*
X168766Y825998D01*
G37*
G36*
X168713Y820998D02*
X161714Y821071D01*
X161745Y824070D01*
X168744Y823997D01*
X168713Y820998D01*
G37*
G36*
X168661Y815999D02*
X161662Y816072D01*
X161693Y819071D01*
X168692Y818998D01*
X168661Y815999D01*
G37*
G36*
X168609Y810999D02*
X161610Y811072D01*
X161641Y814071D01*
X168640Y813998D01*
X168609Y810999D01*
G37*
G36*
X168556Y805999D02*
X161557Y806072D01*
X161588Y809071D01*
X168587Y808998D01*
X168556Y805999D01*
G37*
G36*
X168504Y800999D02*
X161505Y801072D01*
X161536Y804071D01*
X168535Y803998D01*
X168504Y800999D01*
G37*
G36*
X168452Y796000D02*
X161453Y796073D01*
X161484Y799072D01*
X168483Y798999D01*
X168452Y796000D01*
G37*
G36*
X168399Y791000D02*
X161400Y791073D01*
X161431Y794072D01*
X168430Y793999D01*
X168399Y791000D01*
G37*
G36*
X168347Y786000D02*
X161348Y786073D01*
X161379Y789072D01*
X168378Y788999D01*
X168347Y786000D01*
G37*
G36*
X168295Y781001D02*
X161296Y781074D01*
X161327Y784073D01*
X168326Y784000D01*
X168295Y781001D01*
G37*
G36*
X168242Y776001D02*
X161243Y776074D01*
X161274Y779073D01*
X168273Y779000D01*
X168242Y776001D01*
G37*
G36*
X168190Y771001D02*
X161191Y771074D01*
X161222Y774073D01*
X168221Y774000D01*
X168190Y771001D01*
G37*
G36*
X168137Y766001D02*
X161138Y766074D01*
X161169Y769073D01*
X168168Y769000D01*
X168137Y766001D01*
G37*
G36*
X168085Y761002D02*
X161086Y761075D01*
X161117Y764074D01*
X168116Y764001D01*
X168085Y761002D01*
G37*
G36*
X168033Y756002D02*
X161034Y756075D01*
X161065Y759074D01*
X168064Y759001D01*
X168033Y756002D01*
G37*
G36*
X167980Y751002D02*
X160981Y751075D01*
X161012Y754074D01*
X168011Y754001D01*
X167980Y751002D01*
G37*
G36*
X167928Y746002D02*
X160929Y746075D01*
X160960Y749074D01*
X167959Y749001D01*
X167928Y746002D01*
G37*
G36*
X167876Y741003D02*
X160877Y741076D01*
X160908Y744075D01*
X167907Y744002D01*
X167876Y741003D01*
G37*
D22*
G36*
X144164Y864158D02*
X134165Y864263D01*
X134196Y867262D01*
X144195Y867157D01*
X144164Y864158D01*
G37*
G36*
X142794Y733365D02*
X132795Y733470D01*
X132826Y736469D01*
X142825Y736364D01*
X142794Y733365D01*
G37*
D23*
X461969Y893545D03*
X462390Y880852D03*
X449276Y893124D03*
X449697Y880431D03*
X436573Y892703D03*
X436994Y880010D03*
D24*
G36*
X310913Y922160D02*
X313912Y922181D01*
X313993Y910682D01*
X310994Y910661D01*
X310913Y922160D01*
G37*
G36*
X315913Y922195D02*
X318912Y922216D01*
X318993Y910717D01*
X315994Y910696D01*
X315913Y922195D01*
G37*
G36*
X320913Y922230D02*
X323912Y922251D01*
X323993Y910752D01*
X320994Y910731D01*
X320913Y922230D01*
G37*
G36*
X325913Y922265D02*
X328912Y922286D01*
X328993Y910787D01*
X325994Y910766D01*
X325913Y922265D01*
G37*
G36*
X305913Y922125D02*
X308912Y922146D01*
X308993Y910647D01*
X305994Y910626D01*
X305913Y922125D01*
G37*
G36*
X300913Y922090D02*
X303912Y922111D01*
X303993Y910612D01*
X300994Y910591D01*
X300913Y922090D01*
G37*
G36*
X295913Y922055D02*
X298912Y922076D01*
X298993Y910577D01*
X295994Y910556D01*
X295913Y922055D01*
G37*
G36*
X290914Y922020D02*
X293913Y922041D01*
X293994Y910542D01*
X290995Y910521D01*
X290914Y922020D01*
G37*
D25*
G36*
X338912Y922355D02*
X344911Y922397D01*
X344992Y910899D01*
X338993Y910857D01*
X338912Y922355D01*
G37*
G36*
X330913Y922299D02*
X336912Y922341D01*
X336993Y910843D01*
X330994Y910801D01*
X330913Y922299D01*
G37*
G36*
X282914Y921964D02*
X288913Y922006D01*
X288994Y910508D01*
X282995Y910466D01*
X282914Y921964D01*
G37*
G36*
X274914Y921908D02*
X280913Y921950D01*
X280994Y910452D01*
X274995Y910410D01*
X274914Y921908D01*
G37*
D12*
X395523Y795698D03*
X405523Y795698D03*
X322906Y873978D03*
X332906Y873978D03*
G36*
X327756Y858064D02*
X327783Y863063D01*
X333782Y863032D01*
X333755Y858033D01*
X327756Y858064D01*
G37*
G36*
X327703Y848064D02*
X327730Y853063D01*
X333729Y853032D01*
X333702Y848033D01*
X327703Y848064D01*
G37*
X188950Y815767D03*
X198950Y815767D03*
D26*
G36*
X89989Y901831D02*
X67995Y902331D01*
X68267Y914327D01*
X90261Y913827D01*
X89989Y901831D01*
G37*
G36*
X89523Y881276D02*
X67529Y881776D01*
X67801Y893772D01*
X89795Y893272D01*
X89523Y881276D01*
G37*
D27*
X473192Y652410D03*
X473192Y671410D03*
X452192Y661910D03*
D28*
X182546Y878184D03*
X182546Y865184D03*
X203546Y871684D03*
D29*
G36*
X261573Y788489D02*
X258077Y788630D01*
X258177Y791127D01*
X261673Y790986D01*
X261573Y788489D01*
G37*
G36*
X261352Y782993D02*
X257856Y783134D01*
X257956Y785631D01*
X261452Y785490D01*
X261352Y782993D01*
G37*
G36*
X291148Y755194D02*
X291129Y758693D01*
X293628Y758706D01*
X293647Y755207D01*
X291148Y755194D01*
G37*
G36*
X285648Y755166D02*
X285629Y758665D01*
X288128Y758678D01*
X288147Y755179D01*
X285648Y755166D01*
G37*
G36*
X235072Y810585D02*
X238569Y810469D01*
X238486Y807971D01*
X234989Y808087D01*
X235072Y810585D01*
G37*
G36*
X235255Y816082D02*
X238752Y815966D01*
X238669Y813468D01*
X235172Y813584D01*
X235255Y816082D01*
G37*
G36*
X320575Y898854D02*
X324074Y898885D01*
X324095Y896386D01*
X320596Y896355D01*
X320575Y898854D01*
G37*
G36*
X320527Y904354D02*
X324026Y904385D01*
X324047Y901886D01*
X320548Y901855D01*
X320527Y904354D01*
G37*
G36*
X127390Y899148D02*
X127506Y902645D01*
X130004Y902562D01*
X129888Y899065D01*
X127390Y899148D01*
G37*
G36*
X121893Y899330D02*
X122009Y902827D01*
X124507Y902744D01*
X124391Y899247D01*
X121893Y899330D01*
G37*
X181299Y902904D03*
X181299Y897404D03*
G36*
X285349Y895953D02*
X281852Y895831D01*
X281765Y898329D01*
X285262Y898451D01*
X285349Y895953D01*
G37*
G36*
X285541Y890456D02*
X282044Y890334D01*
X281957Y892832D01*
X285454Y892954D01*
X285541Y890456D01*
G37*
D30*
X268602Y778001D03*
X274102Y778001D03*
D29*
X102302Y917505D03*
X102302Y923005D03*
D30*
X270536Y703072D03*
X276036Y703072D03*
D29*
G36*
X358513Y664359D02*
X358458Y667858D01*
X360957Y667897D01*
X361012Y664398D01*
X358513Y664359D01*
G37*
G36*
X353014Y664273D02*
X352959Y667772D01*
X355458Y667811D01*
X355513Y664312D01*
X353014Y664273D01*
G37*
D30*
X288029Y699635D03*
X293529Y699635D03*
D29*
G36*
X274675Y822369D02*
X274656Y825868D01*
X277155Y825881D01*
X277174Y822382D01*
X274675Y822369D01*
G37*
G36*
X269175Y822340D02*
X269156Y825839D01*
X271655Y825852D01*
X271674Y822353D01*
X269175Y822340D01*
G37*
G36*
X486948Y664458D02*
X490446Y664525D01*
X490494Y662026D01*
X486996Y661959D01*
X486948Y664458D01*
G37*
G36*
X486842Y669957D02*
X490340Y670024D01*
X490388Y667525D01*
X486890Y667458D01*
X486842Y669957D01*
G37*
X263357Y665590D03*
X263357Y660090D03*
D31*
X234501Y641799D03*
X249741Y641799D03*
D32*
G36*
X410892Y672227D02*
X418003Y672252D01*
X418042Y661331D01*
X410931Y661306D01*
X410892Y672227D01*
G37*
G36*
X382888Y672129D02*
X389999Y672154D01*
X390038Y661233D01*
X382927Y661208D01*
X382888Y672129D01*
G37*
D33*
G36*
X393455Y673690D02*
X407424Y673739D01*
X407463Y662818D01*
X393494Y662769D01*
X393455Y673690D01*
G37*
D32*
G36*
X301900Y672108D02*
X309011Y672046D01*
X308916Y661126D01*
X301805Y661188D01*
X301900Y672108D01*
G37*
G36*
X273897Y672352D02*
X281008Y672290D01*
X280913Y661370D01*
X273802Y661432D01*
X273897Y672352D01*
G37*
D33*
G36*
X284483Y673784D02*
X298452Y673662D01*
X298357Y662742D01*
X284388Y662864D01*
X284483Y673784D01*
G37*
D32*
G36*
X191074Y672355D02*
X198185Y672392D01*
X198242Y661471D01*
X191131Y661434D01*
X191074Y672355D01*
G37*
G36*
X163070Y672208D02*
X170181Y672245D01*
X170238Y661324D01*
X163127Y661287D01*
X163070Y672208D01*
G37*
D33*
G36*
X173635Y673788D02*
X187604Y673861D01*
X187661Y662940D01*
X173692Y662867D01*
X173635Y673788D01*
G37*
D12*
G36*
X214172Y863713D02*
X219171Y863704D01*
X219160Y857705D01*
X214161Y857714D01*
X214172Y863713D01*
G37*
G36*
X204172Y863731D02*
X209171Y863722D01*
X209160Y857723D01*
X204161Y857732D01*
X204172Y863731D01*
G37*
D34*
G36*
X365471Y762990D02*
X316973Y762736D01*
X316719Y811234D01*
X365217Y811488D01*
X365471Y762990D01*
G37*
D17*
X313596Y786968D03*
X313569Y791968D03*
X313543Y796968D03*
X313517Y801968D03*
X313491Y806968D03*
X308478Y809442D03*
X308530Y799442D03*
X308556Y794442D03*
X308583Y789442D03*
X308609Y784442D03*
X313622Y781969D03*
X313648Y776969D03*
X308635Y779442D03*
X308661Y774442D03*
X308687Y769443D03*
X313700Y766969D03*
X313726Y761969D03*
X313766Y754469D03*
X318766Y754495D03*
X321239Y759508D03*
X323766Y754521D03*
X328766Y754547D03*
X333765Y754574D03*
X338765Y754600D03*
X343765Y754626D03*
X348765Y754652D03*
X353765Y754678D03*
X358765Y754705D03*
X363765Y754731D03*
X368765Y754757D03*
X361239Y759718D03*
X356239Y759691D03*
X351239Y759665D03*
X346239Y759639D03*
X341239Y759613D03*
X336239Y759587D03*
X331239Y759560D03*
X368700Y767257D03*
X373713Y764783D03*
X373739Y759783D03*
X373686Y769783D03*
X368673Y772257D03*
X373660Y774783D03*
X368647Y777257D03*
X368621Y782257D03*
X373634Y779783D03*
X373608Y784783D03*
X373582Y789783D03*
X373556Y794783D03*
X368542Y797256D03*
X368516Y802256D03*
X373503Y804782D03*
X368490Y807256D03*
X373451Y814782D03*
X308452Y814442D03*
X320952Y814507D03*
X325951Y814534D03*
X330951Y814560D03*
X333425Y819573D03*
X335951Y814586D03*
X338425Y819599D03*
X340951Y814612D03*
X343425Y819625D03*
X345951Y814638D03*
X348425Y819651D03*
X350951Y814664D03*
X353425Y819677D03*
X355951Y814691D03*
X358425Y819704D03*
X363425Y819730D03*
X368425Y819756D03*
X315952Y814481D03*
X328425Y819547D03*
D35*
G36*
X443543Y693233D02*
X437945Y693292D01*
X438031Y701491D01*
X443629Y701432D01*
X443543Y693233D01*
G37*
D36*
X434468Y703915D02*
X427543Y703988D01*
X427564Y706013D01*
X434489Y705940D01*
X434468Y703915D01*
X434475Y704556D02*
X427549Y704556D01*
X427556Y705197D02*
X434481Y705197D01*
X434488Y705838D02*
X427562Y705838D01*
X427491Y698989D02*
X434416Y698916D01*
X427491Y698989D02*
X427512Y701014D01*
X434437Y700941D01*
X434416Y698916D01*
X434423Y699557D02*
X427497Y699557D01*
X427504Y700198D02*
X434429Y700198D01*
X434436Y700839D02*
X427510Y700839D01*
X427438Y693989D02*
X434363Y693916D01*
X427438Y693989D02*
X427459Y696014D01*
X434384Y695941D01*
X434363Y693916D01*
X434370Y694557D02*
X427444Y694557D01*
X427451Y695198D02*
X434376Y695198D01*
X434383Y695839D02*
X427457Y695839D01*
X427386Y688989D02*
X434311Y688916D01*
X427386Y688989D02*
X427407Y691014D01*
X434332Y690941D01*
X434311Y688916D01*
X434318Y689557D02*
X427392Y689557D01*
X427399Y690198D02*
X434324Y690198D01*
X434331Y690839D02*
X427405Y690839D01*
X447085Y688783D02*
X454010Y688710D01*
X447085Y688783D02*
X447106Y690808D01*
X454031Y690735D01*
X454010Y688710D01*
X454017Y689351D02*
X447091Y689351D01*
X447098Y689992D02*
X454023Y689992D01*
X454030Y690633D02*
X447104Y690633D01*
X447137Y693783D02*
X454062Y693710D01*
X447137Y693783D02*
X447158Y695808D01*
X454083Y695735D01*
X454062Y693710D01*
X454069Y694351D02*
X447143Y694351D01*
X447150Y694992D02*
X454075Y694992D01*
X454082Y695633D02*
X447156Y695633D01*
X447189Y698782D02*
X454114Y698709D01*
X447189Y698782D02*
X447210Y700807D01*
X454135Y700734D01*
X454114Y698709D01*
X454121Y699350D02*
X447195Y699350D01*
X447202Y699991D02*
X454127Y699991D01*
X454134Y700632D02*
X447208Y700632D01*
X447242Y703782D02*
X454167Y703709D01*
X447242Y703782D02*
X447263Y705807D01*
X454188Y705734D01*
X454167Y703709D01*
X454174Y704350D02*
X447248Y704350D01*
X447255Y704991D02*
X454180Y704991D01*
X454187Y705632D02*
X447261Y705632D01*
D37*
G36*
X377764Y902716D02*
X387263Y902649D01*
X387204Y894150D01*
X377705Y894217D01*
X377764Y902716D01*
G37*
G36*
X363264Y902817D02*
X372763Y902750D01*
X372704Y894251D01*
X363205Y894318D01*
X363264Y902817D01*
G37*
G36*
X363184Y891317D02*
X372683Y891250D01*
X372624Y882751D01*
X363125Y882818D01*
X363184Y891317D01*
G37*
G36*
X377683Y891216D02*
X387182Y891149D01*
X387123Y882650D01*
X377624Y882717D01*
X377683Y891216D01*
G37*
D38*
X286114Y849982D03*
X311114Y849982D03*
D29*
X337239Y706177D03*
X337239Y700677D03*
D30*
X271065Y692979D03*
X276565Y692979D03*
D29*
X480587Y733974D03*
X480587Y728474D03*
X155167Y690830D03*
X155167Y685330D03*
X268723Y675877D03*
X268723Y670377D03*
D30*
X346973Y653914D03*
X352473Y653914D03*
M02*
