G04 EAGLE Gerber RS-274X export*
G75*
%MOMM*%
%FSLAX34Y34*%
%LPD*%
%INSoldermask Bottom*%
%IPPOS*%
%AMOC8*
5,1,8,0,0,1.08239X$1,22.5*%
G01*
G04 Define Apertures*
%ADD10C,2.654200*%
%ADD11C,1.270200*%
%ADD12C,0.903200*%
%ADD13C,1.361200*%
%ADD14R,1.270000X1.270000*%
%ADD15C,0.728200*%
%ADD16C,0.553200*%
%ADD17C,0.703200*%
G36*
X265403Y933522D02*
X266632Y933652D01*
X267862Y933539D01*
X269046Y933189D01*
X270139Y932614D01*
X271099Y931838D01*
X271890Y930888D01*
X272479Y929803D01*
X272846Y928624D01*
X272975Y927398D01*
X273052Y916393D01*
X272940Y915166D01*
X272590Y913982D01*
X272015Y912888D01*
X271238Y911928D01*
X270289Y911138D01*
X269204Y910548D01*
X268025Y910181D01*
X266796Y910052D01*
X265566Y910164D01*
X264382Y910515D01*
X263289Y911089D01*
X262329Y911866D01*
X261539Y912815D01*
X260949Y913900D01*
X260582Y915080D01*
X260453Y916305D01*
X260376Y927310D01*
X260488Y928538D01*
X260838Y929722D01*
X261413Y930815D01*
X262190Y931775D01*
X263139Y932566D01*
X264224Y933155D01*
X265403Y933522D01*
G37*
G36*
X351801Y934125D02*
X353030Y934255D01*
X354259Y934142D01*
X355444Y933792D01*
X356537Y933218D01*
X357497Y932441D01*
X358287Y931492D01*
X358877Y930406D01*
X359244Y929227D01*
X359373Y928001D01*
X359450Y916997D01*
X359338Y915769D01*
X358988Y914585D01*
X358413Y913492D01*
X357636Y912531D01*
X356687Y911741D01*
X355602Y911151D01*
X354423Y910785D01*
X353194Y910655D01*
X351964Y910767D01*
X350780Y911118D01*
X349687Y911692D01*
X348727Y912469D01*
X347936Y913418D01*
X347347Y914504D01*
X346980Y915683D01*
X346850Y916909D01*
X346774Y927913D01*
X346886Y929141D01*
X347236Y930325D01*
X347811Y931418D01*
X348588Y932379D01*
X349537Y933169D01*
X350622Y933758D01*
X351801Y934125D01*
G37*
G36*
X265124Y973521D02*
X266352Y973651D01*
X267582Y973538D01*
X268767Y973188D01*
X269860Y972613D01*
X270820Y971837D01*
X271610Y970887D01*
X272200Y969802D01*
X272567Y968623D01*
X272696Y967397D01*
X272752Y959392D01*
X272640Y958165D01*
X272290Y956981D01*
X271715Y955887D01*
X270938Y954927D01*
X269989Y954137D01*
X268904Y953547D01*
X267724Y953180D01*
X266496Y953051D01*
X265266Y953163D01*
X264082Y953514D01*
X262989Y954088D01*
X262028Y954865D01*
X261238Y955814D01*
X260649Y956899D01*
X260282Y958079D01*
X260152Y959304D01*
X260097Y967309D01*
X260209Y968537D01*
X260559Y969721D01*
X261134Y970814D01*
X261910Y971774D01*
X262860Y972565D01*
X263945Y973154D01*
X265124Y973521D01*
G37*
G36*
X351522Y974124D02*
X352750Y974254D01*
X353980Y974141D01*
X355165Y973791D01*
X356258Y973217D01*
X357218Y972440D01*
X358008Y971491D01*
X358598Y970405D01*
X358965Y969226D01*
X359094Y968000D01*
X359150Y959996D01*
X359038Y958768D01*
X358687Y957584D01*
X358113Y956490D01*
X357336Y955530D01*
X356387Y954740D01*
X355302Y954150D01*
X354122Y953784D01*
X352894Y953654D01*
X351664Y953766D01*
X350480Y954117D01*
X349387Y954691D01*
X348426Y955468D01*
X347636Y956417D01*
X347046Y957502D01*
X346680Y958682D01*
X346550Y959908D01*
X346494Y967912D01*
X346607Y969140D01*
X346957Y970324D01*
X347531Y971417D01*
X348308Y972378D01*
X349258Y973168D01*
X350343Y973758D01*
X351522Y974124D01*
G37*
D10*
X474031Y913006D03*
D11*
X474873Y887620D03*
D10*
X475715Y862234D03*
X442298Y911953D03*
X443983Y861181D03*
D11*
X423764Y896090D03*
X424438Y875781D03*
D12*
X338777Y927355D03*
X280979Y926951D03*
D13*
X352822Y963954D03*
X266424Y963351D03*
X353112Y922455D03*
X266714Y921852D03*
D14*
G36*
X412618Y659597D02*
X425317Y659642D01*
X425362Y646943D01*
X412663Y646898D01*
X412618Y659597D01*
G37*
G36*
X375662Y659468D02*
X388361Y659513D01*
X388406Y646814D01*
X375707Y646769D01*
X375662Y659468D01*
G37*
G36*
X303472Y659458D02*
X316171Y659347D01*
X316060Y646648D01*
X303361Y646759D01*
X303472Y659458D01*
G37*
G36*
X266517Y659781D02*
X279216Y659670D01*
X279105Y646971D01*
X266406Y647082D01*
X266517Y659781D01*
G37*
G36*
X192821Y659728D02*
X205520Y659795D01*
X205587Y647096D01*
X192888Y647029D01*
X192821Y659728D01*
G37*
G36*
X155866Y659534D02*
X168565Y659601D01*
X168632Y646902D01*
X155933Y646835D01*
X155866Y659534D01*
G37*
D15*
X145555Y901124D03*
D16*
X192920Y947956D03*
X259615Y808805D03*
X262468Y763645D03*
X285148Y786298D03*
X302165Y791392D03*
X248264Y770512D03*
X302353Y773054D03*
X313516Y776946D03*
X241477Y786491D03*
X257162Y748092D03*
X297820Y748744D03*
X102233Y893143D03*
X188124Y887812D03*
X271532Y788849D03*
X300047Y797558D03*
X252117Y780319D03*
X237376Y856811D03*
X313556Y786958D03*
D15*
X139967Y951175D03*
X143212Y939572D03*
X262988Y684070D03*
X496301Y710840D03*
D16*
X192495Y913376D03*
X273480Y817788D03*
X303927Y727712D03*
X256643Y775409D03*
X286490Y798765D03*
X285667Y713448D03*
X281160Y831646D03*
X272407Y861626D03*
X271778Y829662D03*
X401047Y778021D03*
X389878Y777201D03*
X95533Y906564D03*
X138022Y925344D03*
X142221Y930149D03*
D15*
X97526Y928943D03*
D16*
X302073Y784780D03*
X313556Y781967D03*
D15*
X148420Y916315D03*
X360920Y840704D03*
D16*
X152780Y936117D03*
X349863Y746734D03*
X361246Y745958D03*
X288624Y808578D03*
X301516Y815992D03*
D15*
X163972Y874125D03*
X273185Y803418D03*
D16*
X301118Y828250D03*
X357262Y825232D03*
D15*
X430652Y934342D03*
D16*
X294572Y794442D03*
X297160Y773408D03*
X326119Y758926D03*
D17*
X320822Y746394D03*
D15*
X422897Y780042D03*
D16*
X379596Y772539D03*
X341275Y759528D03*
X303836Y801594D03*
X313011Y819092D03*
D15*
X336893Y835056D03*
X510186Y769681D03*
D16*
X387024Y750698D03*
D15*
X417427Y678916D03*
X320944Y712388D03*
D16*
X235406Y830346D03*
D15*
X215263Y839998D03*
X331665Y886776D03*
D16*
X317645Y864656D03*
X279670Y864997D03*
X288366Y864567D03*
D15*
X246401Y691586D03*
D16*
X208260Y687792D03*
D15*
X465379Y709975D03*
D16*
X480650Y705931D03*
M02*
